%TF.GenerationSoftware,KiCad,Pcbnew,7.0.6-0*%
%TF.CreationDate,2024-01-22T13:27:35-05:00*%
%TF.ProjectId,regulators,72656775-6c61-4746-9f72-732e6b696361,rev?*%
%TF.SameCoordinates,Original*%
%TF.FileFunction,Legend,Top*%
%TF.FilePolarity,Positive*%
%FSLAX46Y46*%
G04 Gerber Fmt 4.6, Leading zero omitted, Abs format (unit mm)*
G04 Created by KiCad (PCBNEW 7.0.6-0) date 2024-01-22 13:27:35*
%MOMM*%
%LPD*%
G01*
G04 APERTURE LIST*
%ADD10C,0.150000*%
%ADD11C,0.100000*%
%ADD12C,0.254000*%
%ADD13C,0.120000*%
%ADD14C,0.200000*%
G04 APERTURE END LIST*
D10*
X98253779Y-71243866D02*
X99015684Y-71243866D01*
X98634731Y-71624819D02*
X98634731Y-70862914D01*
X99396636Y-70624819D02*
X100015683Y-70624819D01*
X100015683Y-70624819D02*
X99682350Y-71005771D01*
X99682350Y-71005771D02*
X99825207Y-71005771D01*
X99825207Y-71005771D02*
X99920445Y-71053390D01*
X99920445Y-71053390D02*
X99968064Y-71101009D01*
X99968064Y-71101009D02*
X100015683Y-71196247D01*
X100015683Y-71196247D02*
X100015683Y-71434342D01*
X100015683Y-71434342D02*
X99968064Y-71529580D01*
X99968064Y-71529580D02*
X99920445Y-71577200D01*
X99920445Y-71577200D02*
X99825207Y-71624819D01*
X99825207Y-71624819D02*
X99539493Y-71624819D01*
X99539493Y-71624819D02*
X99444255Y-71577200D01*
X99444255Y-71577200D02*
X99396636Y-71529580D01*
X100444255Y-71529580D02*
X100491874Y-71577200D01*
X100491874Y-71577200D02*
X100444255Y-71624819D01*
X100444255Y-71624819D02*
X100396636Y-71577200D01*
X100396636Y-71577200D02*
X100444255Y-71529580D01*
X100444255Y-71529580D02*
X100444255Y-71624819D01*
X100825207Y-70624819D02*
X101491873Y-70624819D01*
X101491873Y-70624819D02*
X101063302Y-71624819D01*
X101729969Y-70624819D02*
X102063302Y-71624819D01*
X102063302Y-71624819D02*
X102396635Y-70624819D01*
D11*
X78289836Y-50867133D02*
X78670789Y-50867133D01*
X78480312Y-51057609D02*
X78480312Y-50676657D01*
X78861265Y-50557609D02*
X79170789Y-50557609D01*
X79170789Y-50557609D02*
X79004122Y-50748085D01*
X79004122Y-50748085D02*
X79075551Y-50748085D01*
X79075551Y-50748085D02*
X79123170Y-50771895D01*
X79123170Y-50771895D02*
X79146979Y-50795704D01*
X79146979Y-50795704D02*
X79170789Y-50843323D01*
X79170789Y-50843323D02*
X79170789Y-50962371D01*
X79170789Y-50962371D02*
X79146979Y-51009990D01*
X79146979Y-51009990D02*
X79123170Y-51033800D01*
X79123170Y-51033800D02*
X79075551Y-51057609D01*
X79075551Y-51057609D02*
X78932694Y-51057609D01*
X78932694Y-51057609D02*
X78885075Y-51033800D01*
X78885075Y-51033800D02*
X78861265Y-51009990D01*
X79599360Y-50724276D02*
X79599360Y-51057609D01*
X79480312Y-50533800D02*
X79361265Y-50890942D01*
X79361265Y-50890942D02*
X79670788Y-50890942D01*
X79789836Y-50557609D02*
X79956502Y-51057609D01*
X79956502Y-51057609D02*
X80123169Y-50557609D01*
X73979741Y-51400419D02*
X73932122Y-51376609D01*
X73932122Y-51376609D02*
X73860693Y-51376609D01*
X73860693Y-51376609D02*
X73789265Y-51400419D01*
X73789265Y-51400419D02*
X73741646Y-51448038D01*
X73741646Y-51448038D02*
X73717836Y-51495657D01*
X73717836Y-51495657D02*
X73694027Y-51590895D01*
X73694027Y-51590895D02*
X73694027Y-51662323D01*
X73694027Y-51662323D02*
X73717836Y-51757561D01*
X73717836Y-51757561D02*
X73741646Y-51805180D01*
X73741646Y-51805180D02*
X73789265Y-51852800D01*
X73789265Y-51852800D02*
X73860693Y-51876609D01*
X73860693Y-51876609D02*
X73908312Y-51876609D01*
X73908312Y-51876609D02*
X73979741Y-51852800D01*
X73979741Y-51852800D02*
X74003550Y-51828990D01*
X74003550Y-51828990D02*
X74003550Y-51662323D01*
X74003550Y-51662323D02*
X73908312Y-51662323D01*
X74217836Y-51876609D02*
X74217836Y-51376609D01*
X74217836Y-51376609D02*
X74503550Y-51876609D01*
X74503550Y-51876609D02*
X74503550Y-51376609D01*
X74741646Y-51876609D02*
X74741646Y-51376609D01*
X74741646Y-51376609D02*
X74860694Y-51376609D01*
X74860694Y-51376609D02*
X74932122Y-51400419D01*
X74932122Y-51400419D02*
X74979741Y-51448038D01*
X74979741Y-51448038D02*
X75003551Y-51495657D01*
X75003551Y-51495657D02*
X75027360Y-51590895D01*
X75027360Y-51590895D02*
X75027360Y-51662323D01*
X75027360Y-51662323D02*
X75003551Y-51757561D01*
X75003551Y-51757561D02*
X74979741Y-51805180D01*
X74979741Y-51805180D02*
X74932122Y-51852800D01*
X74932122Y-51852800D02*
X74860694Y-51876609D01*
X74860694Y-51876609D02*
X74741646Y-51876609D01*
X86290836Y-50867133D02*
X86671789Y-50867133D01*
X86481312Y-51057609D02*
X86481312Y-50676657D01*
X87147979Y-50557609D02*
X86909884Y-50557609D01*
X86909884Y-50557609D02*
X86886075Y-50795704D01*
X86886075Y-50795704D02*
X86909884Y-50771895D01*
X86909884Y-50771895D02*
X86957503Y-50748085D01*
X86957503Y-50748085D02*
X87076551Y-50748085D01*
X87076551Y-50748085D02*
X87124170Y-50771895D01*
X87124170Y-50771895D02*
X87147979Y-50795704D01*
X87147979Y-50795704D02*
X87171789Y-50843323D01*
X87171789Y-50843323D02*
X87171789Y-50962371D01*
X87171789Y-50962371D02*
X87147979Y-51009990D01*
X87147979Y-51009990D02*
X87124170Y-51033800D01*
X87124170Y-51033800D02*
X87076551Y-51057609D01*
X87076551Y-51057609D02*
X86957503Y-51057609D01*
X86957503Y-51057609D02*
X86909884Y-51033800D01*
X86909884Y-51033800D02*
X86886075Y-51009990D01*
X87314646Y-50557609D02*
X87481312Y-51057609D01*
X87481312Y-51057609D02*
X87647979Y-50557609D01*
D10*
X95221588Y-70672438D02*
X95126350Y-70624819D01*
X95126350Y-70624819D02*
X94983493Y-70624819D01*
X94983493Y-70624819D02*
X94840636Y-70672438D01*
X94840636Y-70672438D02*
X94745398Y-70767676D01*
X94745398Y-70767676D02*
X94697779Y-70862914D01*
X94697779Y-70862914D02*
X94650160Y-71053390D01*
X94650160Y-71053390D02*
X94650160Y-71196247D01*
X94650160Y-71196247D02*
X94697779Y-71386723D01*
X94697779Y-71386723D02*
X94745398Y-71481961D01*
X94745398Y-71481961D02*
X94840636Y-71577200D01*
X94840636Y-71577200D02*
X94983493Y-71624819D01*
X94983493Y-71624819D02*
X95078731Y-71624819D01*
X95078731Y-71624819D02*
X95221588Y-71577200D01*
X95221588Y-71577200D02*
X95269207Y-71529580D01*
X95269207Y-71529580D02*
X95269207Y-71196247D01*
X95269207Y-71196247D02*
X95078731Y-71196247D01*
X95697779Y-71624819D02*
X95697779Y-70624819D01*
X95697779Y-70624819D02*
X96269207Y-71624819D01*
X96269207Y-71624819D02*
X96269207Y-70624819D01*
X96745398Y-71624819D02*
X96745398Y-70624819D01*
X96745398Y-70624819D02*
X96983493Y-70624819D01*
X96983493Y-70624819D02*
X97126350Y-70672438D01*
X97126350Y-70672438D02*
X97221588Y-70767676D01*
X97221588Y-70767676D02*
X97269207Y-70862914D01*
X97269207Y-70862914D02*
X97316826Y-71053390D01*
X97316826Y-71053390D02*
X97316826Y-71196247D01*
X97316826Y-71196247D02*
X97269207Y-71386723D01*
X97269207Y-71386723D02*
X97221588Y-71481961D01*
X97221588Y-71481961D02*
X97126350Y-71577200D01*
X97126350Y-71577200D02*
X96983493Y-71624819D01*
X96983493Y-71624819D02*
X96745398Y-71624819D01*
X114827207Y-48891819D02*
X114493874Y-48415628D01*
X114255779Y-48891819D02*
X114255779Y-47891819D01*
X114255779Y-47891819D02*
X114636731Y-47891819D01*
X114636731Y-47891819D02*
X114731969Y-47939438D01*
X114731969Y-47939438D02*
X114779588Y-47987057D01*
X114779588Y-47987057D02*
X114827207Y-48082295D01*
X114827207Y-48082295D02*
X114827207Y-48225152D01*
X114827207Y-48225152D02*
X114779588Y-48320390D01*
X114779588Y-48320390D02*
X114731969Y-48368009D01*
X114731969Y-48368009D02*
X114636731Y-48415628D01*
X114636731Y-48415628D02*
X114255779Y-48415628D01*
X115636731Y-48844200D02*
X115541493Y-48891819D01*
X115541493Y-48891819D02*
X115351017Y-48891819D01*
X115351017Y-48891819D02*
X115255779Y-48844200D01*
X115255779Y-48844200D02*
X115208160Y-48748961D01*
X115208160Y-48748961D02*
X115208160Y-48368009D01*
X115208160Y-48368009D02*
X115255779Y-48272771D01*
X115255779Y-48272771D02*
X115351017Y-48225152D01*
X115351017Y-48225152D02*
X115541493Y-48225152D01*
X115541493Y-48225152D02*
X115636731Y-48272771D01*
X115636731Y-48272771D02*
X115684350Y-48368009D01*
X115684350Y-48368009D02*
X115684350Y-48463247D01*
X115684350Y-48463247D02*
X115208160Y-48558485D01*
X116541493Y-48225152D02*
X116541493Y-49034676D01*
X116541493Y-49034676D02*
X116493874Y-49129914D01*
X116493874Y-49129914D02*
X116446255Y-49177533D01*
X116446255Y-49177533D02*
X116351017Y-49225152D01*
X116351017Y-49225152D02*
X116208160Y-49225152D01*
X116208160Y-49225152D02*
X116112922Y-49177533D01*
X116541493Y-48844200D02*
X116446255Y-48891819D01*
X116446255Y-48891819D02*
X116255779Y-48891819D01*
X116255779Y-48891819D02*
X116160541Y-48844200D01*
X116160541Y-48844200D02*
X116112922Y-48796580D01*
X116112922Y-48796580D02*
X116065303Y-48701342D01*
X116065303Y-48701342D02*
X116065303Y-48415628D01*
X116065303Y-48415628D02*
X116112922Y-48320390D01*
X116112922Y-48320390D02*
X116160541Y-48272771D01*
X116160541Y-48272771D02*
X116255779Y-48225152D01*
X116255779Y-48225152D02*
X116446255Y-48225152D01*
X116446255Y-48225152D02*
X116541493Y-48272771D01*
X117446255Y-48225152D02*
X117446255Y-48891819D01*
X117017684Y-48225152D02*
X117017684Y-48748961D01*
X117017684Y-48748961D02*
X117065303Y-48844200D01*
X117065303Y-48844200D02*
X117160541Y-48891819D01*
X117160541Y-48891819D02*
X117303398Y-48891819D01*
X117303398Y-48891819D02*
X117398636Y-48844200D01*
X117398636Y-48844200D02*
X117446255Y-48796580D01*
X118065303Y-48891819D02*
X117970065Y-48844200D01*
X117970065Y-48844200D02*
X117922446Y-48748961D01*
X117922446Y-48748961D02*
X117922446Y-47891819D01*
X118874827Y-48891819D02*
X118874827Y-48368009D01*
X118874827Y-48368009D02*
X118827208Y-48272771D01*
X118827208Y-48272771D02*
X118731970Y-48225152D01*
X118731970Y-48225152D02*
X118541494Y-48225152D01*
X118541494Y-48225152D02*
X118446256Y-48272771D01*
X118874827Y-48844200D02*
X118779589Y-48891819D01*
X118779589Y-48891819D02*
X118541494Y-48891819D01*
X118541494Y-48891819D02*
X118446256Y-48844200D01*
X118446256Y-48844200D02*
X118398637Y-48748961D01*
X118398637Y-48748961D02*
X118398637Y-48653723D01*
X118398637Y-48653723D02*
X118446256Y-48558485D01*
X118446256Y-48558485D02*
X118541494Y-48510866D01*
X118541494Y-48510866D02*
X118779589Y-48510866D01*
X118779589Y-48510866D02*
X118874827Y-48463247D01*
X119208161Y-48225152D02*
X119589113Y-48225152D01*
X119351018Y-47891819D02*
X119351018Y-48748961D01*
X119351018Y-48748961D02*
X119398637Y-48844200D01*
X119398637Y-48844200D02*
X119493875Y-48891819D01*
X119493875Y-48891819D02*
X119589113Y-48891819D01*
X120065304Y-48891819D02*
X119970066Y-48844200D01*
X119970066Y-48844200D02*
X119922447Y-48796580D01*
X119922447Y-48796580D02*
X119874828Y-48701342D01*
X119874828Y-48701342D02*
X119874828Y-48415628D01*
X119874828Y-48415628D02*
X119922447Y-48320390D01*
X119922447Y-48320390D02*
X119970066Y-48272771D01*
X119970066Y-48272771D02*
X120065304Y-48225152D01*
X120065304Y-48225152D02*
X120208161Y-48225152D01*
X120208161Y-48225152D02*
X120303399Y-48272771D01*
X120303399Y-48272771D02*
X120351018Y-48320390D01*
X120351018Y-48320390D02*
X120398637Y-48415628D01*
X120398637Y-48415628D02*
X120398637Y-48701342D01*
X120398637Y-48701342D02*
X120351018Y-48796580D01*
X120351018Y-48796580D02*
X120303399Y-48844200D01*
X120303399Y-48844200D02*
X120208161Y-48891819D01*
X120208161Y-48891819D02*
X120065304Y-48891819D01*
X120827209Y-48891819D02*
X120827209Y-48225152D01*
X120827209Y-48415628D02*
X120874828Y-48320390D01*
X120874828Y-48320390D02*
X120922447Y-48272771D01*
X120922447Y-48272771D02*
X121017685Y-48225152D01*
X121017685Y-48225152D02*
X121112923Y-48225152D01*
X122160543Y-48844200D02*
X122303400Y-48891819D01*
X122303400Y-48891819D02*
X122541495Y-48891819D01*
X122541495Y-48891819D02*
X122636733Y-48844200D01*
X122636733Y-48844200D02*
X122684352Y-48796580D01*
X122684352Y-48796580D02*
X122731971Y-48701342D01*
X122731971Y-48701342D02*
X122731971Y-48606104D01*
X122731971Y-48606104D02*
X122684352Y-48510866D01*
X122684352Y-48510866D02*
X122636733Y-48463247D01*
X122636733Y-48463247D02*
X122541495Y-48415628D01*
X122541495Y-48415628D02*
X122351019Y-48368009D01*
X122351019Y-48368009D02*
X122255781Y-48320390D01*
X122255781Y-48320390D02*
X122208162Y-48272771D01*
X122208162Y-48272771D02*
X122160543Y-48177533D01*
X122160543Y-48177533D02*
X122160543Y-48082295D01*
X122160543Y-48082295D02*
X122208162Y-47987057D01*
X122208162Y-47987057D02*
X122255781Y-47939438D01*
X122255781Y-47939438D02*
X122351019Y-47891819D01*
X122351019Y-47891819D02*
X122589114Y-47891819D01*
X122589114Y-47891819D02*
X122731971Y-47939438D01*
X123017686Y-48225152D02*
X123398638Y-48225152D01*
X123160543Y-47891819D02*
X123160543Y-48748961D01*
X123160543Y-48748961D02*
X123208162Y-48844200D01*
X123208162Y-48844200D02*
X123303400Y-48891819D01*
X123303400Y-48891819D02*
X123398638Y-48891819D01*
X124160543Y-48891819D02*
X124160543Y-48368009D01*
X124160543Y-48368009D02*
X124112924Y-48272771D01*
X124112924Y-48272771D02*
X124017686Y-48225152D01*
X124017686Y-48225152D02*
X123827210Y-48225152D01*
X123827210Y-48225152D02*
X123731972Y-48272771D01*
X124160543Y-48844200D02*
X124065305Y-48891819D01*
X124065305Y-48891819D02*
X123827210Y-48891819D01*
X123827210Y-48891819D02*
X123731972Y-48844200D01*
X123731972Y-48844200D02*
X123684353Y-48748961D01*
X123684353Y-48748961D02*
X123684353Y-48653723D01*
X123684353Y-48653723D02*
X123731972Y-48558485D01*
X123731972Y-48558485D02*
X123827210Y-48510866D01*
X123827210Y-48510866D02*
X124065305Y-48510866D01*
X124065305Y-48510866D02*
X124160543Y-48463247D01*
X125065305Y-48844200D02*
X124970067Y-48891819D01*
X124970067Y-48891819D02*
X124779591Y-48891819D01*
X124779591Y-48891819D02*
X124684353Y-48844200D01*
X124684353Y-48844200D02*
X124636734Y-48796580D01*
X124636734Y-48796580D02*
X124589115Y-48701342D01*
X124589115Y-48701342D02*
X124589115Y-48415628D01*
X124589115Y-48415628D02*
X124636734Y-48320390D01*
X124636734Y-48320390D02*
X124684353Y-48272771D01*
X124684353Y-48272771D02*
X124779591Y-48225152D01*
X124779591Y-48225152D02*
X124970067Y-48225152D01*
X124970067Y-48225152D02*
X125065305Y-48272771D01*
X125493877Y-48891819D02*
X125493877Y-47891819D01*
X125589115Y-48510866D02*
X125874829Y-48891819D01*
X125874829Y-48225152D02*
X125493877Y-48606104D01*
D11*
X75749836Y-50867133D02*
X76130789Y-50867133D01*
X76321265Y-50557609D02*
X76630789Y-50557609D01*
X76630789Y-50557609D02*
X76464122Y-50748085D01*
X76464122Y-50748085D02*
X76535551Y-50748085D01*
X76535551Y-50748085D02*
X76583170Y-50771895D01*
X76583170Y-50771895D02*
X76606979Y-50795704D01*
X76606979Y-50795704D02*
X76630789Y-50843323D01*
X76630789Y-50843323D02*
X76630789Y-50962371D01*
X76630789Y-50962371D02*
X76606979Y-51009990D01*
X76606979Y-51009990D02*
X76583170Y-51033800D01*
X76583170Y-51033800D02*
X76535551Y-51057609D01*
X76535551Y-51057609D02*
X76392694Y-51057609D01*
X76392694Y-51057609D02*
X76345075Y-51033800D01*
X76345075Y-51033800D02*
X76321265Y-51009990D01*
X77059360Y-50724276D02*
X77059360Y-51057609D01*
X76940312Y-50533800D02*
X76821265Y-50890942D01*
X76821265Y-50890942D02*
X77130788Y-50890942D01*
X77249836Y-50557609D02*
X77416502Y-51057609D01*
X77416502Y-51057609D02*
X77583169Y-50557609D01*
X83496836Y-50867133D02*
X83877789Y-50867133D01*
X83687312Y-51057609D02*
X83687312Y-50676657D01*
X84377789Y-51057609D02*
X84092075Y-51057609D01*
X84234932Y-51057609D02*
X84234932Y-50557609D01*
X84234932Y-50557609D02*
X84187313Y-50629038D01*
X84187313Y-50629038D02*
X84139694Y-50676657D01*
X84139694Y-50676657D02*
X84092075Y-50700466D01*
X84830169Y-50557609D02*
X84592074Y-50557609D01*
X84592074Y-50557609D02*
X84568265Y-50795704D01*
X84568265Y-50795704D02*
X84592074Y-50771895D01*
X84592074Y-50771895D02*
X84639693Y-50748085D01*
X84639693Y-50748085D02*
X84758741Y-50748085D01*
X84758741Y-50748085D02*
X84806360Y-50771895D01*
X84806360Y-50771895D02*
X84830169Y-50795704D01*
X84830169Y-50795704D02*
X84853979Y-50843323D01*
X84853979Y-50843323D02*
X84853979Y-50962371D01*
X84853979Y-50962371D02*
X84830169Y-51009990D01*
X84830169Y-51009990D02*
X84806360Y-51033800D01*
X84806360Y-51033800D02*
X84758741Y-51057609D01*
X84758741Y-51057609D02*
X84639693Y-51057609D01*
X84639693Y-51057609D02*
X84592074Y-51033800D01*
X84592074Y-51033800D02*
X84568265Y-51009990D01*
X84996836Y-50557609D02*
X85163502Y-51057609D01*
X85163502Y-51057609D02*
X85330169Y-50557609D01*
X80829836Y-50867133D02*
X81210789Y-50867133D01*
X81710789Y-51057609D02*
X81425075Y-51057609D01*
X81567932Y-51057609D02*
X81567932Y-50557609D01*
X81567932Y-50557609D02*
X81520313Y-50629038D01*
X81520313Y-50629038D02*
X81472694Y-50676657D01*
X81472694Y-50676657D02*
X81425075Y-50700466D01*
X82163169Y-50557609D02*
X81925074Y-50557609D01*
X81925074Y-50557609D02*
X81901265Y-50795704D01*
X81901265Y-50795704D02*
X81925074Y-50771895D01*
X81925074Y-50771895D02*
X81972693Y-50748085D01*
X81972693Y-50748085D02*
X82091741Y-50748085D01*
X82091741Y-50748085D02*
X82139360Y-50771895D01*
X82139360Y-50771895D02*
X82163169Y-50795704D01*
X82163169Y-50795704D02*
X82186979Y-50843323D01*
X82186979Y-50843323D02*
X82186979Y-50962371D01*
X82186979Y-50962371D02*
X82163169Y-51009990D01*
X82163169Y-51009990D02*
X82139360Y-51033800D01*
X82139360Y-51033800D02*
X82091741Y-51057609D01*
X82091741Y-51057609D02*
X81972693Y-51057609D01*
X81972693Y-51057609D02*
X81925074Y-51033800D01*
X81925074Y-51033800D02*
X81901265Y-51009990D01*
X82329836Y-50557609D02*
X82496502Y-51057609D01*
X82496502Y-51057609D02*
X82663169Y-50557609D01*
D10*
X79395080Y-82676476D02*
X79442700Y-82724095D01*
X79442700Y-82724095D02*
X79490319Y-82866952D01*
X79490319Y-82866952D02*
X79490319Y-82962190D01*
X79490319Y-82962190D02*
X79442700Y-83105047D01*
X79442700Y-83105047D02*
X79347461Y-83200285D01*
X79347461Y-83200285D02*
X79252223Y-83247904D01*
X79252223Y-83247904D02*
X79061747Y-83295523D01*
X79061747Y-83295523D02*
X78918890Y-83295523D01*
X78918890Y-83295523D02*
X78728414Y-83247904D01*
X78728414Y-83247904D02*
X78633176Y-83200285D01*
X78633176Y-83200285D02*
X78537938Y-83105047D01*
X78537938Y-83105047D02*
X78490319Y-82962190D01*
X78490319Y-82962190D02*
X78490319Y-82866952D01*
X78490319Y-82866952D02*
X78537938Y-82724095D01*
X78537938Y-82724095D02*
X78585557Y-82676476D01*
X79490319Y-82247904D02*
X78490319Y-82247904D01*
X78490319Y-82247904D02*
X79490319Y-81676476D01*
X79490319Y-81676476D02*
X78490319Y-81676476D01*
X78490319Y-81295523D02*
X78490319Y-80676476D01*
X78490319Y-80676476D02*
X78871271Y-81009809D01*
X78871271Y-81009809D02*
X78871271Y-80866952D01*
X78871271Y-80866952D02*
X78918890Y-80771714D01*
X78918890Y-80771714D02*
X78966509Y-80724095D01*
X78966509Y-80724095D02*
X79061747Y-80676476D01*
X79061747Y-80676476D02*
X79299842Y-80676476D01*
X79299842Y-80676476D02*
X79395080Y-80724095D01*
X79395080Y-80724095D02*
X79442700Y-80771714D01*
X79442700Y-80771714D02*
X79490319Y-80866952D01*
X79490319Y-80866952D02*
X79490319Y-81152666D01*
X79490319Y-81152666D02*
X79442700Y-81247904D01*
X79442700Y-81247904D02*
X79395080Y-81295523D01*
X103072618Y-78175819D02*
X102739285Y-77699628D01*
X102501190Y-78175819D02*
X102501190Y-77175819D01*
X102501190Y-77175819D02*
X102882142Y-77175819D01*
X102882142Y-77175819D02*
X102977380Y-77223438D01*
X102977380Y-77223438D02*
X103024999Y-77271057D01*
X103024999Y-77271057D02*
X103072618Y-77366295D01*
X103072618Y-77366295D02*
X103072618Y-77509152D01*
X103072618Y-77509152D02*
X103024999Y-77604390D01*
X103024999Y-77604390D02*
X102977380Y-77652009D01*
X102977380Y-77652009D02*
X102882142Y-77699628D01*
X102882142Y-77699628D02*
X102501190Y-77699628D01*
X103834523Y-77652009D02*
X103501190Y-77652009D01*
X103501190Y-78175819D02*
X103501190Y-77175819D01*
X103501190Y-77175819D02*
X103977380Y-77175819D01*
X104691666Y-77652009D02*
X104834523Y-77699628D01*
X104834523Y-77699628D02*
X104882142Y-77747247D01*
X104882142Y-77747247D02*
X104929761Y-77842485D01*
X104929761Y-77842485D02*
X104929761Y-77985342D01*
X104929761Y-77985342D02*
X104882142Y-78080580D01*
X104882142Y-78080580D02*
X104834523Y-78128200D01*
X104834523Y-78128200D02*
X104739285Y-78175819D01*
X104739285Y-78175819D02*
X104358333Y-78175819D01*
X104358333Y-78175819D02*
X104358333Y-77175819D01*
X104358333Y-77175819D02*
X104691666Y-77175819D01*
X104691666Y-77175819D02*
X104786904Y-77223438D01*
X104786904Y-77223438D02*
X104834523Y-77271057D01*
X104834523Y-77271057D02*
X104882142Y-77366295D01*
X104882142Y-77366295D02*
X104882142Y-77461533D01*
X104882142Y-77461533D02*
X104834523Y-77556771D01*
X104834523Y-77556771D02*
X104786904Y-77604390D01*
X104786904Y-77604390D02*
X104691666Y-77652009D01*
X104691666Y-77652009D02*
X104358333Y-77652009D01*
X105882142Y-78175819D02*
X105310714Y-78175819D01*
X105596428Y-78175819D02*
X105596428Y-77175819D01*
X105596428Y-77175819D02*
X105501190Y-77318676D01*
X105501190Y-77318676D02*
X105405952Y-77413914D01*
X105405952Y-77413914D02*
X105310714Y-77461533D01*
X106072619Y-78271057D02*
X106834523Y-78271057D01*
X107596428Y-78175819D02*
X107025000Y-78175819D01*
X107310714Y-78175819D02*
X107310714Y-77175819D01*
X107310714Y-77175819D02*
X107215476Y-77318676D01*
X107215476Y-77318676D02*
X107120238Y-77413914D01*
X107120238Y-77413914D02*
X107025000Y-77461533D01*
D11*
X82785048Y-58657895D02*
X82785048Y-57857895D01*
X83623143Y-58581704D02*
X83585047Y-58619800D01*
X83585047Y-58619800D02*
X83470762Y-58657895D01*
X83470762Y-58657895D02*
X83394571Y-58657895D01*
X83394571Y-58657895D02*
X83280285Y-58619800D01*
X83280285Y-58619800D02*
X83204095Y-58543609D01*
X83204095Y-58543609D02*
X83166000Y-58467419D01*
X83166000Y-58467419D02*
X83127904Y-58315038D01*
X83127904Y-58315038D02*
X83127904Y-58200752D01*
X83127904Y-58200752D02*
X83166000Y-58048371D01*
X83166000Y-58048371D02*
X83204095Y-57972180D01*
X83204095Y-57972180D02*
X83280285Y-57895990D01*
X83280285Y-57895990D02*
X83394571Y-57857895D01*
X83394571Y-57857895D02*
X83470762Y-57857895D01*
X83470762Y-57857895D02*
X83585047Y-57895990D01*
X83585047Y-57895990D02*
X83623143Y-57934085D01*
X84385047Y-58657895D02*
X83927904Y-58657895D01*
X84156476Y-58657895D02*
X84156476Y-57857895D01*
X84156476Y-57857895D02*
X84080285Y-57972180D01*
X84080285Y-57972180D02*
X84004095Y-58048371D01*
X84004095Y-58048371D02*
X83927904Y-58086466D01*
D10*
X110609190Y-62049819D02*
X110133000Y-62049819D01*
X110133000Y-62049819D02*
X110133000Y-61049819D01*
X110894905Y-61145057D02*
X110942524Y-61097438D01*
X110942524Y-61097438D02*
X111037762Y-61049819D01*
X111037762Y-61049819D02*
X111275857Y-61049819D01*
X111275857Y-61049819D02*
X111371095Y-61097438D01*
X111371095Y-61097438D02*
X111418714Y-61145057D01*
X111418714Y-61145057D02*
X111466333Y-61240295D01*
X111466333Y-61240295D02*
X111466333Y-61335533D01*
X111466333Y-61335533D02*
X111418714Y-61478390D01*
X111418714Y-61478390D02*
X110847286Y-62049819D01*
X110847286Y-62049819D02*
X111466333Y-62049819D01*
X111656810Y-62145057D02*
X112418714Y-62145057D01*
X113180619Y-62049819D02*
X112609191Y-62049819D01*
X112894905Y-62049819D02*
X112894905Y-61049819D01*
X112894905Y-61049819D02*
X112799667Y-61192676D01*
X112799667Y-61192676D02*
X112704429Y-61287914D01*
X112704429Y-61287914D02*
X112609191Y-61335533D01*
X84211333Y-66080819D02*
X83878000Y-65604628D01*
X83639905Y-66080819D02*
X83639905Y-65080819D01*
X83639905Y-65080819D02*
X84020857Y-65080819D01*
X84020857Y-65080819D02*
X84116095Y-65128438D01*
X84116095Y-65128438D02*
X84163714Y-65176057D01*
X84163714Y-65176057D02*
X84211333Y-65271295D01*
X84211333Y-65271295D02*
X84211333Y-65414152D01*
X84211333Y-65414152D02*
X84163714Y-65509390D01*
X84163714Y-65509390D02*
X84116095Y-65557009D01*
X84116095Y-65557009D02*
X84020857Y-65604628D01*
X84020857Y-65604628D02*
X83639905Y-65604628D01*
X84639905Y-66080819D02*
X84639905Y-65080819D01*
X84639905Y-65080819D02*
X85020857Y-65080819D01*
X85020857Y-65080819D02*
X85116095Y-65128438D01*
X85116095Y-65128438D02*
X85163714Y-65176057D01*
X85163714Y-65176057D02*
X85211333Y-65271295D01*
X85211333Y-65271295D02*
X85211333Y-65414152D01*
X85211333Y-65414152D02*
X85163714Y-65509390D01*
X85163714Y-65509390D02*
X85116095Y-65557009D01*
X85116095Y-65557009D02*
X85020857Y-65604628D01*
X85020857Y-65604628D02*
X84639905Y-65604628D01*
X86068476Y-65414152D02*
X86068476Y-66080819D01*
X85830381Y-65033200D02*
X85592286Y-65747485D01*
X85592286Y-65747485D02*
X86211333Y-65747485D01*
X103001190Y-66243819D02*
X102525000Y-66243819D01*
X102525000Y-66243819D02*
X102525000Y-65243819D01*
X103858333Y-66243819D02*
X103286905Y-66243819D01*
X103572619Y-66243819D02*
X103572619Y-65243819D01*
X103572619Y-65243819D02*
X103477381Y-65386676D01*
X103477381Y-65386676D02*
X103382143Y-65481914D01*
X103382143Y-65481914D02*
X103286905Y-65529533D01*
X104048810Y-66339057D02*
X104810714Y-66339057D01*
X105572619Y-66243819D02*
X105001191Y-66243819D01*
X105286905Y-66243819D02*
X105286905Y-65243819D01*
X105286905Y-65243819D02*
X105191667Y-65386676D01*
X105191667Y-65386676D02*
X105096429Y-65481914D01*
X105096429Y-65481914D02*
X105001191Y-65529533D01*
X121828905Y-58115819D02*
X121828905Y-57115819D01*
X121828905Y-57115819D02*
X122067000Y-57115819D01*
X122067000Y-57115819D02*
X122209857Y-57163438D01*
X122209857Y-57163438D02*
X122305095Y-57258676D01*
X122305095Y-57258676D02*
X122352714Y-57353914D01*
X122352714Y-57353914D02*
X122400333Y-57544390D01*
X122400333Y-57544390D02*
X122400333Y-57687247D01*
X122400333Y-57687247D02*
X122352714Y-57877723D01*
X122352714Y-57877723D02*
X122305095Y-57972961D01*
X122305095Y-57972961D02*
X122209857Y-58068200D01*
X122209857Y-58068200D02*
X122067000Y-58115819D01*
X122067000Y-58115819D02*
X121828905Y-58115819D01*
X123352714Y-58115819D02*
X122781286Y-58115819D01*
X123067000Y-58115819D02*
X123067000Y-57115819D01*
X123067000Y-57115819D02*
X122971762Y-57258676D01*
X122971762Y-57258676D02*
X122876524Y-57353914D01*
X122876524Y-57353914D02*
X122781286Y-57401533D01*
X72485333Y-57114580D02*
X72437714Y-57162200D01*
X72437714Y-57162200D02*
X72294857Y-57209819D01*
X72294857Y-57209819D02*
X72199619Y-57209819D01*
X72199619Y-57209819D02*
X72056762Y-57162200D01*
X72056762Y-57162200D02*
X71961524Y-57066961D01*
X71961524Y-57066961D02*
X71913905Y-56971723D01*
X71913905Y-56971723D02*
X71866286Y-56781247D01*
X71866286Y-56781247D02*
X71866286Y-56638390D01*
X71866286Y-56638390D02*
X71913905Y-56447914D01*
X71913905Y-56447914D02*
X71961524Y-56352676D01*
X71961524Y-56352676D02*
X72056762Y-56257438D01*
X72056762Y-56257438D02*
X72199619Y-56209819D01*
X72199619Y-56209819D02*
X72294857Y-56209819D01*
X72294857Y-56209819D02*
X72437714Y-56257438D01*
X72437714Y-56257438D02*
X72485333Y-56305057D01*
X72913905Y-57209819D02*
X72913905Y-56209819D01*
X72913905Y-56209819D02*
X73294857Y-56209819D01*
X73294857Y-56209819D02*
X73390095Y-56257438D01*
X73390095Y-56257438D02*
X73437714Y-56305057D01*
X73437714Y-56305057D02*
X73485333Y-56400295D01*
X73485333Y-56400295D02*
X73485333Y-56543152D01*
X73485333Y-56543152D02*
X73437714Y-56638390D01*
X73437714Y-56638390D02*
X73390095Y-56686009D01*
X73390095Y-56686009D02*
X73294857Y-56733628D01*
X73294857Y-56733628D02*
X72913905Y-56733628D01*
X74437714Y-57209819D02*
X73866286Y-57209819D01*
X74152000Y-57209819D02*
X74152000Y-56209819D01*
X74152000Y-56209819D02*
X74056762Y-56352676D01*
X74056762Y-56352676D02*
X73961524Y-56447914D01*
X73961524Y-56447914D02*
X73866286Y-56495533D01*
X92920819Y-78545333D02*
X93635104Y-78545333D01*
X93635104Y-78545333D02*
X93777961Y-78592952D01*
X93777961Y-78592952D02*
X93873200Y-78688190D01*
X93873200Y-78688190D02*
X93920819Y-78831047D01*
X93920819Y-78831047D02*
X93920819Y-78926285D01*
X93016057Y-78116761D02*
X92968438Y-78069142D01*
X92968438Y-78069142D02*
X92920819Y-77973904D01*
X92920819Y-77973904D02*
X92920819Y-77735809D01*
X92920819Y-77735809D02*
X92968438Y-77640571D01*
X92968438Y-77640571D02*
X93016057Y-77592952D01*
X93016057Y-77592952D02*
X93111295Y-77545333D01*
X93111295Y-77545333D02*
X93206533Y-77545333D01*
X93206533Y-77545333D02*
X93349390Y-77592952D01*
X93349390Y-77592952D02*
X93920819Y-78164380D01*
X93920819Y-78164380D02*
X93920819Y-77545333D01*
X119574856Y-75667580D02*
X119527237Y-75715200D01*
X119527237Y-75715200D02*
X119384380Y-75762819D01*
X119384380Y-75762819D02*
X119289142Y-75762819D01*
X119289142Y-75762819D02*
X119146285Y-75715200D01*
X119146285Y-75715200D02*
X119051047Y-75619961D01*
X119051047Y-75619961D02*
X119003428Y-75524723D01*
X119003428Y-75524723D02*
X118955809Y-75334247D01*
X118955809Y-75334247D02*
X118955809Y-75191390D01*
X118955809Y-75191390D02*
X119003428Y-75000914D01*
X119003428Y-75000914D02*
X119051047Y-74905676D01*
X119051047Y-74905676D02*
X119146285Y-74810438D01*
X119146285Y-74810438D02*
X119289142Y-74762819D01*
X119289142Y-74762819D02*
X119384380Y-74762819D01*
X119384380Y-74762819D02*
X119527237Y-74810438D01*
X119527237Y-74810438D02*
X119574856Y-74858057D01*
X119860571Y-74762819D02*
X120193904Y-75762819D01*
X120193904Y-75762819D02*
X120527237Y-74762819D01*
X121431999Y-75762819D02*
X121098666Y-75286628D01*
X120860571Y-75762819D02*
X120860571Y-74762819D01*
X120860571Y-74762819D02*
X121241523Y-74762819D01*
X121241523Y-74762819D02*
X121336761Y-74810438D01*
X121336761Y-74810438D02*
X121384380Y-74858057D01*
X121384380Y-74858057D02*
X121431999Y-74953295D01*
X121431999Y-74953295D02*
X121431999Y-75096152D01*
X121431999Y-75096152D02*
X121384380Y-75191390D01*
X121384380Y-75191390D02*
X121336761Y-75239009D01*
X121336761Y-75239009D02*
X121241523Y-75286628D01*
X121241523Y-75286628D02*
X120860571Y-75286628D01*
X121860571Y-75239009D02*
X122193904Y-75239009D01*
X122336761Y-75762819D02*
X121860571Y-75762819D01*
X121860571Y-75762819D02*
X121860571Y-74762819D01*
X121860571Y-74762819D02*
X122336761Y-74762819D01*
X123098666Y-75239009D02*
X122765333Y-75239009D01*
X122765333Y-75762819D02*
X122765333Y-74762819D01*
X122765333Y-74762819D02*
X123241523Y-74762819D01*
X123384381Y-75858057D02*
X124146285Y-75858057D01*
X124908190Y-75762819D02*
X124336762Y-75762819D01*
X124622476Y-75762819D02*
X124622476Y-74762819D01*
X124622476Y-74762819D02*
X124527238Y-74905676D01*
X124527238Y-74905676D02*
X124432000Y-75000914D01*
X124432000Y-75000914D02*
X124336762Y-75048533D01*
X119491428Y-69066580D02*
X119443809Y-69114200D01*
X119443809Y-69114200D02*
X119300952Y-69161819D01*
X119300952Y-69161819D02*
X119205714Y-69161819D01*
X119205714Y-69161819D02*
X119062857Y-69114200D01*
X119062857Y-69114200D02*
X118967619Y-69018961D01*
X118967619Y-69018961D02*
X118920000Y-68923723D01*
X118920000Y-68923723D02*
X118872381Y-68733247D01*
X118872381Y-68733247D02*
X118872381Y-68590390D01*
X118872381Y-68590390D02*
X118920000Y-68399914D01*
X118920000Y-68399914D02*
X118967619Y-68304676D01*
X118967619Y-68304676D02*
X119062857Y-68209438D01*
X119062857Y-68209438D02*
X119205714Y-68161819D01*
X119205714Y-68161819D02*
X119300952Y-68161819D01*
X119300952Y-68161819D02*
X119443809Y-68209438D01*
X119443809Y-68209438D02*
X119491428Y-68257057D01*
X119777143Y-68161819D02*
X120110476Y-69161819D01*
X120110476Y-69161819D02*
X120443809Y-68161819D01*
X121348571Y-69161819D02*
X121015238Y-68685628D01*
X120777143Y-69161819D02*
X120777143Y-68161819D01*
X120777143Y-68161819D02*
X121158095Y-68161819D01*
X121158095Y-68161819D02*
X121253333Y-68209438D01*
X121253333Y-68209438D02*
X121300952Y-68257057D01*
X121300952Y-68257057D02*
X121348571Y-68352295D01*
X121348571Y-68352295D02*
X121348571Y-68495152D01*
X121348571Y-68495152D02*
X121300952Y-68590390D01*
X121300952Y-68590390D02*
X121253333Y-68638009D01*
X121253333Y-68638009D02*
X121158095Y-68685628D01*
X121158095Y-68685628D02*
X120777143Y-68685628D01*
X121777143Y-68638009D02*
X122110476Y-68638009D01*
X122253333Y-69161819D02*
X121777143Y-69161819D01*
X121777143Y-69161819D02*
X121777143Y-68161819D01*
X121777143Y-68161819D02*
X122253333Y-68161819D01*
X123205714Y-68209438D02*
X123110476Y-68161819D01*
X123110476Y-68161819D02*
X122967619Y-68161819D01*
X122967619Y-68161819D02*
X122824762Y-68209438D01*
X122824762Y-68209438D02*
X122729524Y-68304676D01*
X122729524Y-68304676D02*
X122681905Y-68399914D01*
X122681905Y-68399914D02*
X122634286Y-68590390D01*
X122634286Y-68590390D02*
X122634286Y-68733247D01*
X122634286Y-68733247D02*
X122681905Y-68923723D01*
X122681905Y-68923723D02*
X122729524Y-69018961D01*
X122729524Y-69018961D02*
X122824762Y-69114200D01*
X122824762Y-69114200D02*
X122967619Y-69161819D01*
X122967619Y-69161819D02*
X123062857Y-69161819D01*
X123062857Y-69161819D02*
X123205714Y-69114200D01*
X123205714Y-69114200D02*
X123253333Y-69066580D01*
X123253333Y-69066580D02*
X123253333Y-68733247D01*
X123253333Y-68733247D02*
X123062857Y-68733247D01*
X123443810Y-69257057D02*
X124205714Y-69257057D01*
X124967619Y-69161819D02*
X124396191Y-69161819D01*
X124681905Y-69161819D02*
X124681905Y-68161819D01*
X124681905Y-68161819D02*
X124586667Y-68304676D01*
X124586667Y-68304676D02*
X124491429Y-68399914D01*
X124491429Y-68399914D02*
X124396191Y-68447533D01*
D12*
X81485618Y-57597318D02*
X81485618Y-56327318D01*
X81485618Y-56327318D02*
X81787999Y-56327318D01*
X81787999Y-56327318D02*
X81969428Y-56387794D01*
X81969428Y-56387794D02*
X82090380Y-56508746D01*
X82090380Y-56508746D02*
X82150857Y-56629699D01*
X82150857Y-56629699D02*
X82211333Y-56871603D01*
X82211333Y-56871603D02*
X82211333Y-57053032D01*
X82211333Y-57053032D02*
X82150857Y-57294937D01*
X82150857Y-57294937D02*
X82090380Y-57415889D01*
X82090380Y-57415889D02*
X81969428Y-57536842D01*
X81969428Y-57536842D02*
X81787999Y-57597318D01*
X81787999Y-57597318D02*
X81485618Y-57597318D01*
X82755618Y-57597318D02*
X82755618Y-56327318D01*
X82755618Y-56327318D02*
X83239428Y-56327318D01*
X83239428Y-56327318D02*
X83360380Y-56387794D01*
X83360380Y-56387794D02*
X83420857Y-56448270D01*
X83420857Y-56448270D02*
X83481333Y-56569222D01*
X83481333Y-56569222D02*
X83481333Y-56750651D01*
X83481333Y-56750651D02*
X83420857Y-56871603D01*
X83420857Y-56871603D02*
X83360380Y-56932080D01*
X83360380Y-56932080D02*
X83239428Y-56992556D01*
X83239428Y-56992556D02*
X82755618Y-56992556D01*
X84690857Y-57597318D02*
X83965142Y-57597318D01*
X84327999Y-57597318D02*
X84327999Y-56327318D01*
X84327999Y-56327318D02*
X84207047Y-56508746D01*
X84207047Y-56508746D02*
X84086095Y-56629699D01*
X84086095Y-56629699D02*
X83965142Y-56690175D01*
D10*
X87471333Y-62430819D02*
X87138000Y-61954628D01*
X86899905Y-62430819D02*
X86899905Y-61430819D01*
X86899905Y-61430819D02*
X87280857Y-61430819D01*
X87280857Y-61430819D02*
X87376095Y-61478438D01*
X87376095Y-61478438D02*
X87423714Y-61526057D01*
X87423714Y-61526057D02*
X87471333Y-61621295D01*
X87471333Y-61621295D02*
X87471333Y-61764152D01*
X87471333Y-61764152D02*
X87423714Y-61859390D01*
X87423714Y-61859390D02*
X87376095Y-61907009D01*
X87376095Y-61907009D02*
X87280857Y-61954628D01*
X87280857Y-61954628D02*
X86899905Y-61954628D01*
X87899905Y-62430819D02*
X87899905Y-61430819D01*
X87899905Y-61430819D02*
X88280857Y-61430819D01*
X88280857Y-61430819D02*
X88376095Y-61478438D01*
X88376095Y-61478438D02*
X88423714Y-61526057D01*
X88423714Y-61526057D02*
X88471333Y-61621295D01*
X88471333Y-61621295D02*
X88471333Y-61764152D01*
X88471333Y-61764152D02*
X88423714Y-61859390D01*
X88423714Y-61859390D02*
X88376095Y-61907009D01*
X88376095Y-61907009D02*
X88280857Y-61954628D01*
X88280857Y-61954628D02*
X87899905Y-61954628D01*
X89423714Y-62430819D02*
X88852286Y-62430819D01*
X89138000Y-62430819D02*
X89138000Y-61430819D01*
X89138000Y-61430819D02*
X89042762Y-61573676D01*
X89042762Y-61573676D02*
X88947524Y-61668914D01*
X88947524Y-61668914D02*
X88852286Y-61716533D01*
X87596023Y-77448580D02*
X87548404Y-77496200D01*
X87548404Y-77496200D02*
X87405547Y-77543819D01*
X87405547Y-77543819D02*
X87310309Y-77543819D01*
X87310309Y-77543819D02*
X87167452Y-77496200D01*
X87167452Y-77496200D02*
X87072214Y-77400961D01*
X87072214Y-77400961D02*
X87024595Y-77305723D01*
X87024595Y-77305723D02*
X86976976Y-77115247D01*
X86976976Y-77115247D02*
X86976976Y-76972390D01*
X86976976Y-76972390D02*
X87024595Y-76781914D01*
X87024595Y-76781914D02*
X87072214Y-76686676D01*
X87072214Y-76686676D02*
X87167452Y-76591438D01*
X87167452Y-76591438D02*
X87310309Y-76543819D01*
X87310309Y-76543819D02*
X87405547Y-76543819D01*
X87405547Y-76543819D02*
X87548404Y-76591438D01*
X87548404Y-76591438D02*
X87596023Y-76639057D01*
X88024595Y-77543819D02*
X88024595Y-76543819D01*
X88024595Y-76543819D02*
X88596023Y-77543819D01*
X88596023Y-77543819D02*
X88596023Y-76543819D01*
X89024595Y-76639057D02*
X89072214Y-76591438D01*
X89072214Y-76591438D02*
X89167452Y-76543819D01*
X89167452Y-76543819D02*
X89405547Y-76543819D01*
X89405547Y-76543819D02*
X89500785Y-76591438D01*
X89500785Y-76591438D02*
X89548404Y-76639057D01*
X89548404Y-76639057D02*
X89596023Y-76734295D01*
X89596023Y-76734295D02*
X89596023Y-76829533D01*
X89596023Y-76829533D02*
X89548404Y-76972390D01*
X89548404Y-76972390D02*
X88976976Y-77543819D01*
X88976976Y-77543819D02*
X89596023Y-77543819D01*
X80506819Y-65404666D02*
X80030628Y-65737999D01*
X80506819Y-65976094D02*
X79506819Y-65976094D01*
X79506819Y-65976094D02*
X79506819Y-65595142D01*
X79506819Y-65595142D02*
X79554438Y-65499904D01*
X79554438Y-65499904D02*
X79602057Y-65452285D01*
X79602057Y-65452285D02*
X79697295Y-65404666D01*
X79697295Y-65404666D02*
X79840152Y-65404666D01*
X79840152Y-65404666D02*
X79935390Y-65452285D01*
X79935390Y-65452285D02*
X79983009Y-65499904D01*
X79983009Y-65499904D02*
X80030628Y-65595142D01*
X80030628Y-65595142D02*
X80030628Y-65976094D01*
X80506819Y-64976094D02*
X79506819Y-64976094D01*
X79506819Y-64976094D02*
X79506819Y-64595142D01*
X79506819Y-64595142D02*
X79554438Y-64499904D01*
X79554438Y-64499904D02*
X79602057Y-64452285D01*
X79602057Y-64452285D02*
X79697295Y-64404666D01*
X79697295Y-64404666D02*
X79840152Y-64404666D01*
X79840152Y-64404666D02*
X79935390Y-64452285D01*
X79935390Y-64452285D02*
X79983009Y-64499904D01*
X79983009Y-64499904D02*
X80030628Y-64595142D01*
X80030628Y-64595142D02*
X80030628Y-64976094D01*
X79506819Y-64071332D02*
X79506819Y-63452285D01*
X79506819Y-63452285D02*
X79887771Y-63785618D01*
X79887771Y-63785618D02*
X79887771Y-63642761D01*
X79887771Y-63642761D02*
X79935390Y-63547523D01*
X79935390Y-63547523D02*
X79983009Y-63499904D01*
X79983009Y-63499904D02*
X80078247Y-63452285D01*
X80078247Y-63452285D02*
X80316342Y-63452285D01*
X80316342Y-63452285D02*
X80411580Y-63499904D01*
X80411580Y-63499904D02*
X80459200Y-63547523D01*
X80459200Y-63547523D02*
X80506819Y-63642761D01*
X80506819Y-63642761D02*
X80506819Y-63928475D01*
X80506819Y-63928475D02*
X80459200Y-64023713D01*
X80459200Y-64023713D02*
X80411580Y-64071332D01*
X103334666Y-81604819D02*
X103001333Y-81128628D01*
X102763238Y-81604819D02*
X102763238Y-80604819D01*
X102763238Y-80604819D02*
X103144190Y-80604819D01*
X103144190Y-80604819D02*
X103239428Y-80652438D01*
X103239428Y-80652438D02*
X103287047Y-80700057D01*
X103287047Y-80700057D02*
X103334666Y-80795295D01*
X103334666Y-80795295D02*
X103334666Y-80938152D01*
X103334666Y-80938152D02*
X103287047Y-81033390D01*
X103287047Y-81033390D02*
X103239428Y-81081009D01*
X103239428Y-81081009D02*
X103144190Y-81128628D01*
X103144190Y-81128628D02*
X102763238Y-81128628D01*
X104096571Y-81081009D02*
X103763238Y-81081009D01*
X103763238Y-81604819D02*
X103763238Y-80604819D01*
X103763238Y-80604819D02*
X104239428Y-80604819D01*
X104477524Y-80604819D02*
X105048952Y-80604819D01*
X104763238Y-81604819D02*
X104763238Y-80604819D01*
X105906095Y-81604819D02*
X105334667Y-81604819D01*
X105620381Y-81604819D02*
X105620381Y-80604819D01*
X105620381Y-80604819D02*
X105525143Y-80747676D01*
X105525143Y-80747676D02*
X105429905Y-80842914D01*
X105429905Y-80842914D02*
X105334667Y-80890533D01*
X106096572Y-81700057D02*
X106858476Y-81700057D01*
X107620381Y-81604819D02*
X107048953Y-81604819D01*
X107334667Y-81604819D02*
X107334667Y-80604819D01*
X107334667Y-80604819D02*
X107239429Y-80747676D01*
X107239429Y-80747676D02*
X107144191Y-80842914D01*
X107144191Y-80842914D02*
X107048953Y-80890533D01*
X118322819Y-83318809D02*
X117846628Y-83652142D01*
X118322819Y-83890237D02*
X117322819Y-83890237D01*
X117322819Y-83890237D02*
X117322819Y-83509285D01*
X117322819Y-83509285D02*
X117370438Y-83414047D01*
X117370438Y-83414047D02*
X117418057Y-83366428D01*
X117418057Y-83366428D02*
X117513295Y-83318809D01*
X117513295Y-83318809D02*
X117656152Y-83318809D01*
X117656152Y-83318809D02*
X117751390Y-83366428D01*
X117751390Y-83366428D02*
X117799009Y-83414047D01*
X117799009Y-83414047D02*
X117846628Y-83509285D01*
X117846628Y-83509285D02*
X117846628Y-83890237D01*
X118227580Y-82318809D02*
X118275200Y-82366428D01*
X118275200Y-82366428D02*
X118322819Y-82509285D01*
X118322819Y-82509285D02*
X118322819Y-82604523D01*
X118322819Y-82604523D02*
X118275200Y-82747380D01*
X118275200Y-82747380D02*
X118179961Y-82842618D01*
X118179961Y-82842618D02*
X118084723Y-82890237D01*
X118084723Y-82890237D02*
X117894247Y-82937856D01*
X117894247Y-82937856D02*
X117751390Y-82937856D01*
X117751390Y-82937856D02*
X117560914Y-82890237D01*
X117560914Y-82890237D02*
X117465676Y-82842618D01*
X117465676Y-82842618D02*
X117370438Y-82747380D01*
X117370438Y-82747380D02*
X117322819Y-82604523D01*
X117322819Y-82604523D02*
X117322819Y-82509285D01*
X117322819Y-82509285D02*
X117370438Y-82366428D01*
X117370438Y-82366428D02*
X117418057Y-82318809D01*
X117418057Y-81937856D02*
X117370438Y-81890237D01*
X117370438Y-81890237D02*
X117322819Y-81794999D01*
X117322819Y-81794999D02*
X117322819Y-81556904D01*
X117322819Y-81556904D02*
X117370438Y-81461666D01*
X117370438Y-81461666D02*
X117418057Y-81414047D01*
X117418057Y-81414047D02*
X117513295Y-81366428D01*
X117513295Y-81366428D02*
X117608533Y-81366428D01*
X117608533Y-81366428D02*
X117751390Y-81414047D01*
X117751390Y-81414047D02*
X118322819Y-81985475D01*
X118322819Y-81985475D02*
X118322819Y-81366428D01*
X118418057Y-81175952D02*
X118418057Y-80414047D01*
X118322819Y-79652142D02*
X118322819Y-80223570D01*
X118322819Y-79937856D02*
X117322819Y-79937856D01*
X117322819Y-79937856D02*
X117465676Y-80033094D01*
X117465676Y-80033094D02*
X117560914Y-80128332D01*
X117560914Y-80128332D02*
X117608533Y-80223570D01*
X84419523Y-68141580D02*
X84371904Y-68189200D01*
X84371904Y-68189200D02*
X84229047Y-68236819D01*
X84229047Y-68236819D02*
X84133809Y-68236819D01*
X84133809Y-68236819D02*
X83990952Y-68189200D01*
X83990952Y-68189200D02*
X83895714Y-68093961D01*
X83895714Y-68093961D02*
X83848095Y-67998723D01*
X83848095Y-67998723D02*
X83800476Y-67808247D01*
X83800476Y-67808247D02*
X83800476Y-67665390D01*
X83800476Y-67665390D02*
X83848095Y-67474914D01*
X83848095Y-67474914D02*
X83895714Y-67379676D01*
X83895714Y-67379676D02*
X83990952Y-67284438D01*
X83990952Y-67284438D02*
X84133809Y-67236819D01*
X84133809Y-67236819D02*
X84229047Y-67236819D01*
X84229047Y-67236819D02*
X84371904Y-67284438D01*
X84371904Y-67284438D02*
X84419523Y-67332057D01*
X84848095Y-68236819D02*
X84848095Y-67236819D01*
X84848095Y-67236819D02*
X85419523Y-68236819D01*
X85419523Y-68236819D02*
X85419523Y-67236819D01*
X86371904Y-67236819D02*
X85895714Y-67236819D01*
X85895714Y-67236819D02*
X85848095Y-67713009D01*
X85848095Y-67713009D02*
X85895714Y-67665390D01*
X85895714Y-67665390D02*
X85990952Y-67617771D01*
X85990952Y-67617771D02*
X86229047Y-67617771D01*
X86229047Y-67617771D02*
X86324285Y-67665390D01*
X86324285Y-67665390D02*
X86371904Y-67713009D01*
X86371904Y-67713009D02*
X86419523Y-67808247D01*
X86419523Y-67808247D02*
X86419523Y-68046342D01*
X86419523Y-68046342D02*
X86371904Y-68141580D01*
X86371904Y-68141580D02*
X86324285Y-68189200D01*
X86324285Y-68189200D02*
X86229047Y-68236819D01*
X86229047Y-68236819D02*
X85990952Y-68236819D01*
X85990952Y-68236819D02*
X85895714Y-68189200D01*
X85895714Y-68189200D02*
X85848095Y-68141580D01*
D11*
X83166048Y-75802895D02*
X83166048Y-75002895D01*
X84004143Y-75726704D02*
X83966047Y-75764800D01*
X83966047Y-75764800D02*
X83851762Y-75802895D01*
X83851762Y-75802895D02*
X83775571Y-75802895D01*
X83775571Y-75802895D02*
X83661285Y-75764800D01*
X83661285Y-75764800D02*
X83585095Y-75688609D01*
X83585095Y-75688609D02*
X83547000Y-75612419D01*
X83547000Y-75612419D02*
X83508904Y-75460038D01*
X83508904Y-75460038D02*
X83508904Y-75345752D01*
X83508904Y-75345752D02*
X83547000Y-75193371D01*
X83547000Y-75193371D02*
X83585095Y-75117180D01*
X83585095Y-75117180D02*
X83661285Y-75040990D01*
X83661285Y-75040990D02*
X83775571Y-75002895D01*
X83775571Y-75002895D02*
X83851762Y-75002895D01*
X83851762Y-75002895D02*
X83966047Y-75040990D01*
X83966047Y-75040990D02*
X84004143Y-75079085D01*
X84308904Y-75079085D02*
X84347000Y-75040990D01*
X84347000Y-75040990D02*
X84423190Y-75002895D01*
X84423190Y-75002895D02*
X84613666Y-75002895D01*
X84613666Y-75002895D02*
X84689857Y-75040990D01*
X84689857Y-75040990D02*
X84727952Y-75079085D01*
X84727952Y-75079085D02*
X84766047Y-75155276D01*
X84766047Y-75155276D02*
X84766047Y-75231466D01*
X84766047Y-75231466D02*
X84727952Y-75345752D01*
X84727952Y-75345752D02*
X84270809Y-75802895D01*
X84270809Y-75802895D02*
X84766047Y-75802895D01*
D10*
X97214819Y-58718904D02*
X98024342Y-58718904D01*
X98024342Y-58718904D02*
X98119580Y-58671285D01*
X98119580Y-58671285D02*
X98167200Y-58623666D01*
X98167200Y-58623666D02*
X98214819Y-58528428D01*
X98214819Y-58528428D02*
X98214819Y-58337952D01*
X98214819Y-58337952D02*
X98167200Y-58242714D01*
X98167200Y-58242714D02*
X98119580Y-58195095D01*
X98119580Y-58195095D02*
X98024342Y-58147476D01*
X98024342Y-58147476D02*
X97214819Y-58147476D01*
X97310057Y-57718904D02*
X97262438Y-57671285D01*
X97262438Y-57671285D02*
X97214819Y-57576047D01*
X97214819Y-57576047D02*
X97214819Y-57337952D01*
X97214819Y-57337952D02*
X97262438Y-57242714D01*
X97262438Y-57242714D02*
X97310057Y-57195095D01*
X97310057Y-57195095D02*
X97405295Y-57147476D01*
X97405295Y-57147476D02*
X97500533Y-57147476D01*
X97500533Y-57147476D02*
X97643390Y-57195095D01*
X97643390Y-57195095D02*
X98214819Y-57766523D01*
X98214819Y-57766523D02*
X98214819Y-57147476D01*
X81883333Y-55731580D02*
X81835714Y-55779200D01*
X81835714Y-55779200D02*
X81692857Y-55826819D01*
X81692857Y-55826819D02*
X81597619Y-55826819D01*
X81597619Y-55826819D02*
X81454762Y-55779200D01*
X81454762Y-55779200D02*
X81359524Y-55683961D01*
X81359524Y-55683961D02*
X81311905Y-55588723D01*
X81311905Y-55588723D02*
X81264286Y-55398247D01*
X81264286Y-55398247D02*
X81264286Y-55255390D01*
X81264286Y-55255390D02*
X81311905Y-55064914D01*
X81311905Y-55064914D02*
X81359524Y-54969676D01*
X81359524Y-54969676D02*
X81454762Y-54874438D01*
X81454762Y-54874438D02*
X81597619Y-54826819D01*
X81597619Y-54826819D02*
X81692857Y-54826819D01*
X81692857Y-54826819D02*
X81835714Y-54874438D01*
X81835714Y-54874438D02*
X81883333Y-54922057D01*
X82311905Y-55826819D02*
X82311905Y-54826819D01*
X82311905Y-54826819D02*
X82692857Y-54826819D01*
X82692857Y-54826819D02*
X82788095Y-54874438D01*
X82788095Y-54874438D02*
X82835714Y-54922057D01*
X82835714Y-54922057D02*
X82883333Y-55017295D01*
X82883333Y-55017295D02*
X82883333Y-55160152D01*
X82883333Y-55160152D02*
X82835714Y-55255390D01*
X82835714Y-55255390D02*
X82788095Y-55303009D01*
X82788095Y-55303009D02*
X82692857Y-55350628D01*
X82692857Y-55350628D02*
X82311905Y-55350628D01*
X83788095Y-54826819D02*
X83311905Y-54826819D01*
X83311905Y-54826819D02*
X83264286Y-55303009D01*
X83264286Y-55303009D02*
X83311905Y-55255390D01*
X83311905Y-55255390D02*
X83407143Y-55207771D01*
X83407143Y-55207771D02*
X83645238Y-55207771D01*
X83645238Y-55207771D02*
X83740476Y-55255390D01*
X83740476Y-55255390D02*
X83788095Y-55303009D01*
X83788095Y-55303009D02*
X83835714Y-55398247D01*
X83835714Y-55398247D02*
X83835714Y-55636342D01*
X83835714Y-55636342D02*
X83788095Y-55731580D01*
X83788095Y-55731580D02*
X83740476Y-55779200D01*
X83740476Y-55779200D02*
X83645238Y-55826819D01*
X83645238Y-55826819D02*
X83407143Y-55826819D01*
X83407143Y-55826819D02*
X83311905Y-55779200D01*
X83311905Y-55779200D02*
X83264286Y-55731580D01*
X77819333Y-52422819D02*
X77343143Y-52422819D01*
X77343143Y-52422819D02*
X77343143Y-51422819D01*
X78152667Y-52422819D02*
X78152667Y-51422819D01*
X78152667Y-51422819D02*
X78533619Y-51422819D01*
X78533619Y-51422819D02*
X78628857Y-51470438D01*
X78628857Y-51470438D02*
X78676476Y-51518057D01*
X78676476Y-51518057D02*
X78724095Y-51613295D01*
X78724095Y-51613295D02*
X78724095Y-51756152D01*
X78724095Y-51756152D02*
X78676476Y-51851390D01*
X78676476Y-51851390D02*
X78628857Y-51899009D01*
X78628857Y-51899009D02*
X78533619Y-51946628D01*
X78533619Y-51946628D02*
X78152667Y-51946628D01*
X79676476Y-52422819D02*
X79105048Y-52422819D01*
X79390762Y-52422819D02*
X79390762Y-51422819D01*
X79390762Y-51422819D02*
X79295524Y-51565676D01*
X79295524Y-51565676D02*
X79200286Y-51660914D01*
X79200286Y-51660914D02*
X79105048Y-51708533D01*
X71479819Y-45351333D02*
X72194104Y-45351333D01*
X72194104Y-45351333D02*
X72336961Y-45398952D01*
X72336961Y-45398952D02*
X72432200Y-45494190D01*
X72432200Y-45494190D02*
X72479819Y-45637047D01*
X72479819Y-45637047D02*
X72479819Y-45732285D01*
X72479819Y-44351333D02*
X72479819Y-44922761D01*
X72479819Y-44637047D02*
X71479819Y-44637047D01*
X71479819Y-44637047D02*
X71622676Y-44732285D01*
X71622676Y-44732285D02*
X71717914Y-44827523D01*
X71717914Y-44827523D02*
X71765533Y-44922761D01*
X120082666Y-81985819D02*
X119749333Y-81509628D01*
X119511238Y-81985819D02*
X119511238Y-80985819D01*
X119511238Y-80985819D02*
X119892190Y-80985819D01*
X119892190Y-80985819D02*
X119987428Y-81033438D01*
X119987428Y-81033438D02*
X120035047Y-81081057D01*
X120035047Y-81081057D02*
X120082666Y-81176295D01*
X120082666Y-81176295D02*
X120082666Y-81319152D01*
X120082666Y-81319152D02*
X120035047Y-81414390D01*
X120035047Y-81414390D02*
X119987428Y-81462009D01*
X119987428Y-81462009D02*
X119892190Y-81509628D01*
X119892190Y-81509628D02*
X119511238Y-81509628D01*
X120844571Y-81462009D02*
X120511238Y-81462009D01*
X120511238Y-81985819D02*
X120511238Y-80985819D01*
X120511238Y-80985819D02*
X120987428Y-80985819D01*
X121225524Y-80985819D02*
X121796952Y-80985819D01*
X121511238Y-81985819D02*
X121511238Y-80985819D01*
X122082667Y-81081057D02*
X122130286Y-81033438D01*
X122130286Y-81033438D02*
X122225524Y-80985819D01*
X122225524Y-80985819D02*
X122463619Y-80985819D01*
X122463619Y-80985819D02*
X122558857Y-81033438D01*
X122558857Y-81033438D02*
X122606476Y-81081057D01*
X122606476Y-81081057D02*
X122654095Y-81176295D01*
X122654095Y-81176295D02*
X122654095Y-81271533D01*
X122654095Y-81271533D02*
X122606476Y-81414390D01*
X122606476Y-81414390D02*
X122035048Y-81985819D01*
X122035048Y-81985819D02*
X122654095Y-81985819D01*
X122844572Y-82081057D02*
X123606476Y-82081057D01*
X124368381Y-81985819D02*
X123796953Y-81985819D01*
X124082667Y-81985819D02*
X124082667Y-80985819D01*
X124082667Y-80985819D02*
X123987429Y-81128676D01*
X123987429Y-81128676D02*
X123892191Y-81223914D01*
X123892191Y-81223914D02*
X123796953Y-81271533D01*
X71826523Y-81258580D02*
X71778904Y-81306200D01*
X71778904Y-81306200D02*
X71636047Y-81353819D01*
X71636047Y-81353819D02*
X71540809Y-81353819D01*
X71540809Y-81353819D02*
X71397952Y-81306200D01*
X71397952Y-81306200D02*
X71302714Y-81210961D01*
X71302714Y-81210961D02*
X71255095Y-81115723D01*
X71255095Y-81115723D02*
X71207476Y-80925247D01*
X71207476Y-80925247D02*
X71207476Y-80782390D01*
X71207476Y-80782390D02*
X71255095Y-80591914D01*
X71255095Y-80591914D02*
X71302714Y-80496676D01*
X71302714Y-80496676D02*
X71397952Y-80401438D01*
X71397952Y-80401438D02*
X71540809Y-80353819D01*
X71540809Y-80353819D02*
X71636047Y-80353819D01*
X71636047Y-80353819D02*
X71778904Y-80401438D01*
X71778904Y-80401438D02*
X71826523Y-80449057D01*
X72255095Y-81353819D02*
X72255095Y-80353819D01*
X72255095Y-80353819D02*
X72826523Y-81353819D01*
X72826523Y-81353819D02*
X72826523Y-80353819D01*
X73731285Y-80687152D02*
X73731285Y-81353819D01*
X73493190Y-80306200D02*
X73255095Y-81020485D01*
X73255095Y-81020485D02*
X73874142Y-81020485D01*
X106206905Y-63068819D02*
X106206905Y-62068819D01*
X106206905Y-62068819D02*
X106445000Y-62068819D01*
X106445000Y-62068819D02*
X106587857Y-62116438D01*
X106587857Y-62116438D02*
X106683095Y-62211676D01*
X106683095Y-62211676D02*
X106730714Y-62306914D01*
X106730714Y-62306914D02*
X106778333Y-62497390D01*
X106778333Y-62497390D02*
X106778333Y-62640247D01*
X106778333Y-62640247D02*
X106730714Y-62830723D01*
X106730714Y-62830723D02*
X106683095Y-62925961D01*
X106683095Y-62925961D02*
X106587857Y-63021200D01*
X106587857Y-63021200D02*
X106445000Y-63068819D01*
X106445000Y-63068819D02*
X106206905Y-63068819D01*
X107159286Y-62164057D02*
X107206905Y-62116438D01*
X107206905Y-62116438D02*
X107302143Y-62068819D01*
X107302143Y-62068819D02*
X107540238Y-62068819D01*
X107540238Y-62068819D02*
X107635476Y-62116438D01*
X107635476Y-62116438D02*
X107683095Y-62164057D01*
X107683095Y-62164057D02*
X107730714Y-62259295D01*
X107730714Y-62259295D02*
X107730714Y-62354533D01*
X107730714Y-62354533D02*
X107683095Y-62497390D01*
X107683095Y-62497390D02*
X107111667Y-63068819D01*
X107111667Y-63068819D02*
X107730714Y-63068819D01*
X87558523Y-79575819D02*
X87225190Y-79099628D01*
X86987095Y-79575819D02*
X86987095Y-78575819D01*
X86987095Y-78575819D02*
X87368047Y-78575819D01*
X87368047Y-78575819D02*
X87463285Y-78623438D01*
X87463285Y-78623438D02*
X87510904Y-78671057D01*
X87510904Y-78671057D02*
X87558523Y-78766295D01*
X87558523Y-78766295D02*
X87558523Y-78909152D01*
X87558523Y-78909152D02*
X87510904Y-79004390D01*
X87510904Y-79004390D02*
X87463285Y-79052009D01*
X87463285Y-79052009D02*
X87368047Y-79099628D01*
X87368047Y-79099628D02*
X86987095Y-79099628D01*
X87987095Y-79575819D02*
X87987095Y-78575819D01*
X87987095Y-78575819D02*
X88558523Y-79575819D01*
X88558523Y-79575819D02*
X88558523Y-78575819D01*
X89558523Y-79575819D02*
X88987095Y-79575819D01*
X89272809Y-79575819D02*
X89272809Y-78575819D01*
X89272809Y-78575819D02*
X89177571Y-78718676D01*
X89177571Y-78718676D02*
X89082333Y-78813914D01*
X89082333Y-78813914D02*
X88987095Y-78861533D01*
X112893580Y-83451309D02*
X112941200Y-83498928D01*
X112941200Y-83498928D02*
X112988819Y-83641785D01*
X112988819Y-83641785D02*
X112988819Y-83737023D01*
X112988819Y-83737023D02*
X112941200Y-83879880D01*
X112941200Y-83879880D02*
X112845961Y-83975118D01*
X112845961Y-83975118D02*
X112750723Y-84022737D01*
X112750723Y-84022737D02*
X112560247Y-84070356D01*
X112560247Y-84070356D02*
X112417390Y-84070356D01*
X112417390Y-84070356D02*
X112226914Y-84022737D01*
X112226914Y-84022737D02*
X112131676Y-83975118D01*
X112131676Y-83975118D02*
X112036438Y-83879880D01*
X112036438Y-83879880D02*
X111988819Y-83737023D01*
X111988819Y-83737023D02*
X111988819Y-83641785D01*
X111988819Y-83641785D02*
X112036438Y-83498928D01*
X112036438Y-83498928D02*
X112084057Y-83451309D01*
X112893580Y-82451309D02*
X112941200Y-82498928D01*
X112941200Y-82498928D02*
X112988819Y-82641785D01*
X112988819Y-82641785D02*
X112988819Y-82737023D01*
X112988819Y-82737023D02*
X112941200Y-82879880D01*
X112941200Y-82879880D02*
X112845961Y-82975118D01*
X112845961Y-82975118D02*
X112750723Y-83022737D01*
X112750723Y-83022737D02*
X112560247Y-83070356D01*
X112560247Y-83070356D02*
X112417390Y-83070356D01*
X112417390Y-83070356D02*
X112226914Y-83022737D01*
X112226914Y-83022737D02*
X112131676Y-82975118D01*
X112131676Y-82975118D02*
X112036438Y-82879880D01*
X112036438Y-82879880D02*
X111988819Y-82737023D01*
X111988819Y-82737023D02*
X111988819Y-82641785D01*
X111988819Y-82641785D02*
X112036438Y-82498928D01*
X112036438Y-82498928D02*
X112084057Y-82451309D01*
X112988819Y-81498928D02*
X112988819Y-82070356D01*
X112988819Y-81784642D02*
X111988819Y-81784642D01*
X111988819Y-81784642D02*
X112131676Y-81879880D01*
X112131676Y-81879880D02*
X112226914Y-81975118D01*
X112226914Y-81975118D02*
X112274533Y-82070356D01*
X113084057Y-81308452D02*
X113084057Y-80546547D01*
X112988819Y-79784642D02*
X112988819Y-80356070D01*
X112988819Y-80070356D02*
X111988819Y-80070356D01*
X111988819Y-80070356D02*
X112131676Y-80165594D01*
X112131676Y-80165594D02*
X112226914Y-80260832D01*
X112226914Y-80260832D02*
X112274533Y-80356070D01*
X81371523Y-68236819D02*
X81038190Y-67760628D01*
X80800095Y-68236819D02*
X80800095Y-67236819D01*
X80800095Y-67236819D02*
X81181047Y-67236819D01*
X81181047Y-67236819D02*
X81276285Y-67284438D01*
X81276285Y-67284438D02*
X81323904Y-67332057D01*
X81323904Y-67332057D02*
X81371523Y-67427295D01*
X81371523Y-67427295D02*
X81371523Y-67570152D01*
X81371523Y-67570152D02*
X81323904Y-67665390D01*
X81323904Y-67665390D02*
X81276285Y-67713009D01*
X81276285Y-67713009D02*
X81181047Y-67760628D01*
X81181047Y-67760628D02*
X80800095Y-67760628D01*
X81800095Y-68236819D02*
X81800095Y-67236819D01*
X81800095Y-67236819D02*
X82371523Y-68236819D01*
X82371523Y-68236819D02*
X82371523Y-67236819D01*
X83323904Y-67236819D02*
X82847714Y-67236819D01*
X82847714Y-67236819D02*
X82800095Y-67713009D01*
X82800095Y-67713009D02*
X82847714Y-67665390D01*
X82847714Y-67665390D02*
X82942952Y-67617771D01*
X82942952Y-67617771D02*
X83181047Y-67617771D01*
X83181047Y-67617771D02*
X83276285Y-67665390D01*
X83276285Y-67665390D02*
X83323904Y-67713009D01*
X83323904Y-67713009D02*
X83371523Y-67808247D01*
X83371523Y-67808247D02*
X83371523Y-68046342D01*
X83371523Y-68046342D02*
X83323904Y-68141580D01*
X83323904Y-68141580D02*
X83276285Y-68189200D01*
X83276285Y-68189200D02*
X83181047Y-68236819D01*
X83181047Y-68236819D02*
X82942952Y-68236819D01*
X82942952Y-68236819D02*
X82847714Y-68189200D01*
X82847714Y-68189200D02*
X82800095Y-68141580D01*
X79043580Y-65426166D02*
X79091200Y-65473785D01*
X79091200Y-65473785D02*
X79138819Y-65616642D01*
X79138819Y-65616642D02*
X79138819Y-65711880D01*
X79138819Y-65711880D02*
X79091200Y-65854737D01*
X79091200Y-65854737D02*
X78995961Y-65949975D01*
X78995961Y-65949975D02*
X78900723Y-65997594D01*
X78900723Y-65997594D02*
X78710247Y-66045213D01*
X78710247Y-66045213D02*
X78567390Y-66045213D01*
X78567390Y-66045213D02*
X78376914Y-65997594D01*
X78376914Y-65997594D02*
X78281676Y-65949975D01*
X78281676Y-65949975D02*
X78186438Y-65854737D01*
X78186438Y-65854737D02*
X78138819Y-65711880D01*
X78138819Y-65711880D02*
X78138819Y-65616642D01*
X78138819Y-65616642D02*
X78186438Y-65473785D01*
X78186438Y-65473785D02*
X78234057Y-65426166D01*
X79138819Y-64997594D02*
X78138819Y-64997594D01*
X78138819Y-64997594D02*
X78138819Y-64616642D01*
X78138819Y-64616642D02*
X78186438Y-64521404D01*
X78186438Y-64521404D02*
X78234057Y-64473785D01*
X78234057Y-64473785D02*
X78329295Y-64426166D01*
X78329295Y-64426166D02*
X78472152Y-64426166D01*
X78472152Y-64426166D02*
X78567390Y-64473785D01*
X78567390Y-64473785D02*
X78615009Y-64521404D01*
X78615009Y-64521404D02*
X78662628Y-64616642D01*
X78662628Y-64616642D02*
X78662628Y-64997594D01*
X78138819Y-64092832D02*
X78138819Y-63473785D01*
X78138819Y-63473785D02*
X78519771Y-63807118D01*
X78519771Y-63807118D02*
X78519771Y-63664261D01*
X78519771Y-63664261D02*
X78567390Y-63569023D01*
X78567390Y-63569023D02*
X78615009Y-63521404D01*
X78615009Y-63521404D02*
X78710247Y-63473785D01*
X78710247Y-63473785D02*
X78948342Y-63473785D01*
X78948342Y-63473785D02*
X79043580Y-63521404D01*
X79043580Y-63521404D02*
X79091200Y-63569023D01*
X79091200Y-63569023D02*
X79138819Y-63664261D01*
X79138819Y-63664261D02*
X79138819Y-63949975D01*
X79138819Y-63949975D02*
X79091200Y-64045213D01*
X79091200Y-64045213D02*
X79043580Y-64092832D01*
X72842523Y-74259580D02*
X72794904Y-74307200D01*
X72794904Y-74307200D02*
X72652047Y-74354819D01*
X72652047Y-74354819D02*
X72556809Y-74354819D01*
X72556809Y-74354819D02*
X72413952Y-74307200D01*
X72413952Y-74307200D02*
X72318714Y-74211961D01*
X72318714Y-74211961D02*
X72271095Y-74116723D01*
X72271095Y-74116723D02*
X72223476Y-73926247D01*
X72223476Y-73926247D02*
X72223476Y-73783390D01*
X72223476Y-73783390D02*
X72271095Y-73592914D01*
X72271095Y-73592914D02*
X72318714Y-73497676D01*
X72318714Y-73497676D02*
X72413952Y-73402438D01*
X72413952Y-73402438D02*
X72556809Y-73354819D01*
X72556809Y-73354819D02*
X72652047Y-73354819D01*
X72652047Y-73354819D02*
X72794904Y-73402438D01*
X72794904Y-73402438D02*
X72842523Y-73450057D01*
X73271095Y-74354819D02*
X73271095Y-73354819D01*
X73271095Y-73354819D02*
X73842523Y-74354819D01*
X73842523Y-74354819D02*
X73842523Y-73354819D01*
X74842523Y-74354819D02*
X74271095Y-74354819D01*
X74556809Y-74354819D02*
X74556809Y-73354819D01*
X74556809Y-73354819D02*
X74461571Y-73497676D01*
X74461571Y-73497676D02*
X74366333Y-73592914D01*
X74366333Y-73592914D02*
X74271095Y-73640533D01*
X80858319Y-82660476D02*
X80382128Y-82993809D01*
X80858319Y-83231904D02*
X79858319Y-83231904D01*
X79858319Y-83231904D02*
X79858319Y-82850952D01*
X79858319Y-82850952D02*
X79905938Y-82755714D01*
X79905938Y-82755714D02*
X79953557Y-82708095D01*
X79953557Y-82708095D02*
X80048795Y-82660476D01*
X80048795Y-82660476D02*
X80191652Y-82660476D01*
X80191652Y-82660476D02*
X80286890Y-82708095D01*
X80286890Y-82708095D02*
X80334509Y-82755714D01*
X80334509Y-82755714D02*
X80382128Y-82850952D01*
X80382128Y-82850952D02*
X80382128Y-83231904D01*
X80858319Y-82231904D02*
X79858319Y-82231904D01*
X79858319Y-82231904D02*
X80858319Y-81660476D01*
X80858319Y-81660476D02*
X79858319Y-81660476D01*
X79858319Y-81279523D02*
X79858319Y-80660476D01*
X79858319Y-80660476D02*
X80239271Y-80993809D01*
X80239271Y-80993809D02*
X80239271Y-80850952D01*
X80239271Y-80850952D02*
X80286890Y-80755714D01*
X80286890Y-80755714D02*
X80334509Y-80708095D01*
X80334509Y-80708095D02*
X80429747Y-80660476D01*
X80429747Y-80660476D02*
X80667842Y-80660476D01*
X80667842Y-80660476D02*
X80763080Y-80708095D01*
X80763080Y-80708095D02*
X80810700Y-80755714D01*
X80810700Y-80755714D02*
X80858319Y-80850952D01*
X80858319Y-80850952D02*
X80858319Y-81136666D01*
X80858319Y-81136666D02*
X80810700Y-81231904D01*
X80810700Y-81231904D02*
X80763080Y-81279523D01*
X84285023Y-83329819D02*
X83951690Y-82853628D01*
X83713595Y-83329819D02*
X83713595Y-82329819D01*
X83713595Y-82329819D02*
X84094547Y-82329819D01*
X84094547Y-82329819D02*
X84189785Y-82377438D01*
X84189785Y-82377438D02*
X84237404Y-82425057D01*
X84237404Y-82425057D02*
X84285023Y-82520295D01*
X84285023Y-82520295D02*
X84285023Y-82663152D01*
X84285023Y-82663152D02*
X84237404Y-82758390D01*
X84237404Y-82758390D02*
X84189785Y-82806009D01*
X84189785Y-82806009D02*
X84094547Y-82853628D01*
X84094547Y-82853628D02*
X83713595Y-82853628D01*
X84713595Y-83329819D02*
X84713595Y-82329819D01*
X84713595Y-82329819D02*
X85285023Y-83329819D01*
X85285023Y-83329819D02*
X85285023Y-82329819D01*
X86189785Y-82663152D02*
X86189785Y-83329819D01*
X85951690Y-82282200D02*
X85713595Y-82996485D01*
X85713595Y-82996485D02*
X86332642Y-82996485D01*
D12*
X90218380Y-68773318D02*
X90218380Y-67503318D01*
X90218380Y-67503318D02*
X90520761Y-67503318D01*
X90520761Y-67503318D02*
X90702190Y-67563794D01*
X90702190Y-67563794D02*
X90823142Y-67684746D01*
X90823142Y-67684746D02*
X90883619Y-67805699D01*
X90883619Y-67805699D02*
X90944095Y-68047603D01*
X90944095Y-68047603D02*
X90944095Y-68229032D01*
X90944095Y-68229032D02*
X90883619Y-68470937D01*
X90883619Y-68470937D02*
X90823142Y-68591889D01*
X90823142Y-68591889D02*
X90702190Y-68712842D01*
X90702190Y-68712842D02*
X90520761Y-68773318D01*
X90520761Y-68773318D02*
X90218380Y-68773318D01*
X91488380Y-68773318D02*
X91488380Y-67503318D01*
X91488380Y-67503318D02*
X92214095Y-68773318D01*
X92214095Y-68773318D02*
X92214095Y-67503318D01*
X93484095Y-68773318D02*
X92758380Y-68773318D01*
X93121237Y-68773318D02*
X93121237Y-67503318D01*
X93121237Y-67503318D02*
X93000285Y-67684746D01*
X93000285Y-67684746D02*
X92879333Y-67805699D01*
X92879333Y-67805699D02*
X92758380Y-67866175D01*
X86662380Y-68773318D02*
X86662380Y-67503318D01*
X86662380Y-67503318D02*
X86964761Y-67503318D01*
X86964761Y-67503318D02*
X87146190Y-67563794D01*
X87146190Y-67563794D02*
X87267142Y-67684746D01*
X87267142Y-67684746D02*
X87327619Y-67805699D01*
X87327619Y-67805699D02*
X87388095Y-68047603D01*
X87388095Y-68047603D02*
X87388095Y-68229032D01*
X87388095Y-68229032D02*
X87327619Y-68470937D01*
X87327619Y-68470937D02*
X87267142Y-68591889D01*
X87267142Y-68591889D02*
X87146190Y-68712842D01*
X87146190Y-68712842D02*
X86964761Y-68773318D01*
X86964761Y-68773318D02*
X86662380Y-68773318D01*
X87932380Y-68773318D02*
X87932380Y-67503318D01*
X87932380Y-67503318D02*
X88658095Y-68773318D01*
X88658095Y-68773318D02*
X88658095Y-67503318D01*
X89202380Y-67624270D02*
X89262856Y-67563794D01*
X89262856Y-67563794D02*
X89383809Y-67503318D01*
X89383809Y-67503318D02*
X89686190Y-67503318D01*
X89686190Y-67503318D02*
X89807142Y-67563794D01*
X89807142Y-67563794D02*
X89867618Y-67624270D01*
X89867618Y-67624270D02*
X89928095Y-67745222D01*
X89928095Y-67745222D02*
X89928095Y-67866175D01*
X89928095Y-67866175D02*
X89867618Y-68047603D01*
X89867618Y-68047603D02*
X89141904Y-68773318D01*
X89141904Y-68773318D02*
X89928095Y-68773318D01*
D10*
X71596333Y-63986580D02*
X71548714Y-64034200D01*
X71548714Y-64034200D02*
X71405857Y-64081819D01*
X71405857Y-64081819D02*
X71310619Y-64081819D01*
X71310619Y-64081819D02*
X71167762Y-64034200D01*
X71167762Y-64034200D02*
X71072524Y-63938961D01*
X71072524Y-63938961D02*
X71024905Y-63843723D01*
X71024905Y-63843723D02*
X70977286Y-63653247D01*
X70977286Y-63653247D02*
X70977286Y-63510390D01*
X70977286Y-63510390D02*
X71024905Y-63319914D01*
X71024905Y-63319914D02*
X71072524Y-63224676D01*
X71072524Y-63224676D02*
X71167762Y-63129438D01*
X71167762Y-63129438D02*
X71310619Y-63081819D01*
X71310619Y-63081819D02*
X71405857Y-63081819D01*
X71405857Y-63081819D02*
X71548714Y-63129438D01*
X71548714Y-63129438D02*
X71596333Y-63177057D01*
X72024905Y-64081819D02*
X72024905Y-63081819D01*
X72024905Y-63081819D02*
X72405857Y-63081819D01*
X72405857Y-63081819D02*
X72501095Y-63129438D01*
X72501095Y-63129438D02*
X72548714Y-63177057D01*
X72548714Y-63177057D02*
X72596333Y-63272295D01*
X72596333Y-63272295D02*
X72596333Y-63415152D01*
X72596333Y-63415152D02*
X72548714Y-63510390D01*
X72548714Y-63510390D02*
X72501095Y-63558009D01*
X72501095Y-63558009D02*
X72405857Y-63605628D01*
X72405857Y-63605628D02*
X72024905Y-63605628D01*
X73453476Y-63415152D02*
X73453476Y-64081819D01*
X73215381Y-63034200D02*
X72977286Y-63748485D01*
X72977286Y-63748485D02*
X73596333Y-63748485D01*
X115374618Y-52470580D02*
X115326999Y-52518200D01*
X115326999Y-52518200D02*
X115184142Y-52565819D01*
X115184142Y-52565819D02*
X115088904Y-52565819D01*
X115088904Y-52565819D02*
X114946047Y-52518200D01*
X114946047Y-52518200D02*
X114850809Y-52422961D01*
X114850809Y-52422961D02*
X114803190Y-52327723D01*
X114803190Y-52327723D02*
X114755571Y-52137247D01*
X114755571Y-52137247D02*
X114755571Y-51994390D01*
X114755571Y-51994390D02*
X114803190Y-51803914D01*
X114803190Y-51803914D02*
X114850809Y-51708676D01*
X114850809Y-51708676D02*
X114946047Y-51613438D01*
X114946047Y-51613438D02*
X115088904Y-51565819D01*
X115088904Y-51565819D02*
X115184142Y-51565819D01*
X115184142Y-51565819D02*
X115326999Y-51613438D01*
X115326999Y-51613438D02*
X115374618Y-51661057D01*
X115993666Y-51565819D02*
X116184142Y-51565819D01*
X116184142Y-51565819D02*
X116279380Y-51613438D01*
X116279380Y-51613438D02*
X116374618Y-51708676D01*
X116374618Y-51708676D02*
X116422237Y-51899152D01*
X116422237Y-51899152D02*
X116422237Y-52232485D01*
X116422237Y-52232485D02*
X116374618Y-52422961D01*
X116374618Y-52422961D02*
X116279380Y-52518200D01*
X116279380Y-52518200D02*
X116184142Y-52565819D01*
X116184142Y-52565819D02*
X115993666Y-52565819D01*
X115993666Y-52565819D02*
X115898428Y-52518200D01*
X115898428Y-52518200D02*
X115803190Y-52422961D01*
X115803190Y-52422961D02*
X115755571Y-52232485D01*
X115755571Y-52232485D02*
X115755571Y-51899152D01*
X115755571Y-51899152D02*
X115803190Y-51708676D01*
X115803190Y-51708676D02*
X115898428Y-51613438D01*
X115898428Y-51613438D02*
X115993666Y-51565819D01*
X116850809Y-51565819D02*
X116850809Y-52375342D01*
X116850809Y-52375342D02*
X116898428Y-52470580D01*
X116898428Y-52470580D02*
X116946047Y-52518200D01*
X116946047Y-52518200D02*
X117041285Y-52565819D01*
X117041285Y-52565819D02*
X117231761Y-52565819D01*
X117231761Y-52565819D02*
X117326999Y-52518200D01*
X117326999Y-52518200D02*
X117374618Y-52470580D01*
X117374618Y-52470580D02*
X117422237Y-52375342D01*
X117422237Y-52375342D02*
X117422237Y-51565819D01*
X117755571Y-51565819D02*
X118326999Y-51565819D01*
X118041285Y-52565819D02*
X118041285Y-51565819D01*
X118612714Y-51661057D02*
X118660333Y-51613438D01*
X118660333Y-51613438D02*
X118755571Y-51565819D01*
X118755571Y-51565819D02*
X118993666Y-51565819D01*
X118993666Y-51565819D02*
X119088904Y-51613438D01*
X119088904Y-51613438D02*
X119136523Y-51661057D01*
X119136523Y-51661057D02*
X119184142Y-51756295D01*
X119184142Y-51756295D02*
X119184142Y-51851533D01*
X119184142Y-51851533D02*
X119136523Y-51994390D01*
X119136523Y-51994390D02*
X118565095Y-52565819D01*
X118565095Y-52565819D02*
X119184142Y-52565819D01*
X119374619Y-52661057D02*
X120136523Y-52661057D01*
X120898428Y-52565819D02*
X120327000Y-52565819D01*
X120612714Y-52565819D02*
X120612714Y-51565819D01*
X120612714Y-51565819D02*
X120517476Y-51708676D01*
X120517476Y-51708676D02*
X120422238Y-51803914D01*
X120422238Y-51803914D02*
X120327000Y-51851533D01*
X110448819Y-83413809D02*
X109972628Y-83747142D01*
X110448819Y-83985237D02*
X109448819Y-83985237D01*
X109448819Y-83985237D02*
X109448819Y-83604285D01*
X109448819Y-83604285D02*
X109496438Y-83509047D01*
X109496438Y-83509047D02*
X109544057Y-83461428D01*
X109544057Y-83461428D02*
X109639295Y-83413809D01*
X109639295Y-83413809D02*
X109782152Y-83413809D01*
X109782152Y-83413809D02*
X109877390Y-83461428D01*
X109877390Y-83461428D02*
X109925009Y-83509047D01*
X109925009Y-83509047D02*
X109972628Y-83604285D01*
X109972628Y-83604285D02*
X109972628Y-83985237D01*
X110353580Y-82413809D02*
X110401200Y-82461428D01*
X110401200Y-82461428D02*
X110448819Y-82604285D01*
X110448819Y-82604285D02*
X110448819Y-82699523D01*
X110448819Y-82699523D02*
X110401200Y-82842380D01*
X110401200Y-82842380D02*
X110305961Y-82937618D01*
X110305961Y-82937618D02*
X110210723Y-82985237D01*
X110210723Y-82985237D02*
X110020247Y-83032856D01*
X110020247Y-83032856D02*
X109877390Y-83032856D01*
X109877390Y-83032856D02*
X109686914Y-82985237D01*
X109686914Y-82985237D02*
X109591676Y-82937618D01*
X109591676Y-82937618D02*
X109496438Y-82842380D01*
X109496438Y-82842380D02*
X109448819Y-82699523D01*
X109448819Y-82699523D02*
X109448819Y-82604285D01*
X109448819Y-82604285D02*
X109496438Y-82461428D01*
X109496438Y-82461428D02*
X109544057Y-82413809D01*
X110448819Y-81461428D02*
X110448819Y-82032856D01*
X110448819Y-81747142D02*
X109448819Y-81747142D01*
X109448819Y-81747142D02*
X109591676Y-81842380D01*
X109591676Y-81842380D02*
X109686914Y-81937618D01*
X109686914Y-81937618D02*
X109734533Y-82032856D01*
X110544057Y-81270952D02*
X110544057Y-80509047D01*
X110448819Y-79747142D02*
X110448819Y-80318570D01*
X110448819Y-80032856D02*
X109448819Y-80032856D01*
X109448819Y-80032856D02*
X109591676Y-80128094D01*
X109591676Y-80128094D02*
X109686914Y-80223332D01*
X109686914Y-80223332D02*
X109734533Y-80318570D01*
X111518095Y-66513819D02*
X111518095Y-67323342D01*
X111518095Y-67323342D02*
X111565714Y-67418580D01*
X111565714Y-67418580D02*
X111613333Y-67466200D01*
X111613333Y-67466200D02*
X111708571Y-67513819D01*
X111708571Y-67513819D02*
X111899047Y-67513819D01*
X111899047Y-67513819D02*
X111994285Y-67466200D01*
X111994285Y-67466200D02*
X112041904Y-67418580D01*
X112041904Y-67418580D02*
X112089523Y-67323342D01*
X112089523Y-67323342D02*
X112089523Y-66513819D01*
X113089523Y-67513819D02*
X112518095Y-67513819D01*
X112803809Y-67513819D02*
X112803809Y-66513819D01*
X112803809Y-66513819D02*
X112708571Y-66656676D01*
X112708571Y-66656676D02*
X112613333Y-66751914D01*
X112613333Y-66751914D02*
X112518095Y-66799533D01*
X78176523Y-69567819D02*
X77700333Y-69567819D01*
X77700333Y-69567819D02*
X77700333Y-68567819D01*
X78509857Y-69567819D02*
X78509857Y-68567819D01*
X78509857Y-68567819D02*
X79081285Y-69567819D01*
X79081285Y-69567819D02*
X79081285Y-68567819D01*
X80081285Y-69567819D02*
X79509857Y-69567819D01*
X79795571Y-69567819D02*
X79795571Y-68567819D01*
X79795571Y-68567819D02*
X79700333Y-68710676D01*
X79700333Y-68710676D02*
X79605095Y-68805914D01*
X79605095Y-68805914D02*
X79509857Y-68853533D01*
X120767580Y-66590523D02*
X120815200Y-66638142D01*
X120815200Y-66638142D02*
X120862819Y-66780999D01*
X120862819Y-66780999D02*
X120862819Y-66876237D01*
X120862819Y-66876237D02*
X120815200Y-67019094D01*
X120815200Y-67019094D02*
X120719961Y-67114332D01*
X120719961Y-67114332D02*
X120624723Y-67161951D01*
X120624723Y-67161951D02*
X120434247Y-67209570D01*
X120434247Y-67209570D02*
X120291390Y-67209570D01*
X120291390Y-67209570D02*
X120100914Y-67161951D01*
X120100914Y-67161951D02*
X120005676Y-67114332D01*
X120005676Y-67114332D02*
X119910438Y-67019094D01*
X119910438Y-67019094D02*
X119862819Y-66876237D01*
X119862819Y-66876237D02*
X119862819Y-66780999D01*
X119862819Y-66780999D02*
X119910438Y-66638142D01*
X119910438Y-66638142D02*
X119958057Y-66590523D01*
X120862819Y-66161951D02*
X119862819Y-66161951D01*
X120862819Y-65685761D02*
X119862819Y-65685761D01*
X119862819Y-65685761D02*
X120862819Y-65114333D01*
X120862819Y-65114333D02*
X119862819Y-65114333D01*
X120958057Y-64876238D02*
X120958057Y-64114333D01*
X120862819Y-63352428D02*
X120862819Y-63923856D01*
X120862819Y-63638142D02*
X119862819Y-63638142D01*
X119862819Y-63638142D02*
X120005676Y-63733380D01*
X120005676Y-63733380D02*
X120100914Y-63828618D01*
X120100914Y-63828618D02*
X120148533Y-63923856D01*
X100786580Y-64600666D02*
X100834200Y-64648285D01*
X100834200Y-64648285D02*
X100881819Y-64791142D01*
X100881819Y-64791142D02*
X100881819Y-64886380D01*
X100881819Y-64886380D02*
X100834200Y-65029237D01*
X100834200Y-65029237D02*
X100738961Y-65124475D01*
X100738961Y-65124475D02*
X100643723Y-65172094D01*
X100643723Y-65172094D02*
X100453247Y-65219713D01*
X100453247Y-65219713D02*
X100310390Y-65219713D01*
X100310390Y-65219713D02*
X100119914Y-65172094D01*
X100119914Y-65172094D02*
X100024676Y-65124475D01*
X100024676Y-65124475D02*
X99929438Y-65029237D01*
X99929438Y-65029237D02*
X99881819Y-64886380D01*
X99881819Y-64886380D02*
X99881819Y-64791142D01*
X99881819Y-64791142D02*
X99929438Y-64648285D01*
X99929438Y-64648285D02*
X99977057Y-64600666D01*
X100881819Y-63648285D02*
X100881819Y-64219713D01*
X100881819Y-63933999D02*
X99881819Y-63933999D01*
X99881819Y-63933999D02*
X100024676Y-64029237D01*
X100024676Y-64029237D02*
X100119914Y-64124475D01*
X100119914Y-64124475D02*
X100167533Y-64219713D01*
X86138104Y-74466380D02*
X86176200Y-74504476D01*
X86176200Y-74504476D02*
X86214295Y-74618761D01*
X86214295Y-74618761D02*
X86214295Y-74694952D01*
X86214295Y-74694952D02*
X86176200Y-74809238D01*
X86176200Y-74809238D02*
X86100009Y-74885428D01*
X86100009Y-74885428D02*
X86023819Y-74923523D01*
X86023819Y-74923523D02*
X85871438Y-74961619D01*
X85871438Y-74961619D02*
X85757152Y-74961619D01*
X85757152Y-74961619D02*
X85604771Y-74923523D01*
X85604771Y-74923523D02*
X85528580Y-74885428D01*
X85528580Y-74885428D02*
X85452390Y-74809238D01*
X85452390Y-74809238D02*
X85414295Y-74694952D01*
X85414295Y-74694952D02*
X85414295Y-74618761D01*
X85414295Y-74618761D02*
X85452390Y-74504476D01*
X85452390Y-74504476D02*
X85490485Y-74466380D01*
X86214295Y-74123523D02*
X85414295Y-74123523D01*
X85414295Y-74123523D02*
X86214295Y-73666380D01*
X86214295Y-73666380D02*
X85414295Y-73666380D01*
X85414295Y-72942571D02*
X85414295Y-73094952D01*
X85414295Y-73094952D02*
X85452390Y-73171143D01*
X85452390Y-73171143D02*
X85490485Y-73209238D01*
X85490485Y-73209238D02*
X85604771Y-73285428D01*
X85604771Y-73285428D02*
X85757152Y-73323524D01*
X85757152Y-73323524D02*
X86061914Y-73323524D01*
X86061914Y-73323524D02*
X86138104Y-73285428D01*
X86138104Y-73285428D02*
X86176200Y-73247333D01*
X86176200Y-73247333D02*
X86214295Y-73171143D01*
X86214295Y-73171143D02*
X86214295Y-73018762D01*
X86214295Y-73018762D02*
X86176200Y-72942571D01*
X86176200Y-72942571D02*
X86138104Y-72904476D01*
X86138104Y-72904476D02*
X86061914Y-72866381D01*
X86061914Y-72866381D02*
X85871438Y-72866381D01*
X85871438Y-72866381D02*
X85795247Y-72904476D01*
X85795247Y-72904476D02*
X85757152Y-72942571D01*
X85757152Y-72942571D02*
X85719057Y-73018762D01*
X85719057Y-73018762D02*
X85719057Y-73171143D01*
X85719057Y-73171143D02*
X85757152Y-73247333D01*
X85757152Y-73247333D02*
X85795247Y-73285428D01*
X85795247Y-73285428D02*
X85871438Y-73323524D01*
X115687580Y-83472809D02*
X115735200Y-83520428D01*
X115735200Y-83520428D02*
X115782819Y-83663285D01*
X115782819Y-83663285D02*
X115782819Y-83758523D01*
X115782819Y-83758523D02*
X115735200Y-83901380D01*
X115735200Y-83901380D02*
X115639961Y-83996618D01*
X115639961Y-83996618D02*
X115544723Y-84044237D01*
X115544723Y-84044237D02*
X115354247Y-84091856D01*
X115354247Y-84091856D02*
X115211390Y-84091856D01*
X115211390Y-84091856D02*
X115020914Y-84044237D01*
X115020914Y-84044237D02*
X114925676Y-83996618D01*
X114925676Y-83996618D02*
X114830438Y-83901380D01*
X114830438Y-83901380D02*
X114782819Y-83758523D01*
X114782819Y-83758523D02*
X114782819Y-83663285D01*
X114782819Y-83663285D02*
X114830438Y-83520428D01*
X114830438Y-83520428D02*
X114878057Y-83472809D01*
X115687580Y-82472809D02*
X115735200Y-82520428D01*
X115735200Y-82520428D02*
X115782819Y-82663285D01*
X115782819Y-82663285D02*
X115782819Y-82758523D01*
X115782819Y-82758523D02*
X115735200Y-82901380D01*
X115735200Y-82901380D02*
X115639961Y-82996618D01*
X115639961Y-82996618D02*
X115544723Y-83044237D01*
X115544723Y-83044237D02*
X115354247Y-83091856D01*
X115354247Y-83091856D02*
X115211390Y-83091856D01*
X115211390Y-83091856D02*
X115020914Y-83044237D01*
X115020914Y-83044237D02*
X114925676Y-82996618D01*
X114925676Y-82996618D02*
X114830438Y-82901380D01*
X114830438Y-82901380D02*
X114782819Y-82758523D01*
X114782819Y-82758523D02*
X114782819Y-82663285D01*
X114782819Y-82663285D02*
X114830438Y-82520428D01*
X114830438Y-82520428D02*
X114878057Y-82472809D01*
X114878057Y-82091856D02*
X114830438Y-82044237D01*
X114830438Y-82044237D02*
X114782819Y-81948999D01*
X114782819Y-81948999D02*
X114782819Y-81710904D01*
X114782819Y-81710904D02*
X114830438Y-81615666D01*
X114830438Y-81615666D02*
X114878057Y-81568047D01*
X114878057Y-81568047D02*
X114973295Y-81520428D01*
X114973295Y-81520428D02*
X115068533Y-81520428D01*
X115068533Y-81520428D02*
X115211390Y-81568047D01*
X115211390Y-81568047D02*
X115782819Y-82139475D01*
X115782819Y-82139475D02*
X115782819Y-81520428D01*
X115878057Y-81329952D02*
X115878057Y-80568047D01*
X115782819Y-79806142D02*
X115782819Y-80377570D01*
X115782819Y-80091856D02*
X114782819Y-80091856D01*
X114782819Y-80091856D02*
X114925676Y-80187094D01*
X114925676Y-80187094D02*
X115020914Y-80282332D01*
X115020914Y-80282332D02*
X115068533Y-80377570D01*
X71596333Y-66367819D02*
X71263000Y-65891628D01*
X71024905Y-66367819D02*
X71024905Y-65367819D01*
X71024905Y-65367819D02*
X71405857Y-65367819D01*
X71405857Y-65367819D02*
X71501095Y-65415438D01*
X71501095Y-65415438D02*
X71548714Y-65463057D01*
X71548714Y-65463057D02*
X71596333Y-65558295D01*
X71596333Y-65558295D02*
X71596333Y-65701152D01*
X71596333Y-65701152D02*
X71548714Y-65796390D01*
X71548714Y-65796390D02*
X71501095Y-65844009D01*
X71501095Y-65844009D02*
X71405857Y-65891628D01*
X71405857Y-65891628D02*
X71024905Y-65891628D01*
X72024905Y-66367819D02*
X72024905Y-65367819D01*
X72024905Y-65367819D02*
X72405857Y-65367819D01*
X72405857Y-65367819D02*
X72501095Y-65415438D01*
X72501095Y-65415438D02*
X72548714Y-65463057D01*
X72548714Y-65463057D02*
X72596333Y-65558295D01*
X72596333Y-65558295D02*
X72596333Y-65701152D01*
X72596333Y-65701152D02*
X72548714Y-65796390D01*
X72548714Y-65796390D02*
X72501095Y-65844009D01*
X72501095Y-65844009D02*
X72405857Y-65891628D01*
X72405857Y-65891628D02*
X72024905Y-65891628D01*
X72977286Y-65463057D02*
X73024905Y-65415438D01*
X73024905Y-65415438D02*
X73120143Y-65367819D01*
X73120143Y-65367819D02*
X73358238Y-65367819D01*
X73358238Y-65367819D02*
X73453476Y-65415438D01*
X73453476Y-65415438D02*
X73501095Y-65463057D01*
X73501095Y-65463057D02*
X73548714Y-65558295D01*
X73548714Y-65558295D02*
X73548714Y-65653533D01*
X73548714Y-65653533D02*
X73501095Y-65796390D01*
X73501095Y-65796390D02*
X72929667Y-66367819D01*
X72929667Y-66367819D02*
X73548714Y-66367819D01*
X87598333Y-60176580D02*
X87550714Y-60224200D01*
X87550714Y-60224200D02*
X87407857Y-60271819D01*
X87407857Y-60271819D02*
X87312619Y-60271819D01*
X87312619Y-60271819D02*
X87169762Y-60224200D01*
X87169762Y-60224200D02*
X87074524Y-60128961D01*
X87074524Y-60128961D02*
X87026905Y-60033723D01*
X87026905Y-60033723D02*
X86979286Y-59843247D01*
X86979286Y-59843247D02*
X86979286Y-59700390D01*
X86979286Y-59700390D02*
X87026905Y-59509914D01*
X87026905Y-59509914D02*
X87074524Y-59414676D01*
X87074524Y-59414676D02*
X87169762Y-59319438D01*
X87169762Y-59319438D02*
X87312619Y-59271819D01*
X87312619Y-59271819D02*
X87407857Y-59271819D01*
X87407857Y-59271819D02*
X87550714Y-59319438D01*
X87550714Y-59319438D02*
X87598333Y-59367057D01*
X88026905Y-60271819D02*
X88026905Y-59271819D01*
X88026905Y-59271819D02*
X88407857Y-59271819D01*
X88407857Y-59271819D02*
X88503095Y-59319438D01*
X88503095Y-59319438D02*
X88550714Y-59367057D01*
X88550714Y-59367057D02*
X88598333Y-59462295D01*
X88598333Y-59462295D02*
X88598333Y-59605152D01*
X88598333Y-59605152D02*
X88550714Y-59700390D01*
X88550714Y-59700390D02*
X88503095Y-59748009D01*
X88503095Y-59748009D02*
X88407857Y-59795628D01*
X88407857Y-59795628D02*
X88026905Y-59795628D01*
X88979286Y-59367057D02*
X89026905Y-59319438D01*
X89026905Y-59319438D02*
X89122143Y-59271819D01*
X89122143Y-59271819D02*
X89360238Y-59271819D01*
X89360238Y-59271819D02*
X89455476Y-59319438D01*
X89455476Y-59319438D02*
X89503095Y-59367057D01*
X89503095Y-59367057D02*
X89550714Y-59462295D01*
X89550714Y-59462295D02*
X89550714Y-59557533D01*
X89550714Y-59557533D02*
X89503095Y-59700390D01*
X89503095Y-59700390D02*
X88931667Y-60271819D01*
X88931667Y-60271819D02*
X89550714Y-60271819D01*
X108770618Y-52545580D02*
X108722999Y-52593200D01*
X108722999Y-52593200D02*
X108580142Y-52640819D01*
X108580142Y-52640819D02*
X108484904Y-52640819D01*
X108484904Y-52640819D02*
X108342047Y-52593200D01*
X108342047Y-52593200D02*
X108246809Y-52497961D01*
X108246809Y-52497961D02*
X108199190Y-52402723D01*
X108199190Y-52402723D02*
X108151571Y-52212247D01*
X108151571Y-52212247D02*
X108151571Y-52069390D01*
X108151571Y-52069390D02*
X108199190Y-51878914D01*
X108199190Y-51878914D02*
X108246809Y-51783676D01*
X108246809Y-51783676D02*
X108342047Y-51688438D01*
X108342047Y-51688438D02*
X108484904Y-51640819D01*
X108484904Y-51640819D02*
X108580142Y-51640819D01*
X108580142Y-51640819D02*
X108722999Y-51688438D01*
X108722999Y-51688438D02*
X108770618Y-51736057D01*
X109389666Y-51640819D02*
X109580142Y-51640819D01*
X109580142Y-51640819D02*
X109675380Y-51688438D01*
X109675380Y-51688438D02*
X109770618Y-51783676D01*
X109770618Y-51783676D02*
X109818237Y-51974152D01*
X109818237Y-51974152D02*
X109818237Y-52307485D01*
X109818237Y-52307485D02*
X109770618Y-52497961D01*
X109770618Y-52497961D02*
X109675380Y-52593200D01*
X109675380Y-52593200D02*
X109580142Y-52640819D01*
X109580142Y-52640819D02*
X109389666Y-52640819D01*
X109389666Y-52640819D02*
X109294428Y-52593200D01*
X109294428Y-52593200D02*
X109199190Y-52497961D01*
X109199190Y-52497961D02*
X109151571Y-52307485D01*
X109151571Y-52307485D02*
X109151571Y-51974152D01*
X109151571Y-51974152D02*
X109199190Y-51783676D01*
X109199190Y-51783676D02*
X109294428Y-51688438D01*
X109294428Y-51688438D02*
X109389666Y-51640819D01*
X110246809Y-51640819D02*
X110246809Y-52450342D01*
X110246809Y-52450342D02*
X110294428Y-52545580D01*
X110294428Y-52545580D02*
X110342047Y-52593200D01*
X110342047Y-52593200D02*
X110437285Y-52640819D01*
X110437285Y-52640819D02*
X110627761Y-52640819D01*
X110627761Y-52640819D02*
X110722999Y-52593200D01*
X110722999Y-52593200D02*
X110770618Y-52545580D01*
X110770618Y-52545580D02*
X110818237Y-52450342D01*
X110818237Y-52450342D02*
X110818237Y-51640819D01*
X111151571Y-51640819D02*
X111722999Y-51640819D01*
X111437285Y-52640819D02*
X111437285Y-51640819D01*
X112580142Y-52640819D02*
X112008714Y-52640819D01*
X112294428Y-52640819D02*
X112294428Y-51640819D01*
X112294428Y-51640819D02*
X112199190Y-51783676D01*
X112199190Y-51783676D02*
X112103952Y-51878914D01*
X112103952Y-51878914D02*
X112008714Y-51926533D01*
X112770619Y-52736057D02*
X113532523Y-52736057D01*
X114294428Y-52640819D02*
X113723000Y-52640819D01*
X114008714Y-52640819D02*
X114008714Y-51640819D01*
X114008714Y-51640819D02*
X113913476Y-51783676D01*
X113913476Y-51783676D02*
X113818238Y-51878914D01*
X113818238Y-51878914D02*
X113723000Y-51926533D01*
X99897580Y-67775666D02*
X99945200Y-67823285D01*
X99945200Y-67823285D02*
X99992819Y-67966142D01*
X99992819Y-67966142D02*
X99992819Y-68061380D01*
X99992819Y-68061380D02*
X99945200Y-68204237D01*
X99945200Y-68204237D02*
X99849961Y-68299475D01*
X99849961Y-68299475D02*
X99754723Y-68347094D01*
X99754723Y-68347094D02*
X99564247Y-68394713D01*
X99564247Y-68394713D02*
X99421390Y-68394713D01*
X99421390Y-68394713D02*
X99230914Y-68347094D01*
X99230914Y-68347094D02*
X99135676Y-68299475D01*
X99135676Y-68299475D02*
X99040438Y-68204237D01*
X99040438Y-68204237D02*
X98992819Y-68061380D01*
X98992819Y-68061380D02*
X98992819Y-67966142D01*
X98992819Y-67966142D02*
X99040438Y-67823285D01*
X99040438Y-67823285D02*
X99088057Y-67775666D01*
X99088057Y-67394713D02*
X99040438Y-67347094D01*
X99040438Y-67347094D02*
X98992819Y-67251856D01*
X98992819Y-67251856D02*
X98992819Y-67013761D01*
X98992819Y-67013761D02*
X99040438Y-66918523D01*
X99040438Y-66918523D02*
X99088057Y-66870904D01*
X99088057Y-66870904D02*
X99183295Y-66823285D01*
X99183295Y-66823285D02*
X99278533Y-66823285D01*
X99278533Y-66823285D02*
X99421390Y-66870904D01*
X99421390Y-66870904D02*
X99992819Y-67442332D01*
X99992819Y-67442332D02*
X99992819Y-66823285D01*
X120106618Y-78556819D02*
X119773285Y-78080628D01*
X119535190Y-78556819D02*
X119535190Y-77556819D01*
X119535190Y-77556819D02*
X119916142Y-77556819D01*
X119916142Y-77556819D02*
X120011380Y-77604438D01*
X120011380Y-77604438D02*
X120058999Y-77652057D01*
X120058999Y-77652057D02*
X120106618Y-77747295D01*
X120106618Y-77747295D02*
X120106618Y-77890152D01*
X120106618Y-77890152D02*
X120058999Y-77985390D01*
X120058999Y-77985390D02*
X120011380Y-78033009D01*
X120011380Y-78033009D02*
X119916142Y-78080628D01*
X119916142Y-78080628D02*
X119535190Y-78080628D01*
X120868523Y-78033009D02*
X120535190Y-78033009D01*
X120535190Y-78556819D02*
X120535190Y-77556819D01*
X120535190Y-77556819D02*
X121011380Y-77556819D01*
X121725666Y-78033009D02*
X121868523Y-78080628D01*
X121868523Y-78080628D02*
X121916142Y-78128247D01*
X121916142Y-78128247D02*
X121963761Y-78223485D01*
X121963761Y-78223485D02*
X121963761Y-78366342D01*
X121963761Y-78366342D02*
X121916142Y-78461580D01*
X121916142Y-78461580D02*
X121868523Y-78509200D01*
X121868523Y-78509200D02*
X121773285Y-78556819D01*
X121773285Y-78556819D02*
X121392333Y-78556819D01*
X121392333Y-78556819D02*
X121392333Y-77556819D01*
X121392333Y-77556819D02*
X121725666Y-77556819D01*
X121725666Y-77556819D02*
X121820904Y-77604438D01*
X121820904Y-77604438D02*
X121868523Y-77652057D01*
X121868523Y-77652057D02*
X121916142Y-77747295D01*
X121916142Y-77747295D02*
X121916142Y-77842533D01*
X121916142Y-77842533D02*
X121868523Y-77937771D01*
X121868523Y-77937771D02*
X121820904Y-77985390D01*
X121820904Y-77985390D02*
X121725666Y-78033009D01*
X121725666Y-78033009D02*
X121392333Y-78033009D01*
X122344714Y-77652057D02*
X122392333Y-77604438D01*
X122392333Y-77604438D02*
X122487571Y-77556819D01*
X122487571Y-77556819D02*
X122725666Y-77556819D01*
X122725666Y-77556819D02*
X122820904Y-77604438D01*
X122820904Y-77604438D02*
X122868523Y-77652057D01*
X122868523Y-77652057D02*
X122916142Y-77747295D01*
X122916142Y-77747295D02*
X122916142Y-77842533D01*
X122916142Y-77842533D02*
X122868523Y-77985390D01*
X122868523Y-77985390D02*
X122297095Y-78556819D01*
X122297095Y-78556819D02*
X122916142Y-78556819D01*
X123106619Y-78652057D02*
X123868523Y-78652057D01*
X124630428Y-78556819D02*
X124059000Y-78556819D01*
X124344714Y-78556819D02*
X124344714Y-77556819D01*
X124344714Y-77556819D02*
X124249476Y-77699676D01*
X124249476Y-77699676D02*
X124154238Y-77794914D01*
X124154238Y-77794914D02*
X124059000Y-77842533D01*
X72080523Y-83639819D02*
X71747190Y-83163628D01*
X71509095Y-83639819D02*
X71509095Y-82639819D01*
X71509095Y-82639819D02*
X71890047Y-82639819D01*
X71890047Y-82639819D02*
X71985285Y-82687438D01*
X71985285Y-82687438D02*
X72032904Y-82735057D01*
X72032904Y-82735057D02*
X72080523Y-82830295D01*
X72080523Y-82830295D02*
X72080523Y-82973152D01*
X72080523Y-82973152D02*
X72032904Y-83068390D01*
X72032904Y-83068390D02*
X71985285Y-83116009D01*
X71985285Y-83116009D02*
X71890047Y-83163628D01*
X71890047Y-83163628D02*
X71509095Y-83163628D01*
X72509095Y-83639819D02*
X72509095Y-82639819D01*
X72509095Y-82639819D02*
X73080523Y-83639819D01*
X73080523Y-83639819D02*
X73080523Y-82639819D01*
X73509095Y-82735057D02*
X73556714Y-82687438D01*
X73556714Y-82687438D02*
X73651952Y-82639819D01*
X73651952Y-82639819D02*
X73890047Y-82639819D01*
X73890047Y-82639819D02*
X73985285Y-82687438D01*
X73985285Y-82687438D02*
X74032904Y-82735057D01*
X74032904Y-82735057D02*
X74080523Y-82830295D01*
X74080523Y-82830295D02*
X74080523Y-82925533D01*
X74080523Y-82925533D02*
X74032904Y-83068390D01*
X74032904Y-83068390D02*
X73461476Y-83639819D01*
X73461476Y-83639819D02*
X74080523Y-83639819D01*
D13*
%TO.C,CN3*%
X78090500Y-81724748D02*
X78090500Y-82247252D01*
X76620500Y-81724748D02*
X76620500Y-82247252D01*
%TO.C,RFB1_1*%
X106538064Y-80234000D02*
X106083936Y-80234000D01*
X106538064Y-78764000D02*
X106083936Y-78764000D01*
D14*
%TO.C,IC1*%
X76312000Y-58015000D02*
X77737000Y-58015000D01*
D13*
%TO.C,L2_1*%
X118331000Y-62230000D02*
X118331000Y-61780000D01*
X118331000Y-62230000D02*
X113511000Y-62230000D01*
X118331000Y-57410000D02*
X118331000Y-57860000D01*
X118331000Y-57410000D02*
X113511000Y-57410000D01*
X113511000Y-62230000D02*
X113511000Y-61780000D01*
X113511000Y-57410000D02*
X113511000Y-57860000D01*
%TO.C,RP4*%
X85105064Y-64711000D02*
X84650936Y-64711000D01*
X85105064Y-63241000D02*
X84650936Y-63241000D01*
%TO.C,L1_1*%
X103901000Y-71586000D02*
X104351000Y-71586000D01*
X103901000Y-71586000D02*
X103901000Y-66766000D01*
X108721000Y-71586000D02*
X108271000Y-71586000D01*
X108721000Y-71586000D02*
X108721000Y-66766000D01*
X103901000Y-66766000D02*
X104351000Y-66766000D01*
X108721000Y-66766000D02*
X108271000Y-66766000D01*
%TO.C,D1*%
X121037000Y-61242000D02*
X119017000Y-61242000D01*
X121037000Y-61242000D02*
X121037000Y-57932000D01*
X119017000Y-57932000D02*
X119017000Y-61242000D01*
%TO.C,CP1*%
X72440748Y-57695000D02*
X73863252Y-57695000D01*
X72440748Y-60415000D02*
X73863252Y-60415000D01*
%TO.C,J2*%
X94906000Y-83922000D02*
X100106000Y-83922000D01*
X94906000Y-83922000D02*
X94906000Y-75292000D01*
X95026000Y-83922000D02*
X95026000Y-75292000D01*
X95144095Y-83922000D02*
X95144095Y-75292000D01*
X95262190Y-83922000D02*
X95262190Y-75292000D01*
X95380285Y-83922000D02*
X95380285Y-75292000D01*
X95498380Y-83922000D02*
X95498380Y-75292000D01*
X95616475Y-83922000D02*
X95616475Y-75292000D01*
X95734570Y-83922000D02*
X95734570Y-75292000D01*
X95852665Y-83922000D02*
X95852665Y-75292000D01*
X95970760Y-83922000D02*
X95970760Y-75292000D01*
X96088855Y-83922000D02*
X96088855Y-75292000D01*
X96206950Y-83922000D02*
X96206950Y-75292000D01*
X96325045Y-83922000D02*
X96325045Y-75292000D01*
X96443140Y-83922000D02*
X96443140Y-75292000D01*
X96561235Y-83922000D02*
X96561235Y-75292000D01*
X96679330Y-83922000D02*
X96679330Y-75292000D01*
X96797425Y-83922000D02*
X96797425Y-75292000D01*
X96915520Y-83922000D02*
X96915520Y-75292000D01*
X97033615Y-83922000D02*
X97033615Y-75292000D01*
X97151710Y-83922000D02*
X97151710Y-75292000D01*
X97269805Y-83922000D02*
X97269805Y-75292000D01*
X97387900Y-83922000D02*
X97387900Y-75292000D01*
X97506000Y-83922000D02*
X97506000Y-75292000D01*
X100106000Y-83922000D02*
X100106000Y-75292000D01*
X94906000Y-75292000D02*
X100106000Y-75292000D01*
X95876000Y-75292000D02*
X95876000Y-74942000D01*
X96596000Y-75292000D02*
X96596000Y-74942000D01*
X98416000Y-75292000D02*
X98416000Y-74882000D01*
X99136000Y-75292000D02*
X99136000Y-74882000D01*
X94906000Y-73832000D02*
X94906000Y-72722000D01*
X94906000Y-72722000D02*
X96236000Y-72722000D01*
%TO.C,CVREF_1*%
X121416748Y-72674000D02*
X121939252Y-72674000D01*
X121416748Y-74144000D02*
X121939252Y-74144000D01*
%TO.C,CVREG_1*%
X121939252Y-71096000D02*
X121416748Y-71096000D01*
X121939252Y-69626000D02*
X121416748Y-69626000D01*
D14*
%TO.C,DP1*%
X85314000Y-52745000D02*
X85314000Y-57745000D01*
X87914000Y-57745000D02*
X87914000Y-52445000D01*
D13*
%TO.C,RP1*%
X84608936Y-61114000D02*
X85063064Y-61114000D01*
X84608936Y-62584000D02*
X85063064Y-62584000D01*
%TO.C,CN2*%
X84701748Y-76354000D02*
X85224252Y-76354000D01*
X84701748Y-77824000D02*
X85224252Y-77824000D01*
%TO.C,RP3*%
X82565000Y-64621936D02*
X82565000Y-65076064D01*
X81095000Y-64621936D02*
X81095000Y-65076064D01*
%TO.C,RFT1_1*%
X106522064Y-83663000D02*
X106067936Y-83663000D01*
X106522064Y-82193000D02*
X106067936Y-82193000D01*
%TO.C,RC2_1*%
X117133000Y-77948064D02*
X117133000Y-77493936D01*
X118603000Y-77948064D02*
X118603000Y-77493936D01*
%TO.C,CN5*%
X85444000Y-70096748D02*
X85444000Y-70619252D01*
X83974000Y-70096748D02*
X83974000Y-70619252D01*
D14*
%TO.C,IC2*%
X76663500Y-75192000D02*
X78088500Y-75192000D01*
D13*
%TO.C,U2*%
X94604000Y-62057000D02*
X94604000Y-56047000D01*
X101424000Y-59807000D02*
X101424000Y-56047000D01*
X94604000Y-56047000D02*
X95864000Y-56047000D01*
X101424000Y-56047000D02*
X100164000Y-56047000D01*
%TO.C,CP5*%
X83192252Y-54329000D02*
X82669748Y-54329000D01*
X83192252Y-52859000D02*
X82669748Y-52859000D01*
%TO.C,LP1*%
X76076000Y-52708000D02*
X76076000Y-53158000D01*
X76076000Y-52708000D02*
X80896000Y-52708000D01*
X76076000Y-57528000D02*
X76076000Y-57078000D01*
X76076000Y-57528000D02*
X80896000Y-57528000D01*
X80896000Y-52708000D02*
X80896000Y-53158000D01*
X80896000Y-57528000D02*
X80896000Y-57078000D01*
%TO.C,J1*%
X73025000Y-50673000D02*
X73025000Y-49403000D01*
X74295000Y-50673000D02*
X73025000Y-50673000D01*
X76455000Y-48360071D02*
X76455000Y-47963000D01*
X77215000Y-48360071D02*
X77215000Y-47963000D01*
X78995000Y-48360071D02*
X78995000Y-47963000D01*
X79755000Y-48360071D02*
X79755000Y-47963000D01*
X81535000Y-48360071D02*
X81535000Y-47963000D01*
X82295000Y-48360071D02*
X82295000Y-47963000D01*
X84075000Y-48360071D02*
X84075000Y-47963000D01*
X84835000Y-48360071D02*
X84835000Y-47963000D01*
X86615000Y-48360071D02*
X86615000Y-47963000D01*
X87375000Y-48360071D02*
X87375000Y-47963000D01*
X73915000Y-48293000D02*
X73915000Y-47963000D01*
X74675000Y-48293000D02*
X74675000Y-47963000D01*
X72965000Y-47963000D02*
X88325000Y-47963000D01*
X75565000Y-47963000D02*
X75565000Y-45303000D01*
X78105000Y-47963000D02*
X78105000Y-45303000D01*
X80645000Y-47963000D02*
X80645000Y-45303000D01*
X83185000Y-47963000D02*
X83185000Y-45303000D01*
X85725000Y-47963000D02*
X85725000Y-45303000D01*
X88325000Y-47963000D02*
X88325000Y-45303000D01*
X72965000Y-45303000D02*
X72965000Y-47963000D01*
X73915000Y-45303000D02*
X73915000Y-39303000D01*
X73975000Y-45303000D02*
X73975000Y-39303000D01*
X74095000Y-45303000D02*
X74095000Y-39303000D01*
X74215000Y-45303000D02*
X74215000Y-39303000D01*
X74335000Y-45303000D02*
X74335000Y-39303000D01*
X74455000Y-45303000D02*
X74455000Y-39303000D01*
X74575000Y-45303000D02*
X74575000Y-39303000D01*
X76455000Y-45303000D02*
X76455000Y-39303000D01*
X78995000Y-45303000D02*
X78995000Y-39303000D01*
X81535000Y-45303000D02*
X81535000Y-39303000D01*
X84075000Y-45303000D02*
X84075000Y-39303000D01*
X86615000Y-45303000D02*
X86615000Y-39303000D01*
X88325000Y-45303000D02*
X72965000Y-45303000D01*
X73915000Y-39303000D02*
X74675000Y-39303000D01*
X74675000Y-39303000D02*
X74675000Y-45303000D01*
X76455000Y-39303000D02*
X77215000Y-39303000D01*
X77215000Y-39303000D02*
X77215000Y-45303000D01*
X78995000Y-39303000D02*
X79755000Y-39303000D01*
X79755000Y-39303000D02*
X79755000Y-45303000D01*
X81535000Y-39303000D02*
X82295000Y-39303000D01*
X82295000Y-39303000D02*
X82295000Y-45303000D01*
X84075000Y-39303000D02*
X84835000Y-39303000D01*
X84835000Y-39303000D02*
X84835000Y-45303000D01*
X86615000Y-39303000D02*
X87375000Y-39303000D01*
X87375000Y-39303000D02*
X87375000Y-45303000D01*
%TO.C,RFT2_1*%
X122466936Y-82447000D02*
X122921064Y-82447000D01*
X122466936Y-83917000D02*
X122921064Y-83917000D01*
%TO.C,CN4*%
X74429252Y-79729000D02*
X73906748Y-79729000D01*
X74429252Y-78259000D02*
X73906748Y-78259000D01*
%TO.C,D2*%
X110907000Y-64017000D02*
X110907000Y-66037000D01*
X110907000Y-64017000D02*
X107597000Y-64017000D01*
X107597000Y-66037000D02*
X110907000Y-66037000D01*
%TO.C,RN1*%
X84735936Y-78386000D02*
X85190064Y-78386000D01*
X84735936Y-79856000D02*
X85190064Y-79856000D01*
%TO.C,CC1_1*%
X113269000Y-77481248D02*
X113269000Y-78003752D01*
X111799000Y-77481248D02*
X111799000Y-78003752D01*
%TO.C,RN5*%
X81688000Y-70585064D02*
X81688000Y-70130936D01*
X83158000Y-70585064D02*
X83158000Y-70130936D01*
%TO.C,CP3*%
X77739000Y-64498248D02*
X77739000Y-65020752D01*
X76269000Y-64498248D02*
X76269000Y-65020752D01*
%TO.C,CN1*%
X72821748Y-74840000D02*
X74244252Y-74840000D01*
X72821748Y-77560000D02*
X74244252Y-77560000D01*
%TO.C,RN3*%
X82662500Y-81742936D02*
X82662500Y-82197064D01*
X81192500Y-81742936D02*
X81192500Y-82197064D01*
%TO.C,RN4*%
X85202564Y-81832000D02*
X84748436Y-81832000D01*
X85202564Y-80362000D02*
X84748436Y-80362000D01*
D14*
%TO.C,DN1*%
X92994000Y-75017000D02*
X92994000Y-70017000D01*
X90394000Y-70017000D02*
X90394000Y-75317000D01*
%TO.C,DN2*%
X86711000Y-70017000D02*
X86711000Y-75017000D01*
X89311000Y-75017000D02*
X89311000Y-69717000D01*
D13*
%TO.C,CP4*%
X74048252Y-62584000D02*
X73525748Y-62584000D01*
X74048252Y-61114000D02*
X73525748Y-61114000D01*
%TO.C,COUT2_1*%
X116648748Y-53126000D02*
X118071252Y-53126000D01*
X116648748Y-55846000D02*
X118071252Y-55846000D01*
%TO.C,RC1_1*%
X109259000Y-77948064D02*
X109259000Y-77493936D01*
X110729000Y-77948064D02*
X110729000Y-77493936D01*
D10*
%TO.C,U1*%
X110423000Y-67924000D02*
X116398000Y-67924000D01*
X111948000Y-74824000D02*
X116398000Y-74824000D01*
D13*
%TO.C,LN1*%
X76457000Y-69853000D02*
X76457000Y-70303000D01*
X76457000Y-69853000D02*
X81277000Y-69853000D01*
X76457000Y-74673000D02*
X76457000Y-74223000D01*
X76457000Y-74673000D02*
X81277000Y-74673000D01*
X81277000Y-69853000D02*
X81277000Y-70303000D01*
X81277000Y-74673000D02*
X81277000Y-74223000D01*
%TO.C,CIN_1*%
X116229248Y-64048000D02*
X117651752Y-64048000D01*
X116229248Y-66768000D02*
X117651752Y-66768000D01*
%TO.C,C1*%
X97924752Y-65921000D02*
X96502248Y-65921000D01*
X97924752Y-63201000D02*
X96502248Y-63201000D01*
%TO.C,CN6*%
X83050748Y-73052000D02*
X83573252Y-73052000D01*
X83050748Y-74522000D02*
X83573252Y-74522000D01*
%TO.C,CC2_1*%
X116063000Y-77481248D02*
X116063000Y-78003752D01*
X114593000Y-77481248D02*
X114593000Y-78003752D01*
%TO.C,RP2*%
X75453000Y-64542936D02*
X75453000Y-64997064D01*
X73983000Y-64542936D02*
X73983000Y-64997064D01*
%TO.C,CP2*%
X84574748Y-59082000D02*
X85097252Y-59082000D01*
X84574748Y-60552000D02*
X85097252Y-60552000D01*
%TO.C,COUT1_1*%
X110895248Y-53126000D02*
X112317752Y-53126000D01*
X110895248Y-55846000D02*
X112317752Y-55846000D01*
%TO.C,C2*%
X97005252Y-68344000D02*
X96482748Y-68344000D01*
X97005252Y-66874000D02*
X96482748Y-66874000D01*
%TO.C,RFB2_1*%
X122921064Y-80488000D02*
X122466936Y-80488000D01*
X122921064Y-79018000D02*
X122466936Y-79018000D01*
%TO.C,RN2*%
X76046000Y-81814936D02*
X76046000Y-82269064D01*
X74576000Y-81814936D02*
X74576000Y-82269064D01*
%TD*%
M02*
