%TF.GenerationSoftware,KiCad,Pcbnew,7.0.6-0*%
%TF.CreationDate,2024-01-22T13:27:35-05:00*%
%TF.ProjectId,regulators,72656775-6c61-4746-9f72-732e6b696361,rev?*%
%TF.SameCoordinates,Original*%
%TF.FileFunction,Copper,L2,Bot*%
%TF.FilePolarity,Positive*%
%FSLAX46Y46*%
G04 Gerber Fmt 4.6, Leading zero omitted, Abs format (unit mm)*
G04 Created by KiCad (PCBNEW 7.0.6-0) date 2024-01-22 13:27:35*
%MOMM*%
%LPD*%
G01*
G04 APERTURE LIST*
%TA.AperFunction,ComponentPad*%
%ADD10R,1.700000X1.700000*%
%TD*%
%TA.AperFunction,ComponentPad*%
%ADD11O,1.700000X1.700000*%
%TD*%
%TA.AperFunction,ViaPad*%
%ADD12C,0.800000*%
%TD*%
%TA.AperFunction,Conductor*%
%ADD13C,0.500000*%
%TD*%
G04 APERTURE END LIST*
D10*
%TO.P,J2,1,Pin_1*%
%TO.N,GND*%
X96236000Y-73832000D03*
D11*
%TO.P,J2,2,Pin_2*%
%TO.N,+3.7 V*%
X98776000Y-73832000D03*
%TD*%
D10*
%TO.P,J1,1,Pin_1*%
%TO.N,GND*%
X74295000Y-49403000D03*
D11*
%TO.P,J1,2,Pin_2*%
%TO.N,-34 V*%
X76835000Y-49403000D03*
%TO.P,J1,3,Pin_3*%
%TO.N,+34 V*%
X79375000Y-49403000D03*
%TO.P,J1,4,Pin_4*%
%TO.N,-15V*%
X81915000Y-49403000D03*
%TO.P,J1,5,Pin_5*%
%TO.N,+15 V*%
X84455000Y-49403000D03*
%TO.P,J1,6,Pin_6*%
%TO.N,+5 V*%
X86995000Y-49403000D03*
%TD*%
D12*
%TO.N,GND*%
X113411000Y-69977000D03*
X124079000Y-70358000D03*
X79654400Y-61061600D03*
X78856000Y-60166000D03*
X113030000Y-63754000D03*
X78856000Y-59277000D03*
X94107000Y-67056000D03*
X114300000Y-71882000D03*
X113411000Y-70993000D03*
X114300000Y-69977000D03*
X87376000Y-78105000D03*
X105410000Y-77851000D03*
X72644000Y-81915000D03*
X79969500Y-77442000D03*
X79969500Y-78331000D03*
X115189000Y-71882000D03*
X109728000Y-70485000D03*
X115189000Y-72771000D03*
X112649000Y-75565000D03*
X79146400Y-76555600D03*
X115189000Y-69977000D03*
X86106000Y-70485000D03*
X113411000Y-71882000D03*
X79654400Y-60147200D03*
X79146400Y-77419200D03*
X79654400Y-59283600D03*
X115062000Y-70993000D03*
X114300000Y-70993000D03*
X114173000Y-72771000D03*
X79969500Y-76553000D03*
X72263000Y-64643000D03*
X79146400Y-78333600D03*
X82042000Y-55626000D03*
X115570000Y-75565000D03*
X78856000Y-61055000D03*
X87249000Y-60833000D03*
X113284000Y-72771000D03*
%TO.N,+3.7 V*%
X114554000Y-74299000D03*
%TO.N,-34 V*%
X80010000Y-67818000D03*
%TD*%
D13*
%TO.N,+3.7 V*%
X114087000Y-73832000D02*
X114554000Y-74299000D01*
X98776000Y-73832000D02*
X114087000Y-73832000D01*
%TO.N,-34 V*%
X69723000Y-66675000D02*
X70866000Y-67818000D01*
X69723000Y-56515000D02*
X69723000Y-66675000D01*
X76835000Y-49403000D02*
X69723000Y-56515000D01*
X70866000Y-67818000D02*
X80010000Y-67818000D01*
%TD*%
%TA.AperFunction,Conductor*%
%TO.N,GND*%
G36*
X127578039Y-46882685D02*
G01*
X127623794Y-46935489D01*
X127635000Y-46987000D01*
X127635000Y-85093000D01*
X127615315Y-85160039D01*
X127562511Y-85205794D01*
X127511000Y-85217000D01*
X69085000Y-85217000D01*
X69017961Y-85197315D01*
X68972206Y-85144511D01*
X68961000Y-85093000D01*
X68961000Y-74729844D01*
X94886000Y-74729844D01*
X94892401Y-74789372D01*
X94892403Y-74789379D01*
X94942645Y-74924086D01*
X94942649Y-74924093D01*
X95028809Y-75039187D01*
X95028812Y-75039190D01*
X95143906Y-75125350D01*
X95143913Y-75125354D01*
X95278620Y-75175596D01*
X95278627Y-75175598D01*
X95338155Y-75181999D01*
X95338172Y-75182000D01*
X95986000Y-75182000D01*
X95986000Y-74267501D01*
X96093685Y-74316680D01*
X96200237Y-74332000D01*
X96271763Y-74332000D01*
X96378315Y-74316680D01*
X96486000Y-74267501D01*
X96486000Y-75182000D01*
X97133828Y-75182000D01*
X97133844Y-75181999D01*
X97193372Y-75175598D01*
X97193379Y-75175596D01*
X97328086Y-75125354D01*
X97328093Y-75125350D01*
X97443187Y-75039190D01*
X97443190Y-75039187D01*
X97529350Y-74924093D01*
X97529354Y-74924086D01*
X97578422Y-74792529D01*
X97620293Y-74736595D01*
X97685757Y-74712178D01*
X97754030Y-74727030D01*
X97782285Y-74748181D01*
X97904599Y-74870495D01*
X97981135Y-74924086D01*
X98098165Y-75006032D01*
X98098167Y-75006033D01*
X98098170Y-75006035D01*
X98312337Y-75105903D01*
X98540592Y-75167063D01*
X98711319Y-75182000D01*
X98775999Y-75187659D01*
X98776000Y-75187659D01*
X98776001Y-75187659D01*
X98840681Y-75182000D01*
X99011408Y-75167063D01*
X99239663Y-75105903D01*
X99453830Y-75006035D01*
X99647401Y-74870495D01*
X99814495Y-74703401D01*
X99862126Y-74635376D01*
X99916704Y-74591751D01*
X99963701Y-74582500D01*
X113609181Y-74582500D01*
X113676220Y-74602185D01*
X113721975Y-74654989D01*
X113726354Y-74666235D01*
X113726821Y-74667284D01*
X113821467Y-74831216D01*
X113856837Y-74870498D01*
X113948129Y-74971888D01*
X114101265Y-75083148D01*
X114101270Y-75083151D01*
X114274192Y-75160142D01*
X114274197Y-75160144D01*
X114459354Y-75199500D01*
X114459355Y-75199500D01*
X114648644Y-75199500D01*
X114648646Y-75199500D01*
X114833803Y-75160144D01*
X115006730Y-75083151D01*
X115159871Y-74971888D01*
X115286533Y-74831216D01*
X115381179Y-74667284D01*
X115439674Y-74487256D01*
X115459460Y-74299000D01*
X115439674Y-74110744D01*
X115381179Y-73930716D01*
X115286533Y-73766784D01*
X115159871Y-73626112D01*
X115154426Y-73622156D01*
X115006734Y-73514851D01*
X115006729Y-73514848D01*
X114833807Y-73437857D01*
X114833803Y-73437856D01*
X114768670Y-73424011D01*
X114707188Y-73390818D01*
X114706771Y-73390402D01*
X114662727Y-73346358D01*
X114650944Y-73332723D01*
X114636615Y-73313476D01*
X114636613Y-73313474D01*
X114636612Y-73313473D01*
X114636610Y-73313470D01*
X114596587Y-73279886D01*
X114592612Y-73276244D01*
X114589690Y-73273322D01*
X114586780Y-73270411D01*
X114561040Y-73250059D01*
X114502209Y-73200694D01*
X114496180Y-73196729D01*
X114496212Y-73196680D01*
X114489853Y-73192628D01*
X114489822Y-73192679D01*
X114483680Y-73188891D01*
X114483678Y-73188890D01*
X114483677Y-73188889D01*
X114444474Y-73170608D01*
X114414058Y-73156424D01*
X114379894Y-73139267D01*
X114345433Y-73121960D01*
X114345431Y-73121959D01*
X114345430Y-73121959D01*
X114338645Y-73119489D01*
X114338665Y-73119433D01*
X114331549Y-73116959D01*
X114331531Y-73117015D01*
X114324671Y-73114742D01*
X114296841Y-73108996D01*
X114249434Y-73099207D01*
X114200472Y-73087603D01*
X114174719Y-73081499D01*
X114167547Y-73080661D01*
X114167553Y-73080601D01*
X114160055Y-73079835D01*
X114160050Y-73079895D01*
X114152860Y-73079265D01*
X114076083Y-73081500D01*
X99963701Y-73081500D01*
X99896662Y-73061815D01*
X99862126Y-73028623D01*
X99814494Y-72960597D01*
X99647402Y-72793506D01*
X99647395Y-72793501D01*
X99453834Y-72657967D01*
X99453830Y-72657965D01*
X99382727Y-72624809D01*
X99239663Y-72558097D01*
X99239659Y-72558096D01*
X99239655Y-72558094D01*
X99011413Y-72496938D01*
X99011403Y-72496936D01*
X98776001Y-72476341D01*
X98775999Y-72476341D01*
X98540596Y-72496936D01*
X98540586Y-72496938D01*
X98312344Y-72558094D01*
X98312335Y-72558098D01*
X98098171Y-72657964D01*
X98098169Y-72657965D01*
X97904600Y-72793503D01*
X97782284Y-72915819D01*
X97720961Y-72949303D01*
X97651269Y-72944319D01*
X97595336Y-72902447D01*
X97578421Y-72871470D01*
X97529354Y-72739913D01*
X97529350Y-72739906D01*
X97443190Y-72624812D01*
X97443187Y-72624809D01*
X97328093Y-72538649D01*
X97328086Y-72538645D01*
X97193379Y-72488403D01*
X97193372Y-72488401D01*
X97133844Y-72482000D01*
X96486000Y-72482000D01*
X96486000Y-73396498D01*
X96378315Y-73347320D01*
X96271763Y-73332000D01*
X96200237Y-73332000D01*
X96093685Y-73347320D01*
X95986000Y-73396498D01*
X95986000Y-72482000D01*
X95338155Y-72482000D01*
X95278627Y-72488401D01*
X95278620Y-72488403D01*
X95143913Y-72538645D01*
X95143906Y-72538649D01*
X95028812Y-72624809D01*
X95028809Y-72624812D01*
X94942649Y-72739906D01*
X94942645Y-72739913D01*
X94892403Y-72874620D01*
X94892401Y-72874627D01*
X94886000Y-72934155D01*
X94886000Y-73582000D01*
X95802314Y-73582000D01*
X95776507Y-73622156D01*
X95736000Y-73760111D01*
X95736000Y-73903889D01*
X95776507Y-74041844D01*
X95802314Y-74082000D01*
X94886000Y-74082000D01*
X94886000Y-74729844D01*
X68961000Y-74729844D01*
X68961000Y-67275348D01*
X68980685Y-67208309D01*
X69033489Y-67162554D01*
X69102647Y-67152610D01*
X69166203Y-67181635D01*
X69170071Y-67185132D01*
X69194637Y-67208309D01*
X69200019Y-67213387D01*
X70290267Y-68303634D01*
X70302048Y-68317266D01*
X70316390Y-68336530D01*
X70356420Y-68370119D01*
X70360392Y-68373759D01*
X70366223Y-68379590D01*
X70366222Y-68379590D01*
X70391944Y-68399927D01*
X70450786Y-68449302D01*
X70450794Y-68449306D01*
X70456824Y-68453273D01*
X70456790Y-68453323D01*
X70463147Y-68457372D01*
X70463179Y-68457321D01*
X70469319Y-68461108D01*
X70469323Y-68461111D01*
X70504132Y-68477343D01*
X70538941Y-68493575D01*
X70607565Y-68528039D01*
X70607567Y-68528040D01*
X70607569Y-68528040D01*
X70614357Y-68530511D01*
X70614336Y-68530567D01*
X70621455Y-68533042D01*
X70621474Y-68532986D01*
X70628323Y-68535256D01*
X70628326Y-68535256D01*
X70628327Y-68535257D01*
X70703550Y-68550787D01*
X70703550Y-68550788D01*
X70778279Y-68568500D01*
X70785452Y-68569339D01*
X70785445Y-68569397D01*
X70792946Y-68570163D01*
X70792952Y-68570104D01*
X70800140Y-68570733D01*
X70800143Y-68570732D01*
X70800144Y-68570733D01*
X70876898Y-68568500D01*
X79470663Y-68568500D01*
X79537702Y-68588185D01*
X79543548Y-68592182D01*
X79557265Y-68602148D01*
X79557270Y-68602151D01*
X79730192Y-68679142D01*
X79730197Y-68679144D01*
X79915354Y-68718500D01*
X79915355Y-68718500D01*
X80104644Y-68718500D01*
X80104646Y-68718500D01*
X80289803Y-68679144D01*
X80462730Y-68602151D01*
X80615871Y-68490888D01*
X80742533Y-68350216D01*
X80837179Y-68186284D01*
X80895674Y-68006256D01*
X80915460Y-67818000D01*
X80895674Y-67629744D01*
X80837179Y-67449716D01*
X80742533Y-67285784D01*
X80615871Y-67145112D01*
X80613867Y-67143656D01*
X80462734Y-67033851D01*
X80462729Y-67033848D01*
X80289807Y-66956857D01*
X80289802Y-66956855D01*
X80123102Y-66921423D01*
X80104646Y-66917500D01*
X79915354Y-66917500D01*
X79896898Y-66921423D01*
X79730197Y-66956855D01*
X79730192Y-66956857D01*
X79557270Y-67033848D01*
X79557265Y-67033851D01*
X79543548Y-67043818D01*
X79477742Y-67067298D01*
X79470663Y-67067500D01*
X71228230Y-67067500D01*
X71161191Y-67047815D01*
X71140549Y-67031181D01*
X70509819Y-66400450D01*
X70476334Y-66339127D01*
X70473500Y-66312769D01*
X70473500Y-56877229D01*
X70493185Y-56810190D01*
X70509814Y-56789553D01*
X76523499Y-50775867D01*
X76584820Y-50742384D01*
X76621984Y-50740022D01*
X76770319Y-50753000D01*
X76834999Y-50758659D01*
X76835000Y-50758659D01*
X76835001Y-50758659D01*
X76899681Y-50753000D01*
X77070408Y-50738063D01*
X77298663Y-50676903D01*
X77512830Y-50577035D01*
X77706401Y-50441495D01*
X77873495Y-50274401D01*
X78003424Y-50088842D01*
X78058002Y-50045217D01*
X78127500Y-50038023D01*
X78189855Y-50069546D01*
X78206575Y-50088842D01*
X78336500Y-50274395D01*
X78336505Y-50274401D01*
X78503599Y-50441495D01*
X78580135Y-50495086D01*
X78697165Y-50577032D01*
X78697167Y-50577033D01*
X78697170Y-50577035D01*
X78911337Y-50676903D01*
X79139592Y-50738063D01*
X79310319Y-50753000D01*
X79374999Y-50758659D01*
X79375000Y-50758659D01*
X79375001Y-50758659D01*
X79439681Y-50753000D01*
X79610408Y-50738063D01*
X79838663Y-50676903D01*
X80052830Y-50577035D01*
X80246401Y-50441495D01*
X80413495Y-50274401D01*
X80543424Y-50088842D01*
X80598002Y-50045217D01*
X80667500Y-50038023D01*
X80729855Y-50069546D01*
X80746575Y-50088842D01*
X80876500Y-50274395D01*
X80876505Y-50274401D01*
X81043599Y-50441495D01*
X81120135Y-50495086D01*
X81237165Y-50577032D01*
X81237167Y-50577033D01*
X81237170Y-50577035D01*
X81451337Y-50676903D01*
X81679592Y-50738063D01*
X81850319Y-50753000D01*
X81914999Y-50758659D01*
X81915000Y-50758659D01*
X81915001Y-50758659D01*
X81979681Y-50753000D01*
X82150408Y-50738063D01*
X82378663Y-50676903D01*
X82592830Y-50577035D01*
X82786401Y-50441495D01*
X82953495Y-50274401D01*
X83083424Y-50088842D01*
X83138002Y-50045217D01*
X83207500Y-50038023D01*
X83269855Y-50069546D01*
X83286575Y-50088842D01*
X83416500Y-50274395D01*
X83416505Y-50274401D01*
X83583599Y-50441495D01*
X83660135Y-50495086D01*
X83777165Y-50577032D01*
X83777167Y-50577033D01*
X83777170Y-50577035D01*
X83991337Y-50676903D01*
X84219592Y-50738063D01*
X84390319Y-50753000D01*
X84454999Y-50758659D01*
X84455000Y-50758659D01*
X84455001Y-50758659D01*
X84519681Y-50753000D01*
X84690408Y-50738063D01*
X84918663Y-50676903D01*
X85132830Y-50577035D01*
X85326401Y-50441495D01*
X85493495Y-50274401D01*
X85623424Y-50088842D01*
X85678002Y-50045217D01*
X85747500Y-50038023D01*
X85809855Y-50069546D01*
X85826575Y-50088842D01*
X85956500Y-50274395D01*
X85956505Y-50274401D01*
X86123599Y-50441495D01*
X86200135Y-50495086D01*
X86317165Y-50577032D01*
X86317167Y-50577033D01*
X86317170Y-50577035D01*
X86531337Y-50676903D01*
X86759592Y-50738063D01*
X86930319Y-50753000D01*
X86994999Y-50758659D01*
X86995000Y-50758659D01*
X86995001Y-50758659D01*
X87059681Y-50753000D01*
X87230408Y-50738063D01*
X87458663Y-50676903D01*
X87672830Y-50577035D01*
X87866401Y-50441495D01*
X88033495Y-50274401D01*
X88169035Y-50080830D01*
X88268903Y-49866663D01*
X88330063Y-49638408D01*
X88350659Y-49403000D01*
X88330063Y-49167592D01*
X88268903Y-48939337D01*
X88169035Y-48725171D01*
X88163425Y-48717158D01*
X88033494Y-48531597D01*
X87866402Y-48364506D01*
X87866395Y-48364501D01*
X87672834Y-48228967D01*
X87672830Y-48228965D01*
X87601727Y-48195809D01*
X87458663Y-48129097D01*
X87458659Y-48129096D01*
X87458655Y-48129094D01*
X87230413Y-48067938D01*
X87230403Y-48067936D01*
X86995001Y-48047341D01*
X86994999Y-48047341D01*
X86759596Y-48067936D01*
X86759586Y-48067938D01*
X86531344Y-48129094D01*
X86531335Y-48129098D01*
X86317171Y-48228964D01*
X86317169Y-48228965D01*
X86123597Y-48364505D01*
X85956505Y-48531597D01*
X85826575Y-48717158D01*
X85771998Y-48760783D01*
X85702500Y-48767977D01*
X85640145Y-48736454D01*
X85623425Y-48717158D01*
X85493494Y-48531597D01*
X85326402Y-48364506D01*
X85326395Y-48364501D01*
X85132834Y-48228967D01*
X85132830Y-48228965D01*
X85061727Y-48195809D01*
X84918663Y-48129097D01*
X84918659Y-48129096D01*
X84918655Y-48129094D01*
X84690413Y-48067938D01*
X84690403Y-48067936D01*
X84455001Y-48047341D01*
X84454999Y-48047341D01*
X84219596Y-48067936D01*
X84219586Y-48067938D01*
X83991344Y-48129094D01*
X83991335Y-48129098D01*
X83777171Y-48228964D01*
X83777169Y-48228965D01*
X83583597Y-48364505D01*
X83416505Y-48531597D01*
X83286575Y-48717158D01*
X83231998Y-48760783D01*
X83162500Y-48767977D01*
X83100145Y-48736454D01*
X83083425Y-48717158D01*
X82953494Y-48531597D01*
X82786402Y-48364506D01*
X82786395Y-48364501D01*
X82592834Y-48228967D01*
X82592830Y-48228965D01*
X82521727Y-48195809D01*
X82378663Y-48129097D01*
X82378659Y-48129096D01*
X82378655Y-48129094D01*
X82150413Y-48067938D01*
X82150403Y-48067936D01*
X81915001Y-48047341D01*
X81914999Y-48047341D01*
X81679596Y-48067936D01*
X81679586Y-48067938D01*
X81451344Y-48129094D01*
X81451335Y-48129098D01*
X81237171Y-48228964D01*
X81237169Y-48228965D01*
X81043597Y-48364505D01*
X80876505Y-48531597D01*
X80746575Y-48717158D01*
X80691998Y-48760783D01*
X80622500Y-48767977D01*
X80560145Y-48736454D01*
X80543425Y-48717158D01*
X80413494Y-48531597D01*
X80246402Y-48364506D01*
X80246395Y-48364501D01*
X80052834Y-48228967D01*
X80052830Y-48228965D01*
X79981727Y-48195809D01*
X79838663Y-48129097D01*
X79838659Y-48129096D01*
X79838655Y-48129094D01*
X79610413Y-48067938D01*
X79610403Y-48067936D01*
X79375001Y-48047341D01*
X79374999Y-48047341D01*
X79139596Y-48067936D01*
X79139586Y-48067938D01*
X78911344Y-48129094D01*
X78911335Y-48129098D01*
X78697171Y-48228964D01*
X78697169Y-48228965D01*
X78503597Y-48364505D01*
X78336505Y-48531597D01*
X78206575Y-48717158D01*
X78151998Y-48760783D01*
X78082500Y-48767977D01*
X78020145Y-48736454D01*
X78003425Y-48717158D01*
X77873494Y-48531597D01*
X77706402Y-48364506D01*
X77706395Y-48364501D01*
X77512834Y-48228967D01*
X77512830Y-48228965D01*
X77441727Y-48195809D01*
X77298663Y-48129097D01*
X77298659Y-48129096D01*
X77298655Y-48129094D01*
X77070413Y-48067938D01*
X77070403Y-48067936D01*
X76835001Y-48047341D01*
X76834999Y-48047341D01*
X76599596Y-48067936D01*
X76599586Y-48067938D01*
X76371344Y-48129094D01*
X76371335Y-48129098D01*
X76157171Y-48228964D01*
X76157169Y-48228965D01*
X75963600Y-48364503D01*
X75841284Y-48486819D01*
X75779961Y-48520303D01*
X75710269Y-48515319D01*
X75654336Y-48473447D01*
X75637421Y-48442470D01*
X75588354Y-48310913D01*
X75588350Y-48310906D01*
X75502190Y-48195812D01*
X75502187Y-48195809D01*
X75387093Y-48109649D01*
X75387086Y-48109645D01*
X75252379Y-48059403D01*
X75252372Y-48059401D01*
X75192844Y-48053000D01*
X74545000Y-48053000D01*
X74545000Y-48967498D01*
X74437315Y-48918320D01*
X74330763Y-48903000D01*
X74259237Y-48903000D01*
X74152685Y-48918320D01*
X74045000Y-48967498D01*
X74045000Y-48053000D01*
X73397155Y-48053000D01*
X73337627Y-48059401D01*
X73337620Y-48059403D01*
X73202913Y-48109645D01*
X73202906Y-48109649D01*
X73087812Y-48195809D01*
X73087809Y-48195812D01*
X73001649Y-48310906D01*
X73001645Y-48310913D01*
X72951403Y-48445620D01*
X72951401Y-48445627D01*
X72945000Y-48505155D01*
X72945000Y-49153000D01*
X73861314Y-49153000D01*
X73835507Y-49193156D01*
X73795000Y-49331111D01*
X73795000Y-49474889D01*
X73835507Y-49612844D01*
X73861314Y-49653000D01*
X72945000Y-49653000D01*
X72945000Y-50300844D01*
X72951401Y-50360372D01*
X72951403Y-50360379D01*
X73001645Y-50495086D01*
X73001649Y-50495093D01*
X73087809Y-50610187D01*
X73087812Y-50610190D01*
X73202906Y-50696350D01*
X73202913Y-50696354D01*
X73337620Y-50746596D01*
X73337627Y-50746598D01*
X73397155Y-50752999D01*
X73397172Y-50753000D01*
X74124270Y-50753000D01*
X74191309Y-50772685D01*
X74237064Y-50825489D01*
X74247008Y-50894647D01*
X74217983Y-50958203D01*
X74211951Y-50964681D01*
X69237358Y-55939272D01*
X69223729Y-55951051D01*
X69204468Y-55965391D01*
X69204467Y-55965392D01*
X69179989Y-55994564D01*
X69121817Y-56033266D01*
X69051957Y-56034374D01*
X68992587Y-55997537D01*
X68962557Y-55934449D01*
X68961000Y-55914858D01*
X68961000Y-46987000D01*
X68980685Y-46919961D01*
X69033489Y-46874206D01*
X69085000Y-46863000D01*
X127511000Y-46863000D01*
X127578039Y-46882685D01*
G37*
%TD.AperFunction*%
%TD*%
M02*
