%TF.GenerationSoftware,KiCad,Pcbnew,7.0.6-0*%
%TF.CreationDate,2024-01-22T13:27:35-05:00*%
%TF.ProjectId,regulators,72656775-6c61-4746-9f72-732e6b696361,rev?*%
%TF.SameCoordinates,Original*%
%TF.FileFunction,Paste,Top*%
%TF.FilePolarity,Positive*%
%FSLAX46Y46*%
G04 Gerber Fmt 4.6, Leading zero omitted, Abs format (unit mm)*
G04 Created by KiCad (PCBNEW 7.0.6-0) date 2024-01-22 13:27:35*
%MOMM*%
%LPD*%
G01*
G04 APERTURE LIST*
G04 Aperture macros list*
%AMRoundRect*
0 Rectangle with rounded corners*
0 $1 Rounding radius*
0 $2 $3 $4 $5 $6 $7 $8 $9 X,Y pos of 4 corners*
0 Add a 4 corners polygon primitive as box body*
4,1,4,$2,$3,$4,$5,$6,$7,$8,$9,$2,$3,0*
0 Add four circle primitives for the rounded corners*
1,1,$1+$1,$2,$3*
1,1,$1+$1,$4,$5*
1,1,$1+$1,$6,$7*
1,1,$1+$1,$8,$9*
0 Add four rect primitives between the rounded corners*
20,1,$1+$1,$2,$3,$4,$5,0*
20,1,$1+$1,$4,$5,$6,$7,0*
20,1,$1+$1,$6,$7,$8,$9,0*
20,1,$1+$1,$8,$9,$2,$3,0*%
G04 Aperture macros list end*
%ADD10RoundRect,0.250000X-0.475000X0.337500X-0.475000X-0.337500X0.475000X-0.337500X0.475000X0.337500X0*%
%ADD11RoundRect,0.250000X0.350000X0.450000X-0.350000X0.450000X-0.350000X-0.450000X0.350000X-0.450000X0*%
%ADD12R,1.425000X0.300000*%
%ADD13R,1.753000X2.947000*%
%ADD14R,0.980000X3.400000*%
%ADD15R,3.400000X0.980000*%
%ADD16RoundRect,0.250000X-0.500000X0.950000X-0.500000X-0.950000X0.500000X-0.950000X0.500000X0.950000X0*%
%ADD17RoundRect,0.250000X-0.500000X0.275000X-0.500000X-0.275000X0.500000X-0.275000X0.500000X0.275000X0*%
%ADD18RoundRect,0.250000X-0.412500X-1.100000X0.412500X-1.100000X0.412500X1.100000X-0.412500X1.100000X0*%
%ADD19RoundRect,0.250000X-0.337500X-0.475000X0.337500X-0.475000X0.337500X0.475000X-0.337500X0.475000X0*%
%ADD20RoundRect,0.250000X0.337500X0.475000X-0.337500X0.475000X-0.337500X-0.475000X0.337500X-0.475000X0*%
%ADD21R,1.600000X2.250000*%
%ADD22RoundRect,0.250000X-0.350000X-0.450000X0.350000X-0.450000X0.350000X0.450000X-0.350000X0.450000X0*%
%ADD23RoundRect,0.250000X-0.450000X0.350000X-0.450000X-0.350000X0.450000X-0.350000X0.450000X0.350000X0*%
%ADD24RoundRect,0.250000X0.450000X-0.350000X0.450000X0.350000X-0.450000X0.350000X-0.450000X-0.350000X0*%
%ADD25R,1.500000X2.000000*%
%ADD26R,3.800000X2.000000*%
%ADD27RoundRect,0.250000X-0.950000X-0.500000X0.950000X-0.500000X0.950000X0.500000X-0.950000X0.500000X0*%
%ADD28RoundRect,0.250000X-0.275000X-0.500000X0.275000X-0.500000X0.275000X0.500000X-0.275000X0.500000X0*%
%ADD29R,1.200000X1.140000*%
%ADD30R,1.450000X0.450000*%
%ADD31R,3.000000X4.200000*%
%ADD32RoundRect,0.250000X0.412500X1.100000X-0.412500X1.100000X-0.412500X-1.100000X0.412500X-1.100000X0*%
G04 APERTURE END LIST*
D10*
%TO.C,CN3*%
X77355500Y-80948500D03*
X77355500Y-83023500D03*
%TD*%
D11*
%TO.C,RFB1_1*%
X107311000Y-79499000D03*
X105311000Y-79499000D03*
%TD*%
D12*
%TO.C,IC1*%
X77025000Y-58515000D03*
X77025000Y-59015000D03*
X77025000Y-59515000D03*
X77025000Y-60015000D03*
X77025000Y-60515000D03*
X77025000Y-61015000D03*
X77025000Y-61515000D03*
X77025000Y-62015000D03*
X81449000Y-62015000D03*
X81449000Y-61515000D03*
X81449000Y-61015000D03*
X81449000Y-60515000D03*
X81449000Y-60015000D03*
X81449000Y-59515000D03*
X81449000Y-59015000D03*
X81449000Y-58515000D03*
D13*
X79237000Y-60265000D03*
%TD*%
D14*
%TO.C,L2_1*%
X117106000Y-59820000D03*
X114736000Y-59820000D03*
%TD*%
D11*
%TO.C,RP4*%
X85878000Y-63976000D03*
X83878000Y-63976000D03*
%TD*%
D15*
%TO.C,L1_1*%
X106311000Y-70361000D03*
X106311000Y-67991000D03*
%TD*%
D16*
%TO.C,D1*%
X120027000Y-59782000D03*
D17*
X120027000Y-57407000D03*
%TD*%
D18*
%TO.C,CP1*%
X71589500Y-59055000D03*
X74714500Y-59055000D03*
%TD*%
D19*
%TO.C,CVREF_1*%
X120640500Y-73409000D03*
X122715500Y-73409000D03*
%TD*%
D20*
%TO.C,CVREG_1*%
X122715500Y-70361000D03*
X120640500Y-70361000D03*
%TD*%
D21*
%TO.C,DP1*%
X86614000Y-53245000D03*
X86614000Y-57245000D03*
%TD*%
D22*
%TO.C,RP1*%
X83836000Y-61849000D03*
X85836000Y-61849000D03*
%TD*%
D19*
%TO.C,CN2*%
X83925500Y-77089000D03*
X86000500Y-77089000D03*
%TD*%
D23*
%TO.C,RP3*%
X81830000Y-63849000D03*
X81830000Y-65849000D03*
%TD*%
D11*
%TO.C,RFT1_1*%
X107295000Y-82928000D03*
X105295000Y-82928000D03*
%TD*%
D24*
%TO.C,RC2_1*%
X117868000Y-78721000D03*
X117868000Y-76721000D03*
%TD*%
D10*
%TO.C,CN5*%
X84709000Y-69320500D03*
X84709000Y-71395500D03*
%TD*%
D12*
%TO.C,IC2*%
X77376500Y-75692000D03*
X77376500Y-76192000D03*
X77376500Y-76692000D03*
X77376500Y-77192000D03*
X77376500Y-77692000D03*
X77376500Y-78192000D03*
X77376500Y-78692000D03*
X77376500Y-79192000D03*
X81800500Y-79192000D03*
X81800500Y-78692000D03*
X81800500Y-78192000D03*
X81800500Y-77692000D03*
X81800500Y-77192000D03*
X81800500Y-76692000D03*
X81800500Y-76192000D03*
X81800500Y-75692000D03*
D13*
X79588500Y-77442000D03*
%TD*%
D25*
%TO.C,U2*%
X95714000Y-61107000D03*
X98014000Y-61107000D03*
D26*
X98014000Y-54807000D03*
D25*
X100314000Y-61107000D03*
%TD*%
D20*
%TO.C,CP5*%
X83968500Y-53594000D03*
X81893500Y-53594000D03*
%TD*%
D14*
%TO.C,LP1*%
X77301000Y-55118000D03*
X79671000Y-55118000D03*
%TD*%
D22*
%TO.C,RFT2_1*%
X121694000Y-83182000D03*
X123694000Y-83182000D03*
%TD*%
D20*
%TO.C,CN4*%
X75205500Y-78994000D03*
X73130500Y-78994000D03*
%TD*%
D27*
%TO.C,D2*%
X109447000Y-65027000D03*
D28*
X107072000Y-65027000D03*
%TD*%
D22*
%TO.C,RN1*%
X83963000Y-79121000D03*
X85963000Y-79121000D03*
%TD*%
D10*
%TO.C,CC1_1*%
X112534000Y-76705000D03*
X112534000Y-78780000D03*
%TD*%
D24*
%TO.C,RN5*%
X82423000Y-71358000D03*
X82423000Y-69358000D03*
%TD*%
D10*
%TO.C,CP3*%
X77004000Y-63722000D03*
X77004000Y-65797000D03*
%TD*%
D18*
%TO.C,CN1*%
X71970500Y-76200000D03*
X75095500Y-76200000D03*
%TD*%
D23*
%TO.C,RN3*%
X81927500Y-80970000D03*
X81927500Y-82970000D03*
%TD*%
D11*
%TO.C,RN4*%
X85975500Y-81097000D03*
X83975500Y-81097000D03*
%TD*%
D21*
%TO.C,DN1*%
X91694000Y-74517000D03*
X91694000Y-70517000D03*
%TD*%
%TO.C,DN2*%
X88011000Y-70517000D03*
X88011000Y-74517000D03*
%TD*%
D20*
%TO.C,CP4*%
X74824500Y-61849000D03*
X72749500Y-61849000D03*
%TD*%
D18*
%TO.C,COUT2_1*%
X115797500Y-54486000D03*
X118922500Y-54486000D03*
%TD*%
D24*
%TO.C,RC1_1*%
X109994000Y-78721000D03*
X109994000Y-76721000D03*
%TD*%
D29*
%TO.C,U1*%
X113423000Y-69974000D03*
X113423000Y-71374000D03*
X113423000Y-72774000D03*
X114923000Y-69974000D03*
X114923000Y-71374000D03*
X114923000Y-72774000D03*
D30*
X111223000Y-68449000D03*
X111223000Y-69099000D03*
X111223000Y-69749000D03*
X111223000Y-70399000D03*
X111223000Y-71049000D03*
X111223000Y-71699000D03*
X111223000Y-72349000D03*
X111223000Y-72999000D03*
X111223000Y-73649000D03*
X111223000Y-74299000D03*
X117123000Y-74299000D03*
X117123000Y-73649000D03*
X117123000Y-72999000D03*
X117123000Y-72349000D03*
X117123000Y-71699000D03*
X117123000Y-71049000D03*
X117123000Y-70399000D03*
X117123000Y-69749000D03*
X117123000Y-69099000D03*
X117123000Y-68449000D03*
D31*
X114173000Y-71374000D03*
%TD*%
D14*
%TO.C,LN1*%
X77682000Y-72263000D03*
X80052000Y-72263000D03*
%TD*%
D18*
%TO.C,CIN_1*%
X115378000Y-65408000D03*
X118503000Y-65408000D03*
%TD*%
D32*
%TO.C,C1*%
X98776000Y-64561000D03*
X95651000Y-64561000D03*
%TD*%
D19*
%TO.C,CN6*%
X82274500Y-73787000D03*
X84349500Y-73787000D03*
%TD*%
D10*
%TO.C,CC2_1*%
X115328000Y-76705000D03*
X115328000Y-78780000D03*
%TD*%
D23*
%TO.C,RP2*%
X74718000Y-63770000D03*
X74718000Y-65770000D03*
%TD*%
D19*
%TO.C,CP2*%
X83798500Y-59817000D03*
X85873500Y-59817000D03*
%TD*%
D18*
%TO.C,COUT1_1*%
X110044000Y-54486000D03*
X113169000Y-54486000D03*
%TD*%
D20*
%TO.C,C2*%
X97781500Y-67609000D03*
X95706500Y-67609000D03*
%TD*%
D11*
%TO.C,RFB2_1*%
X123694000Y-79753000D03*
X121694000Y-79753000D03*
%TD*%
D23*
%TO.C,RN2*%
X75311000Y-81042000D03*
X75311000Y-83042000D03*
%TD*%
M02*
