M48
; DRILL file {KiCad 7.0.6-0} date 2024 January 22, Monday 13:27:31
; FORMAT={-:-/ absolute / inch / decimal}
; #@! TF.CreationDate,2024-01-22T13:27:31-05:00
; #@! TF.GenerationSoftware,Kicad,Pcbnew,7.0.6-0
; #@! TF.FileFunction,MixedPlating,1,2
FMAT,2
INCH
; #@! TA.AperFunction,Plated,PTH,ViaDrill
T1C0.0157
; #@! TA.AperFunction,Plated,PTH,ComponentDrill
T2C0.0394
%
G90
G05
T1
X2.845Y-2.545
X2.86Y-3.225
X3.1046Y-2.3337
X3.1046Y-2.3687
X3.1046Y-2.4037
X3.116Y-3.014
X3.116Y-3.048
X3.116Y-3.084
X3.136Y-2.334
X3.136Y-2.368
X3.136Y-2.404
X3.1484Y-3.0139
X3.1484Y-3.0489
X3.1484Y-3.0839
X3.15Y-2.67
X3.23Y-2.19
X3.39Y-2.775
X3.435Y-2.395
X3.44Y-3.075
X3.705Y-2.64
X4.15Y-3.065
X4.32Y-2.775
X4.435Y-2.975
X4.45Y-2.51
X4.46Y-2.865
X4.465Y-2.755
X4.465Y-2.795
X4.465Y-2.83
X4.495Y-2.865
X4.5Y-2.755
X4.5Y-2.795
X4.5Y-2.83
X4.51Y-2.9252
X4.53Y-2.795
X4.535Y-2.755
X4.535Y-2.83
X4.535Y-2.865
X4.55Y-2.975
X4.885Y-2.77
T2
X2.925Y-1.945
X3.025Y-1.945
X3.125Y-1.945
X3.225Y-1.945
X3.325Y-1.945
X3.425Y-1.945
X3.7888Y-2.9068
X3.8888Y-2.9068
T0
M30
