%TF.GenerationSoftware,KiCad,Pcbnew,7.0.6-0*%
%TF.CreationDate,2024-01-17T10:18:31-05:00*%
%TF.ProjectId,channels1,6368616e-6e65-46c7-9331-2e6b69636164,rev?*%
%TF.SameCoordinates,Original*%
%TF.FileFunction,Legend,Top*%
%TF.FilePolarity,Positive*%
%FSLAX46Y46*%
G04 Gerber Fmt 4.6, Leading zero omitted, Abs format (unit mm)*
G04 Created by KiCad (PCBNEW 7.0.6-0) date 2024-01-17 10:18:31*
%MOMM*%
%LPD*%
G01*
G04 APERTURE LIST*
%ADD10C,0.100000*%
%ADD11C,0.150000*%
%ADD12C,0.200000*%
%ADD13C,0.254000*%
%ADD14C,0.120000*%
%ADD15C,0.250000*%
%ADD16C,0.127000*%
G04 APERTURE END LIST*
D10*
X105891133Y-89604163D02*
X105891133Y-89223211D01*
X106195895Y-89413687D02*
X105586371Y-89413687D01*
X105395895Y-88747020D02*
X105395895Y-88985115D01*
X105395895Y-88985115D02*
X105776847Y-89008924D01*
X105776847Y-89008924D02*
X105738752Y-88985115D01*
X105738752Y-88985115D02*
X105700657Y-88937496D01*
X105700657Y-88937496D02*
X105700657Y-88818448D01*
X105700657Y-88818448D02*
X105738752Y-88770829D01*
X105738752Y-88770829D02*
X105776847Y-88747020D01*
X105776847Y-88747020D02*
X105853038Y-88723210D01*
X105853038Y-88723210D02*
X106043514Y-88723210D01*
X106043514Y-88723210D02*
X106119704Y-88747020D01*
X106119704Y-88747020D02*
X106157800Y-88770829D01*
X106157800Y-88770829D02*
X106195895Y-88818448D01*
X106195895Y-88818448D02*
X106195895Y-88937496D01*
X106195895Y-88937496D02*
X106157800Y-88985115D01*
X106157800Y-88985115D02*
X106119704Y-89008924D01*
X105395895Y-88580353D02*
X106195895Y-88413687D01*
X106195895Y-88413687D02*
X105395895Y-88247020D01*
D11*
X152482779Y-82038819D02*
X152482779Y-81038819D01*
X152482779Y-81038819D02*
X152720874Y-81038819D01*
X152720874Y-81038819D02*
X152863731Y-81086438D01*
X152863731Y-81086438D02*
X152958969Y-81181676D01*
X152958969Y-81181676D02*
X153006588Y-81276914D01*
X153006588Y-81276914D02*
X153054207Y-81467390D01*
X153054207Y-81467390D02*
X153054207Y-81610247D01*
X153054207Y-81610247D02*
X153006588Y-81800723D01*
X153006588Y-81800723D02*
X152958969Y-81895961D01*
X152958969Y-81895961D02*
X152863731Y-81991200D01*
X152863731Y-81991200D02*
X152720874Y-82038819D01*
X152720874Y-82038819D02*
X152482779Y-82038819D01*
X153244684Y-82134057D02*
X154006588Y-82134057D01*
X154673255Y-81991200D02*
X154578017Y-82038819D01*
X154578017Y-82038819D02*
X154387541Y-82038819D01*
X154387541Y-82038819D02*
X154292303Y-81991200D01*
X154292303Y-81991200D02*
X154244684Y-81943580D01*
X154244684Y-81943580D02*
X154197065Y-81848342D01*
X154197065Y-81848342D02*
X154197065Y-81562628D01*
X154197065Y-81562628D02*
X154244684Y-81467390D01*
X154244684Y-81467390D02*
X154292303Y-81419771D01*
X154292303Y-81419771D02*
X154387541Y-81372152D01*
X154387541Y-81372152D02*
X154578017Y-81372152D01*
X154578017Y-81372152D02*
X154673255Y-81419771D01*
X155244684Y-82038819D02*
X155149446Y-81991200D01*
X155149446Y-81991200D02*
X155101827Y-81943580D01*
X155101827Y-81943580D02*
X155054208Y-81848342D01*
X155054208Y-81848342D02*
X155054208Y-81562628D01*
X155054208Y-81562628D02*
X155101827Y-81467390D01*
X155101827Y-81467390D02*
X155149446Y-81419771D01*
X155149446Y-81419771D02*
X155244684Y-81372152D01*
X155244684Y-81372152D02*
X155387541Y-81372152D01*
X155387541Y-81372152D02*
X155482779Y-81419771D01*
X155482779Y-81419771D02*
X155530398Y-81467390D01*
X155530398Y-81467390D02*
X155578017Y-81562628D01*
X155578017Y-81562628D02*
X155578017Y-81848342D01*
X155578017Y-81848342D02*
X155530398Y-81943580D01*
X155530398Y-81943580D02*
X155482779Y-81991200D01*
X155482779Y-81991200D02*
X155387541Y-82038819D01*
X155387541Y-82038819D02*
X155244684Y-82038819D01*
X156006589Y-81372152D02*
X156006589Y-82038819D01*
X156006589Y-81467390D02*
X156054208Y-81419771D01*
X156054208Y-81419771D02*
X156149446Y-81372152D01*
X156149446Y-81372152D02*
X156292303Y-81372152D01*
X156292303Y-81372152D02*
X156387541Y-81419771D01*
X156387541Y-81419771D02*
X156435160Y-81515009D01*
X156435160Y-81515009D02*
X156435160Y-82038819D01*
X156768494Y-81372152D02*
X157149446Y-81372152D01*
X156911351Y-81038819D02*
X156911351Y-81895961D01*
X156911351Y-81895961D02*
X156958970Y-81991200D01*
X156958970Y-81991200D02*
X157054208Y-82038819D01*
X157054208Y-82038819D02*
X157149446Y-82038819D01*
X157482780Y-82038819D02*
X157482780Y-81372152D01*
X157482780Y-81562628D02*
X157530399Y-81467390D01*
X157530399Y-81467390D02*
X157578018Y-81419771D01*
X157578018Y-81419771D02*
X157673256Y-81372152D01*
X157673256Y-81372152D02*
X157768494Y-81372152D01*
X158244685Y-82038819D02*
X158149447Y-81991200D01*
X158149447Y-81991200D02*
X158101828Y-81943580D01*
X158101828Y-81943580D02*
X158054209Y-81848342D01*
X158054209Y-81848342D02*
X158054209Y-81562628D01*
X158054209Y-81562628D02*
X158101828Y-81467390D01*
X158101828Y-81467390D02*
X158149447Y-81419771D01*
X158149447Y-81419771D02*
X158244685Y-81372152D01*
X158244685Y-81372152D02*
X158387542Y-81372152D01*
X158387542Y-81372152D02*
X158482780Y-81419771D01*
X158482780Y-81419771D02*
X158530399Y-81467390D01*
X158530399Y-81467390D02*
X158578018Y-81562628D01*
X158578018Y-81562628D02*
X158578018Y-81848342D01*
X158578018Y-81848342D02*
X158530399Y-81943580D01*
X158530399Y-81943580D02*
X158482780Y-81991200D01*
X158482780Y-81991200D02*
X158387542Y-82038819D01*
X158387542Y-82038819D02*
X158244685Y-82038819D01*
X159149447Y-82038819D02*
X159054209Y-81991200D01*
X159054209Y-81991200D02*
X159006590Y-81895961D01*
X159006590Y-81895961D02*
X159006590Y-81038819D01*
D10*
X115754836Y-126973133D02*
X116135789Y-126973133D01*
X116326265Y-126477895D02*
X116635789Y-126477895D01*
X116635789Y-126477895D02*
X116469122Y-126782657D01*
X116469122Y-126782657D02*
X116540551Y-126782657D01*
X116540551Y-126782657D02*
X116588170Y-126820752D01*
X116588170Y-126820752D02*
X116611979Y-126858847D01*
X116611979Y-126858847D02*
X116635789Y-126935038D01*
X116635789Y-126935038D02*
X116635789Y-127125514D01*
X116635789Y-127125514D02*
X116611979Y-127201704D01*
X116611979Y-127201704D02*
X116588170Y-127239800D01*
X116588170Y-127239800D02*
X116540551Y-127277895D01*
X116540551Y-127277895D02*
X116397694Y-127277895D01*
X116397694Y-127277895D02*
X116350075Y-127239800D01*
X116350075Y-127239800D02*
X116326265Y-127201704D01*
X117064360Y-126744561D02*
X117064360Y-127277895D01*
X116945312Y-126439800D02*
X116826265Y-127011228D01*
X116826265Y-127011228D02*
X117135788Y-127011228D01*
X117254836Y-126477895D02*
X117421502Y-127277895D01*
X117421502Y-127277895D02*
X117588169Y-126477895D01*
X118421836Y-126973133D02*
X118802789Y-126973133D01*
X118612312Y-127277895D02*
X118612312Y-126668371D01*
X118993265Y-126477895D02*
X119302789Y-126477895D01*
X119302789Y-126477895D02*
X119136122Y-126782657D01*
X119136122Y-126782657D02*
X119207551Y-126782657D01*
X119207551Y-126782657D02*
X119255170Y-126820752D01*
X119255170Y-126820752D02*
X119278979Y-126858847D01*
X119278979Y-126858847D02*
X119302789Y-126935038D01*
X119302789Y-126935038D02*
X119302789Y-127125514D01*
X119302789Y-127125514D02*
X119278979Y-127201704D01*
X119278979Y-127201704D02*
X119255170Y-127239800D01*
X119255170Y-127239800D02*
X119207551Y-127277895D01*
X119207551Y-127277895D02*
X119064694Y-127277895D01*
X119064694Y-127277895D02*
X119017075Y-127239800D01*
X119017075Y-127239800D02*
X118993265Y-127201704D01*
X119731360Y-126744561D02*
X119731360Y-127277895D01*
X119612312Y-126439800D02*
X119493265Y-127011228D01*
X119493265Y-127011228D02*
X119802788Y-127011228D01*
X119921836Y-126477895D02*
X120088502Y-127277895D01*
X120088502Y-127277895D02*
X120255169Y-126477895D01*
D11*
X144942160Y-82118200D02*
X145085017Y-82165819D01*
X145085017Y-82165819D02*
X145323112Y-82165819D01*
X145323112Y-82165819D02*
X145418350Y-82118200D01*
X145418350Y-82118200D02*
X145465969Y-82070580D01*
X145465969Y-82070580D02*
X145513588Y-81975342D01*
X145513588Y-81975342D02*
X145513588Y-81880104D01*
X145513588Y-81880104D02*
X145465969Y-81784866D01*
X145465969Y-81784866D02*
X145418350Y-81737247D01*
X145418350Y-81737247D02*
X145323112Y-81689628D01*
X145323112Y-81689628D02*
X145132636Y-81642009D01*
X145132636Y-81642009D02*
X145037398Y-81594390D01*
X145037398Y-81594390D02*
X144989779Y-81546771D01*
X144989779Y-81546771D02*
X144942160Y-81451533D01*
X144942160Y-81451533D02*
X144942160Y-81356295D01*
X144942160Y-81356295D02*
X144989779Y-81261057D01*
X144989779Y-81261057D02*
X145037398Y-81213438D01*
X145037398Y-81213438D02*
X145132636Y-81165819D01*
X145132636Y-81165819D02*
X145370731Y-81165819D01*
X145370731Y-81165819D02*
X145513588Y-81213438D01*
X145894541Y-81261057D02*
X145942160Y-81213438D01*
X145942160Y-81213438D02*
X146037398Y-81165819D01*
X146037398Y-81165819D02*
X146275493Y-81165819D01*
X146275493Y-81165819D02*
X146370731Y-81213438D01*
X146370731Y-81213438D02*
X146418350Y-81261057D01*
X146418350Y-81261057D02*
X146465969Y-81356295D01*
X146465969Y-81356295D02*
X146465969Y-81451533D01*
X146465969Y-81451533D02*
X146418350Y-81594390D01*
X146418350Y-81594390D02*
X145846922Y-82165819D01*
X145846922Y-82165819D02*
X146465969Y-82165819D01*
X142402160Y-82118200D02*
X142545017Y-82165819D01*
X142545017Y-82165819D02*
X142783112Y-82165819D01*
X142783112Y-82165819D02*
X142878350Y-82118200D01*
X142878350Y-82118200D02*
X142925969Y-82070580D01*
X142925969Y-82070580D02*
X142973588Y-81975342D01*
X142973588Y-81975342D02*
X142973588Y-81880104D01*
X142973588Y-81880104D02*
X142925969Y-81784866D01*
X142925969Y-81784866D02*
X142878350Y-81737247D01*
X142878350Y-81737247D02*
X142783112Y-81689628D01*
X142783112Y-81689628D02*
X142592636Y-81642009D01*
X142592636Y-81642009D02*
X142497398Y-81594390D01*
X142497398Y-81594390D02*
X142449779Y-81546771D01*
X142449779Y-81546771D02*
X142402160Y-81451533D01*
X142402160Y-81451533D02*
X142402160Y-81356295D01*
X142402160Y-81356295D02*
X142449779Y-81261057D01*
X142449779Y-81261057D02*
X142497398Y-81213438D01*
X142497398Y-81213438D02*
X142592636Y-81165819D01*
X142592636Y-81165819D02*
X142830731Y-81165819D01*
X142830731Y-81165819D02*
X142973588Y-81213438D01*
X143306922Y-81165819D02*
X143925969Y-81165819D01*
X143925969Y-81165819D02*
X143592636Y-81546771D01*
X143592636Y-81546771D02*
X143735493Y-81546771D01*
X143735493Y-81546771D02*
X143830731Y-81594390D01*
X143830731Y-81594390D02*
X143878350Y-81642009D01*
X143878350Y-81642009D02*
X143925969Y-81737247D01*
X143925969Y-81737247D02*
X143925969Y-81975342D01*
X143925969Y-81975342D02*
X143878350Y-82070580D01*
X143878350Y-82070580D02*
X143830731Y-82118200D01*
X143830731Y-82118200D02*
X143735493Y-82165819D01*
X143735493Y-82165819D02*
X143449779Y-82165819D01*
X143449779Y-82165819D02*
X143354541Y-82118200D01*
X143354541Y-82118200D02*
X143306922Y-82070580D01*
D10*
X121088836Y-126973133D02*
X121469789Y-126973133D01*
X121969789Y-127277895D02*
X121684075Y-127277895D01*
X121826932Y-127277895D02*
X121826932Y-126477895D01*
X121826932Y-126477895D02*
X121779313Y-126592180D01*
X121779313Y-126592180D02*
X121731694Y-126668371D01*
X121731694Y-126668371D02*
X121684075Y-126706466D01*
X122422169Y-126477895D02*
X122184074Y-126477895D01*
X122184074Y-126477895D02*
X122160265Y-126858847D01*
X122160265Y-126858847D02*
X122184074Y-126820752D01*
X122184074Y-126820752D02*
X122231693Y-126782657D01*
X122231693Y-126782657D02*
X122350741Y-126782657D01*
X122350741Y-126782657D02*
X122398360Y-126820752D01*
X122398360Y-126820752D02*
X122422169Y-126858847D01*
X122422169Y-126858847D02*
X122445979Y-126935038D01*
X122445979Y-126935038D02*
X122445979Y-127125514D01*
X122445979Y-127125514D02*
X122422169Y-127201704D01*
X122422169Y-127201704D02*
X122398360Y-127239800D01*
X122398360Y-127239800D02*
X122350741Y-127277895D01*
X122350741Y-127277895D02*
X122231693Y-127277895D01*
X122231693Y-127277895D02*
X122184074Y-127239800D01*
X122184074Y-127239800D02*
X122160265Y-127201704D01*
X122588836Y-126477895D02*
X122755502Y-127277895D01*
X122755502Y-127277895D02*
X122922169Y-126477895D01*
X113984741Y-126515990D02*
X113937122Y-126477895D01*
X113937122Y-126477895D02*
X113865693Y-126477895D01*
X113865693Y-126477895D02*
X113794265Y-126515990D01*
X113794265Y-126515990D02*
X113746646Y-126592180D01*
X113746646Y-126592180D02*
X113722836Y-126668371D01*
X113722836Y-126668371D02*
X113699027Y-126820752D01*
X113699027Y-126820752D02*
X113699027Y-126935038D01*
X113699027Y-126935038D02*
X113722836Y-127087419D01*
X113722836Y-127087419D02*
X113746646Y-127163609D01*
X113746646Y-127163609D02*
X113794265Y-127239800D01*
X113794265Y-127239800D02*
X113865693Y-127277895D01*
X113865693Y-127277895D02*
X113913312Y-127277895D01*
X113913312Y-127277895D02*
X113984741Y-127239800D01*
X113984741Y-127239800D02*
X114008550Y-127201704D01*
X114008550Y-127201704D02*
X114008550Y-126935038D01*
X114008550Y-126935038D02*
X113913312Y-126935038D01*
X114222836Y-127277895D02*
X114222836Y-126477895D01*
X114222836Y-126477895D02*
X114508550Y-127277895D01*
X114508550Y-127277895D02*
X114508550Y-126477895D01*
X114746646Y-127277895D02*
X114746646Y-126477895D01*
X114746646Y-126477895D02*
X114865694Y-126477895D01*
X114865694Y-126477895D02*
X114937122Y-126515990D01*
X114937122Y-126515990D02*
X114984741Y-126592180D01*
X114984741Y-126592180D02*
X115008551Y-126668371D01*
X115008551Y-126668371D02*
X115032360Y-126820752D01*
X115032360Y-126820752D02*
X115032360Y-126935038D01*
X115032360Y-126935038D02*
X115008551Y-127087419D01*
X115008551Y-127087419D02*
X114984741Y-127163609D01*
X114984741Y-127163609D02*
X114937122Y-127239800D01*
X114937122Y-127239800D02*
X114865694Y-127277895D01*
X114865694Y-127277895D02*
X114746646Y-127277895D01*
X123628836Y-126973133D02*
X124009789Y-126973133D01*
X123819312Y-127277895D02*
X123819312Y-126668371D01*
X124509789Y-127277895D02*
X124224075Y-127277895D01*
X124366932Y-127277895D02*
X124366932Y-126477895D01*
X124366932Y-126477895D02*
X124319313Y-126592180D01*
X124319313Y-126592180D02*
X124271694Y-126668371D01*
X124271694Y-126668371D02*
X124224075Y-126706466D01*
X124962169Y-126477895D02*
X124724074Y-126477895D01*
X124724074Y-126477895D02*
X124700265Y-126858847D01*
X124700265Y-126858847D02*
X124724074Y-126820752D01*
X124724074Y-126820752D02*
X124771693Y-126782657D01*
X124771693Y-126782657D02*
X124890741Y-126782657D01*
X124890741Y-126782657D02*
X124938360Y-126820752D01*
X124938360Y-126820752D02*
X124962169Y-126858847D01*
X124962169Y-126858847D02*
X124985979Y-126935038D01*
X124985979Y-126935038D02*
X124985979Y-127125514D01*
X124985979Y-127125514D02*
X124962169Y-127201704D01*
X124962169Y-127201704D02*
X124938360Y-127239800D01*
X124938360Y-127239800D02*
X124890741Y-127277895D01*
X124890741Y-127277895D02*
X124771693Y-127277895D01*
X124771693Y-127277895D02*
X124724074Y-127239800D01*
X124724074Y-127239800D02*
X124700265Y-127201704D01*
X125128836Y-126477895D02*
X125295502Y-127277895D01*
X125295502Y-127277895D02*
X125462169Y-126477895D01*
X105433990Y-102169258D02*
X105395895Y-102216877D01*
X105395895Y-102216877D02*
X105395895Y-102288306D01*
X105395895Y-102288306D02*
X105433990Y-102359734D01*
X105433990Y-102359734D02*
X105510180Y-102407353D01*
X105510180Y-102407353D02*
X105586371Y-102431163D01*
X105586371Y-102431163D02*
X105738752Y-102454972D01*
X105738752Y-102454972D02*
X105853038Y-102454972D01*
X105853038Y-102454972D02*
X106005419Y-102431163D01*
X106005419Y-102431163D02*
X106081609Y-102407353D01*
X106081609Y-102407353D02*
X106157800Y-102359734D01*
X106157800Y-102359734D02*
X106195895Y-102288306D01*
X106195895Y-102288306D02*
X106195895Y-102240687D01*
X106195895Y-102240687D02*
X106157800Y-102169258D01*
X106157800Y-102169258D02*
X106119704Y-102145449D01*
X106119704Y-102145449D02*
X105853038Y-102145449D01*
X105853038Y-102145449D02*
X105853038Y-102240687D01*
X106195895Y-101931163D02*
X105395895Y-101931163D01*
X105395895Y-101931163D02*
X106195895Y-101645449D01*
X106195895Y-101645449D02*
X105395895Y-101645449D01*
X106195895Y-101407353D02*
X105395895Y-101407353D01*
X105395895Y-101407353D02*
X105395895Y-101288305D01*
X105395895Y-101288305D02*
X105433990Y-101216877D01*
X105433990Y-101216877D02*
X105510180Y-101169258D01*
X105510180Y-101169258D02*
X105586371Y-101145448D01*
X105586371Y-101145448D02*
X105738752Y-101121639D01*
X105738752Y-101121639D02*
X105853038Y-101121639D01*
X105853038Y-101121639D02*
X106005419Y-101145448D01*
X106005419Y-101145448D02*
X106081609Y-101169258D01*
X106081609Y-101169258D02*
X106157800Y-101216877D01*
X106157800Y-101216877D02*
X106195895Y-101288305D01*
X106195895Y-101288305D02*
X106195895Y-101407353D01*
X126422836Y-126973133D02*
X126803789Y-126973133D01*
X126613312Y-127277895D02*
X126613312Y-126668371D01*
X127279979Y-126477895D02*
X127041884Y-126477895D01*
X127041884Y-126477895D02*
X127018075Y-126858847D01*
X127018075Y-126858847D02*
X127041884Y-126820752D01*
X127041884Y-126820752D02*
X127089503Y-126782657D01*
X127089503Y-126782657D02*
X127208551Y-126782657D01*
X127208551Y-126782657D02*
X127256170Y-126820752D01*
X127256170Y-126820752D02*
X127279979Y-126858847D01*
X127279979Y-126858847D02*
X127303789Y-126935038D01*
X127303789Y-126935038D02*
X127303789Y-127125514D01*
X127303789Y-127125514D02*
X127279979Y-127201704D01*
X127279979Y-127201704D02*
X127256170Y-127239800D01*
X127256170Y-127239800D02*
X127208551Y-127277895D01*
X127208551Y-127277895D02*
X127089503Y-127277895D01*
X127089503Y-127277895D02*
X127041884Y-127239800D01*
X127041884Y-127239800D02*
X127018075Y-127201704D01*
X127446646Y-126477895D02*
X127613312Y-127277895D01*
X127613312Y-127277895D02*
X127779979Y-126477895D01*
X105891133Y-97605163D02*
X105891133Y-97224211D01*
X106195895Y-97414687D02*
X105586371Y-97414687D01*
X105395895Y-97033734D02*
X105395895Y-96724210D01*
X105395895Y-96724210D02*
X105700657Y-96890877D01*
X105700657Y-96890877D02*
X105700657Y-96819448D01*
X105700657Y-96819448D02*
X105738752Y-96771829D01*
X105738752Y-96771829D02*
X105776847Y-96748020D01*
X105776847Y-96748020D02*
X105853038Y-96724210D01*
X105853038Y-96724210D02*
X106043514Y-96724210D01*
X106043514Y-96724210D02*
X106119704Y-96748020D01*
X106119704Y-96748020D02*
X106157800Y-96771829D01*
X106157800Y-96771829D02*
X106195895Y-96819448D01*
X106195895Y-96819448D02*
X106195895Y-96962305D01*
X106195895Y-96962305D02*
X106157800Y-97009924D01*
X106157800Y-97009924D02*
X106119704Y-97033734D01*
X105662561Y-96295639D02*
X106195895Y-96295639D01*
X105357800Y-96414687D02*
X105929228Y-96533734D01*
X105929228Y-96533734D02*
X105929228Y-96224211D01*
X105395895Y-96105163D02*
X106195895Y-95938497D01*
X106195895Y-95938497D02*
X105395895Y-95771830D01*
D11*
X150022160Y-82118200D02*
X150165017Y-82165819D01*
X150165017Y-82165819D02*
X150403112Y-82165819D01*
X150403112Y-82165819D02*
X150498350Y-82118200D01*
X150498350Y-82118200D02*
X150545969Y-82070580D01*
X150545969Y-82070580D02*
X150593588Y-81975342D01*
X150593588Y-81975342D02*
X150593588Y-81880104D01*
X150593588Y-81880104D02*
X150545969Y-81784866D01*
X150545969Y-81784866D02*
X150498350Y-81737247D01*
X150498350Y-81737247D02*
X150403112Y-81689628D01*
X150403112Y-81689628D02*
X150212636Y-81642009D01*
X150212636Y-81642009D02*
X150117398Y-81594390D01*
X150117398Y-81594390D02*
X150069779Y-81546771D01*
X150069779Y-81546771D02*
X150022160Y-81451533D01*
X150022160Y-81451533D02*
X150022160Y-81356295D01*
X150022160Y-81356295D02*
X150069779Y-81261057D01*
X150069779Y-81261057D02*
X150117398Y-81213438D01*
X150117398Y-81213438D02*
X150212636Y-81165819D01*
X150212636Y-81165819D02*
X150450731Y-81165819D01*
X150450731Y-81165819D02*
X150593588Y-81213438D01*
X151212636Y-81165819D02*
X151307874Y-81165819D01*
X151307874Y-81165819D02*
X151403112Y-81213438D01*
X151403112Y-81213438D02*
X151450731Y-81261057D01*
X151450731Y-81261057D02*
X151498350Y-81356295D01*
X151498350Y-81356295D02*
X151545969Y-81546771D01*
X151545969Y-81546771D02*
X151545969Y-81784866D01*
X151545969Y-81784866D02*
X151498350Y-81975342D01*
X151498350Y-81975342D02*
X151450731Y-82070580D01*
X151450731Y-82070580D02*
X151403112Y-82118200D01*
X151403112Y-82118200D02*
X151307874Y-82165819D01*
X151307874Y-82165819D02*
X151212636Y-82165819D01*
X151212636Y-82165819D02*
X151117398Y-82118200D01*
X151117398Y-82118200D02*
X151069779Y-82070580D01*
X151069779Y-82070580D02*
X151022160Y-81975342D01*
X151022160Y-81975342D02*
X150974541Y-81784866D01*
X150974541Y-81784866D02*
X150974541Y-81546771D01*
X150974541Y-81546771D02*
X151022160Y-81356295D01*
X151022160Y-81356295D02*
X151069779Y-81261057D01*
X151069779Y-81261057D02*
X151117398Y-81213438D01*
X151117398Y-81213438D02*
X151212636Y-81165819D01*
D10*
X105891133Y-100272163D02*
X105891133Y-99891211D01*
X105395895Y-99700734D02*
X105395895Y-99391210D01*
X105395895Y-99391210D02*
X105700657Y-99557877D01*
X105700657Y-99557877D02*
X105700657Y-99486448D01*
X105700657Y-99486448D02*
X105738752Y-99438829D01*
X105738752Y-99438829D02*
X105776847Y-99415020D01*
X105776847Y-99415020D02*
X105853038Y-99391210D01*
X105853038Y-99391210D02*
X106043514Y-99391210D01*
X106043514Y-99391210D02*
X106119704Y-99415020D01*
X106119704Y-99415020D02*
X106157800Y-99438829D01*
X106157800Y-99438829D02*
X106195895Y-99486448D01*
X106195895Y-99486448D02*
X106195895Y-99629305D01*
X106195895Y-99629305D02*
X106157800Y-99676924D01*
X106157800Y-99676924D02*
X106119704Y-99700734D01*
X105662561Y-98962639D02*
X106195895Y-98962639D01*
X105357800Y-99081687D02*
X105929228Y-99200734D01*
X105929228Y-99200734D02*
X105929228Y-98891211D01*
X105395895Y-98772163D02*
X106195895Y-98605497D01*
X106195895Y-98605497D02*
X105395895Y-98438830D01*
D12*
X139990244Y-125803600D02*
X139895006Y-125851219D01*
X139895006Y-125851219D02*
X139704530Y-125851219D01*
X139704530Y-125851219D02*
X139609292Y-125803600D01*
X139609292Y-125803600D02*
X139561673Y-125755980D01*
X139561673Y-125755980D02*
X139514054Y-125660742D01*
X139514054Y-125660742D02*
X139514054Y-125375028D01*
X139514054Y-125375028D02*
X139561673Y-125279790D01*
X139561673Y-125279790D02*
X139609292Y-125232171D01*
X139609292Y-125232171D02*
X139704530Y-125184552D01*
X139704530Y-125184552D02*
X139895006Y-125184552D01*
X139895006Y-125184552D02*
X139990244Y-125232171D01*
X140418816Y-125851219D02*
X140418816Y-124851219D01*
X140847387Y-125851219D02*
X140847387Y-125327409D01*
X140847387Y-125327409D02*
X140799768Y-125232171D01*
X140799768Y-125232171D02*
X140704530Y-125184552D01*
X140704530Y-125184552D02*
X140561673Y-125184552D01*
X140561673Y-125184552D02*
X140466435Y-125232171D01*
X140466435Y-125232171D02*
X140418816Y-125279790D01*
X141752149Y-125851219D02*
X141752149Y-125327409D01*
X141752149Y-125327409D02*
X141704530Y-125232171D01*
X141704530Y-125232171D02*
X141609292Y-125184552D01*
X141609292Y-125184552D02*
X141418816Y-125184552D01*
X141418816Y-125184552D02*
X141323578Y-125232171D01*
X141752149Y-125803600D02*
X141656911Y-125851219D01*
X141656911Y-125851219D02*
X141418816Y-125851219D01*
X141418816Y-125851219D02*
X141323578Y-125803600D01*
X141323578Y-125803600D02*
X141275959Y-125708361D01*
X141275959Y-125708361D02*
X141275959Y-125613123D01*
X141275959Y-125613123D02*
X141323578Y-125517885D01*
X141323578Y-125517885D02*
X141418816Y-125470266D01*
X141418816Y-125470266D02*
X141656911Y-125470266D01*
X141656911Y-125470266D02*
X141752149Y-125422647D01*
X142228340Y-125184552D02*
X142228340Y-125851219D01*
X142228340Y-125279790D02*
X142275959Y-125232171D01*
X142275959Y-125232171D02*
X142371197Y-125184552D01*
X142371197Y-125184552D02*
X142514054Y-125184552D01*
X142514054Y-125184552D02*
X142609292Y-125232171D01*
X142609292Y-125232171D02*
X142656911Y-125327409D01*
X142656911Y-125327409D02*
X142656911Y-125851219D01*
X143133102Y-125184552D02*
X143133102Y-125851219D01*
X143133102Y-125279790D02*
X143180721Y-125232171D01*
X143180721Y-125232171D02*
X143275959Y-125184552D01*
X143275959Y-125184552D02*
X143418816Y-125184552D01*
X143418816Y-125184552D02*
X143514054Y-125232171D01*
X143514054Y-125232171D02*
X143561673Y-125327409D01*
X143561673Y-125327409D02*
X143561673Y-125851219D01*
X144418816Y-125803600D02*
X144323578Y-125851219D01*
X144323578Y-125851219D02*
X144133102Y-125851219D01*
X144133102Y-125851219D02*
X144037864Y-125803600D01*
X144037864Y-125803600D02*
X143990245Y-125708361D01*
X143990245Y-125708361D02*
X143990245Y-125327409D01*
X143990245Y-125327409D02*
X144037864Y-125232171D01*
X144037864Y-125232171D02*
X144133102Y-125184552D01*
X144133102Y-125184552D02*
X144323578Y-125184552D01*
X144323578Y-125184552D02*
X144418816Y-125232171D01*
X144418816Y-125232171D02*
X144466435Y-125327409D01*
X144466435Y-125327409D02*
X144466435Y-125422647D01*
X144466435Y-125422647D02*
X143990245Y-125517885D01*
X145037864Y-125851219D02*
X144942626Y-125803600D01*
X144942626Y-125803600D02*
X144895007Y-125708361D01*
X144895007Y-125708361D02*
X144895007Y-124851219D01*
X146133103Y-125803600D02*
X146228341Y-125851219D01*
X146228341Y-125851219D02*
X146418817Y-125851219D01*
X146418817Y-125851219D02*
X146514055Y-125803600D01*
X146514055Y-125803600D02*
X146561674Y-125708361D01*
X146561674Y-125708361D02*
X146561674Y-125660742D01*
X146561674Y-125660742D02*
X146514055Y-125565504D01*
X146514055Y-125565504D02*
X146418817Y-125517885D01*
X146418817Y-125517885D02*
X146275960Y-125517885D01*
X146275960Y-125517885D02*
X146180722Y-125470266D01*
X146180722Y-125470266D02*
X146133103Y-125375028D01*
X146133103Y-125375028D02*
X146133103Y-125327409D01*
X146133103Y-125327409D02*
X146180722Y-125232171D01*
X146180722Y-125232171D02*
X146275960Y-125184552D01*
X146275960Y-125184552D02*
X146418817Y-125184552D01*
X146418817Y-125184552D02*
X146514055Y-125232171D01*
X146847389Y-125184552D02*
X147228341Y-125184552D01*
X146990246Y-124851219D02*
X146990246Y-125708361D01*
X146990246Y-125708361D02*
X147037865Y-125803600D01*
X147037865Y-125803600D02*
X147133103Y-125851219D01*
X147133103Y-125851219D02*
X147228341Y-125851219D01*
X147990246Y-125851219D02*
X147990246Y-125327409D01*
X147990246Y-125327409D02*
X147942627Y-125232171D01*
X147942627Y-125232171D02*
X147847389Y-125184552D01*
X147847389Y-125184552D02*
X147656913Y-125184552D01*
X147656913Y-125184552D02*
X147561675Y-125232171D01*
X147990246Y-125803600D02*
X147895008Y-125851219D01*
X147895008Y-125851219D02*
X147656913Y-125851219D01*
X147656913Y-125851219D02*
X147561675Y-125803600D01*
X147561675Y-125803600D02*
X147514056Y-125708361D01*
X147514056Y-125708361D02*
X147514056Y-125613123D01*
X147514056Y-125613123D02*
X147561675Y-125517885D01*
X147561675Y-125517885D02*
X147656913Y-125470266D01*
X147656913Y-125470266D02*
X147895008Y-125470266D01*
X147895008Y-125470266D02*
X147990246Y-125422647D01*
X148895008Y-125803600D02*
X148799770Y-125851219D01*
X148799770Y-125851219D02*
X148609294Y-125851219D01*
X148609294Y-125851219D02*
X148514056Y-125803600D01*
X148514056Y-125803600D02*
X148466437Y-125755980D01*
X148466437Y-125755980D02*
X148418818Y-125660742D01*
X148418818Y-125660742D02*
X148418818Y-125375028D01*
X148418818Y-125375028D02*
X148466437Y-125279790D01*
X148466437Y-125279790D02*
X148514056Y-125232171D01*
X148514056Y-125232171D02*
X148609294Y-125184552D01*
X148609294Y-125184552D02*
X148799770Y-125184552D01*
X148799770Y-125184552D02*
X148895008Y-125232171D01*
X149323580Y-125851219D02*
X149323580Y-124851219D01*
X149418818Y-125470266D02*
X149704532Y-125851219D01*
X149704532Y-125184552D02*
X149323580Y-125565504D01*
X151037866Y-125851219D02*
X150942628Y-125803600D01*
X150942628Y-125803600D02*
X150895009Y-125755980D01*
X150895009Y-125755980D02*
X150847390Y-125660742D01*
X150847390Y-125660742D02*
X150847390Y-125375028D01*
X150847390Y-125375028D02*
X150895009Y-125279790D01*
X150895009Y-125279790D02*
X150942628Y-125232171D01*
X150942628Y-125232171D02*
X151037866Y-125184552D01*
X151037866Y-125184552D02*
X151180723Y-125184552D01*
X151180723Y-125184552D02*
X151275961Y-125232171D01*
X151275961Y-125232171D02*
X151323580Y-125279790D01*
X151323580Y-125279790D02*
X151371199Y-125375028D01*
X151371199Y-125375028D02*
X151371199Y-125660742D01*
X151371199Y-125660742D02*
X151323580Y-125755980D01*
X151323580Y-125755980D02*
X151275961Y-125803600D01*
X151275961Y-125803600D02*
X151180723Y-125851219D01*
X151180723Y-125851219D02*
X151037866Y-125851219D01*
X151656914Y-125184552D02*
X152037866Y-125184552D01*
X151799771Y-125851219D02*
X151799771Y-124994076D01*
X151799771Y-124994076D02*
X151847390Y-124898838D01*
X151847390Y-124898838D02*
X151942628Y-124851219D01*
X151942628Y-124851219D02*
X152037866Y-124851219D01*
X153514057Y-125803600D02*
X153418819Y-125851219D01*
X153418819Y-125851219D02*
X153228343Y-125851219D01*
X153228343Y-125851219D02*
X153133105Y-125803600D01*
X153133105Y-125803600D02*
X153085486Y-125708361D01*
X153085486Y-125708361D02*
X153085486Y-125327409D01*
X153085486Y-125327409D02*
X153133105Y-125232171D01*
X153133105Y-125232171D02*
X153228343Y-125184552D01*
X153228343Y-125184552D02*
X153418819Y-125184552D01*
X153418819Y-125184552D02*
X153514057Y-125232171D01*
X153514057Y-125232171D02*
X153561676Y-125327409D01*
X153561676Y-125327409D02*
X153561676Y-125422647D01*
X153561676Y-125422647D02*
X153085486Y-125517885D01*
X154133105Y-125851219D02*
X154037867Y-125803600D01*
X154037867Y-125803600D02*
X153990248Y-125708361D01*
X153990248Y-125708361D02*
X153990248Y-124851219D01*
X154895010Y-125803600D02*
X154799772Y-125851219D01*
X154799772Y-125851219D02*
X154609296Y-125851219D01*
X154609296Y-125851219D02*
X154514058Y-125803600D01*
X154514058Y-125803600D02*
X154466439Y-125708361D01*
X154466439Y-125708361D02*
X154466439Y-125327409D01*
X154466439Y-125327409D02*
X154514058Y-125232171D01*
X154514058Y-125232171D02*
X154609296Y-125184552D01*
X154609296Y-125184552D02*
X154799772Y-125184552D01*
X154799772Y-125184552D02*
X154895010Y-125232171D01*
X154895010Y-125232171D02*
X154942629Y-125327409D01*
X154942629Y-125327409D02*
X154942629Y-125422647D01*
X154942629Y-125422647D02*
X154466439Y-125517885D01*
X155799772Y-125803600D02*
X155704534Y-125851219D01*
X155704534Y-125851219D02*
X155514058Y-125851219D01*
X155514058Y-125851219D02*
X155418820Y-125803600D01*
X155418820Y-125803600D02*
X155371201Y-125755980D01*
X155371201Y-125755980D02*
X155323582Y-125660742D01*
X155323582Y-125660742D02*
X155323582Y-125375028D01*
X155323582Y-125375028D02*
X155371201Y-125279790D01*
X155371201Y-125279790D02*
X155418820Y-125232171D01*
X155418820Y-125232171D02*
X155514058Y-125184552D01*
X155514058Y-125184552D02*
X155704534Y-125184552D01*
X155704534Y-125184552D02*
X155799772Y-125232171D01*
X156085487Y-125184552D02*
X156466439Y-125184552D01*
X156228344Y-124851219D02*
X156228344Y-125708361D01*
X156228344Y-125708361D02*
X156275963Y-125803600D01*
X156275963Y-125803600D02*
X156371201Y-125851219D01*
X156371201Y-125851219D02*
X156466439Y-125851219D01*
X156799773Y-125851219D02*
X156799773Y-125184552D01*
X156799773Y-125375028D02*
X156847392Y-125279790D01*
X156847392Y-125279790D02*
X156895011Y-125232171D01*
X156895011Y-125232171D02*
X156990249Y-125184552D01*
X156990249Y-125184552D02*
X157085487Y-125184552D01*
X157561678Y-125851219D02*
X157466440Y-125803600D01*
X157466440Y-125803600D02*
X157418821Y-125755980D01*
X157418821Y-125755980D02*
X157371202Y-125660742D01*
X157371202Y-125660742D02*
X157371202Y-125375028D01*
X157371202Y-125375028D02*
X157418821Y-125279790D01*
X157418821Y-125279790D02*
X157466440Y-125232171D01*
X157466440Y-125232171D02*
X157561678Y-125184552D01*
X157561678Y-125184552D02*
X157704535Y-125184552D01*
X157704535Y-125184552D02*
X157799773Y-125232171D01*
X157799773Y-125232171D02*
X157847392Y-125279790D01*
X157847392Y-125279790D02*
X157895011Y-125375028D01*
X157895011Y-125375028D02*
X157895011Y-125660742D01*
X157895011Y-125660742D02*
X157847392Y-125755980D01*
X157847392Y-125755980D02*
X157799773Y-125803600D01*
X157799773Y-125803600D02*
X157704535Y-125851219D01*
X157704535Y-125851219D02*
X157561678Y-125851219D01*
X158275964Y-125803600D02*
X158371202Y-125851219D01*
X158371202Y-125851219D02*
X158561678Y-125851219D01*
X158561678Y-125851219D02*
X158656916Y-125803600D01*
X158656916Y-125803600D02*
X158704535Y-125708361D01*
X158704535Y-125708361D02*
X158704535Y-125660742D01*
X158704535Y-125660742D02*
X158656916Y-125565504D01*
X158656916Y-125565504D02*
X158561678Y-125517885D01*
X158561678Y-125517885D02*
X158418821Y-125517885D01*
X158418821Y-125517885D02*
X158323583Y-125470266D01*
X158323583Y-125470266D02*
X158275964Y-125375028D01*
X158275964Y-125375028D02*
X158275964Y-125327409D01*
X158275964Y-125327409D02*
X158323583Y-125232171D01*
X158323583Y-125232171D02*
X158418821Y-125184552D01*
X158418821Y-125184552D02*
X158561678Y-125184552D01*
X158561678Y-125184552D02*
X158656916Y-125232171D01*
X158990250Y-125184552D02*
X159371202Y-125184552D01*
X159133107Y-124851219D02*
X159133107Y-125708361D01*
X159133107Y-125708361D02*
X159180726Y-125803600D01*
X159180726Y-125803600D02*
X159275964Y-125851219D01*
X159275964Y-125851219D02*
X159371202Y-125851219D01*
X159704536Y-125851219D02*
X159704536Y-125184552D01*
X159704536Y-124851219D02*
X159656917Y-124898838D01*
X159656917Y-124898838D02*
X159704536Y-124946457D01*
X159704536Y-124946457D02*
X159752155Y-124898838D01*
X159752155Y-124898838D02*
X159704536Y-124851219D01*
X159704536Y-124851219D02*
X159704536Y-124946457D01*
X160180726Y-125851219D02*
X160180726Y-125184552D01*
X160180726Y-125279790D02*
X160228345Y-125232171D01*
X160228345Y-125232171D02*
X160323583Y-125184552D01*
X160323583Y-125184552D02*
X160466440Y-125184552D01*
X160466440Y-125184552D02*
X160561678Y-125232171D01*
X160561678Y-125232171D02*
X160609297Y-125327409D01*
X160609297Y-125327409D02*
X160609297Y-125851219D01*
X160609297Y-125327409D02*
X160656916Y-125232171D01*
X160656916Y-125232171D02*
X160752154Y-125184552D01*
X160752154Y-125184552D02*
X160895011Y-125184552D01*
X160895011Y-125184552D02*
X160990250Y-125232171D01*
X160990250Y-125232171D02*
X161037869Y-125327409D01*
X161037869Y-125327409D02*
X161037869Y-125851219D01*
X161942630Y-125184552D02*
X161942630Y-125851219D01*
X161514059Y-125184552D02*
X161514059Y-125708361D01*
X161514059Y-125708361D02*
X161561678Y-125803600D01*
X161561678Y-125803600D02*
X161656916Y-125851219D01*
X161656916Y-125851219D02*
X161799773Y-125851219D01*
X161799773Y-125851219D02*
X161895011Y-125803600D01*
X161895011Y-125803600D02*
X161942630Y-125755980D01*
X162561678Y-125851219D02*
X162466440Y-125803600D01*
X162466440Y-125803600D02*
X162418821Y-125708361D01*
X162418821Y-125708361D02*
X162418821Y-124851219D01*
X163371202Y-125851219D02*
X163371202Y-125327409D01*
X163371202Y-125327409D02*
X163323583Y-125232171D01*
X163323583Y-125232171D02*
X163228345Y-125184552D01*
X163228345Y-125184552D02*
X163037869Y-125184552D01*
X163037869Y-125184552D02*
X162942631Y-125232171D01*
X163371202Y-125803600D02*
X163275964Y-125851219D01*
X163275964Y-125851219D02*
X163037869Y-125851219D01*
X163037869Y-125851219D02*
X162942631Y-125803600D01*
X162942631Y-125803600D02*
X162895012Y-125708361D01*
X162895012Y-125708361D02*
X162895012Y-125613123D01*
X162895012Y-125613123D02*
X162942631Y-125517885D01*
X162942631Y-125517885D02*
X163037869Y-125470266D01*
X163037869Y-125470266D02*
X163275964Y-125470266D01*
X163275964Y-125470266D02*
X163371202Y-125422647D01*
X163704536Y-125184552D02*
X164085488Y-125184552D01*
X163847393Y-124851219D02*
X163847393Y-125708361D01*
X163847393Y-125708361D02*
X163895012Y-125803600D01*
X163895012Y-125803600D02*
X163990250Y-125851219D01*
X163990250Y-125851219D02*
X164085488Y-125851219D01*
X164561679Y-125851219D02*
X164466441Y-125803600D01*
X164466441Y-125803600D02*
X164418822Y-125755980D01*
X164418822Y-125755980D02*
X164371203Y-125660742D01*
X164371203Y-125660742D02*
X164371203Y-125375028D01*
X164371203Y-125375028D02*
X164418822Y-125279790D01*
X164418822Y-125279790D02*
X164466441Y-125232171D01*
X164466441Y-125232171D02*
X164561679Y-125184552D01*
X164561679Y-125184552D02*
X164704536Y-125184552D01*
X164704536Y-125184552D02*
X164799774Y-125232171D01*
X164799774Y-125232171D02*
X164847393Y-125279790D01*
X164847393Y-125279790D02*
X164895012Y-125375028D01*
X164895012Y-125375028D02*
X164895012Y-125660742D01*
X164895012Y-125660742D02*
X164847393Y-125755980D01*
X164847393Y-125755980D02*
X164799774Y-125803600D01*
X164799774Y-125803600D02*
X164704536Y-125851219D01*
X164704536Y-125851219D02*
X164561679Y-125851219D01*
X165323584Y-125851219D02*
X165323584Y-125184552D01*
X165323584Y-125375028D02*
X165371203Y-125279790D01*
X165371203Y-125279790D02*
X165418822Y-125232171D01*
X165418822Y-125232171D02*
X165514060Y-125184552D01*
X165514060Y-125184552D02*
X165609298Y-125184552D01*
X165799775Y-124851219D02*
X166133108Y-125851219D01*
X166133108Y-125851219D02*
X166466441Y-124851219D01*
X166704537Y-124851219D02*
X167323584Y-124851219D01*
X167323584Y-124851219D02*
X166990251Y-125232171D01*
X166990251Y-125232171D02*
X167133108Y-125232171D01*
X167133108Y-125232171D02*
X167228346Y-125279790D01*
X167228346Y-125279790D02*
X167275965Y-125327409D01*
X167275965Y-125327409D02*
X167323584Y-125422647D01*
X167323584Y-125422647D02*
X167323584Y-125660742D01*
X167323584Y-125660742D02*
X167275965Y-125755980D01*
X167275965Y-125755980D02*
X167228346Y-125803600D01*
X167228346Y-125803600D02*
X167133108Y-125851219D01*
X167133108Y-125851219D02*
X166847394Y-125851219D01*
X166847394Y-125851219D02*
X166752156Y-125803600D01*
X166752156Y-125803600D02*
X166704537Y-125755980D01*
D11*
X140370160Y-82245200D02*
X140513017Y-82292819D01*
X140513017Y-82292819D02*
X140751112Y-82292819D01*
X140751112Y-82292819D02*
X140846350Y-82245200D01*
X140846350Y-82245200D02*
X140893969Y-82197580D01*
X140893969Y-82197580D02*
X140941588Y-82102342D01*
X140941588Y-82102342D02*
X140941588Y-82007104D01*
X140941588Y-82007104D02*
X140893969Y-81911866D01*
X140893969Y-81911866D02*
X140846350Y-81864247D01*
X140846350Y-81864247D02*
X140751112Y-81816628D01*
X140751112Y-81816628D02*
X140560636Y-81769009D01*
X140560636Y-81769009D02*
X140465398Y-81721390D01*
X140465398Y-81721390D02*
X140417779Y-81673771D01*
X140417779Y-81673771D02*
X140370160Y-81578533D01*
X140370160Y-81578533D02*
X140370160Y-81483295D01*
X140370160Y-81483295D02*
X140417779Y-81388057D01*
X140417779Y-81388057D02*
X140465398Y-81340438D01*
X140465398Y-81340438D02*
X140560636Y-81292819D01*
X140560636Y-81292819D02*
X140798731Y-81292819D01*
X140798731Y-81292819D02*
X140941588Y-81340438D01*
X163468207Y-81943580D02*
X163420588Y-81991200D01*
X163420588Y-81991200D02*
X163277731Y-82038819D01*
X163277731Y-82038819D02*
X163182493Y-82038819D01*
X163182493Y-82038819D02*
X163039636Y-81991200D01*
X163039636Y-81991200D02*
X162944398Y-81895961D01*
X162944398Y-81895961D02*
X162896779Y-81800723D01*
X162896779Y-81800723D02*
X162849160Y-81610247D01*
X162849160Y-81610247D02*
X162849160Y-81467390D01*
X162849160Y-81467390D02*
X162896779Y-81276914D01*
X162896779Y-81276914D02*
X162944398Y-81181676D01*
X162944398Y-81181676D02*
X163039636Y-81086438D01*
X163039636Y-81086438D02*
X163182493Y-81038819D01*
X163182493Y-81038819D02*
X163277731Y-81038819D01*
X163277731Y-81038819D02*
X163420588Y-81086438D01*
X163420588Y-81086438D02*
X163468207Y-81134057D01*
X163849160Y-81991200D02*
X163992017Y-82038819D01*
X163992017Y-82038819D02*
X164230112Y-82038819D01*
X164230112Y-82038819D02*
X164325350Y-81991200D01*
X164325350Y-81991200D02*
X164372969Y-81943580D01*
X164372969Y-81943580D02*
X164420588Y-81848342D01*
X164420588Y-81848342D02*
X164420588Y-81753104D01*
X164420588Y-81753104D02*
X164372969Y-81657866D01*
X164372969Y-81657866D02*
X164325350Y-81610247D01*
X164325350Y-81610247D02*
X164230112Y-81562628D01*
X164230112Y-81562628D02*
X164039636Y-81515009D01*
X164039636Y-81515009D02*
X163944398Y-81467390D01*
X163944398Y-81467390D02*
X163896779Y-81419771D01*
X163896779Y-81419771D02*
X163849160Y-81324533D01*
X163849160Y-81324533D02*
X163849160Y-81229295D01*
X163849160Y-81229295D02*
X163896779Y-81134057D01*
X163896779Y-81134057D02*
X163944398Y-81086438D01*
X163944398Y-81086438D02*
X164039636Y-81038819D01*
X164039636Y-81038819D02*
X164277731Y-81038819D01*
X164277731Y-81038819D02*
X164420588Y-81086438D01*
X165039636Y-81038819D02*
X165230112Y-81038819D01*
X165230112Y-81038819D02*
X165325350Y-81086438D01*
X165325350Y-81086438D02*
X165420588Y-81181676D01*
X165420588Y-81181676D02*
X165468207Y-81372152D01*
X165468207Y-81372152D02*
X165468207Y-81705485D01*
X165468207Y-81705485D02*
X165420588Y-81895961D01*
X165420588Y-81895961D02*
X165325350Y-81991200D01*
X165325350Y-81991200D02*
X165230112Y-82038819D01*
X165230112Y-82038819D02*
X165039636Y-82038819D01*
X165039636Y-82038819D02*
X164944398Y-81991200D01*
X164944398Y-81991200D02*
X164849160Y-81895961D01*
X164849160Y-81895961D02*
X164801541Y-81705485D01*
X164801541Y-81705485D02*
X164801541Y-81372152D01*
X164801541Y-81372152D02*
X164849160Y-81181676D01*
X164849160Y-81181676D02*
X164944398Y-81086438D01*
X164944398Y-81086438D02*
X165039636Y-81038819D01*
X166325350Y-81372152D02*
X166325350Y-82038819D01*
X165896779Y-81372152D02*
X165896779Y-81895961D01*
X165896779Y-81895961D02*
X165944398Y-81991200D01*
X165944398Y-81991200D02*
X166039636Y-82038819D01*
X166039636Y-82038819D02*
X166182493Y-82038819D01*
X166182493Y-82038819D02*
X166277731Y-81991200D01*
X166277731Y-81991200D02*
X166325350Y-81943580D01*
X166658684Y-81372152D02*
X167039636Y-81372152D01*
X166801541Y-81038819D02*
X166801541Y-81895961D01*
X166801541Y-81895961D02*
X166849160Y-81991200D01*
X166849160Y-81991200D02*
X166944398Y-82038819D01*
X166944398Y-82038819D02*
X167039636Y-82038819D01*
X167372970Y-81372152D02*
X167372970Y-82372152D01*
X167372970Y-81419771D02*
X167468208Y-81372152D01*
X167468208Y-81372152D02*
X167658684Y-81372152D01*
X167658684Y-81372152D02*
X167753922Y-81419771D01*
X167753922Y-81419771D02*
X167801541Y-81467390D01*
X167801541Y-81467390D02*
X167849160Y-81562628D01*
X167849160Y-81562628D02*
X167849160Y-81848342D01*
X167849160Y-81848342D02*
X167801541Y-81943580D01*
X167801541Y-81943580D02*
X167753922Y-81991200D01*
X167753922Y-81991200D02*
X167658684Y-82038819D01*
X167658684Y-82038819D02*
X167468208Y-82038819D01*
X167468208Y-82038819D02*
X167372970Y-81991200D01*
X168706303Y-81372152D02*
X168706303Y-82038819D01*
X168277732Y-81372152D02*
X168277732Y-81895961D01*
X168277732Y-81895961D02*
X168325351Y-81991200D01*
X168325351Y-81991200D02*
X168420589Y-82038819D01*
X168420589Y-82038819D02*
X168563446Y-82038819D01*
X168563446Y-82038819D02*
X168658684Y-81991200D01*
X168658684Y-81991200D02*
X168706303Y-81943580D01*
X169039637Y-81372152D02*
X169420589Y-81372152D01*
X169182494Y-81038819D02*
X169182494Y-81895961D01*
X169182494Y-81895961D02*
X169230113Y-81991200D01*
X169230113Y-81991200D02*
X169325351Y-82038819D01*
X169325351Y-82038819D02*
X169420589Y-82038819D01*
X169706304Y-81134057D02*
X169753923Y-81086438D01*
X169753923Y-81086438D02*
X169849161Y-81038819D01*
X169849161Y-81038819D02*
X170087256Y-81038819D01*
X170087256Y-81038819D02*
X170182494Y-81086438D01*
X170182494Y-81086438D02*
X170230113Y-81134057D01*
X170230113Y-81134057D02*
X170277732Y-81229295D01*
X170277732Y-81229295D02*
X170277732Y-81324533D01*
X170277732Y-81324533D02*
X170230113Y-81467390D01*
X170230113Y-81467390D02*
X169658685Y-82038819D01*
X169658685Y-82038819D02*
X170277732Y-82038819D01*
D10*
X105891133Y-92525163D02*
X105891133Y-92144211D01*
X106195895Y-92334687D02*
X105586371Y-92334687D01*
X106195895Y-91644210D02*
X106195895Y-91929924D01*
X106195895Y-91787067D02*
X105395895Y-91787067D01*
X105395895Y-91787067D02*
X105510180Y-91834686D01*
X105510180Y-91834686D02*
X105586371Y-91882305D01*
X105586371Y-91882305D02*
X105624466Y-91929924D01*
X105395895Y-91191830D02*
X105395895Y-91429925D01*
X105395895Y-91429925D02*
X105776847Y-91453734D01*
X105776847Y-91453734D02*
X105738752Y-91429925D01*
X105738752Y-91429925D02*
X105700657Y-91382306D01*
X105700657Y-91382306D02*
X105700657Y-91263258D01*
X105700657Y-91263258D02*
X105738752Y-91215639D01*
X105738752Y-91215639D02*
X105776847Y-91191830D01*
X105776847Y-91191830D02*
X105853038Y-91168020D01*
X105853038Y-91168020D02*
X106043514Y-91168020D01*
X106043514Y-91168020D02*
X106119704Y-91191830D01*
X106119704Y-91191830D02*
X106157800Y-91215639D01*
X106157800Y-91215639D02*
X106195895Y-91263258D01*
X106195895Y-91263258D02*
X106195895Y-91382306D01*
X106195895Y-91382306D02*
X106157800Y-91429925D01*
X106157800Y-91429925D02*
X106119704Y-91453734D01*
X105395895Y-91025163D02*
X106195895Y-90858497D01*
X106195895Y-90858497D02*
X105395895Y-90691830D01*
D11*
X169056207Y-76990580D02*
X169008588Y-77038200D01*
X169008588Y-77038200D02*
X168865731Y-77085819D01*
X168865731Y-77085819D02*
X168770493Y-77085819D01*
X168770493Y-77085819D02*
X168627636Y-77038200D01*
X168627636Y-77038200D02*
X168532398Y-76942961D01*
X168532398Y-76942961D02*
X168484779Y-76847723D01*
X168484779Y-76847723D02*
X168437160Y-76657247D01*
X168437160Y-76657247D02*
X168437160Y-76514390D01*
X168437160Y-76514390D02*
X168484779Y-76323914D01*
X168484779Y-76323914D02*
X168532398Y-76228676D01*
X168532398Y-76228676D02*
X168627636Y-76133438D01*
X168627636Y-76133438D02*
X168770493Y-76085819D01*
X168770493Y-76085819D02*
X168865731Y-76085819D01*
X168865731Y-76085819D02*
X169008588Y-76133438D01*
X169008588Y-76133438D02*
X169056207Y-76181057D01*
X169437160Y-77038200D02*
X169580017Y-77085819D01*
X169580017Y-77085819D02*
X169818112Y-77085819D01*
X169818112Y-77085819D02*
X169913350Y-77038200D01*
X169913350Y-77038200D02*
X169960969Y-76990580D01*
X169960969Y-76990580D02*
X170008588Y-76895342D01*
X170008588Y-76895342D02*
X170008588Y-76800104D01*
X170008588Y-76800104D02*
X169960969Y-76704866D01*
X169960969Y-76704866D02*
X169913350Y-76657247D01*
X169913350Y-76657247D02*
X169818112Y-76609628D01*
X169818112Y-76609628D02*
X169627636Y-76562009D01*
X169627636Y-76562009D02*
X169532398Y-76514390D01*
X169532398Y-76514390D02*
X169484779Y-76466771D01*
X169484779Y-76466771D02*
X169437160Y-76371533D01*
X169437160Y-76371533D02*
X169437160Y-76276295D01*
X169437160Y-76276295D02*
X169484779Y-76181057D01*
X169484779Y-76181057D02*
X169532398Y-76133438D01*
X169532398Y-76133438D02*
X169627636Y-76085819D01*
X169627636Y-76085819D02*
X169865731Y-76085819D01*
X169865731Y-76085819D02*
X170008588Y-76133438D01*
X170627636Y-76085819D02*
X170818112Y-76085819D01*
X170818112Y-76085819D02*
X170913350Y-76133438D01*
X170913350Y-76133438D02*
X171008588Y-76228676D01*
X171008588Y-76228676D02*
X171056207Y-76419152D01*
X171056207Y-76419152D02*
X171056207Y-76752485D01*
X171056207Y-76752485D02*
X171008588Y-76942961D01*
X171008588Y-76942961D02*
X170913350Y-77038200D01*
X170913350Y-77038200D02*
X170818112Y-77085819D01*
X170818112Y-77085819D02*
X170627636Y-77085819D01*
X170627636Y-77085819D02*
X170532398Y-77038200D01*
X170532398Y-77038200D02*
X170437160Y-76942961D01*
X170437160Y-76942961D02*
X170389541Y-76752485D01*
X170389541Y-76752485D02*
X170389541Y-76419152D01*
X170389541Y-76419152D02*
X170437160Y-76228676D01*
X170437160Y-76228676D02*
X170532398Y-76133438D01*
X170532398Y-76133438D02*
X170627636Y-76085819D01*
X171913350Y-76419152D02*
X171913350Y-77085819D01*
X171484779Y-76419152D02*
X171484779Y-76942961D01*
X171484779Y-76942961D02*
X171532398Y-77038200D01*
X171532398Y-77038200D02*
X171627636Y-77085819D01*
X171627636Y-77085819D02*
X171770493Y-77085819D01*
X171770493Y-77085819D02*
X171865731Y-77038200D01*
X171865731Y-77038200D02*
X171913350Y-76990580D01*
X172246684Y-76419152D02*
X172627636Y-76419152D01*
X172389541Y-76085819D02*
X172389541Y-76942961D01*
X172389541Y-76942961D02*
X172437160Y-77038200D01*
X172437160Y-77038200D02*
X172532398Y-77085819D01*
X172532398Y-77085819D02*
X172627636Y-77085819D01*
X172960970Y-76419152D02*
X172960970Y-77419152D01*
X172960970Y-76466771D02*
X173056208Y-76419152D01*
X173056208Y-76419152D02*
X173246684Y-76419152D01*
X173246684Y-76419152D02*
X173341922Y-76466771D01*
X173341922Y-76466771D02*
X173389541Y-76514390D01*
X173389541Y-76514390D02*
X173437160Y-76609628D01*
X173437160Y-76609628D02*
X173437160Y-76895342D01*
X173437160Y-76895342D02*
X173389541Y-76990580D01*
X173389541Y-76990580D02*
X173341922Y-77038200D01*
X173341922Y-77038200D02*
X173246684Y-77085819D01*
X173246684Y-77085819D02*
X173056208Y-77085819D01*
X173056208Y-77085819D02*
X172960970Y-77038200D01*
X174294303Y-76419152D02*
X174294303Y-77085819D01*
X173865732Y-76419152D02*
X173865732Y-76942961D01*
X173865732Y-76942961D02*
X173913351Y-77038200D01*
X173913351Y-77038200D02*
X174008589Y-77085819D01*
X174008589Y-77085819D02*
X174151446Y-77085819D01*
X174151446Y-77085819D02*
X174246684Y-77038200D01*
X174246684Y-77038200D02*
X174294303Y-76990580D01*
X174627637Y-76419152D02*
X175008589Y-76419152D01*
X174770494Y-76085819D02*
X174770494Y-76942961D01*
X174770494Y-76942961D02*
X174818113Y-77038200D01*
X174818113Y-77038200D02*
X174913351Y-77085819D01*
X174913351Y-77085819D02*
X175008589Y-77085819D01*
X175865732Y-77085819D02*
X175294304Y-77085819D01*
X175580018Y-77085819D02*
X175580018Y-76085819D01*
X175580018Y-76085819D02*
X175484780Y-76228676D01*
X175484780Y-76228676D02*
X175389542Y-76323914D01*
X175389542Y-76323914D02*
X175294304Y-76371533D01*
D10*
X105891133Y-105352163D02*
X105891133Y-104971211D01*
X106195895Y-105161687D02*
X105586371Y-105161687D01*
X105395895Y-104780734D02*
X105395895Y-104471210D01*
X105395895Y-104471210D02*
X105700657Y-104637877D01*
X105700657Y-104637877D02*
X105700657Y-104566448D01*
X105700657Y-104566448D02*
X105738752Y-104518829D01*
X105738752Y-104518829D02*
X105776847Y-104495020D01*
X105776847Y-104495020D02*
X105853038Y-104471210D01*
X105853038Y-104471210D02*
X106043514Y-104471210D01*
X106043514Y-104471210D02*
X106119704Y-104495020D01*
X106119704Y-104495020D02*
X106157800Y-104518829D01*
X106157800Y-104518829D02*
X106195895Y-104566448D01*
X106195895Y-104566448D02*
X106195895Y-104709305D01*
X106195895Y-104709305D02*
X106157800Y-104756924D01*
X106157800Y-104756924D02*
X106119704Y-104780734D01*
X106119704Y-104256925D02*
X106157800Y-104233115D01*
X106157800Y-104233115D02*
X106195895Y-104256925D01*
X106195895Y-104256925D02*
X106157800Y-104280734D01*
X106157800Y-104280734D02*
X106119704Y-104256925D01*
X106119704Y-104256925D02*
X106195895Y-104256925D01*
X105395895Y-104066449D02*
X105395895Y-103756925D01*
X105395895Y-103756925D02*
X105700657Y-103923592D01*
X105700657Y-103923592D02*
X105700657Y-103852163D01*
X105700657Y-103852163D02*
X105738752Y-103804544D01*
X105738752Y-103804544D02*
X105776847Y-103780735D01*
X105776847Y-103780735D02*
X105853038Y-103756925D01*
X105853038Y-103756925D02*
X106043514Y-103756925D01*
X106043514Y-103756925D02*
X106119704Y-103780735D01*
X106119704Y-103780735D02*
X106157800Y-103804544D01*
X106157800Y-103804544D02*
X106195895Y-103852163D01*
X106195895Y-103852163D02*
X106195895Y-103995020D01*
X106195895Y-103995020D02*
X106157800Y-104042639D01*
X106157800Y-104042639D02*
X106119704Y-104066449D01*
X105395895Y-103614068D02*
X106195895Y-103447402D01*
X106195895Y-103447402D02*
X105395895Y-103280735D01*
X110674836Y-126973133D02*
X111055789Y-126973133D01*
X110865312Y-127277895D02*
X110865312Y-126668371D01*
X111246265Y-126477895D02*
X111555789Y-126477895D01*
X111555789Y-126477895D02*
X111389122Y-126782657D01*
X111389122Y-126782657D02*
X111460551Y-126782657D01*
X111460551Y-126782657D02*
X111508170Y-126820752D01*
X111508170Y-126820752D02*
X111531979Y-126858847D01*
X111531979Y-126858847D02*
X111555789Y-126935038D01*
X111555789Y-126935038D02*
X111555789Y-127125514D01*
X111555789Y-127125514D02*
X111531979Y-127201704D01*
X111531979Y-127201704D02*
X111508170Y-127239800D01*
X111508170Y-127239800D02*
X111460551Y-127277895D01*
X111460551Y-127277895D02*
X111317694Y-127277895D01*
X111317694Y-127277895D02*
X111270075Y-127239800D01*
X111270075Y-127239800D02*
X111246265Y-127201704D01*
X111770074Y-127201704D02*
X111793884Y-127239800D01*
X111793884Y-127239800D02*
X111770074Y-127277895D01*
X111770074Y-127277895D02*
X111746265Y-127239800D01*
X111746265Y-127239800D02*
X111770074Y-127201704D01*
X111770074Y-127201704D02*
X111770074Y-127277895D01*
X111960550Y-126477895D02*
X112270074Y-126477895D01*
X112270074Y-126477895D02*
X112103407Y-126782657D01*
X112103407Y-126782657D02*
X112174836Y-126782657D01*
X112174836Y-126782657D02*
X112222455Y-126820752D01*
X112222455Y-126820752D02*
X112246264Y-126858847D01*
X112246264Y-126858847D02*
X112270074Y-126935038D01*
X112270074Y-126935038D02*
X112270074Y-127125514D01*
X112270074Y-127125514D02*
X112246264Y-127201704D01*
X112246264Y-127201704D02*
X112222455Y-127239800D01*
X112222455Y-127239800D02*
X112174836Y-127277895D01*
X112174836Y-127277895D02*
X112031979Y-127277895D01*
X112031979Y-127277895D02*
X111984360Y-127239800D01*
X111984360Y-127239800D02*
X111960550Y-127201704D01*
X112412931Y-126477895D02*
X112579597Y-127277895D01*
X112579597Y-127277895D02*
X112746264Y-126477895D01*
D11*
X155403779Y-77070009D02*
X155737112Y-77070009D01*
X155879969Y-77593819D02*
X155403779Y-77593819D01*
X155403779Y-77593819D02*
X155403779Y-76593819D01*
X155403779Y-76593819D02*
X155879969Y-76593819D01*
X156070446Y-77689057D02*
X156832350Y-77689057D01*
X157499017Y-77546200D02*
X157403779Y-77593819D01*
X157403779Y-77593819D02*
X157213303Y-77593819D01*
X157213303Y-77593819D02*
X157118065Y-77546200D01*
X157118065Y-77546200D02*
X157070446Y-77498580D01*
X157070446Y-77498580D02*
X157022827Y-77403342D01*
X157022827Y-77403342D02*
X157022827Y-77117628D01*
X157022827Y-77117628D02*
X157070446Y-77022390D01*
X157070446Y-77022390D02*
X157118065Y-76974771D01*
X157118065Y-76974771D02*
X157213303Y-76927152D01*
X157213303Y-76927152D02*
X157403779Y-76927152D01*
X157403779Y-76927152D02*
X157499017Y-76974771D01*
X158070446Y-77593819D02*
X157975208Y-77546200D01*
X157975208Y-77546200D02*
X157927589Y-77498580D01*
X157927589Y-77498580D02*
X157879970Y-77403342D01*
X157879970Y-77403342D02*
X157879970Y-77117628D01*
X157879970Y-77117628D02*
X157927589Y-77022390D01*
X157927589Y-77022390D02*
X157975208Y-76974771D01*
X157975208Y-76974771D02*
X158070446Y-76927152D01*
X158070446Y-76927152D02*
X158213303Y-76927152D01*
X158213303Y-76927152D02*
X158308541Y-76974771D01*
X158308541Y-76974771D02*
X158356160Y-77022390D01*
X158356160Y-77022390D02*
X158403779Y-77117628D01*
X158403779Y-77117628D02*
X158403779Y-77403342D01*
X158403779Y-77403342D02*
X158356160Y-77498580D01*
X158356160Y-77498580D02*
X158308541Y-77546200D01*
X158308541Y-77546200D02*
X158213303Y-77593819D01*
X158213303Y-77593819D02*
X158070446Y-77593819D01*
X158832351Y-76927152D02*
X158832351Y-77593819D01*
X158832351Y-77022390D02*
X158879970Y-76974771D01*
X158879970Y-76974771D02*
X158975208Y-76927152D01*
X158975208Y-76927152D02*
X159118065Y-76927152D01*
X159118065Y-76927152D02*
X159213303Y-76974771D01*
X159213303Y-76974771D02*
X159260922Y-77070009D01*
X159260922Y-77070009D02*
X159260922Y-77593819D01*
X159594256Y-76927152D02*
X159975208Y-76927152D01*
X159737113Y-76593819D02*
X159737113Y-77450961D01*
X159737113Y-77450961D02*
X159784732Y-77546200D01*
X159784732Y-77546200D02*
X159879970Y-77593819D01*
X159879970Y-77593819D02*
X159975208Y-77593819D01*
X160308542Y-77593819D02*
X160308542Y-76927152D01*
X160308542Y-77117628D02*
X160356161Y-77022390D01*
X160356161Y-77022390D02*
X160403780Y-76974771D01*
X160403780Y-76974771D02*
X160499018Y-76927152D01*
X160499018Y-76927152D02*
X160594256Y-76927152D01*
X161070447Y-77593819D02*
X160975209Y-77546200D01*
X160975209Y-77546200D02*
X160927590Y-77498580D01*
X160927590Y-77498580D02*
X160879971Y-77403342D01*
X160879971Y-77403342D02*
X160879971Y-77117628D01*
X160879971Y-77117628D02*
X160927590Y-77022390D01*
X160927590Y-77022390D02*
X160975209Y-76974771D01*
X160975209Y-76974771D02*
X161070447Y-76927152D01*
X161070447Y-76927152D02*
X161213304Y-76927152D01*
X161213304Y-76927152D02*
X161308542Y-76974771D01*
X161308542Y-76974771D02*
X161356161Y-77022390D01*
X161356161Y-77022390D02*
X161403780Y-77117628D01*
X161403780Y-77117628D02*
X161403780Y-77403342D01*
X161403780Y-77403342D02*
X161356161Y-77498580D01*
X161356161Y-77498580D02*
X161308542Y-77546200D01*
X161308542Y-77546200D02*
X161213304Y-77593819D01*
X161213304Y-77593819D02*
X161070447Y-77593819D01*
X161975209Y-77593819D02*
X161879971Y-77546200D01*
X161879971Y-77546200D02*
X161832352Y-77450961D01*
X161832352Y-77450961D02*
X161832352Y-76593819D01*
D10*
X105891133Y-95065163D02*
X105891133Y-94684211D01*
X106195895Y-94184210D02*
X106195895Y-94469924D01*
X106195895Y-94327067D02*
X105395895Y-94327067D01*
X105395895Y-94327067D02*
X105510180Y-94374686D01*
X105510180Y-94374686D02*
X105586371Y-94422305D01*
X105586371Y-94422305D02*
X105624466Y-94469924D01*
X105395895Y-93731830D02*
X105395895Y-93969925D01*
X105395895Y-93969925D02*
X105776847Y-93993734D01*
X105776847Y-93993734D02*
X105738752Y-93969925D01*
X105738752Y-93969925D02*
X105700657Y-93922306D01*
X105700657Y-93922306D02*
X105700657Y-93803258D01*
X105700657Y-93803258D02*
X105738752Y-93755639D01*
X105738752Y-93755639D02*
X105776847Y-93731830D01*
X105776847Y-93731830D02*
X105853038Y-93708020D01*
X105853038Y-93708020D02*
X106043514Y-93708020D01*
X106043514Y-93708020D02*
X106119704Y-93731830D01*
X106119704Y-93731830D02*
X106157800Y-93755639D01*
X106157800Y-93755639D02*
X106195895Y-93803258D01*
X106195895Y-93803258D02*
X106195895Y-93922306D01*
X106195895Y-93922306D02*
X106157800Y-93969925D01*
X106157800Y-93969925D02*
X106119704Y-93993734D01*
X105395895Y-93565163D02*
X106195895Y-93398497D01*
X106195895Y-93398497D02*
X105395895Y-93231830D01*
D11*
X147482160Y-82118200D02*
X147625017Y-82165819D01*
X147625017Y-82165819D02*
X147863112Y-82165819D01*
X147863112Y-82165819D02*
X147958350Y-82118200D01*
X147958350Y-82118200D02*
X148005969Y-82070580D01*
X148005969Y-82070580D02*
X148053588Y-81975342D01*
X148053588Y-81975342D02*
X148053588Y-81880104D01*
X148053588Y-81880104D02*
X148005969Y-81784866D01*
X148005969Y-81784866D02*
X147958350Y-81737247D01*
X147958350Y-81737247D02*
X147863112Y-81689628D01*
X147863112Y-81689628D02*
X147672636Y-81642009D01*
X147672636Y-81642009D02*
X147577398Y-81594390D01*
X147577398Y-81594390D02*
X147529779Y-81546771D01*
X147529779Y-81546771D02*
X147482160Y-81451533D01*
X147482160Y-81451533D02*
X147482160Y-81356295D01*
X147482160Y-81356295D02*
X147529779Y-81261057D01*
X147529779Y-81261057D02*
X147577398Y-81213438D01*
X147577398Y-81213438D02*
X147672636Y-81165819D01*
X147672636Y-81165819D02*
X147910731Y-81165819D01*
X147910731Y-81165819D02*
X148053588Y-81213438D01*
X149005969Y-82165819D02*
X148434541Y-82165819D01*
X148720255Y-82165819D02*
X148720255Y-81165819D01*
X148720255Y-81165819D02*
X148625017Y-81308676D01*
X148625017Y-81308676D02*
X148529779Y-81403914D01*
X148529779Y-81403914D02*
X148434541Y-81451533D01*
X161064819Y-114720666D02*
X160588628Y-115053999D01*
X161064819Y-115292094D02*
X160064819Y-115292094D01*
X160064819Y-115292094D02*
X160064819Y-114911142D01*
X160064819Y-114911142D02*
X160112438Y-114815904D01*
X160112438Y-114815904D02*
X160160057Y-114768285D01*
X160160057Y-114768285D02*
X160255295Y-114720666D01*
X160255295Y-114720666D02*
X160398152Y-114720666D01*
X160398152Y-114720666D02*
X160493390Y-114768285D01*
X160493390Y-114768285D02*
X160541009Y-114815904D01*
X160541009Y-114815904D02*
X160588628Y-114911142D01*
X160588628Y-114911142D02*
X160588628Y-115292094D01*
X160493390Y-114149237D02*
X160445771Y-114244475D01*
X160445771Y-114244475D02*
X160398152Y-114292094D01*
X160398152Y-114292094D02*
X160302914Y-114339713D01*
X160302914Y-114339713D02*
X160255295Y-114339713D01*
X160255295Y-114339713D02*
X160160057Y-114292094D01*
X160160057Y-114292094D02*
X160112438Y-114244475D01*
X160112438Y-114244475D02*
X160064819Y-114149237D01*
X160064819Y-114149237D02*
X160064819Y-113958761D01*
X160064819Y-113958761D02*
X160112438Y-113863523D01*
X160112438Y-113863523D02*
X160160057Y-113815904D01*
X160160057Y-113815904D02*
X160255295Y-113768285D01*
X160255295Y-113768285D02*
X160302914Y-113768285D01*
X160302914Y-113768285D02*
X160398152Y-113815904D01*
X160398152Y-113815904D02*
X160445771Y-113863523D01*
X160445771Y-113863523D02*
X160493390Y-113958761D01*
X160493390Y-113958761D02*
X160493390Y-114149237D01*
X160493390Y-114149237D02*
X160541009Y-114244475D01*
X160541009Y-114244475D02*
X160588628Y-114292094D01*
X160588628Y-114292094D02*
X160683866Y-114339713D01*
X160683866Y-114339713D02*
X160874342Y-114339713D01*
X160874342Y-114339713D02*
X160969580Y-114292094D01*
X160969580Y-114292094D02*
X161017200Y-114244475D01*
X161017200Y-114244475D02*
X161064819Y-114149237D01*
X161064819Y-114149237D02*
X161064819Y-113958761D01*
X161064819Y-113958761D02*
X161017200Y-113863523D01*
X161017200Y-113863523D02*
X160969580Y-113815904D01*
X160969580Y-113815904D02*
X160874342Y-113768285D01*
X160874342Y-113768285D02*
X160683866Y-113768285D01*
X160683866Y-113768285D02*
X160588628Y-113815904D01*
X160588628Y-113815904D02*
X160541009Y-113863523D01*
X160541009Y-113863523D02*
X160493390Y-113958761D01*
D13*
X119836237Y-83529318D02*
X119836237Y-82259318D01*
X121166714Y-83408365D02*
X121106238Y-83468842D01*
X121106238Y-83468842D02*
X120924809Y-83529318D01*
X120924809Y-83529318D02*
X120803857Y-83529318D01*
X120803857Y-83529318D02*
X120622428Y-83468842D01*
X120622428Y-83468842D02*
X120501476Y-83347889D01*
X120501476Y-83347889D02*
X120440999Y-83226937D01*
X120440999Y-83226937D02*
X120380523Y-82985032D01*
X120380523Y-82985032D02*
X120380523Y-82803603D01*
X120380523Y-82803603D02*
X120440999Y-82561699D01*
X120440999Y-82561699D02*
X120501476Y-82440746D01*
X120501476Y-82440746D02*
X120622428Y-82319794D01*
X120622428Y-82319794D02*
X120803857Y-82259318D01*
X120803857Y-82259318D02*
X120924809Y-82259318D01*
X120924809Y-82259318D02*
X121106238Y-82319794D01*
X121106238Y-82319794D02*
X121166714Y-82380270D01*
X122315761Y-82259318D02*
X121710999Y-82259318D01*
X121710999Y-82259318D02*
X121650523Y-82864080D01*
X121650523Y-82864080D02*
X121710999Y-82803603D01*
X121710999Y-82803603D02*
X121831952Y-82743127D01*
X121831952Y-82743127D02*
X122134333Y-82743127D01*
X122134333Y-82743127D02*
X122255285Y-82803603D01*
X122255285Y-82803603D02*
X122315761Y-82864080D01*
X122315761Y-82864080D02*
X122376238Y-82985032D01*
X122376238Y-82985032D02*
X122376238Y-83287413D01*
X122376238Y-83287413D02*
X122315761Y-83408365D01*
X122315761Y-83408365D02*
X122255285Y-83468842D01*
X122255285Y-83468842D02*
X122134333Y-83529318D01*
X122134333Y-83529318D02*
X121831952Y-83529318D01*
X121831952Y-83529318D02*
X121710999Y-83468842D01*
X121710999Y-83468842D02*
X121650523Y-83408365D01*
D11*
X120260819Y-113164857D02*
X119784628Y-113498190D01*
X120260819Y-113736285D02*
X119260819Y-113736285D01*
X119260819Y-113736285D02*
X119260819Y-113355333D01*
X119260819Y-113355333D02*
X119308438Y-113260095D01*
X119308438Y-113260095D02*
X119356057Y-113212476D01*
X119356057Y-113212476D02*
X119451295Y-113164857D01*
X119451295Y-113164857D02*
X119594152Y-113164857D01*
X119594152Y-113164857D02*
X119689390Y-113212476D01*
X119689390Y-113212476D02*
X119737009Y-113260095D01*
X119737009Y-113260095D02*
X119784628Y-113355333D01*
X119784628Y-113355333D02*
X119784628Y-113736285D01*
X120260819Y-112212476D02*
X120260819Y-112783904D01*
X120260819Y-112498190D02*
X119260819Y-112498190D01*
X119260819Y-112498190D02*
X119403676Y-112593428D01*
X119403676Y-112593428D02*
X119498914Y-112688666D01*
X119498914Y-112688666D02*
X119546533Y-112783904D01*
X119594152Y-111355333D02*
X120260819Y-111355333D01*
X119213200Y-111593428D02*
X119927485Y-111831523D01*
X119927485Y-111831523D02*
X119927485Y-111212476D01*
X118655142Y-122882819D02*
X118321809Y-122406628D01*
X118083714Y-122882819D02*
X118083714Y-121882819D01*
X118083714Y-121882819D02*
X118464666Y-121882819D01*
X118464666Y-121882819D02*
X118559904Y-121930438D01*
X118559904Y-121930438D02*
X118607523Y-121978057D01*
X118607523Y-121978057D02*
X118655142Y-122073295D01*
X118655142Y-122073295D02*
X118655142Y-122216152D01*
X118655142Y-122216152D02*
X118607523Y-122311390D01*
X118607523Y-122311390D02*
X118559904Y-122359009D01*
X118559904Y-122359009D02*
X118464666Y-122406628D01*
X118464666Y-122406628D02*
X118083714Y-122406628D01*
X119607523Y-122882819D02*
X119036095Y-122882819D01*
X119321809Y-122882819D02*
X119321809Y-121882819D01*
X119321809Y-121882819D02*
X119226571Y-122025676D01*
X119226571Y-122025676D02*
X119131333Y-122120914D01*
X119131333Y-122120914D02*
X119036095Y-122168533D01*
X120512285Y-121882819D02*
X120036095Y-121882819D01*
X120036095Y-121882819D02*
X119988476Y-122359009D01*
X119988476Y-122359009D02*
X120036095Y-122311390D01*
X120036095Y-122311390D02*
X120131333Y-122263771D01*
X120131333Y-122263771D02*
X120369428Y-122263771D01*
X120369428Y-122263771D02*
X120464666Y-122311390D01*
X120464666Y-122311390D02*
X120512285Y-122359009D01*
X120512285Y-122359009D02*
X120559904Y-122454247D01*
X120559904Y-122454247D02*
X120559904Y-122692342D01*
X120559904Y-122692342D02*
X120512285Y-122787580D01*
X120512285Y-122787580D02*
X120464666Y-122835200D01*
X120464666Y-122835200D02*
X120369428Y-122882819D01*
X120369428Y-122882819D02*
X120131333Y-122882819D01*
X120131333Y-122882819D02*
X120036095Y-122835200D01*
X120036095Y-122835200D02*
X119988476Y-122787580D01*
X167079142Y-123390819D02*
X166745809Y-122914628D01*
X166507714Y-123390819D02*
X166507714Y-122390819D01*
X166507714Y-122390819D02*
X166888666Y-122390819D01*
X166888666Y-122390819D02*
X166983904Y-122438438D01*
X166983904Y-122438438D02*
X167031523Y-122486057D01*
X167031523Y-122486057D02*
X167079142Y-122581295D01*
X167079142Y-122581295D02*
X167079142Y-122724152D01*
X167079142Y-122724152D02*
X167031523Y-122819390D01*
X167031523Y-122819390D02*
X166983904Y-122867009D01*
X166983904Y-122867009D02*
X166888666Y-122914628D01*
X166888666Y-122914628D02*
X166507714Y-122914628D01*
X168031523Y-123390819D02*
X167460095Y-123390819D01*
X167745809Y-123390819D02*
X167745809Y-122390819D01*
X167745809Y-122390819D02*
X167650571Y-122533676D01*
X167650571Y-122533676D02*
X167555333Y-122628914D01*
X167555333Y-122628914D02*
X167460095Y-122676533D01*
X168650571Y-122390819D02*
X168745809Y-122390819D01*
X168745809Y-122390819D02*
X168841047Y-122438438D01*
X168841047Y-122438438D02*
X168888666Y-122486057D01*
X168888666Y-122486057D02*
X168936285Y-122581295D01*
X168936285Y-122581295D02*
X168983904Y-122771771D01*
X168983904Y-122771771D02*
X168983904Y-123009866D01*
X168983904Y-123009866D02*
X168936285Y-123200342D01*
X168936285Y-123200342D02*
X168888666Y-123295580D01*
X168888666Y-123295580D02*
X168841047Y-123343200D01*
X168841047Y-123343200D02*
X168745809Y-123390819D01*
X168745809Y-123390819D02*
X168650571Y-123390819D01*
X168650571Y-123390819D02*
X168555333Y-123343200D01*
X168555333Y-123343200D02*
X168507714Y-123295580D01*
X168507714Y-123295580D02*
X168460095Y-123200342D01*
X168460095Y-123200342D02*
X168412476Y-123009866D01*
X168412476Y-123009866D02*
X168412476Y-122771771D01*
X168412476Y-122771771D02*
X168460095Y-122581295D01*
X168460095Y-122581295D02*
X168507714Y-122486057D01*
X168507714Y-122486057D02*
X168555333Y-122438438D01*
X168555333Y-122438438D02*
X168650571Y-122390819D01*
X119949142Y-91828580D02*
X119901523Y-91876200D01*
X119901523Y-91876200D02*
X119758666Y-91923819D01*
X119758666Y-91923819D02*
X119663428Y-91923819D01*
X119663428Y-91923819D02*
X119520571Y-91876200D01*
X119520571Y-91876200D02*
X119425333Y-91780961D01*
X119425333Y-91780961D02*
X119377714Y-91685723D01*
X119377714Y-91685723D02*
X119330095Y-91495247D01*
X119330095Y-91495247D02*
X119330095Y-91352390D01*
X119330095Y-91352390D02*
X119377714Y-91161914D01*
X119377714Y-91161914D02*
X119425333Y-91066676D01*
X119425333Y-91066676D02*
X119520571Y-90971438D01*
X119520571Y-90971438D02*
X119663428Y-90923819D01*
X119663428Y-90923819D02*
X119758666Y-90923819D01*
X119758666Y-90923819D02*
X119901523Y-90971438D01*
X119901523Y-90971438D02*
X119949142Y-91019057D01*
X120901523Y-91923819D02*
X120330095Y-91923819D01*
X120615809Y-91923819D02*
X120615809Y-90923819D01*
X120615809Y-90923819D02*
X120520571Y-91066676D01*
X120520571Y-91066676D02*
X120425333Y-91161914D01*
X120425333Y-91161914D02*
X120330095Y-91209533D01*
X121472952Y-91352390D02*
X121377714Y-91304771D01*
X121377714Y-91304771D02*
X121330095Y-91257152D01*
X121330095Y-91257152D02*
X121282476Y-91161914D01*
X121282476Y-91161914D02*
X121282476Y-91114295D01*
X121282476Y-91114295D02*
X121330095Y-91019057D01*
X121330095Y-91019057D02*
X121377714Y-90971438D01*
X121377714Y-90971438D02*
X121472952Y-90923819D01*
X121472952Y-90923819D02*
X121663428Y-90923819D01*
X121663428Y-90923819D02*
X121758666Y-90971438D01*
X121758666Y-90971438D02*
X121806285Y-91019057D01*
X121806285Y-91019057D02*
X121853904Y-91114295D01*
X121853904Y-91114295D02*
X121853904Y-91161914D01*
X121853904Y-91161914D02*
X121806285Y-91257152D01*
X121806285Y-91257152D02*
X121758666Y-91304771D01*
X121758666Y-91304771D02*
X121663428Y-91352390D01*
X121663428Y-91352390D02*
X121472952Y-91352390D01*
X121472952Y-91352390D02*
X121377714Y-91400009D01*
X121377714Y-91400009D02*
X121330095Y-91447628D01*
X121330095Y-91447628D02*
X121282476Y-91542866D01*
X121282476Y-91542866D02*
X121282476Y-91733342D01*
X121282476Y-91733342D02*
X121330095Y-91828580D01*
X121330095Y-91828580D02*
X121377714Y-91876200D01*
X121377714Y-91876200D02*
X121472952Y-91923819D01*
X121472952Y-91923819D02*
X121663428Y-91923819D01*
X121663428Y-91923819D02*
X121758666Y-91876200D01*
X121758666Y-91876200D02*
X121806285Y-91828580D01*
X121806285Y-91828580D02*
X121853904Y-91733342D01*
X121853904Y-91733342D02*
X121853904Y-91542866D01*
X121853904Y-91542866D02*
X121806285Y-91447628D01*
X121806285Y-91447628D02*
X121758666Y-91400009D01*
X121758666Y-91400009D02*
X121663428Y-91352390D01*
X123655905Y-120104819D02*
X124227333Y-120104819D01*
X123941619Y-121104819D02*
X123941619Y-120104819D01*
X124560667Y-121104819D02*
X124560667Y-120104819D01*
X124560667Y-120104819D02*
X124941619Y-120104819D01*
X124941619Y-120104819D02*
X125036857Y-120152438D01*
X125036857Y-120152438D02*
X125084476Y-120200057D01*
X125084476Y-120200057D02*
X125132095Y-120295295D01*
X125132095Y-120295295D02*
X125132095Y-120438152D01*
X125132095Y-120438152D02*
X125084476Y-120533390D01*
X125084476Y-120533390D02*
X125036857Y-120581009D01*
X125036857Y-120581009D02*
X124941619Y-120628628D01*
X124941619Y-120628628D02*
X124560667Y-120628628D01*
X126084476Y-121104819D02*
X125513048Y-121104819D01*
X125798762Y-121104819D02*
X125798762Y-120104819D01*
X125798762Y-120104819D02*
X125703524Y-120247676D01*
X125703524Y-120247676D02*
X125608286Y-120342914D01*
X125608286Y-120342914D02*
X125513048Y-120390533D01*
X126465429Y-120200057D02*
X126513048Y-120152438D01*
X126513048Y-120152438D02*
X126608286Y-120104819D01*
X126608286Y-120104819D02*
X126846381Y-120104819D01*
X126846381Y-120104819D02*
X126941619Y-120152438D01*
X126941619Y-120152438D02*
X126989238Y-120200057D01*
X126989238Y-120200057D02*
X127036857Y-120295295D01*
X127036857Y-120295295D02*
X127036857Y-120390533D01*
X127036857Y-120390533D02*
X126989238Y-120533390D01*
X126989238Y-120533390D02*
X126417810Y-121104819D01*
X126417810Y-121104819D02*
X127036857Y-121104819D01*
X166492142Y-92410080D02*
X166444523Y-92457700D01*
X166444523Y-92457700D02*
X166301666Y-92505319D01*
X166301666Y-92505319D02*
X166206428Y-92505319D01*
X166206428Y-92505319D02*
X166063571Y-92457700D01*
X166063571Y-92457700D02*
X165968333Y-92362461D01*
X165968333Y-92362461D02*
X165920714Y-92267223D01*
X165920714Y-92267223D02*
X165873095Y-92076747D01*
X165873095Y-92076747D02*
X165873095Y-91933890D01*
X165873095Y-91933890D02*
X165920714Y-91743414D01*
X165920714Y-91743414D02*
X165968333Y-91648176D01*
X165968333Y-91648176D02*
X166063571Y-91552938D01*
X166063571Y-91552938D02*
X166206428Y-91505319D01*
X166206428Y-91505319D02*
X166301666Y-91505319D01*
X166301666Y-91505319D02*
X166444523Y-91552938D01*
X166444523Y-91552938D02*
X166492142Y-91600557D01*
X167444523Y-92505319D02*
X166873095Y-92505319D01*
X167158809Y-92505319D02*
X167158809Y-91505319D01*
X167158809Y-91505319D02*
X167063571Y-91648176D01*
X167063571Y-91648176D02*
X166968333Y-91743414D01*
X166968333Y-91743414D02*
X166873095Y-91791033D01*
X167920714Y-92505319D02*
X168111190Y-92505319D01*
X168111190Y-92505319D02*
X168206428Y-92457700D01*
X168206428Y-92457700D02*
X168254047Y-92410080D01*
X168254047Y-92410080D02*
X168349285Y-92267223D01*
X168349285Y-92267223D02*
X168396904Y-92076747D01*
X168396904Y-92076747D02*
X168396904Y-91695795D01*
X168396904Y-91695795D02*
X168349285Y-91600557D01*
X168349285Y-91600557D02*
X168301666Y-91552938D01*
X168301666Y-91552938D02*
X168206428Y-91505319D01*
X168206428Y-91505319D02*
X168015952Y-91505319D01*
X168015952Y-91505319D02*
X167920714Y-91552938D01*
X167920714Y-91552938D02*
X167873095Y-91600557D01*
X167873095Y-91600557D02*
X167825476Y-91695795D01*
X167825476Y-91695795D02*
X167825476Y-91933890D01*
X167825476Y-91933890D02*
X167873095Y-92029128D01*
X167873095Y-92029128D02*
X167920714Y-92076747D01*
X167920714Y-92076747D02*
X168015952Y-92124366D01*
X168015952Y-92124366D02*
X168206428Y-92124366D01*
X168206428Y-92124366D02*
X168301666Y-92076747D01*
X168301666Y-92076747D02*
X168349285Y-92029128D01*
X168349285Y-92029128D02*
X168396904Y-91933890D01*
X144974333Y-99165580D02*
X144926714Y-99213200D01*
X144926714Y-99213200D02*
X144783857Y-99260819D01*
X144783857Y-99260819D02*
X144688619Y-99260819D01*
X144688619Y-99260819D02*
X144545762Y-99213200D01*
X144545762Y-99213200D02*
X144450524Y-99117961D01*
X144450524Y-99117961D02*
X144402905Y-99022723D01*
X144402905Y-99022723D02*
X144355286Y-98832247D01*
X144355286Y-98832247D02*
X144355286Y-98689390D01*
X144355286Y-98689390D02*
X144402905Y-98498914D01*
X144402905Y-98498914D02*
X144450524Y-98403676D01*
X144450524Y-98403676D02*
X144545762Y-98308438D01*
X144545762Y-98308438D02*
X144688619Y-98260819D01*
X144688619Y-98260819D02*
X144783857Y-98260819D01*
X144783857Y-98260819D02*
X144926714Y-98308438D01*
X144926714Y-98308438D02*
X144974333Y-98356057D01*
X145879095Y-98260819D02*
X145402905Y-98260819D01*
X145402905Y-98260819D02*
X145355286Y-98737009D01*
X145355286Y-98737009D02*
X145402905Y-98689390D01*
X145402905Y-98689390D02*
X145498143Y-98641771D01*
X145498143Y-98641771D02*
X145736238Y-98641771D01*
X145736238Y-98641771D02*
X145831476Y-98689390D01*
X145831476Y-98689390D02*
X145879095Y-98737009D01*
X145879095Y-98737009D02*
X145926714Y-98832247D01*
X145926714Y-98832247D02*
X145926714Y-99070342D01*
X145926714Y-99070342D02*
X145879095Y-99165580D01*
X145879095Y-99165580D02*
X145831476Y-99213200D01*
X145831476Y-99213200D02*
X145736238Y-99260819D01*
X145736238Y-99260819D02*
X145498143Y-99260819D01*
X145498143Y-99260819D02*
X145402905Y-99213200D01*
X145402905Y-99213200D02*
X145355286Y-99165580D01*
D13*
X135539237Y-94554318D02*
X135539237Y-93284318D01*
X136869714Y-94433365D02*
X136809238Y-94493842D01*
X136809238Y-94493842D02*
X136627809Y-94554318D01*
X136627809Y-94554318D02*
X136506857Y-94554318D01*
X136506857Y-94554318D02*
X136325428Y-94493842D01*
X136325428Y-94493842D02*
X136204476Y-94372889D01*
X136204476Y-94372889D02*
X136143999Y-94251937D01*
X136143999Y-94251937D02*
X136083523Y-94010032D01*
X136083523Y-94010032D02*
X136083523Y-93828603D01*
X136083523Y-93828603D02*
X136143999Y-93586699D01*
X136143999Y-93586699D02*
X136204476Y-93465746D01*
X136204476Y-93465746D02*
X136325428Y-93344794D01*
X136325428Y-93344794D02*
X136506857Y-93284318D01*
X136506857Y-93284318D02*
X136627809Y-93284318D01*
X136627809Y-93284318D02*
X136809238Y-93344794D01*
X136809238Y-93344794D02*
X136869714Y-93405270D01*
X138079238Y-94554318D02*
X137353523Y-94554318D01*
X137716380Y-94554318D02*
X137716380Y-93284318D01*
X137716380Y-93284318D02*
X137595428Y-93465746D01*
X137595428Y-93465746D02*
X137474476Y-93586699D01*
X137474476Y-93586699D02*
X137353523Y-93647175D01*
D11*
X113246819Y-98162904D02*
X113246819Y-97591476D01*
X114246819Y-97877190D02*
X113246819Y-97877190D01*
X114246819Y-97258142D02*
X113246819Y-97258142D01*
X113246819Y-97258142D02*
X113246819Y-96877190D01*
X113246819Y-96877190D02*
X113294438Y-96781952D01*
X113294438Y-96781952D02*
X113342057Y-96734333D01*
X113342057Y-96734333D02*
X113437295Y-96686714D01*
X113437295Y-96686714D02*
X113580152Y-96686714D01*
X113580152Y-96686714D02*
X113675390Y-96734333D01*
X113675390Y-96734333D02*
X113723009Y-96781952D01*
X113723009Y-96781952D02*
X113770628Y-96877190D01*
X113770628Y-96877190D02*
X113770628Y-97258142D01*
X113675390Y-96115285D02*
X113627771Y-96210523D01*
X113627771Y-96210523D02*
X113580152Y-96258142D01*
X113580152Y-96258142D02*
X113484914Y-96305761D01*
X113484914Y-96305761D02*
X113437295Y-96305761D01*
X113437295Y-96305761D02*
X113342057Y-96258142D01*
X113342057Y-96258142D02*
X113294438Y-96210523D01*
X113294438Y-96210523D02*
X113246819Y-96115285D01*
X113246819Y-96115285D02*
X113246819Y-95924809D01*
X113246819Y-95924809D02*
X113294438Y-95829571D01*
X113294438Y-95829571D02*
X113342057Y-95781952D01*
X113342057Y-95781952D02*
X113437295Y-95734333D01*
X113437295Y-95734333D02*
X113484914Y-95734333D01*
X113484914Y-95734333D02*
X113580152Y-95781952D01*
X113580152Y-95781952D02*
X113627771Y-95829571D01*
X113627771Y-95829571D02*
X113675390Y-95924809D01*
X113675390Y-95924809D02*
X113675390Y-96115285D01*
X113675390Y-96115285D02*
X113723009Y-96210523D01*
X113723009Y-96210523D02*
X113770628Y-96258142D01*
X113770628Y-96258142D02*
X113865866Y-96305761D01*
X113865866Y-96305761D02*
X114056342Y-96305761D01*
X114056342Y-96305761D02*
X114151580Y-96258142D01*
X114151580Y-96258142D02*
X114199200Y-96210523D01*
X114199200Y-96210523D02*
X114246819Y-96115285D01*
X114246819Y-96115285D02*
X114246819Y-95924809D01*
X114246819Y-95924809D02*
X114199200Y-95829571D01*
X114199200Y-95829571D02*
X114151580Y-95781952D01*
X114151580Y-95781952D02*
X114056342Y-95734333D01*
X114056342Y-95734333D02*
X113865866Y-95734333D01*
X113865866Y-95734333D02*
X113770628Y-95781952D01*
X113770628Y-95781952D02*
X113723009Y-95829571D01*
X113723009Y-95829571D02*
X113675390Y-95924809D01*
X160027580Y-107694666D02*
X160075200Y-107742285D01*
X160075200Y-107742285D02*
X160122819Y-107885142D01*
X160122819Y-107885142D02*
X160122819Y-107980380D01*
X160122819Y-107980380D02*
X160075200Y-108123237D01*
X160075200Y-108123237D02*
X159979961Y-108218475D01*
X159979961Y-108218475D02*
X159884723Y-108266094D01*
X159884723Y-108266094D02*
X159694247Y-108313713D01*
X159694247Y-108313713D02*
X159551390Y-108313713D01*
X159551390Y-108313713D02*
X159360914Y-108266094D01*
X159360914Y-108266094D02*
X159265676Y-108218475D01*
X159265676Y-108218475D02*
X159170438Y-108123237D01*
X159170438Y-108123237D02*
X159122819Y-107980380D01*
X159122819Y-107980380D02*
X159122819Y-107885142D01*
X159122819Y-107885142D02*
X159170438Y-107742285D01*
X159170438Y-107742285D02*
X159218057Y-107694666D01*
X159551390Y-107123237D02*
X159503771Y-107218475D01*
X159503771Y-107218475D02*
X159456152Y-107266094D01*
X159456152Y-107266094D02*
X159360914Y-107313713D01*
X159360914Y-107313713D02*
X159313295Y-107313713D01*
X159313295Y-107313713D02*
X159218057Y-107266094D01*
X159218057Y-107266094D02*
X159170438Y-107218475D01*
X159170438Y-107218475D02*
X159122819Y-107123237D01*
X159122819Y-107123237D02*
X159122819Y-106932761D01*
X159122819Y-106932761D02*
X159170438Y-106837523D01*
X159170438Y-106837523D02*
X159218057Y-106789904D01*
X159218057Y-106789904D02*
X159313295Y-106742285D01*
X159313295Y-106742285D02*
X159360914Y-106742285D01*
X159360914Y-106742285D02*
X159456152Y-106789904D01*
X159456152Y-106789904D02*
X159503771Y-106837523D01*
X159503771Y-106837523D02*
X159551390Y-106932761D01*
X159551390Y-106932761D02*
X159551390Y-107123237D01*
X159551390Y-107123237D02*
X159599009Y-107218475D01*
X159599009Y-107218475D02*
X159646628Y-107266094D01*
X159646628Y-107266094D02*
X159741866Y-107313713D01*
X159741866Y-107313713D02*
X159932342Y-107313713D01*
X159932342Y-107313713D02*
X160027580Y-107266094D01*
X160027580Y-107266094D02*
X160075200Y-107218475D01*
X160075200Y-107218475D02*
X160122819Y-107123237D01*
X160122819Y-107123237D02*
X160122819Y-106932761D01*
X160122819Y-106932761D02*
X160075200Y-106837523D01*
X160075200Y-106837523D02*
X160027580Y-106789904D01*
X160027580Y-106789904D02*
X159932342Y-106742285D01*
X159932342Y-106742285D02*
X159741866Y-106742285D01*
X159741866Y-106742285D02*
X159646628Y-106789904D01*
X159646628Y-106789904D02*
X159599009Y-106837523D01*
X159599009Y-106837523D02*
X159551390Y-106932761D01*
X168402080Y-98699857D02*
X168449700Y-98747476D01*
X168449700Y-98747476D02*
X168497319Y-98890333D01*
X168497319Y-98890333D02*
X168497319Y-98985571D01*
X168497319Y-98985571D02*
X168449700Y-99128428D01*
X168449700Y-99128428D02*
X168354461Y-99223666D01*
X168354461Y-99223666D02*
X168259223Y-99271285D01*
X168259223Y-99271285D02*
X168068747Y-99318904D01*
X168068747Y-99318904D02*
X167925890Y-99318904D01*
X167925890Y-99318904D02*
X167735414Y-99271285D01*
X167735414Y-99271285D02*
X167640176Y-99223666D01*
X167640176Y-99223666D02*
X167544938Y-99128428D01*
X167544938Y-99128428D02*
X167497319Y-98985571D01*
X167497319Y-98985571D02*
X167497319Y-98890333D01*
X167497319Y-98890333D02*
X167544938Y-98747476D01*
X167544938Y-98747476D02*
X167592557Y-98699857D01*
X168497319Y-97747476D02*
X168497319Y-98318904D01*
X168497319Y-98033190D02*
X167497319Y-98033190D01*
X167497319Y-98033190D02*
X167640176Y-98128428D01*
X167640176Y-98128428D02*
X167735414Y-98223666D01*
X167735414Y-98223666D02*
X167783033Y-98318904D01*
X167497319Y-96842714D02*
X167497319Y-97318904D01*
X167497319Y-97318904D02*
X167973509Y-97366523D01*
X167973509Y-97366523D02*
X167925890Y-97318904D01*
X167925890Y-97318904D02*
X167878271Y-97223666D01*
X167878271Y-97223666D02*
X167878271Y-96985571D01*
X167878271Y-96985571D02*
X167925890Y-96890333D01*
X167925890Y-96890333D02*
X167973509Y-96842714D01*
X167973509Y-96842714D02*
X168068747Y-96795095D01*
X168068747Y-96795095D02*
X168306842Y-96795095D01*
X168306842Y-96795095D02*
X168402080Y-96842714D01*
X168402080Y-96842714D02*
X168449700Y-96890333D01*
X168449700Y-96890333D02*
X168497319Y-96985571D01*
X168497319Y-96985571D02*
X168497319Y-97223666D01*
X168497319Y-97223666D02*
X168449700Y-97318904D01*
X168449700Y-97318904D02*
X168402080Y-97366523D01*
X167825333Y-113992819D02*
X167492000Y-113516628D01*
X167253905Y-113992819D02*
X167253905Y-112992819D01*
X167253905Y-112992819D02*
X167634857Y-112992819D01*
X167634857Y-112992819D02*
X167730095Y-113040438D01*
X167730095Y-113040438D02*
X167777714Y-113088057D01*
X167777714Y-113088057D02*
X167825333Y-113183295D01*
X167825333Y-113183295D02*
X167825333Y-113326152D01*
X167825333Y-113326152D02*
X167777714Y-113421390D01*
X167777714Y-113421390D02*
X167730095Y-113469009D01*
X167730095Y-113469009D02*
X167634857Y-113516628D01*
X167634857Y-113516628D02*
X167253905Y-113516628D01*
X168301524Y-113992819D02*
X168492000Y-113992819D01*
X168492000Y-113992819D02*
X168587238Y-113945200D01*
X168587238Y-113945200D02*
X168634857Y-113897580D01*
X168634857Y-113897580D02*
X168730095Y-113754723D01*
X168730095Y-113754723D02*
X168777714Y-113564247D01*
X168777714Y-113564247D02*
X168777714Y-113183295D01*
X168777714Y-113183295D02*
X168730095Y-113088057D01*
X168730095Y-113088057D02*
X168682476Y-113040438D01*
X168682476Y-113040438D02*
X168587238Y-112992819D01*
X168587238Y-112992819D02*
X168396762Y-112992819D01*
X168396762Y-112992819D02*
X168301524Y-113040438D01*
X168301524Y-113040438D02*
X168253905Y-113088057D01*
X168253905Y-113088057D02*
X168206286Y-113183295D01*
X168206286Y-113183295D02*
X168206286Y-113421390D01*
X168206286Y-113421390D02*
X168253905Y-113516628D01*
X168253905Y-113516628D02*
X168301524Y-113564247D01*
X168301524Y-113564247D02*
X168396762Y-113611866D01*
X168396762Y-113611866D02*
X168587238Y-113611866D01*
X168587238Y-113611866D02*
X168682476Y-113564247D01*
X168682476Y-113564247D02*
X168730095Y-113516628D01*
X168730095Y-113516628D02*
X168777714Y-113421390D01*
X126990819Y-118244857D02*
X126514628Y-118578190D01*
X126990819Y-118816285D02*
X125990819Y-118816285D01*
X125990819Y-118816285D02*
X125990819Y-118435333D01*
X125990819Y-118435333D02*
X126038438Y-118340095D01*
X126038438Y-118340095D02*
X126086057Y-118292476D01*
X126086057Y-118292476D02*
X126181295Y-118244857D01*
X126181295Y-118244857D02*
X126324152Y-118244857D01*
X126324152Y-118244857D02*
X126419390Y-118292476D01*
X126419390Y-118292476D02*
X126467009Y-118340095D01*
X126467009Y-118340095D02*
X126514628Y-118435333D01*
X126514628Y-118435333D02*
X126514628Y-118816285D01*
X126990819Y-117292476D02*
X126990819Y-117863904D01*
X126990819Y-117578190D02*
X125990819Y-117578190D01*
X125990819Y-117578190D02*
X126133676Y-117673428D01*
X126133676Y-117673428D02*
X126228914Y-117768666D01*
X126228914Y-117768666D02*
X126276533Y-117863904D01*
X125990819Y-116435333D02*
X125990819Y-116625809D01*
X125990819Y-116625809D02*
X126038438Y-116721047D01*
X126038438Y-116721047D02*
X126086057Y-116768666D01*
X126086057Y-116768666D02*
X126228914Y-116863904D01*
X126228914Y-116863904D02*
X126419390Y-116911523D01*
X126419390Y-116911523D02*
X126800342Y-116911523D01*
X126800342Y-116911523D02*
X126895580Y-116863904D01*
X126895580Y-116863904D02*
X126943200Y-116816285D01*
X126943200Y-116816285D02*
X126990819Y-116721047D01*
X126990819Y-116721047D02*
X126990819Y-116530571D01*
X126990819Y-116530571D02*
X126943200Y-116435333D01*
X126943200Y-116435333D02*
X126895580Y-116387714D01*
X126895580Y-116387714D02*
X126800342Y-116340095D01*
X126800342Y-116340095D02*
X126562247Y-116340095D01*
X126562247Y-116340095D02*
X126467009Y-116387714D01*
X126467009Y-116387714D02*
X126419390Y-116435333D01*
X126419390Y-116435333D02*
X126371771Y-116530571D01*
X126371771Y-116530571D02*
X126371771Y-116721047D01*
X126371771Y-116721047D02*
X126419390Y-116816285D01*
X126419390Y-116816285D02*
X126467009Y-116863904D01*
X126467009Y-116863904D02*
X126562247Y-116911523D01*
X142963580Y-111879857D02*
X143011200Y-111927476D01*
X143011200Y-111927476D02*
X143058819Y-112070333D01*
X143058819Y-112070333D02*
X143058819Y-112165571D01*
X143058819Y-112165571D02*
X143011200Y-112308428D01*
X143011200Y-112308428D02*
X142915961Y-112403666D01*
X142915961Y-112403666D02*
X142820723Y-112451285D01*
X142820723Y-112451285D02*
X142630247Y-112498904D01*
X142630247Y-112498904D02*
X142487390Y-112498904D01*
X142487390Y-112498904D02*
X142296914Y-112451285D01*
X142296914Y-112451285D02*
X142201676Y-112403666D01*
X142201676Y-112403666D02*
X142106438Y-112308428D01*
X142106438Y-112308428D02*
X142058819Y-112165571D01*
X142058819Y-112165571D02*
X142058819Y-112070333D01*
X142058819Y-112070333D02*
X142106438Y-111927476D01*
X142106438Y-111927476D02*
X142154057Y-111879857D01*
X143058819Y-110927476D02*
X143058819Y-111498904D01*
X143058819Y-111213190D02*
X142058819Y-111213190D01*
X142058819Y-111213190D02*
X142201676Y-111308428D01*
X142201676Y-111308428D02*
X142296914Y-111403666D01*
X142296914Y-111403666D02*
X142344533Y-111498904D01*
X142154057Y-110546523D02*
X142106438Y-110498904D01*
X142106438Y-110498904D02*
X142058819Y-110403666D01*
X142058819Y-110403666D02*
X142058819Y-110165571D01*
X142058819Y-110165571D02*
X142106438Y-110070333D01*
X142106438Y-110070333D02*
X142154057Y-110022714D01*
X142154057Y-110022714D02*
X142249295Y-109975095D01*
X142249295Y-109975095D02*
X142344533Y-109975095D01*
X142344533Y-109975095D02*
X142487390Y-110022714D01*
X142487390Y-110022714D02*
X143058819Y-110594142D01*
X143058819Y-110594142D02*
X143058819Y-109975095D01*
X154104095Y-114592819D02*
X154675523Y-114592819D01*
X154389809Y-115592819D02*
X154389809Y-114592819D01*
X155008857Y-115592819D02*
X155008857Y-114592819D01*
X155008857Y-114592819D02*
X155389809Y-114592819D01*
X155389809Y-114592819D02*
X155485047Y-114640438D01*
X155485047Y-114640438D02*
X155532666Y-114688057D01*
X155532666Y-114688057D02*
X155580285Y-114783295D01*
X155580285Y-114783295D02*
X155580285Y-114926152D01*
X155580285Y-114926152D02*
X155532666Y-115021390D01*
X155532666Y-115021390D02*
X155485047Y-115069009D01*
X155485047Y-115069009D02*
X155389809Y-115116628D01*
X155389809Y-115116628D02*
X155008857Y-115116628D01*
X156056476Y-115592819D02*
X156246952Y-115592819D01*
X156246952Y-115592819D02*
X156342190Y-115545200D01*
X156342190Y-115545200D02*
X156389809Y-115497580D01*
X156389809Y-115497580D02*
X156485047Y-115354723D01*
X156485047Y-115354723D02*
X156532666Y-115164247D01*
X156532666Y-115164247D02*
X156532666Y-114783295D01*
X156532666Y-114783295D02*
X156485047Y-114688057D01*
X156485047Y-114688057D02*
X156437428Y-114640438D01*
X156437428Y-114640438D02*
X156342190Y-114592819D01*
X156342190Y-114592819D02*
X156151714Y-114592819D01*
X156151714Y-114592819D02*
X156056476Y-114640438D01*
X156056476Y-114640438D02*
X156008857Y-114688057D01*
X156008857Y-114688057D02*
X155961238Y-114783295D01*
X155961238Y-114783295D02*
X155961238Y-115021390D01*
X155961238Y-115021390D02*
X156008857Y-115116628D01*
X156008857Y-115116628D02*
X156056476Y-115164247D01*
X156056476Y-115164247D02*
X156151714Y-115211866D01*
X156151714Y-115211866D02*
X156342190Y-115211866D01*
X156342190Y-115211866D02*
X156437428Y-115164247D01*
X156437428Y-115164247D02*
X156485047Y-115116628D01*
X156485047Y-115116628D02*
X156532666Y-115021390D01*
X168270142Y-84282080D02*
X168222523Y-84329700D01*
X168222523Y-84329700D02*
X168079666Y-84377319D01*
X168079666Y-84377319D02*
X167984428Y-84377319D01*
X167984428Y-84377319D02*
X167841571Y-84329700D01*
X167841571Y-84329700D02*
X167746333Y-84234461D01*
X167746333Y-84234461D02*
X167698714Y-84139223D01*
X167698714Y-84139223D02*
X167651095Y-83948747D01*
X167651095Y-83948747D02*
X167651095Y-83805890D01*
X167651095Y-83805890D02*
X167698714Y-83615414D01*
X167698714Y-83615414D02*
X167746333Y-83520176D01*
X167746333Y-83520176D02*
X167841571Y-83424938D01*
X167841571Y-83424938D02*
X167984428Y-83377319D01*
X167984428Y-83377319D02*
X168079666Y-83377319D01*
X168079666Y-83377319D02*
X168222523Y-83424938D01*
X168222523Y-83424938D02*
X168270142Y-83472557D01*
X168651095Y-83472557D02*
X168698714Y-83424938D01*
X168698714Y-83424938D02*
X168793952Y-83377319D01*
X168793952Y-83377319D02*
X169032047Y-83377319D01*
X169032047Y-83377319D02*
X169127285Y-83424938D01*
X169127285Y-83424938D02*
X169174904Y-83472557D01*
X169174904Y-83472557D02*
X169222523Y-83567795D01*
X169222523Y-83567795D02*
X169222523Y-83663033D01*
X169222523Y-83663033D02*
X169174904Y-83805890D01*
X169174904Y-83805890D02*
X168603476Y-84377319D01*
X168603476Y-84377319D02*
X169222523Y-84377319D01*
X169555857Y-83377319D02*
X170174904Y-83377319D01*
X170174904Y-83377319D02*
X169841571Y-83758271D01*
X169841571Y-83758271D02*
X169984428Y-83758271D01*
X169984428Y-83758271D02*
X170079666Y-83805890D01*
X170079666Y-83805890D02*
X170127285Y-83853509D01*
X170127285Y-83853509D02*
X170174904Y-83948747D01*
X170174904Y-83948747D02*
X170174904Y-84186842D01*
X170174904Y-84186842D02*
X170127285Y-84282080D01*
X170127285Y-84282080D02*
X170079666Y-84329700D01*
X170079666Y-84329700D02*
X169984428Y-84377319D01*
X169984428Y-84377319D02*
X169698714Y-84377319D01*
X169698714Y-84377319D02*
X169603476Y-84329700D01*
X169603476Y-84329700D02*
X169555857Y-84282080D01*
X121247819Y-103376404D02*
X121247819Y-102804976D01*
X122247819Y-103090690D02*
X121247819Y-103090690D01*
X122247819Y-102471642D02*
X121247819Y-102471642D01*
X121247819Y-102471642D02*
X121247819Y-102090690D01*
X121247819Y-102090690D02*
X121295438Y-101995452D01*
X121295438Y-101995452D02*
X121343057Y-101947833D01*
X121343057Y-101947833D02*
X121438295Y-101900214D01*
X121438295Y-101900214D02*
X121581152Y-101900214D01*
X121581152Y-101900214D02*
X121676390Y-101947833D01*
X121676390Y-101947833D02*
X121724009Y-101995452D01*
X121724009Y-101995452D02*
X121771628Y-102090690D01*
X121771628Y-102090690D02*
X121771628Y-102471642D01*
X121247819Y-101043071D02*
X121247819Y-101233547D01*
X121247819Y-101233547D02*
X121295438Y-101328785D01*
X121295438Y-101328785D02*
X121343057Y-101376404D01*
X121343057Y-101376404D02*
X121485914Y-101471642D01*
X121485914Y-101471642D02*
X121676390Y-101519261D01*
X121676390Y-101519261D02*
X122057342Y-101519261D01*
X122057342Y-101519261D02*
X122152580Y-101471642D01*
X122152580Y-101471642D02*
X122200200Y-101424023D01*
X122200200Y-101424023D02*
X122247819Y-101328785D01*
X122247819Y-101328785D02*
X122247819Y-101138309D01*
X122247819Y-101138309D02*
X122200200Y-101043071D01*
X122200200Y-101043071D02*
X122152580Y-100995452D01*
X122152580Y-100995452D02*
X122057342Y-100947833D01*
X122057342Y-100947833D02*
X121819247Y-100947833D01*
X121819247Y-100947833D02*
X121724009Y-100995452D01*
X121724009Y-100995452D02*
X121676390Y-101043071D01*
X121676390Y-101043071D02*
X121628771Y-101138309D01*
X121628771Y-101138309D02*
X121628771Y-101328785D01*
X121628771Y-101328785D02*
X121676390Y-101424023D01*
X121676390Y-101424023D02*
X121724009Y-101471642D01*
X121724009Y-101471642D02*
X121819247Y-101519261D01*
X142650333Y-99165580D02*
X142602714Y-99213200D01*
X142602714Y-99213200D02*
X142459857Y-99260819D01*
X142459857Y-99260819D02*
X142364619Y-99260819D01*
X142364619Y-99260819D02*
X142221762Y-99213200D01*
X142221762Y-99213200D02*
X142126524Y-99117961D01*
X142126524Y-99117961D02*
X142078905Y-99022723D01*
X142078905Y-99022723D02*
X142031286Y-98832247D01*
X142031286Y-98832247D02*
X142031286Y-98689390D01*
X142031286Y-98689390D02*
X142078905Y-98498914D01*
X142078905Y-98498914D02*
X142126524Y-98403676D01*
X142126524Y-98403676D02*
X142221762Y-98308438D01*
X142221762Y-98308438D02*
X142364619Y-98260819D01*
X142364619Y-98260819D02*
X142459857Y-98260819D01*
X142459857Y-98260819D02*
X142602714Y-98308438D01*
X142602714Y-98308438D02*
X142650333Y-98356057D01*
X143507476Y-98260819D02*
X143317000Y-98260819D01*
X143317000Y-98260819D02*
X143221762Y-98308438D01*
X143221762Y-98308438D02*
X143174143Y-98356057D01*
X143174143Y-98356057D02*
X143078905Y-98498914D01*
X143078905Y-98498914D02*
X143031286Y-98689390D01*
X143031286Y-98689390D02*
X143031286Y-99070342D01*
X143031286Y-99070342D02*
X143078905Y-99165580D01*
X143078905Y-99165580D02*
X143126524Y-99213200D01*
X143126524Y-99213200D02*
X143221762Y-99260819D01*
X143221762Y-99260819D02*
X143412238Y-99260819D01*
X143412238Y-99260819D02*
X143507476Y-99213200D01*
X143507476Y-99213200D02*
X143555095Y-99165580D01*
X143555095Y-99165580D02*
X143602714Y-99070342D01*
X143602714Y-99070342D02*
X143602714Y-98832247D01*
X143602714Y-98832247D02*
X143555095Y-98737009D01*
X143555095Y-98737009D02*
X143507476Y-98689390D01*
X143507476Y-98689390D02*
X143412238Y-98641771D01*
X143412238Y-98641771D02*
X143221762Y-98641771D01*
X143221762Y-98641771D02*
X143126524Y-98689390D01*
X143126524Y-98689390D02*
X143078905Y-98737009D01*
X143078905Y-98737009D02*
X143031286Y-98832247D01*
X127023580Y-114180857D02*
X127071200Y-114228476D01*
X127071200Y-114228476D02*
X127118819Y-114371333D01*
X127118819Y-114371333D02*
X127118819Y-114466571D01*
X127118819Y-114466571D02*
X127071200Y-114609428D01*
X127071200Y-114609428D02*
X126975961Y-114704666D01*
X126975961Y-114704666D02*
X126880723Y-114752285D01*
X126880723Y-114752285D02*
X126690247Y-114799904D01*
X126690247Y-114799904D02*
X126547390Y-114799904D01*
X126547390Y-114799904D02*
X126356914Y-114752285D01*
X126356914Y-114752285D02*
X126261676Y-114704666D01*
X126261676Y-114704666D02*
X126166438Y-114609428D01*
X126166438Y-114609428D02*
X126118819Y-114466571D01*
X126118819Y-114466571D02*
X126118819Y-114371333D01*
X126118819Y-114371333D02*
X126166438Y-114228476D01*
X126166438Y-114228476D02*
X126214057Y-114180857D01*
X126214057Y-113799904D02*
X126166438Y-113752285D01*
X126166438Y-113752285D02*
X126118819Y-113657047D01*
X126118819Y-113657047D02*
X126118819Y-113418952D01*
X126118819Y-113418952D02*
X126166438Y-113323714D01*
X126166438Y-113323714D02*
X126214057Y-113276095D01*
X126214057Y-113276095D02*
X126309295Y-113228476D01*
X126309295Y-113228476D02*
X126404533Y-113228476D01*
X126404533Y-113228476D02*
X126547390Y-113276095D01*
X126547390Y-113276095D02*
X127118819Y-113847523D01*
X127118819Y-113847523D02*
X127118819Y-113228476D01*
X126547390Y-112657047D02*
X126499771Y-112752285D01*
X126499771Y-112752285D02*
X126452152Y-112799904D01*
X126452152Y-112799904D02*
X126356914Y-112847523D01*
X126356914Y-112847523D02*
X126309295Y-112847523D01*
X126309295Y-112847523D02*
X126214057Y-112799904D01*
X126214057Y-112799904D02*
X126166438Y-112752285D01*
X126166438Y-112752285D02*
X126118819Y-112657047D01*
X126118819Y-112657047D02*
X126118819Y-112466571D01*
X126118819Y-112466571D02*
X126166438Y-112371333D01*
X126166438Y-112371333D02*
X126214057Y-112323714D01*
X126214057Y-112323714D02*
X126309295Y-112276095D01*
X126309295Y-112276095D02*
X126356914Y-112276095D01*
X126356914Y-112276095D02*
X126452152Y-112323714D01*
X126452152Y-112323714D02*
X126499771Y-112371333D01*
X126499771Y-112371333D02*
X126547390Y-112466571D01*
X126547390Y-112466571D02*
X126547390Y-112657047D01*
X126547390Y-112657047D02*
X126595009Y-112752285D01*
X126595009Y-112752285D02*
X126642628Y-112799904D01*
X126642628Y-112799904D02*
X126737866Y-112847523D01*
X126737866Y-112847523D02*
X126928342Y-112847523D01*
X126928342Y-112847523D02*
X127023580Y-112799904D01*
X127023580Y-112799904D02*
X127071200Y-112752285D01*
X127071200Y-112752285D02*
X127118819Y-112657047D01*
X127118819Y-112657047D02*
X127118819Y-112466571D01*
X127118819Y-112466571D02*
X127071200Y-112371333D01*
X127071200Y-112371333D02*
X127023580Y-112323714D01*
X127023580Y-112323714D02*
X126928342Y-112276095D01*
X126928342Y-112276095D02*
X126737866Y-112276095D01*
X126737866Y-112276095D02*
X126642628Y-112323714D01*
X126642628Y-112323714D02*
X126595009Y-112371333D01*
X126595009Y-112371333D02*
X126547390Y-112466571D01*
X129543666Y-124422819D02*
X129543666Y-125137104D01*
X129543666Y-125137104D02*
X129496047Y-125279961D01*
X129496047Y-125279961D02*
X129400809Y-125375200D01*
X129400809Y-125375200D02*
X129257952Y-125422819D01*
X129257952Y-125422819D02*
X129162714Y-125422819D01*
X129972238Y-124518057D02*
X130019857Y-124470438D01*
X130019857Y-124470438D02*
X130115095Y-124422819D01*
X130115095Y-124422819D02*
X130353190Y-124422819D01*
X130353190Y-124422819D02*
X130448428Y-124470438D01*
X130448428Y-124470438D02*
X130496047Y-124518057D01*
X130496047Y-124518057D02*
X130543666Y-124613295D01*
X130543666Y-124613295D02*
X130543666Y-124708533D01*
X130543666Y-124708533D02*
X130496047Y-124851390D01*
X130496047Y-124851390D02*
X129924619Y-125422819D01*
X129924619Y-125422819D02*
X130543666Y-125422819D01*
D13*
X172245237Y-84496818D02*
X172245237Y-83226818D01*
X173575714Y-84375865D02*
X173515238Y-84436342D01*
X173515238Y-84436342D02*
X173333809Y-84496818D01*
X173333809Y-84496818D02*
X173212857Y-84496818D01*
X173212857Y-84496818D02*
X173031428Y-84436342D01*
X173031428Y-84436342D02*
X172910476Y-84315389D01*
X172910476Y-84315389D02*
X172849999Y-84194437D01*
X172849999Y-84194437D02*
X172789523Y-83952532D01*
X172789523Y-83952532D02*
X172789523Y-83771103D01*
X172789523Y-83771103D02*
X172849999Y-83529199D01*
X172849999Y-83529199D02*
X172910476Y-83408246D01*
X172910476Y-83408246D02*
X173031428Y-83287294D01*
X173031428Y-83287294D02*
X173212857Y-83226818D01*
X173212857Y-83226818D02*
X173333809Y-83226818D01*
X173333809Y-83226818D02*
X173515238Y-83287294D01*
X173515238Y-83287294D02*
X173575714Y-83347770D01*
X174664285Y-83650151D02*
X174664285Y-84496818D01*
X174361904Y-83166342D02*
X174059523Y-84073484D01*
X174059523Y-84073484D02*
X174845714Y-84073484D01*
D11*
X146645333Y-107125580D02*
X146597714Y-107173200D01*
X146597714Y-107173200D02*
X146454857Y-107220819D01*
X146454857Y-107220819D02*
X146359619Y-107220819D01*
X146359619Y-107220819D02*
X146216762Y-107173200D01*
X146216762Y-107173200D02*
X146121524Y-107077961D01*
X146121524Y-107077961D02*
X146073905Y-106982723D01*
X146073905Y-106982723D02*
X146026286Y-106792247D01*
X146026286Y-106792247D02*
X146026286Y-106649390D01*
X146026286Y-106649390D02*
X146073905Y-106458914D01*
X146073905Y-106458914D02*
X146121524Y-106363676D01*
X146121524Y-106363676D02*
X146216762Y-106268438D01*
X146216762Y-106268438D02*
X146359619Y-106220819D01*
X146359619Y-106220819D02*
X146454857Y-106220819D01*
X146454857Y-106220819D02*
X146597714Y-106268438D01*
X146597714Y-106268438D02*
X146645333Y-106316057D01*
X146978667Y-106220819D02*
X147645333Y-106220819D01*
X147645333Y-106220819D02*
X147216762Y-107220819D01*
X169886333Y-110957819D02*
X169553000Y-110481628D01*
X169314905Y-110957819D02*
X169314905Y-109957819D01*
X169314905Y-109957819D02*
X169695857Y-109957819D01*
X169695857Y-109957819D02*
X169791095Y-110005438D01*
X169791095Y-110005438D02*
X169838714Y-110053057D01*
X169838714Y-110053057D02*
X169886333Y-110148295D01*
X169886333Y-110148295D02*
X169886333Y-110291152D01*
X169886333Y-110291152D02*
X169838714Y-110386390D01*
X169838714Y-110386390D02*
X169791095Y-110434009D01*
X169791095Y-110434009D02*
X169695857Y-110481628D01*
X169695857Y-110481628D02*
X169314905Y-110481628D01*
X170838714Y-110957819D02*
X170267286Y-110957819D01*
X170553000Y-110957819D02*
X170553000Y-109957819D01*
X170553000Y-109957819D02*
X170457762Y-110100676D01*
X170457762Y-110100676D02*
X170362524Y-110195914D01*
X170362524Y-110195914D02*
X170267286Y-110243533D01*
X169286142Y-92410080D02*
X169238523Y-92457700D01*
X169238523Y-92457700D02*
X169095666Y-92505319D01*
X169095666Y-92505319D02*
X169000428Y-92505319D01*
X169000428Y-92505319D02*
X168857571Y-92457700D01*
X168857571Y-92457700D02*
X168762333Y-92362461D01*
X168762333Y-92362461D02*
X168714714Y-92267223D01*
X168714714Y-92267223D02*
X168667095Y-92076747D01*
X168667095Y-92076747D02*
X168667095Y-91933890D01*
X168667095Y-91933890D02*
X168714714Y-91743414D01*
X168714714Y-91743414D02*
X168762333Y-91648176D01*
X168762333Y-91648176D02*
X168857571Y-91552938D01*
X168857571Y-91552938D02*
X169000428Y-91505319D01*
X169000428Y-91505319D02*
X169095666Y-91505319D01*
X169095666Y-91505319D02*
X169238523Y-91552938D01*
X169238523Y-91552938D02*
X169286142Y-91600557D01*
X169667095Y-91600557D02*
X169714714Y-91552938D01*
X169714714Y-91552938D02*
X169809952Y-91505319D01*
X169809952Y-91505319D02*
X170048047Y-91505319D01*
X170048047Y-91505319D02*
X170143285Y-91552938D01*
X170143285Y-91552938D02*
X170190904Y-91600557D01*
X170190904Y-91600557D02*
X170238523Y-91695795D01*
X170238523Y-91695795D02*
X170238523Y-91791033D01*
X170238523Y-91791033D02*
X170190904Y-91933890D01*
X170190904Y-91933890D02*
X169619476Y-92505319D01*
X169619476Y-92505319D02*
X170238523Y-92505319D01*
X170857571Y-91505319D02*
X170952809Y-91505319D01*
X170952809Y-91505319D02*
X171048047Y-91552938D01*
X171048047Y-91552938D02*
X171095666Y-91600557D01*
X171095666Y-91600557D02*
X171143285Y-91695795D01*
X171143285Y-91695795D02*
X171190904Y-91886271D01*
X171190904Y-91886271D02*
X171190904Y-92124366D01*
X171190904Y-92124366D02*
X171143285Y-92314842D01*
X171143285Y-92314842D02*
X171095666Y-92410080D01*
X171095666Y-92410080D02*
X171048047Y-92457700D01*
X171048047Y-92457700D02*
X170952809Y-92505319D01*
X170952809Y-92505319D02*
X170857571Y-92505319D01*
X170857571Y-92505319D02*
X170762333Y-92457700D01*
X170762333Y-92457700D02*
X170714714Y-92410080D01*
X170714714Y-92410080D02*
X170667095Y-92314842D01*
X170667095Y-92314842D02*
X170619476Y-92124366D01*
X170619476Y-92124366D02*
X170619476Y-91886271D01*
X170619476Y-91886271D02*
X170667095Y-91695795D01*
X170667095Y-91695795D02*
X170714714Y-91600557D01*
X170714714Y-91600557D02*
X170762333Y-91552938D01*
X170762333Y-91552938D02*
X170857571Y-91505319D01*
X128329580Y-109339857D02*
X128377200Y-109387476D01*
X128377200Y-109387476D02*
X128424819Y-109530333D01*
X128424819Y-109530333D02*
X128424819Y-109625571D01*
X128424819Y-109625571D02*
X128377200Y-109768428D01*
X128377200Y-109768428D02*
X128281961Y-109863666D01*
X128281961Y-109863666D02*
X128186723Y-109911285D01*
X128186723Y-109911285D02*
X127996247Y-109958904D01*
X127996247Y-109958904D02*
X127853390Y-109958904D01*
X127853390Y-109958904D02*
X127662914Y-109911285D01*
X127662914Y-109911285D02*
X127567676Y-109863666D01*
X127567676Y-109863666D02*
X127472438Y-109768428D01*
X127472438Y-109768428D02*
X127424819Y-109625571D01*
X127424819Y-109625571D02*
X127424819Y-109530333D01*
X127424819Y-109530333D02*
X127472438Y-109387476D01*
X127472438Y-109387476D02*
X127520057Y-109339857D01*
X128424819Y-108387476D02*
X128424819Y-108958904D01*
X128424819Y-108673190D02*
X127424819Y-108673190D01*
X127424819Y-108673190D02*
X127567676Y-108768428D01*
X127567676Y-108768428D02*
X127662914Y-108863666D01*
X127662914Y-108863666D02*
X127710533Y-108958904D01*
X127424819Y-107768428D02*
X127424819Y-107673190D01*
X127424819Y-107673190D02*
X127472438Y-107577952D01*
X127472438Y-107577952D02*
X127520057Y-107530333D01*
X127520057Y-107530333D02*
X127615295Y-107482714D01*
X127615295Y-107482714D02*
X127805771Y-107435095D01*
X127805771Y-107435095D02*
X128043866Y-107435095D01*
X128043866Y-107435095D02*
X128234342Y-107482714D01*
X128234342Y-107482714D02*
X128329580Y-107530333D01*
X128329580Y-107530333D02*
X128377200Y-107577952D01*
X128377200Y-107577952D02*
X128424819Y-107673190D01*
X128424819Y-107673190D02*
X128424819Y-107768428D01*
X128424819Y-107768428D02*
X128377200Y-107863666D01*
X128377200Y-107863666D02*
X128329580Y-107911285D01*
X128329580Y-107911285D02*
X128234342Y-107958904D01*
X128234342Y-107958904D02*
X128043866Y-108006523D01*
X128043866Y-108006523D02*
X127805771Y-108006523D01*
X127805771Y-108006523D02*
X127615295Y-107958904D01*
X127615295Y-107958904D02*
X127520057Y-107911285D01*
X127520057Y-107911285D02*
X127472438Y-107863666D01*
X127472438Y-107863666D02*
X127424819Y-107768428D01*
X107870666Y-85711819D02*
X107870666Y-86426104D01*
X107870666Y-86426104D02*
X107823047Y-86568961D01*
X107823047Y-86568961D02*
X107727809Y-86664200D01*
X107727809Y-86664200D02*
X107584952Y-86711819D01*
X107584952Y-86711819D02*
X107489714Y-86711819D01*
X108870666Y-86711819D02*
X108299238Y-86711819D01*
X108584952Y-86711819D02*
X108584952Y-85711819D01*
X108584952Y-85711819D02*
X108489714Y-85854676D01*
X108489714Y-85854676D02*
X108394476Y-85949914D01*
X108394476Y-85949914D02*
X108299238Y-85997533D01*
X149106095Y-113119819D02*
X149677523Y-113119819D01*
X149391809Y-114119819D02*
X149391809Y-113119819D01*
X150010857Y-114119819D02*
X150010857Y-113119819D01*
X150010857Y-113119819D02*
X150391809Y-113119819D01*
X150391809Y-113119819D02*
X150487047Y-113167438D01*
X150487047Y-113167438D02*
X150534666Y-113215057D01*
X150534666Y-113215057D02*
X150582285Y-113310295D01*
X150582285Y-113310295D02*
X150582285Y-113453152D01*
X150582285Y-113453152D02*
X150534666Y-113548390D01*
X150534666Y-113548390D02*
X150487047Y-113596009D01*
X150487047Y-113596009D02*
X150391809Y-113643628D01*
X150391809Y-113643628D02*
X150010857Y-113643628D01*
X150963238Y-113215057D02*
X151010857Y-113167438D01*
X151010857Y-113167438D02*
X151106095Y-113119819D01*
X151106095Y-113119819D02*
X151344190Y-113119819D01*
X151344190Y-113119819D02*
X151439428Y-113167438D01*
X151439428Y-113167438D02*
X151487047Y-113215057D01*
X151487047Y-113215057D02*
X151534666Y-113310295D01*
X151534666Y-113310295D02*
X151534666Y-113405533D01*
X151534666Y-113405533D02*
X151487047Y-113548390D01*
X151487047Y-113548390D02*
X150915619Y-114119819D01*
X150915619Y-114119819D02*
X151534666Y-114119819D01*
X163322095Y-86068819D02*
X163322095Y-86878342D01*
X163322095Y-86878342D02*
X163369714Y-86973580D01*
X163369714Y-86973580D02*
X163417333Y-87021200D01*
X163417333Y-87021200D02*
X163512571Y-87068819D01*
X163512571Y-87068819D02*
X163703047Y-87068819D01*
X163703047Y-87068819D02*
X163798285Y-87021200D01*
X163798285Y-87021200D02*
X163845904Y-86973580D01*
X163845904Y-86973580D02*
X163893523Y-86878342D01*
X163893523Y-86878342D02*
X163893523Y-86068819D01*
X164893523Y-87068819D02*
X164322095Y-87068819D01*
X164607809Y-87068819D02*
X164607809Y-86068819D01*
X164607809Y-86068819D02*
X164512571Y-86211676D01*
X164512571Y-86211676D02*
X164417333Y-86306914D01*
X164417333Y-86306914D02*
X164322095Y-86354533D01*
X160125580Y-111758666D02*
X160173200Y-111806285D01*
X160173200Y-111806285D02*
X160220819Y-111949142D01*
X160220819Y-111949142D02*
X160220819Y-112044380D01*
X160220819Y-112044380D02*
X160173200Y-112187237D01*
X160173200Y-112187237D02*
X160077961Y-112282475D01*
X160077961Y-112282475D02*
X159982723Y-112330094D01*
X159982723Y-112330094D02*
X159792247Y-112377713D01*
X159792247Y-112377713D02*
X159649390Y-112377713D01*
X159649390Y-112377713D02*
X159458914Y-112330094D01*
X159458914Y-112330094D02*
X159363676Y-112282475D01*
X159363676Y-112282475D02*
X159268438Y-112187237D01*
X159268438Y-112187237D02*
X159220819Y-112044380D01*
X159220819Y-112044380D02*
X159220819Y-111949142D01*
X159220819Y-111949142D02*
X159268438Y-111806285D01*
X159268438Y-111806285D02*
X159316057Y-111758666D01*
X160220819Y-111282475D02*
X160220819Y-111091999D01*
X160220819Y-111091999D02*
X160173200Y-110996761D01*
X160173200Y-110996761D02*
X160125580Y-110949142D01*
X160125580Y-110949142D02*
X159982723Y-110853904D01*
X159982723Y-110853904D02*
X159792247Y-110806285D01*
X159792247Y-110806285D02*
X159411295Y-110806285D01*
X159411295Y-110806285D02*
X159316057Y-110853904D01*
X159316057Y-110853904D02*
X159268438Y-110901523D01*
X159268438Y-110901523D02*
X159220819Y-110996761D01*
X159220819Y-110996761D02*
X159220819Y-111187237D01*
X159220819Y-111187237D02*
X159268438Y-111282475D01*
X159268438Y-111282475D02*
X159316057Y-111330094D01*
X159316057Y-111330094D02*
X159411295Y-111377713D01*
X159411295Y-111377713D02*
X159649390Y-111377713D01*
X159649390Y-111377713D02*
X159744628Y-111330094D01*
X159744628Y-111330094D02*
X159792247Y-111282475D01*
X159792247Y-111282475D02*
X159839866Y-111187237D01*
X159839866Y-111187237D02*
X159839866Y-110996761D01*
X159839866Y-110996761D02*
X159792247Y-110901523D01*
X159792247Y-110901523D02*
X159744628Y-110853904D01*
X159744628Y-110853904D02*
X159649390Y-110806285D01*
X113022819Y-117990857D02*
X112546628Y-118324190D01*
X113022819Y-118562285D02*
X112022819Y-118562285D01*
X112022819Y-118562285D02*
X112022819Y-118181333D01*
X112022819Y-118181333D02*
X112070438Y-118086095D01*
X112070438Y-118086095D02*
X112118057Y-118038476D01*
X112118057Y-118038476D02*
X112213295Y-117990857D01*
X112213295Y-117990857D02*
X112356152Y-117990857D01*
X112356152Y-117990857D02*
X112451390Y-118038476D01*
X112451390Y-118038476D02*
X112499009Y-118086095D01*
X112499009Y-118086095D02*
X112546628Y-118181333D01*
X112546628Y-118181333D02*
X112546628Y-118562285D01*
X113022819Y-117038476D02*
X113022819Y-117609904D01*
X113022819Y-117324190D02*
X112022819Y-117324190D01*
X112022819Y-117324190D02*
X112165676Y-117419428D01*
X112165676Y-117419428D02*
X112260914Y-117514666D01*
X112260914Y-117514666D02*
X112308533Y-117609904D01*
X112118057Y-116657523D02*
X112070438Y-116609904D01*
X112070438Y-116609904D02*
X112022819Y-116514666D01*
X112022819Y-116514666D02*
X112022819Y-116276571D01*
X112022819Y-116276571D02*
X112070438Y-116181333D01*
X112070438Y-116181333D02*
X112118057Y-116133714D01*
X112118057Y-116133714D02*
X112213295Y-116086095D01*
X112213295Y-116086095D02*
X112308533Y-116086095D01*
X112308533Y-116086095D02*
X112451390Y-116133714D01*
X112451390Y-116133714D02*
X113022819Y-116705142D01*
X113022819Y-116705142D02*
X113022819Y-116086095D01*
X130712333Y-90622580D02*
X130664714Y-90670200D01*
X130664714Y-90670200D02*
X130521857Y-90717819D01*
X130521857Y-90717819D02*
X130426619Y-90717819D01*
X130426619Y-90717819D02*
X130283762Y-90670200D01*
X130283762Y-90670200D02*
X130188524Y-90574961D01*
X130188524Y-90574961D02*
X130140905Y-90479723D01*
X130140905Y-90479723D02*
X130093286Y-90289247D01*
X130093286Y-90289247D02*
X130093286Y-90146390D01*
X130093286Y-90146390D02*
X130140905Y-89955914D01*
X130140905Y-89955914D02*
X130188524Y-89860676D01*
X130188524Y-89860676D02*
X130283762Y-89765438D01*
X130283762Y-89765438D02*
X130426619Y-89717819D01*
X130426619Y-89717819D02*
X130521857Y-89717819D01*
X130521857Y-89717819D02*
X130664714Y-89765438D01*
X130664714Y-89765438D02*
X130712333Y-89813057D01*
X131093286Y-89813057D02*
X131140905Y-89765438D01*
X131140905Y-89765438D02*
X131236143Y-89717819D01*
X131236143Y-89717819D02*
X131474238Y-89717819D01*
X131474238Y-89717819D02*
X131569476Y-89765438D01*
X131569476Y-89765438D02*
X131617095Y-89813057D01*
X131617095Y-89813057D02*
X131664714Y-89908295D01*
X131664714Y-89908295D02*
X131664714Y-90003533D01*
X131664714Y-90003533D02*
X131617095Y-90146390D01*
X131617095Y-90146390D02*
X131045667Y-90717819D01*
X131045667Y-90717819D02*
X131664714Y-90717819D01*
X173317819Y-104652904D02*
X173317819Y-104081476D01*
X174317819Y-104367190D02*
X173317819Y-104367190D01*
X174317819Y-103748142D02*
X173317819Y-103748142D01*
X173317819Y-103748142D02*
X173317819Y-103367190D01*
X173317819Y-103367190D02*
X173365438Y-103271952D01*
X173365438Y-103271952D02*
X173413057Y-103224333D01*
X173413057Y-103224333D02*
X173508295Y-103176714D01*
X173508295Y-103176714D02*
X173651152Y-103176714D01*
X173651152Y-103176714D02*
X173746390Y-103224333D01*
X173746390Y-103224333D02*
X173794009Y-103271952D01*
X173794009Y-103271952D02*
X173841628Y-103367190D01*
X173841628Y-103367190D02*
X173841628Y-103748142D01*
X173651152Y-102319571D02*
X174317819Y-102319571D01*
X173270200Y-102557666D02*
X173984485Y-102795761D01*
X173984485Y-102795761D02*
X173984485Y-102176714D01*
D13*
X129652237Y-116906318D02*
X129652237Y-115636318D01*
X130982714Y-116785365D02*
X130922238Y-116845842D01*
X130922238Y-116845842D02*
X130740809Y-116906318D01*
X130740809Y-116906318D02*
X130619857Y-116906318D01*
X130619857Y-116906318D02*
X130438428Y-116845842D01*
X130438428Y-116845842D02*
X130317476Y-116724889D01*
X130317476Y-116724889D02*
X130256999Y-116603937D01*
X130256999Y-116603937D02*
X130196523Y-116362032D01*
X130196523Y-116362032D02*
X130196523Y-116180603D01*
X130196523Y-116180603D02*
X130256999Y-115938699D01*
X130256999Y-115938699D02*
X130317476Y-115817746D01*
X130317476Y-115817746D02*
X130438428Y-115696794D01*
X130438428Y-115696794D02*
X130619857Y-115636318D01*
X130619857Y-115636318D02*
X130740809Y-115636318D01*
X130740809Y-115636318D02*
X130922238Y-115696794D01*
X130922238Y-115696794D02*
X130982714Y-115757270D01*
X131406047Y-115636318D02*
X132252714Y-115636318D01*
X132252714Y-115636318D02*
X131708428Y-116906318D01*
D11*
X113373819Y-103630404D02*
X113373819Y-103058976D01*
X114373819Y-103344690D02*
X113373819Y-103344690D01*
X114373819Y-102725642D02*
X113373819Y-102725642D01*
X113373819Y-102725642D02*
X113373819Y-102344690D01*
X113373819Y-102344690D02*
X113421438Y-102249452D01*
X113421438Y-102249452D02*
X113469057Y-102201833D01*
X113469057Y-102201833D02*
X113564295Y-102154214D01*
X113564295Y-102154214D02*
X113707152Y-102154214D01*
X113707152Y-102154214D02*
X113802390Y-102201833D01*
X113802390Y-102201833D02*
X113850009Y-102249452D01*
X113850009Y-102249452D02*
X113897628Y-102344690D01*
X113897628Y-102344690D02*
X113897628Y-102725642D01*
X113373819Y-101249452D02*
X113373819Y-101725642D01*
X113373819Y-101725642D02*
X113850009Y-101773261D01*
X113850009Y-101773261D02*
X113802390Y-101725642D01*
X113802390Y-101725642D02*
X113754771Y-101630404D01*
X113754771Y-101630404D02*
X113754771Y-101392309D01*
X113754771Y-101392309D02*
X113802390Y-101297071D01*
X113802390Y-101297071D02*
X113850009Y-101249452D01*
X113850009Y-101249452D02*
X113945247Y-101201833D01*
X113945247Y-101201833D02*
X114183342Y-101201833D01*
X114183342Y-101201833D02*
X114278580Y-101249452D01*
X114278580Y-101249452D02*
X114326200Y-101297071D01*
X114326200Y-101297071D02*
X114373819Y-101392309D01*
X114373819Y-101392309D02*
X114373819Y-101630404D01*
X114373819Y-101630404D02*
X114326200Y-101725642D01*
X114326200Y-101725642D02*
X114278580Y-101773261D01*
X168380580Y-95905857D02*
X168428200Y-95953476D01*
X168428200Y-95953476D02*
X168475819Y-96096333D01*
X168475819Y-96096333D02*
X168475819Y-96191571D01*
X168475819Y-96191571D02*
X168428200Y-96334428D01*
X168428200Y-96334428D02*
X168332961Y-96429666D01*
X168332961Y-96429666D02*
X168237723Y-96477285D01*
X168237723Y-96477285D02*
X168047247Y-96524904D01*
X168047247Y-96524904D02*
X167904390Y-96524904D01*
X167904390Y-96524904D02*
X167713914Y-96477285D01*
X167713914Y-96477285D02*
X167618676Y-96429666D01*
X167618676Y-96429666D02*
X167523438Y-96334428D01*
X167523438Y-96334428D02*
X167475819Y-96191571D01*
X167475819Y-96191571D02*
X167475819Y-96096333D01*
X167475819Y-96096333D02*
X167523438Y-95953476D01*
X167523438Y-95953476D02*
X167571057Y-95905857D01*
X168475819Y-94953476D02*
X168475819Y-95524904D01*
X168475819Y-95239190D02*
X167475819Y-95239190D01*
X167475819Y-95239190D02*
X167618676Y-95334428D01*
X167618676Y-95334428D02*
X167713914Y-95429666D01*
X167713914Y-95429666D02*
X167761533Y-95524904D01*
X167475819Y-94620142D02*
X167475819Y-94001095D01*
X167475819Y-94001095D02*
X167856771Y-94334428D01*
X167856771Y-94334428D02*
X167856771Y-94191571D01*
X167856771Y-94191571D02*
X167904390Y-94096333D01*
X167904390Y-94096333D02*
X167952009Y-94048714D01*
X167952009Y-94048714D02*
X168047247Y-94001095D01*
X168047247Y-94001095D02*
X168285342Y-94001095D01*
X168285342Y-94001095D02*
X168380580Y-94048714D01*
X168380580Y-94048714D02*
X168428200Y-94096333D01*
X168428200Y-94096333D02*
X168475819Y-94191571D01*
X168475819Y-94191571D02*
X168475819Y-94477285D01*
X168475819Y-94477285D02*
X168428200Y-94572523D01*
X168428200Y-94572523D02*
X168380580Y-94620142D01*
X165443819Y-104906904D02*
X165443819Y-104335476D01*
X166443819Y-104621190D02*
X165443819Y-104621190D01*
X166443819Y-104002142D02*
X165443819Y-104002142D01*
X165443819Y-104002142D02*
X165443819Y-103621190D01*
X165443819Y-103621190D02*
X165491438Y-103525952D01*
X165491438Y-103525952D02*
X165539057Y-103478333D01*
X165539057Y-103478333D02*
X165634295Y-103430714D01*
X165634295Y-103430714D02*
X165777152Y-103430714D01*
X165777152Y-103430714D02*
X165872390Y-103478333D01*
X165872390Y-103478333D02*
X165920009Y-103525952D01*
X165920009Y-103525952D02*
X165967628Y-103621190D01*
X165967628Y-103621190D02*
X165967628Y-104002142D01*
X165443819Y-103097380D02*
X165443819Y-102478333D01*
X165443819Y-102478333D02*
X165824771Y-102811666D01*
X165824771Y-102811666D02*
X165824771Y-102668809D01*
X165824771Y-102668809D02*
X165872390Y-102573571D01*
X165872390Y-102573571D02*
X165920009Y-102525952D01*
X165920009Y-102525952D02*
X166015247Y-102478333D01*
X166015247Y-102478333D02*
X166253342Y-102478333D01*
X166253342Y-102478333D02*
X166348580Y-102525952D01*
X166348580Y-102525952D02*
X166396200Y-102573571D01*
X166396200Y-102573571D02*
X166443819Y-102668809D01*
X166443819Y-102668809D02*
X166443819Y-102954523D01*
X166443819Y-102954523D02*
X166396200Y-103049761D01*
X166396200Y-103049761D02*
X166348580Y-103097380D01*
X116647142Y-91672580D02*
X116599523Y-91720200D01*
X116599523Y-91720200D02*
X116456666Y-91767819D01*
X116456666Y-91767819D02*
X116361428Y-91767819D01*
X116361428Y-91767819D02*
X116218571Y-91720200D01*
X116218571Y-91720200D02*
X116123333Y-91624961D01*
X116123333Y-91624961D02*
X116075714Y-91529723D01*
X116075714Y-91529723D02*
X116028095Y-91339247D01*
X116028095Y-91339247D02*
X116028095Y-91196390D01*
X116028095Y-91196390D02*
X116075714Y-91005914D01*
X116075714Y-91005914D02*
X116123333Y-90910676D01*
X116123333Y-90910676D02*
X116218571Y-90815438D01*
X116218571Y-90815438D02*
X116361428Y-90767819D01*
X116361428Y-90767819D02*
X116456666Y-90767819D01*
X116456666Y-90767819D02*
X116599523Y-90815438D01*
X116599523Y-90815438D02*
X116647142Y-90863057D01*
X117028095Y-90863057D02*
X117075714Y-90815438D01*
X117075714Y-90815438D02*
X117170952Y-90767819D01*
X117170952Y-90767819D02*
X117409047Y-90767819D01*
X117409047Y-90767819D02*
X117504285Y-90815438D01*
X117504285Y-90815438D02*
X117551904Y-90863057D01*
X117551904Y-90863057D02*
X117599523Y-90958295D01*
X117599523Y-90958295D02*
X117599523Y-91053533D01*
X117599523Y-91053533D02*
X117551904Y-91196390D01*
X117551904Y-91196390D02*
X116980476Y-91767819D01*
X116980476Y-91767819D02*
X117599523Y-91767819D01*
X117980476Y-90863057D02*
X118028095Y-90815438D01*
X118028095Y-90815438D02*
X118123333Y-90767819D01*
X118123333Y-90767819D02*
X118361428Y-90767819D01*
X118361428Y-90767819D02*
X118456666Y-90815438D01*
X118456666Y-90815438D02*
X118504285Y-90863057D01*
X118504285Y-90863057D02*
X118551904Y-90958295D01*
X118551904Y-90958295D02*
X118551904Y-91053533D01*
X118551904Y-91053533D02*
X118504285Y-91196390D01*
X118504285Y-91196390D02*
X117932857Y-91767819D01*
X117932857Y-91767819D02*
X118551904Y-91767819D01*
X147579333Y-119072819D02*
X147246000Y-118596628D01*
X147007905Y-119072819D02*
X147007905Y-118072819D01*
X147007905Y-118072819D02*
X147388857Y-118072819D01*
X147388857Y-118072819D02*
X147484095Y-118120438D01*
X147484095Y-118120438D02*
X147531714Y-118168057D01*
X147531714Y-118168057D02*
X147579333Y-118263295D01*
X147579333Y-118263295D02*
X147579333Y-118406152D01*
X147579333Y-118406152D02*
X147531714Y-118501390D01*
X147531714Y-118501390D02*
X147484095Y-118549009D01*
X147484095Y-118549009D02*
X147388857Y-118596628D01*
X147388857Y-118596628D02*
X147007905Y-118596628D01*
X147912667Y-118072819D02*
X148531714Y-118072819D01*
X148531714Y-118072819D02*
X148198381Y-118453771D01*
X148198381Y-118453771D02*
X148341238Y-118453771D01*
X148341238Y-118453771D02*
X148436476Y-118501390D01*
X148436476Y-118501390D02*
X148484095Y-118549009D01*
X148484095Y-118549009D02*
X148531714Y-118644247D01*
X148531714Y-118644247D02*
X148531714Y-118882342D01*
X148531714Y-118882342D02*
X148484095Y-118977580D01*
X148484095Y-118977580D02*
X148436476Y-119025200D01*
X148436476Y-119025200D02*
X148341238Y-119072819D01*
X148341238Y-119072819D02*
X148055524Y-119072819D01*
X148055524Y-119072819D02*
X147960286Y-119025200D01*
X147960286Y-119025200D02*
X147912667Y-118977580D01*
X114591142Y-122689580D02*
X114543523Y-122737200D01*
X114543523Y-122737200D02*
X114400666Y-122784819D01*
X114400666Y-122784819D02*
X114305428Y-122784819D01*
X114305428Y-122784819D02*
X114162571Y-122737200D01*
X114162571Y-122737200D02*
X114067333Y-122641961D01*
X114067333Y-122641961D02*
X114019714Y-122546723D01*
X114019714Y-122546723D02*
X113972095Y-122356247D01*
X113972095Y-122356247D02*
X113972095Y-122213390D01*
X113972095Y-122213390D02*
X114019714Y-122022914D01*
X114019714Y-122022914D02*
X114067333Y-121927676D01*
X114067333Y-121927676D02*
X114162571Y-121832438D01*
X114162571Y-121832438D02*
X114305428Y-121784819D01*
X114305428Y-121784819D02*
X114400666Y-121784819D01*
X114400666Y-121784819D02*
X114543523Y-121832438D01*
X114543523Y-121832438D02*
X114591142Y-121880057D01*
X114972095Y-121880057D02*
X115019714Y-121832438D01*
X115019714Y-121832438D02*
X115114952Y-121784819D01*
X115114952Y-121784819D02*
X115353047Y-121784819D01*
X115353047Y-121784819D02*
X115448285Y-121832438D01*
X115448285Y-121832438D02*
X115495904Y-121880057D01*
X115495904Y-121880057D02*
X115543523Y-121975295D01*
X115543523Y-121975295D02*
X115543523Y-122070533D01*
X115543523Y-122070533D02*
X115495904Y-122213390D01*
X115495904Y-122213390D02*
X114924476Y-122784819D01*
X114924476Y-122784819D02*
X115543523Y-122784819D01*
X115876857Y-121784819D02*
X116543523Y-121784819D01*
X116543523Y-121784819D02*
X116114952Y-122784819D01*
D13*
X151160237Y-106324318D02*
X151160237Y-105054318D01*
X152490714Y-106203365D02*
X152430238Y-106263842D01*
X152430238Y-106263842D02*
X152248809Y-106324318D01*
X152248809Y-106324318D02*
X152127857Y-106324318D01*
X152127857Y-106324318D02*
X151946428Y-106263842D01*
X151946428Y-106263842D02*
X151825476Y-106142889D01*
X151825476Y-106142889D02*
X151764999Y-106021937D01*
X151764999Y-106021937D02*
X151704523Y-105780032D01*
X151704523Y-105780032D02*
X151704523Y-105598603D01*
X151704523Y-105598603D02*
X151764999Y-105356699D01*
X151764999Y-105356699D02*
X151825476Y-105235746D01*
X151825476Y-105235746D02*
X151946428Y-105114794D01*
X151946428Y-105114794D02*
X152127857Y-105054318D01*
X152127857Y-105054318D02*
X152248809Y-105054318D01*
X152248809Y-105054318D02*
X152430238Y-105114794D01*
X152430238Y-105114794D02*
X152490714Y-105175270D01*
X152974523Y-105175270D02*
X153034999Y-105114794D01*
X153034999Y-105114794D02*
X153155952Y-105054318D01*
X153155952Y-105054318D02*
X153458333Y-105054318D01*
X153458333Y-105054318D02*
X153579285Y-105114794D01*
X153579285Y-105114794D02*
X153639761Y-105175270D01*
X153639761Y-105175270D02*
X153700238Y-105296222D01*
X153700238Y-105296222D02*
X153700238Y-105417175D01*
X153700238Y-105417175D02*
X153639761Y-105598603D01*
X153639761Y-105598603D02*
X152914047Y-106324318D01*
X152914047Y-106324318D02*
X153700238Y-106324318D01*
D11*
X117310819Y-102856904D02*
X118120342Y-102856904D01*
X118120342Y-102856904D02*
X118215580Y-102809285D01*
X118215580Y-102809285D02*
X118263200Y-102761666D01*
X118263200Y-102761666D02*
X118310819Y-102666428D01*
X118310819Y-102666428D02*
X118310819Y-102475952D01*
X118310819Y-102475952D02*
X118263200Y-102380714D01*
X118263200Y-102380714D02*
X118215580Y-102333095D01*
X118215580Y-102333095D02*
X118120342Y-102285476D01*
X118120342Y-102285476D02*
X117310819Y-102285476D01*
X117310819Y-101904523D02*
X117310819Y-101285476D01*
X117310819Y-101285476D02*
X117691771Y-101618809D01*
X117691771Y-101618809D02*
X117691771Y-101475952D01*
X117691771Y-101475952D02*
X117739390Y-101380714D01*
X117739390Y-101380714D02*
X117787009Y-101333095D01*
X117787009Y-101333095D02*
X117882247Y-101285476D01*
X117882247Y-101285476D02*
X118120342Y-101285476D01*
X118120342Y-101285476D02*
X118215580Y-101333095D01*
X118215580Y-101333095D02*
X118263200Y-101380714D01*
X118263200Y-101380714D02*
X118310819Y-101475952D01*
X118310819Y-101475952D02*
X118310819Y-101761666D01*
X118310819Y-101761666D02*
X118263200Y-101856904D01*
X118263200Y-101856904D02*
X118215580Y-101904523D01*
X163750666Y-78575819D02*
X163750666Y-79290104D01*
X163750666Y-79290104D02*
X163703047Y-79432961D01*
X163703047Y-79432961D02*
X163607809Y-79528200D01*
X163607809Y-79528200D02*
X163464952Y-79575819D01*
X163464952Y-79575819D02*
X163369714Y-79575819D01*
X164655428Y-78909152D02*
X164655428Y-79575819D01*
X164417333Y-78528200D02*
X164179238Y-79242485D01*
X164179238Y-79242485D02*
X164798285Y-79242485D01*
X115377142Y-83388580D02*
X115329523Y-83436200D01*
X115329523Y-83436200D02*
X115186666Y-83483819D01*
X115186666Y-83483819D02*
X115091428Y-83483819D01*
X115091428Y-83483819D02*
X114948571Y-83436200D01*
X114948571Y-83436200D02*
X114853333Y-83340961D01*
X114853333Y-83340961D02*
X114805714Y-83245723D01*
X114805714Y-83245723D02*
X114758095Y-83055247D01*
X114758095Y-83055247D02*
X114758095Y-82912390D01*
X114758095Y-82912390D02*
X114805714Y-82721914D01*
X114805714Y-82721914D02*
X114853333Y-82626676D01*
X114853333Y-82626676D02*
X114948571Y-82531438D01*
X114948571Y-82531438D02*
X115091428Y-82483819D01*
X115091428Y-82483819D02*
X115186666Y-82483819D01*
X115186666Y-82483819D02*
X115329523Y-82531438D01*
X115329523Y-82531438D02*
X115377142Y-82579057D01*
X115758095Y-82579057D02*
X115805714Y-82531438D01*
X115805714Y-82531438D02*
X115900952Y-82483819D01*
X115900952Y-82483819D02*
X116139047Y-82483819D01*
X116139047Y-82483819D02*
X116234285Y-82531438D01*
X116234285Y-82531438D02*
X116281904Y-82579057D01*
X116281904Y-82579057D02*
X116329523Y-82674295D01*
X116329523Y-82674295D02*
X116329523Y-82769533D01*
X116329523Y-82769533D02*
X116281904Y-82912390D01*
X116281904Y-82912390D02*
X115710476Y-83483819D01*
X115710476Y-83483819D02*
X116329523Y-83483819D01*
X117186666Y-82817152D02*
X117186666Y-83483819D01*
X116948571Y-82436200D02*
X116710476Y-83150485D01*
X116710476Y-83150485D02*
X117329523Y-83150485D01*
X113853142Y-91672580D02*
X113805523Y-91720200D01*
X113805523Y-91720200D02*
X113662666Y-91767819D01*
X113662666Y-91767819D02*
X113567428Y-91767819D01*
X113567428Y-91767819D02*
X113424571Y-91720200D01*
X113424571Y-91720200D02*
X113329333Y-91624961D01*
X113329333Y-91624961D02*
X113281714Y-91529723D01*
X113281714Y-91529723D02*
X113234095Y-91339247D01*
X113234095Y-91339247D02*
X113234095Y-91196390D01*
X113234095Y-91196390D02*
X113281714Y-91005914D01*
X113281714Y-91005914D02*
X113329333Y-90910676D01*
X113329333Y-90910676D02*
X113424571Y-90815438D01*
X113424571Y-90815438D02*
X113567428Y-90767819D01*
X113567428Y-90767819D02*
X113662666Y-90767819D01*
X113662666Y-90767819D02*
X113805523Y-90815438D01*
X113805523Y-90815438D02*
X113853142Y-90863057D01*
X114234095Y-90863057D02*
X114281714Y-90815438D01*
X114281714Y-90815438D02*
X114376952Y-90767819D01*
X114376952Y-90767819D02*
X114615047Y-90767819D01*
X114615047Y-90767819D02*
X114710285Y-90815438D01*
X114710285Y-90815438D02*
X114757904Y-90863057D01*
X114757904Y-90863057D02*
X114805523Y-90958295D01*
X114805523Y-90958295D02*
X114805523Y-91053533D01*
X114805523Y-91053533D02*
X114757904Y-91196390D01*
X114757904Y-91196390D02*
X114186476Y-91767819D01*
X114186476Y-91767819D02*
X114805523Y-91767819D01*
X115757904Y-91767819D02*
X115186476Y-91767819D01*
X115472190Y-91767819D02*
X115472190Y-90767819D01*
X115472190Y-90767819D02*
X115376952Y-90910676D01*
X115376952Y-90910676D02*
X115281714Y-91005914D01*
X115281714Y-91005914D02*
X115186476Y-91053533D01*
X172588142Y-92664080D02*
X172540523Y-92711700D01*
X172540523Y-92711700D02*
X172397666Y-92759319D01*
X172397666Y-92759319D02*
X172302428Y-92759319D01*
X172302428Y-92759319D02*
X172159571Y-92711700D01*
X172159571Y-92711700D02*
X172064333Y-92616461D01*
X172064333Y-92616461D02*
X172016714Y-92521223D01*
X172016714Y-92521223D02*
X171969095Y-92330747D01*
X171969095Y-92330747D02*
X171969095Y-92187890D01*
X171969095Y-92187890D02*
X172016714Y-91997414D01*
X172016714Y-91997414D02*
X172064333Y-91902176D01*
X172064333Y-91902176D02*
X172159571Y-91806938D01*
X172159571Y-91806938D02*
X172302428Y-91759319D01*
X172302428Y-91759319D02*
X172397666Y-91759319D01*
X172397666Y-91759319D02*
X172540523Y-91806938D01*
X172540523Y-91806938D02*
X172588142Y-91854557D01*
X173540523Y-92759319D02*
X172969095Y-92759319D01*
X173254809Y-92759319D02*
X173254809Y-91759319D01*
X173254809Y-91759319D02*
X173159571Y-91902176D01*
X173159571Y-91902176D02*
X173064333Y-91997414D01*
X173064333Y-91997414D02*
X172969095Y-92045033D01*
X173873857Y-91759319D02*
X174540523Y-91759319D01*
X174540523Y-91759319D02*
X174111952Y-92759319D01*
X169380819Y-104126904D02*
X170190342Y-104126904D01*
X170190342Y-104126904D02*
X170285580Y-104079285D01*
X170285580Y-104079285D02*
X170333200Y-104031666D01*
X170333200Y-104031666D02*
X170380819Y-103936428D01*
X170380819Y-103936428D02*
X170380819Y-103745952D01*
X170380819Y-103745952D02*
X170333200Y-103650714D01*
X170333200Y-103650714D02*
X170285580Y-103603095D01*
X170285580Y-103603095D02*
X170190342Y-103555476D01*
X170190342Y-103555476D02*
X169380819Y-103555476D01*
X169476057Y-103126904D02*
X169428438Y-103079285D01*
X169428438Y-103079285D02*
X169380819Y-102984047D01*
X169380819Y-102984047D02*
X169380819Y-102745952D01*
X169380819Y-102745952D02*
X169428438Y-102650714D01*
X169428438Y-102650714D02*
X169476057Y-102603095D01*
X169476057Y-102603095D02*
X169571295Y-102555476D01*
X169571295Y-102555476D02*
X169666533Y-102555476D01*
X169666533Y-102555476D02*
X169809390Y-102603095D01*
X169809390Y-102603095D02*
X170380819Y-103174523D01*
X170380819Y-103174523D02*
X170380819Y-102555476D01*
X130217333Y-118802819D02*
X129884000Y-118326628D01*
X129645905Y-118802819D02*
X129645905Y-117802819D01*
X129645905Y-117802819D02*
X130026857Y-117802819D01*
X130026857Y-117802819D02*
X130122095Y-117850438D01*
X130122095Y-117850438D02*
X130169714Y-117898057D01*
X130169714Y-117898057D02*
X130217333Y-117993295D01*
X130217333Y-117993295D02*
X130217333Y-118136152D01*
X130217333Y-118136152D02*
X130169714Y-118231390D01*
X130169714Y-118231390D02*
X130122095Y-118279009D01*
X130122095Y-118279009D02*
X130026857Y-118326628D01*
X130026857Y-118326628D02*
X129645905Y-118326628D01*
X131122095Y-117802819D02*
X130645905Y-117802819D01*
X130645905Y-117802819D02*
X130598286Y-118279009D01*
X130598286Y-118279009D02*
X130645905Y-118231390D01*
X130645905Y-118231390D02*
X130741143Y-118183771D01*
X130741143Y-118183771D02*
X130979238Y-118183771D01*
X130979238Y-118183771D02*
X131074476Y-118231390D01*
X131074476Y-118231390D02*
X131122095Y-118279009D01*
X131122095Y-118279009D02*
X131169714Y-118374247D01*
X131169714Y-118374247D02*
X131169714Y-118612342D01*
X131169714Y-118612342D02*
X131122095Y-118707580D01*
X131122095Y-118707580D02*
X131074476Y-118755200D01*
X131074476Y-118755200D02*
X130979238Y-118802819D01*
X130979238Y-118802819D02*
X130741143Y-118802819D01*
X130741143Y-118802819D02*
X130645905Y-118755200D01*
X130645905Y-118755200D02*
X130598286Y-118707580D01*
D13*
X133888237Y-105969318D02*
X133888237Y-104699318D01*
X135218714Y-105848365D02*
X135158238Y-105908842D01*
X135158238Y-105908842D02*
X134976809Y-105969318D01*
X134976809Y-105969318D02*
X134855857Y-105969318D01*
X134855857Y-105969318D02*
X134674428Y-105908842D01*
X134674428Y-105908842D02*
X134553476Y-105787889D01*
X134553476Y-105787889D02*
X134492999Y-105666937D01*
X134492999Y-105666937D02*
X134432523Y-105425032D01*
X134432523Y-105425032D02*
X134432523Y-105243603D01*
X134432523Y-105243603D02*
X134492999Y-105001699D01*
X134492999Y-105001699D02*
X134553476Y-104880746D01*
X134553476Y-104880746D02*
X134674428Y-104759794D01*
X134674428Y-104759794D02*
X134855857Y-104699318D01*
X134855857Y-104699318D02*
X134976809Y-104699318D01*
X134976809Y-104699318D02*
X135158238Y-104759794D01*
X135158238Y-104759794D02*
X135218714Y-104820270D01*
X135642047Y-104699318D02*
X136428238Y-104699318D01*
X136428238Y-104699318D02*
X136004904Y-105183127D01*
X136004904Y-105183127D02*
X136186333Y-105183127D01*
X136186333Y-105183127D02*
X136307285Y-105243603D01*
X136307285Y-105243603D02*
X136367761Y-105304080D01*
X136367761Y-105304080D02*
X136428238Y-105425032D01*
X136428238Y-105425032D02*
X136428238Y-105727413D01*
X136428238Y-105727413D02*
X136367761Y-105848365D01*
X136367761Y-105848365D02*
X136307285Y-105908842D01*
X136307285Y-105908842D02*
X136186333Y-105969318D01*
X136186333Y-105969318D02*
X135823476Y-105969318D01*
X135823476Y-105969318D02*
X135702523Y-105908842D01*
X135702523Y-105908842D02*
X135642047Y-105848365D01*
X120852237Y-113350318D02*
X120852237Y-112080318D01*
X122182714Y-113229365D02*
X122122238Y-113289842D01*
X122122238Y-113289842D02*
X121940809Y-113350318D01*
X121940809Y-113350318D02*
X121819857Y-113350318D01*
X121819857Y-113350318D02*
X121638428Y-113289842D01*
X121638428Y-113289842D02*
X121517476Y-113168889D01*
X121517476Y-113168889D02*
X121456999Y-113047937D01*
X121456999Y-113047937D02*
X121396523Y-112806032D01*
X121396523Y-112806032D02*
X121396523Y-112624603D01*
X121396523Y-112624603D02*
X121456999Y-112382699D01*
X121456999Y-112382699D02*
X121517476Y-112261746D01*
X121517476Y-112261746D02*
X121638428Y-112140794D01*
X121638428Y-112140794D02*
X121819857Y-112080318D01*
X121819857Y-112080318D02*
X121940809Y-112080318D01*
X121940809Y-112080318D02*
X122122238Y-112140794D01*
X122122238Y-112140794D02*
X122182714Y-112201270D01*
X122787476Y-113350318D02*
X123029380Y-113350318D01*
X123029380Y-113350318D02*
X123150333Y-113289842D01*
X123150333Y-113289842D02*
X123210809Y-113229365D01*
X123210809Y-113229365D02*
X123331761Y-113047937D01*
X123331761Y-113047937D02*
X123392238Y-112806032D01*
X123392238Y-112806032D02*
X123392238Y-112322222D01*
X123392238Y-112322222D02*
X123331761Y-112201270D01*
X123331761Y-112201270D02*
X123271285Y-112140794D01*
X123271285Y-112140794D02*
X123150333Y-112080318D01*
X123150333Y-112080318D02*
X122908428Y-112080318D01*
X122908428Y-112080318D02*
X122787476Y-112140794D01*
X122787476Y-112140794D02*
X122726999Y-112201270D01*
X122726999Y-112201270D02*
X122666523Y-112322222D01*
X122666523Y-112322222D02*
X122666523Y-112624603D01*
X122666523Y-112624603D02*
X122726999Y-112745556D01*
X122726999Y-112745556D02*
X122787476Y-112806032D01*
X122787476Y-112806032D02*
X122908428Y-112866508D01*
X122908428Y-112866508D02*
X123150333Y-112866508D01*
X123150333Y-112866508D02*
X123271285Y-112806032D01*
X123271285Y-112806032D02*
X123331761Y-112745556D01*
X123331761Y-112745556D02*
X123392238Y-112624603D01*
D11*
X151913333Y-115390819D02*
X151580000Y-114914628D01*
X151341905Y-115390819D02*
X151341905Y-114390819D01*
X151341905Y-114390819D02*
X151722857Y-114390819D01*
X151722857Y-114390819D02*
X151818095Y-114438438D01*
X151818095Y-114438438D02*
X151865714Y-114486057D01*
X151865714Y-114486057D02*
X151913333Y-114581295D01*
X151913333Y-114581295D02*
X151913333Y-114724152D01*
X151913333Y-114724152D02*
X151865714Y-114819390D01*
X151865714Y-114819390D02*
X151818095Y-114867009D01*
X151818095Y-114867009D02*
X151722857Y-114914628D01*
X151722857Y-114914628D02*
X151341905Y-114914628D01*
X152770476Y-114724152D02*
X152770476Y-115390819D01*
X152532381Y-114343200D02*
X152294286Y-115057485D01*
X152294286Y-115057485D02*
X152913333Y-115057485D01*
X162761142Y-123197580D02*
X162713523Y-123245200D01*
X162713523Y-123245200D02*
X162570666Y-123292819D01*
X162570666Y-123292819D02*
X162475428Y-123292819D01*
X162475428Y-123292819D02*
X162332571Y-123245200D01*
X162332571Y-123245200D02*
X162237333Y-123149961D01*
X162237333Y-123149961D02*
X162189714Y-123054723D01*
X162189714Y-123054723D02*
X162142095Y-122864247D01*
X162142095Y-122864247D02*
X162142095Y-122721390D01*
X162142095Y-122721390D02*
X162189714Y-122530914D01*
X162189714Y-122530914D02*
X162237333Y-122435676D01*
X162237333Y-122435676D02*
X162332571Y-122340438D01*
X162332571Y-122340438D02*
X162475428Y-122292819D01*
X162475428Y-122292819D02*
X162570666Y-122292819D01*
X162570666Y-122292819D02*
X162713523Y-122340438D01*
X162713523Y-122340438D02*
X162761142Y-122388057D01*
X163142095Y-122388057D02*
X163189714Y-122340438D01*
X163189714Y-122340438D02*
X163284952Y-122292819D01*
X163284952Y-122292819D02*
X163523047Y-122292819D01*
X163523047Y-122292819D02*
X163618285Y-122340438D01*
X163618285Y-122340438D02*
X163665904Y-122388057D01*
X163665904Y-122388057D02*
X163713523Y-122483295D01*
X163713523Y-122483295D02*
X163713523Y-122578533D01*
X163713523Y-122578533D02*
X163665904Y-122721390D01*
X163665904Y-122721390D02*
X163094476Y-123292819D01*
X163094476Y-123292819D02*
X163713523Y-123292819D01*
X164618285Y-122292819D02*
X164142095Y-122292819D01*
X164142095Y-122292819D02*
X164094476Y-122769009D01*
X164094476Y-122769009D02*
X164142095Y-122721390D01*
X164142095Y-122721390D02*
X164237333Y-122673771D01*
X164237333Y-122673771D02*
X164475428Y-122673771D01*
X164475428Y-122673771D02*
X164570666Y-122721390D01*
X164570666Y-122721390D02*
X164618285Y-122769009D01*
X164618285Y-122769009D02*
X164665904Y-122864247D01*
X164665904Y-122864247D02*
X164665904Y-123102342D01*
X164665904Y-123102342D02*
X164618285Y-123197580D01*
X164618285Y-123197580D02*
X164570666Y-123245200D01*
X164570666Y-123245200D02*
X164475428Y-123292819D01*
X164475428Y-123292819D02*
X164237333Y-123292819D01*
X164237333Y-123292819D02*
X164142095Y-123245200D01*
X164142095Y-123245200D02*
X164094476Y-123197580D01*
X144974333Y-89513580D02*
X144926714Y-89561200D01*
X144926714Y-89561200D02*
X144783857Y-89608819D01*
X144783857Y-89608819D02*
X144688619Y-89608819D01*
X144688619Y-89608819D02*
X144545762Y-89561200D01*
X144545762Y-89561200D02*
X144450524Y-89465961D01*
X144450524Y-89465961D02*
X144402905Y-89370723D01*
X144402905Y-89370723D02*
X144355286Y-89180247D01*
X144355286Y-89180247D02*
X144355286Y-89037390D01*
X144355286Y-89037390D02*
X144402905Y-88846914D01*
X144402905Y-88846914D02*
X144450524Y-88751676D01*
X144450524Y-88751676D02*
X144545762Y-88656438D01*
X144545762Y-88656438D02*
X144688619Y-88608819D01*
X144688619Y-88608819D02*
X144783857Y-88608819D01*
X144783857Y-88608819D02*
X144926714Y-88656438D01*
X144926714Y-88656438D02*
X144974333Y-88704057D01*
X145831476Y-88942152D02*
X145831476Y-89608819D01*
X145593381Y-88561200D02*
X145355286Y-89275485D01*
X145355286Y-89275485D02*
X145974333Y-89275485D01*
X175193580Y-114667357D02*
X175241200Y-114714976D01*
X175241200Y-114714976D02*
X175288819Y-114857833D01*
X175288819Y-114857833D02*
X175288819Y-114953071D01*
X175288819Y-114953071D02*
X175241200Y-115095928D01*
X175241200Y-115095928D02*
X175145961Y-115191166D01*
X175145961Y-115191166D02*
X175050723Y-115238785D01*
X175050723Y-115238785D02*
X174860247Y-115286404D01*
X174860247Y-115286404D02*
X174717390Y-115286404D01*
X174717390Y-115286404D02*
X174526914Y-115238785D01*
X174526914Y-115238785D02*
X174431676Y-115191166D01*
X174431676Y-115191166D02*
X174336438Y-115095928D01*
X174336438Y-115095928D02*
X174288819Y-114953071D01*
X174288819Y-114953071D02*
X174288819Y-114857833D01*
X174288819Y-114857833D02*
X174336438Y-114714976D01*
X174336438Y-114714976D02*
X174384057Y-114667357D01*
X174384057Y-114286404D02*
X174336438Y-114238785D01*
X174336438Y-114238785D02*
X174288819Y-114143547D01*
X174288819Y-114143547D02*
X174288819Y-113905452D01*
X174288819Y-113905452D02*
X174336438Y-113810214D01*
X174336438Y-113810214D02*
X174384057Y-113762595D01*
X174384057Y-113762595D02*
X174479295Y-113714976D01*
X174479295Y-113714976D02*
X174574533Y-113714976D01*
X174574533Y-113714976D02*
X174717390Y-113762595D01*
X174717390Y-113762595D02*
X175288819Y-114334023D01*
X175288819Y-114334023D02*
X175288819Y-113714976D01*
X174288819Y-112857833D02*
X174288819Y-113048309D01*
X174288819Y-113048309D02*
X174336438Y-113143547D01*
X174336438Y-113143547D02*
X174384057Y-113191166D01*
X174384057Y-113191166D02*
X174526914Y-113286404D01*
X174526914Y-113286404D02*
X174717390Y-113334023D01*
X174717390Y-113334023D02*
X175098342Y-113334023D01*
X175098342Y-113334023D02*
X175193580Y-113286404D01*
X175193580Y-113286404D02*
X175241200Y-113238785D01*
X175241200Y-113238785D02*
X175288819Y-113143547D01*
X175288819Y-113143547D02*
X175288819Y-112953071D01*
X175288819Y-112953071D02*
X175241200Y-112857833D01*
X175241200Y-112857833D02*
X175193580Y-112810214D01*
X175193580Y-112810214D02*
X175098342Y-112762595D01*
X175098342Y-112762595D02*
X174860247Y-112762595D01*
X174860247Y-112762595D02*
X174765009Y-112810214D01*
X174765009Y-112810214D02*
X174717390Y-112857833D01*
X174717390Y-112857833D02*
X174669771Y-112953071D01*
X174669771Y-112953071D02*
X174669771Y-113143547D01*
X174669771Y-113143547D02*
X174717390Y-113238785D01*
X174717390Y-113238785D02*
X174765009Y-113286404D01*
X174765009Y-113286404D02*
X174860247Y-113334023D01*
D13*
X147014237Y-117160318D02*
X147014237Y-115890318D01*
X148344714Y-117039365D02*
X148284238Y-117099842D01*
X148284238Y-117099842D02*
X148102809Y-117160318D01*
X148102809Y-117160318D02*
X147981857Y-117160318D01*
X147981857Y-117160318D02*
X147800428Y-117099842D01*
X147800428Y-117099842D02*
X147679476Y-116978889D01*
X147679476Y-116978889D02*
X147618999Y-116857937D01*
X147618999Y-116857937D02*
X147558523Y-116616032D01*
X147558523Y-116616032D02*
X147558523Y-116434603D01*
X147558523Y-116434603D02*
X147618999Y-116192699D01*
X147618999Y-116192699D02*
X147679476Y-116071746D01*
X147679476Y-116071746D02*
X147800428Y-115950794D01*
X147800428Y-115950794D02*
X147981857Y-115890318D01*
X147981857Y-115890318D02*
X148102809Y-115890318D01*
X148102809Y-115890318D02*
X148284238Y-115950794D01*
X148284238Y-115950794D02*
X148344714Y-116011270D01*
X149433285Y-115890318D02*
X149191380Y-115890318D01*
X149191380Y-115890318D02*
X149070428Y-115950794D01*
X149070428Y-115950794D02*
X149009952Y-116011270D01*
X149009952Y-116011270D02*
X148888999Y-116192699D01*
X148888999Y-116192699D02*
X148828523Y-116434603D01*
X148828523Y-116434603D02*
X148828523Y-116918413D01*
X148828523Y-116918413D02*
X148888999Y-117039365D01*
X148888999Y-117039365D02*
X148949476Y-117099842D01*
X148949476Y-117099842D02*
X149070428Y-117160318D01*
X149070428Y-117160318D02*
X149312333Y-117160318D01*
X149312333Y-117160318D02*
X149433285Y-117099842D01*
X149433285Y-117099842D02*
X149493761Y-117039365D01*
X149493761Y-117039365D02*
X149554238Y-116918413D01*
X149554238Y-116918413D02*
X149554238Y-116616032D01*
X149554238Y-116616032D02*
X149493761Y-116495080D01*
X149493761Y-116495080D02*
X149433285Y-116434603D01*
X149433285Y-116434603D02*
X149312333Y-116374127D01*
X149312333Y-116374127D02*
X149070428Y-116374127D01*
X149070428Y-116374127D02*
X148949476Y-116434603D01*
X148949476Y-116434603D02*
X148888999Y-116495080D01*
X148888999Y-116495080D02*
X148828523Y-116616032D01*
D11*
X142865580Y-107815857D02*
X142913200Y-107863476D01*
X142913200Y-107863476D02*
X142960819Y-108006333D01*
X142960819Y-108006333D02*
X142960819Y-108101571D01*
X142960819Y-108101571D02*
X142913200Y-108244428D01*
X142913200Y-108244428D02*
X142817961Y-108339666D01*
X142817961Y-108339666D02*
X142722723Y-108387285D01*
X142722723Y-108387285D02*
X142532247Y-108434904D01*
X142532247Y-108434904D02*
X142389390Y-108434904D01*
X142389390Y-108434904D02*
X142198914Y-108387285D01*
X142198914Y-108387285D02*
X142103676Y-108339666D01*
X142103676Y-108339666D02*
X142008438Y-108244428D01*
X142008438Y-108244428D02*
X141960819Y-108101571D01*
X141960819Y-108101571D02*
X141960819Y-108006333D01*
X141960819Y-108006333D02*
X142008438Y-107863476D01*
X142008438Y-107863476D02*
X142056057Y-107815857D01*
X142960819Y-106863476D02*
X142960819Y-107434904D01*
X142960819Y-107149190D02*
X141960819Y-107149190D01*
X141960819Y-107149190D02*
X142103676Y-107244428D01*
X142103676Y-107244428D02*
X142198914Y-107339666D01*
X142198914Y-107339666D02*
X142246533Y-107434904D01*
X142960819Y-105911095D02*
X142960819Y-106482523D01*
X142960819Y-106196809D02*
X141960819Y-106196809D01*
X141960819Y-106196809D02*
X142103676Y-106292047D01*
X142103676Y-106292047D02*
X142198914Y-106387285D01*
X142198914Y-106387285D02*
X142246533Y-106482523D01*
X134281333Y-115136819D02*
X133948000Y-114660628D01*
X133709905Y-115136819D02*
X133709905Y-114136819D01*
X133709905Y-114136819D02*
X134090857Y-114136819D01*
X134090857Y-114136819D02*
X134186095Y-114184438D01*
X134186095Y-114184438D02*
X134233714Y-114232057D01*
X134233714Y-114232057D02*
X134281333Y-114327295D01*
X134281333Y-114327295D02*
X134281333Y-114470152D01*
X134281333Y-114470152D02*
X134233714Y-114565390D01*
X134233714Y-114565390D02*
X134186095Y-114613009D01*
X134186095Y-114613009D02*
X134090857Y-114660628D01*
X134090857Y-114660628D02*
X133709905Y-114660628D01*
X135138476Y-114136819D02*
X134948000Y-114136819D01*
X134948000Y-114136819D02*
X134852762Y-114184438D01*
X134852762Y-114184438D02*
X134805143Y-114232057D01*
X134805143Y-114232057D02*
X134709905Y-114374914D01*
X134709905Y-114374914D02*
X134662286Y-114565390D01*
X134662286Y-114565390D02*
X134662286Y-114946342D01*
X134662286Y-114946342D02*
X134709905Y-115041580D01*
X134709905Y-115041580D02*
X134757524Y-115089200D01*
X134757524Y-115089200D02*
X134852762Y-115136819D01*
X134852762Y-115136819D02*
X135043238Y-115136819D01*
X135043238Y-115136819D02*
X135138476Y-115089200D01*
X135138476Y-115089200D02*
X135186095Y-115041580D01*
X135186095Y-115041580D02*
X135233714Y-114946342D01*
X135233714Y-114946342D02*
X135233714Y-114708247D01*
X135233714Y-114708247D02*
X135186095Y-114613009D01*
X135186095Y-114613009D02*
X135138476Y-114565390D01*
X135138476Y-114565390D02*
X135043238Y-114517771D01*
X135043238Y-114517771D02*
X134852762Y-114517771D01*
X134852762Y-114517771D02*
X134757524Y-114565390D01*
X134757524Y-114565390D02*
X134709905Y-114613009D01*
X134709905Y-114613009D02*
X134662286Y-114708247D01*
X136265905Y-114338819D02*
X136837333Y-114338819D01*
X136551619Y-115338819D02*
X136551619Y-114338819D01*
X137170667Y-115338819D02*
X137170667Y-114338819D01*
X137170667Y-114338819D02*
X137551619Y-114338819D01*
X137551619Y-114338819D02*
X137646857Y-114386438D01*
X137646857Y-114386438D02*
X137694476Y-114434057D01*
X137694476Y-114434057D02*
X137742095Y-114529295D01*
X137742095Y-114529295D02*
X137742095Y-114672152D01*
X137742095Y-114672152D02*
X137694476Y-114767390D01*
X137694476Y-114767390D02*
X137646857Y-114815009D01*
X137646857Y-114815009D02*
X137551619Y-114862628D01*
X137551619Y-114862628D02*
X137170667Y-114862628D01*
X138694476Y-115338819D02*
X138123048Y-115338819D01*
X138408762Y-115338819D02*
X138408762Y-114338819D01*
X138408762Y-114338819D02*
X138313524Y-114481676D01*
X138313524Y-114481676D02*
X138218286Y-114576914D01*
X138218286Y-114576914D02*
X138123048Y-114624533D01*
X139313524Y-114338819D02*
X139408762Y-114338819D01*
X139408762Y-114338819D02*
X139504000Y-114386438D01*
X139504000Y-114386438D02*
X139551619Y-114434057D01*
X139551619Y-114434057D02*
X139599238Y-114529295D01*
X139599238Y-114529295D02*
X139646857Y-114719771D01*
X139646857Y-114719771D02*
X139646857Y-114957866D01*
X139646857Y-114957866D02*
X139599238Y-115148342D01*
X139599238Y-115148342D02*
X139551619Y-115243580D01*
X139551619Y-115243580D02*
X139504000Y-115291200D01*
X139504000Y-115291200D02*
X139408762Y-115338819D01*
X139408762Y-115338819D02*
X139313524Y-115338819D01*
X139313524Y-115338819D02*
X139218286Y-115291200D01*
X139218286Y-115291200D02*
X139170667Y-115243580D01*
X139170667Y-115243580D02*
X139123048Y-115148342D01*
X139123048Y-115148342D02*
X139075429Y-114957866D01*
X139075429Y-114957866D02*
X139075429Y-114719771D01*
X139075429Y-114719771D02*
X139123048Y-114529295D01*
X139123048Y-114529295D02*
X139170667Y-114434057D01*
X139170667Y-114434057D02*
X139218286Y-114386438D01*
X139218286Y-114386438D02*
X139313524Y-114338819D01*
D13*
X169276237Y-114112318D02*
X169276237Y-112842318D01*
X170606714Y-113991365D02*
X170546238Y-114051842D01*
X170546238Y-114051842D02*
X170364809Y-114112318D01*
X170364809Y-114112318D02*
X170243857Y-114112318D01*
X170243857Y-114112318D02*
X170062428Y-114051842D01*
X170062428Y-114051842D02*
X169941476Y-113930889D01*
X169941476Y-113930889D02*
X169880999Y-113809937D01*
X169880999Y-113809937D02*
X169820523Y-113568032D01*
X169820523Y-113568032D02*
X169820523Y-113386603D01*
X169820523Y-113386603D02*
X169880999Y-113144699D01*
X169880999Y-113144699D02*
X169941476Y-113023746D01*
X169941476Y-113023746D02*
X170062428Y-112902794D01*
X170062428Y-112902794D02*
X170243857Y-112842318D01*
X170243857Y-112842318D02*
X170364809Y-112842318D01*
X170364809Y-112842318D02*
X170546238Y-112902794D01*
X170546238Y-112902794D02*
X170606714Y-112963270D01*
X171332428Y-113386603D02*
X171211476Y-113326127D01*
X171211476Y-113326127D02*
X171150999Y-113265651D01*
X171150999Y-113265651D02*
X171090523Y-113144699D01*
X171090523Y-113144699D02*
X171090523Y-113084222D01*
X171090523Y-113084222D02*
X171150999Y-112963270D01*
X171150999Y-112963270D02*
X171211476Y-112902794D01*
X171211476Y-112902794D02*
X171332428Y-112842318D01*
X171332428Y-112842318D02*
X171574333Y-112842318D01*
X171574333Y-112842318D02*
X171695285Y-112902794D01*
X171695285Y-112902794D02*
X171755761Y-112963270D01*
X171755761Y-112963270D02*
X171816238Y-113084222D01*
X171816238Y-113084222D02*
X171816238Y-113144699D01*
X171816238Y-113144699D02*
X171755761Y-113265651D01*
X171755761Y-113265651D02*
X171695285Y-113326127D01*
X171695285Y-113326127D02*
X171574333Y-113386603D01*
X171574333Y-113386603D02*
X171332428Y-113386603D01*
X171332428Y-113386603D02*
X171211476Y-113447080D01*
X171211476Y-113447080D02*
X171150999Y-113507556D01*
X171150999Y-113507556D02*
X171090523Y-113628508D01*
X171090523Y-113628508D02*
X171090523Y-113870413D01*
X171090523Y-113870413D02*
X171150999Y-113991365D01*
X171150999Y-113991365D02*
X171211476Y-114051842D01*
X171211476Y-114051842D02*
X171332428Y-114112318D01*
X171332428Y-114112318D02*
X171574333Y-114112318D01*
X171574333Y-114112318D02*
X171695285Y-114051842D01*
X171695285Y-114051842D02*
X171755761Y-113991365D01*
X171755761Y-113991365D02*
X171816238Y-113870413D01*
X171816238Y-113870413D02*
X171816238Y-113628508D01*
X171816238Y-113628508D02*
X171755761Y-113507556D01*
X171755761Y-113507556D02*
X171695285Y-113447080D01*
X171695285Y-113447080D02*
X171574333Y-113386603D01*
D11*
X128426333Y-90601080D02*
X128378714Y-90648700D01*
X128378714Y-90648700D02*
X128235857Y-90696319D01*
X128235857Y-90696319D02*
X128140619Y-90696319D01*
X128140619Y-90696319D02*
X127997762Y-90648700D01*
X127997762Y-90648700D02*
X127902524Y-90553461D01*
X127902524Y-90553461D02*
X127854905Y-90458223D01*
X127854905Y-90458223D02*
X127807286Y-90267747D01*
X127807286Y-90267747D02*
X127807286Y-90124890D01*
X127807286Y-90124890D02*
X127854905Y-89934414D01*
X127854905Y-89934414D02*
X127902524Y-89839176D01*
X127902524Y-89839176D02*
X127997762Y-89743938D01*
X127997762Y-89743938D02*
X128140619Y-89696319D01*
X128140619Y-89696319D02*
X128235857Y-89696319D01*
X128235857Y-89696319D02*
X128378714Y-89743938D01*
X128378714Y-89743938D02*
X128426333Y-89791557D01*
X129378714Y-90696319D02*
X128807286Y-90696319D01*
X129093000Y-90696319D02*
X129093000Y-89696319D01*
X129093000Y-89696319D02*
X128997762Y-89839176D01*
X128997762Y-89839176D02*
X128902524Y-89934414D01*
X128902524Y-89934414D02*
X128807286Y-89982033D01*
X116437580Y-97543857D02*
X116485200Y-97591476D01*
X116485200Y-97591476D02*
X116532819Y-97734333D01*
X116532819Y-97734333D02*
X116532819Y-97829571D01*
X116532819Y-97829571D02*
X116485200Y-97972428D01*
X116485200Y-97972428D02*
X116389961Y-98067666D01*
X116389961Y-98067666D02*
X116294723Y-98115285D01*
X116294723Y-98115285D02*
X116104247Y-98162904D01*
X116104247Y-98162904D02*
X115961390Y-98162904D01*
X115961390Y-98162904D02*
X115770914Y-98115285D01*
X115770914Y-98115285D02*
X115675676Y-98067666D01*
X115675676Y-98067666D02*
X115580438Y-97972428D01*
X115580438Y-97972428D02*
X115532819Y-97829571D01*
X115532819Y-97829571D02*
X115532819Y-97734333D01*
X115532819Y-97734333D02*
X115580438Y-97591476D01*
X115580438Y-97591476D02*
X115628057Y-97543857D01*
X116532819Y-96591476D02*
X116532819Y-97162904D01*
X116532819Y-96877190D02*
X115532819Y-96877190D01*
X115532819Y-96877190D02*
X115675676Y-96972428D01*
X115675676Y-96972428D02*
X115770914Y-97067666D01*
X115770914Y-97067666D02*
X115818533Y-97162904D01*
X115532819Y-95734333D02*
X115532819Y-95924809D01*
X115532819Y-95924809D02*
X115580438Y-96020047D01*
X115580438Y-96020047D02*
X115628057Y-96067666D01*
X115628057Y-96067666D02*
X115770914Y-96162904D01*
X115770914Y-96162904D02*
X115961390Y-96210523D01*
X115961390Y-96210523D02*
X116342342Y-96210523D01*
X116342342Y-96210523D02*
X116437580Y-96162904D01*
X116437580Y-96162904D02*
X116485200Y-96115285D01*
X116485200Y-96115285D02*
X116532819Y-96020047D01*
X116532819Y-96020047D02*
X116532819Y-95829571D01*
X116532819Y-95829571D02*
X116485200Y-95734333D01*
X116485200Y-95734333D02*
X116437580Y-95686714D01*
X116437580Y-95686714D02*
X116342342Y-95639095D01*
X116342342Y-95639095D02*
X116104247Y-95639095D01*
X116104247Y-95639095D02*
X116009009Y-95686714D01*
X116009009Y-95686714D02*
X115961390Y-95734333D01*
X115961390Y-95734333D02*
X115913771Y-95829571D01*
X115913771Y-95829571D02*
X115913771Y-96020047D01*
X115913771Y-96020047D02*
X115961390Y-96115285D01*
X115961390Y-96115285D02*
X116009009Y-96162904D01*
X116009009Y-96162904D02*
X116104247Y-96210523D01*
X113148819Y-114180857D02*
X112672628Y-114514190D01*
X113148819Y-114752285D02*
X112148819Y-114752285D01*
X112148819Y-114752285D02*
X112148819Y-114371333D01*
X112148819Y-114371333D02*
X112196438Y-114276095D01*
X112196438Y-114276095D02*
X112244057Y-114228476D01*
X112244057Y-114228476D02*
X112339295Y-114180857D01*
X112339295Y-114180857D02*
X112482152Y-114180857D01*
X112482152Y-114180857D02*
X112577390Y-114228476D01*
X112577390Y-114228476D02*
X112625009Y-114276095D01*
X112625009Y-114276095D02*
X112672628Y-114371333D01*
X112672628Y-114371333D02*
X112672628Y-114752285D01*
X113148819Y-113228476D02*
X113148819Y-113799904D01*
X113148819Y-113514190D02*
X112148819Y-113514190D01*
X112148819Y-113514190D02*
X112291676Y-113609428D01*
X112291676Y-113609428D02*
X112386914Y-113704666D01*
X112386914Y-113704666D02*
X112434533Y-113799904D01*
X112148819Y-112895142D02*
X112148819Y-112276095D01*
X112148819Y-112276095D02*
X112529771Y-112609428D01*
X112529771Y-112609428D02*
X112529771Y-112466571D01*
X112529771Y-112466571D02*
X112577390Y-112371333D01*
X112577390Y-112371333D02*
X112625009Y-112323714D01*
X112625009Y-112323714D02*
X112720247Y-112276095D01*
X112720247Y-112276095D02*
X112958342Y-112276095D01*
X112958342Y-112276095D02*
X113053580Y-112323714D01*
X113053580Y-112323714D02*
X113101200Y-112371333D01*
X113101200Y-112371333D02*
X113148819Y-112466571D01*
X113148819Y-112466571D02*
X113148819Y-112752285D01*
X113148819Y-112752285D02*
X113101200Y-112847523D01*
X113101200Y-112847523D02*
X113053580Y-112895142D01*
X172079905Y-120612819D02*
X172651333Y-120612819D01*
X172365619Y-121612819D02*
X172365619Y-120612819D01*
X172984667Y-121612819D02*
X172984667Y-120612819D01*
X172984667Y-120612819D02*
X173365619Y-120612819D01*
X173365619Y-120612819D02*
X173460857Y-120660438D01*
X173460857Y-120660438D02*
X173508476Y-120708057D01*
X173508476Y-120708057D02*
X173556095Y-120803295D01*
X173556095Y-120803295D02*
X173556095Y-120946152D01*
X173556095Y-120946152D02*
X173508476Y-121041390D01*
X173508476Y-121041390D02*
X173460857Y-121089009D01*
X173460857Y-121089009D02*
X173365619Y-121136628D01*
X173365619Y-121136628D02*
X172984667Y-121136628D01*
X174508476Y-121612819D02*
X173937048Y-121612819D01*
X174222762Y-121612819D02*
X174222762Y-120612819D01*
X174222762Y-120612819D02*
X174127524Y-120755676D01*
X174127524Y-120755676D02*
X174032286Y-120850914D01*
X174032286Y-120850914D02*
X173937048Y-120898533D01*
X175460857Y-121612819D02*
X174889429Y-121612819D01*
X175175143Y-121612819D02*
X175175143Y-120612819D01*
X175175143Y-120612819D02*
X175079905Y-120755676D01*
X175079905Y-120755676D02*
X174984667Y-120850914D01*
X174984667Y-120850914D02*
X174889429Y-120898533D01*
X128532095Y-103797819D02*
X129103523Y-103797819D01*
X128817809Y-104797819D02*
X128817809Y-103797819D01*
X129436857Y-104797819D02*
X129436857Y-103797819D01*
X129436857Y-103797819D02*
X129817809Y-103797819D01*
X129817809Y-103797819D02*
X129913047Y-103845438D01*
X129913047Y-103845438D02*
X129960666Y-103893057D01*
X129960666Y-103893057D02*
X130008285Y-103988295D01*
X130008285Y-103988295D02*
X130008285Y-104131152D01*
X130008285Y-104131152D02*
X129960666Y-104226390D01*
X129960666Y-104226390D02*
X129913047Y-104274009D01*
X129913047Y-104274009D02*
X129817809Y-104321628D01*
X129817809Y-104321628D02*
X129436857Y-104321628D01*
X130960666Y-104797819D02*
X130389238Y-104797819D01*
X130674952Y-104797819D02*
X130674952Y-103797819D01*
X130674952Y-103797819D02*
X130579714Y-103940676D01*
X130579714Y-103940676D02*
X130484476Y-104035914D01*
X130484476Y-104035914D02*
X130389238Y-104083533D01*
X117689333Y-109801819D02*
X117356000Y-109325628D01*
X117117905Y-109801819D02*
X117117905Y-108801819D01*
X117117905Y-108801819D02*
X117498857Y-108801819D01*
X117498857Y-108801819D02*
X117594095Y-108849438D01*
X117594095Y-108849438D02*
X117641714Y-108897057D01*
X117641714Y-108897057D02*
X117689333Y-108992295D01*
X117689333Y-108992295D02*
X117689333Y-109135152D01*
X117689333Y-109135152D02*
X117641714Y-109230390D01*
X117641714Y-109230390D02*
X117594095Y-109278009D01*
X117594095Y-109278009D02*
X117498857Y-109325628D01*
X117498857Y-109325628D02*
X117117905Y-109325628D01*
X118070286Y-108897057D02*
X118117905Y-108849438D01*
X118117905Y-108849438D02*
X118213143Y-108801819D01*
X118213143Y-108801819D02*
X118451238Y-108801819D01*
X118451238Y-108801819D02*
X118546476Y-108849438D01*
X118546476Y-108849438D02*
X118594095Y-108897057D01*
X118594095Y-108897057D02*
X118641714Y-108992295D01*
X118641714Y-108992295D02*
X118641714Y-109087533D01*
X118641714Y-109087533D02*
X118594095Y-109230390D01*
X118594095Y-109230390D02*
X118022667Y-109801819D01*
X118022667Y-109801819D02*
X118641714Y-109801819D01*
X158265666Y-78829819D02*
X158265666Y-79544104D01*
X158265666Y-79544104D02*
X158218047Y-79686961D01*
X158218047Y-79686961D02*
X158122809Y-79782200D01*
X158122809Y-79782200D02*
X157979952Y-79829819D01*
X157979952Y-79829819D02*
X157884714Y-79829819D01*
X158646619Y-78829819D02*
X159265666Y-78829819D01*
X159265666Y-78829819D02*
X158932333Y-79210771D01*
X158932333Y-79210771D02*
X159075190Y-79210771D01*
X159075190Y-79210771D02*
X159170428Y-79258390D01*
X159170428Y-79258390D02*
X159218047Y-79306009D01*
X159218047Y-79306009D02*
X159265666Y-79401247D01*
X159265666Y-79401247D02*
X159265666Y-79639342D01*
X159265666Y-79639342D02*
X159218047Y-79734580D01*
X159218047Y-79734580D02*
X159170428Y-79782200D01*
X159170428Y-79782200D02*
X159075190Y-79829819D01*
X159075190Y-79829819D02*
X158789476Y-79829819D01*
X158789476Y-79829819D02*
X158694238Y-79782200D01*
X158694238Y-79782200D02*
X158646619Y-79734580D01*
X175160819Y-118736857D02*
X174684628Y-119070190D01*
X175160819Y-119308285D02*
X174160819Y-119308285D01*
X174160819Y-119308285D02*
X174160819Y-118927333D01*
X174160819Y-118927333D02*
X174208438Y-118832095D01*
X174208438Y-118832095D02*
X174256057Y-118784476D01*
X174256057Y-118784476D02*
X174351295Y-118736857D01*
X174351295Y-118736857D02*
X174494152Y-118736857D01*
X174494152Y-118736857D02*
X174589390Y-118784476D01*
X174589390Y-118784476D02*
X174637009Y-118832095D01*
X174637009Y-118832095D02*
X174684628Y-118927333D01*
X174684628Y-118927333D02*
X174684628Y-119308285D01*
X175160819Y-117784476D02*
X175160819Y-118355904D01*
X175160819Y-118070190D02*
X174160819Y-118070190D01*
X174160819Y-118070190D02*
X174303676Y-118165428D01*
X174303676Y-118165428D02*
X174398914Y-118260666D01*
X174398914Y-118260666D02*
X174446533Y-118355904D01*
X175160819Y-116832095D02*
X175160819Y-117403523D01*
X175160819Y-117117809D02*
X174160819Y-117117809D01*
X174160819Y-117117809D02*
X174303676Y-117213047D01*
X174303676Y-117213047D02*
X174398914Y-117308285D01*
X174398914Y-117308285D02*
X174446533Y-117403523D01*
X165443819Y-99318904D02*
X165443819Y-98747476D01*
X166443819Y-99033190D02*
X165443819Y-99033190D01*
X166443819Y-98414142D02*
X165443819Y-98414142D01*
X165443819Y-98414142D02*
X165443819Y-98033190D01*
X165443819Y-98033190D02*
X165491438Y-97937952D01*
X165491438Y-97937952D02*
X165539057Y-97890333D01*
X165539057Y-97890333D02*
X165634295Y-97842714D01*
X165634295Y-97842714D02*
X165777152Y-97842714D01*
X165777152Y-97842714D02*
X165872390Y-97890333D01*
X165872390Y-97890333D02*
X165920009Y-97937952D01*
X165920009Y-97937952D02*
X165967628Y-98033190D01*
X165967628Y-98033190D02*
X165967628Y-98414142D01*
X165443819Y-97509380D02*
X165443819Y-96842714D01*
X165443819Y-96842714D02*
X166443819Y-97271285D01*
X160938819Y-118276666D02*
X160462628Y-118609999D01*
X160938819Y-118848094D02*
X159938819Y-118848094D01*
X159938819Y-118848094D02*
X159938819Y-118467142D01*
X159938819Y-118467142D02*
X159986438Y-118371904D01*
X159986438Y-118371904D02*
X160034057Y-118324285D01*
X160034057Y-118324285D02*
X160129295Y-118276666D01*
X160129295Y-118276666D02*
X160272152Y-118276666D01*
X160272152Y-118276666D02*
X160367390Y-118324285D01*
X160367390Y-118324285D02*
X160415009Y-118371904D01*
X160415009Y-118371904D02*
X160462628Y-118467142D01*
X160462628Y-118467142D02*
X160462628Y-118848094D01*
X159938819Y-117943332D02*
X159938819Y-117276666D01*
X159938819Y-117276666D02*
X160938819Y-117705237D01*
X116437580Y-94749857D02*
X116485200Y-94797476D01*
X116485200Y-94797476D02*
X116532819Y-94940333D01*
X116532819Y-94940333D02*
X116532819Y-95035571D01*
X116532819Y-95035571D02*
X116485200Y-95178428D01*
X116485200Y-95178428D02*
X116389961Y-95273666D01*
X116389961Y-95273666D02*
X116294723Y-95321285D01*
X116294723Y-95321285D02*
X116104247Y-95368904D01*
X116104247Y-95368904D02*
X115961390Y-95368904D01*
X115961390Y-95368904D02*
X115770914Y-95321285D01*
X115770914Y-95321285D02*
X115675676Y-95273666D01*
X115675676Y-95273666D02*
X115580438Y-95178428D01*
X115580438Y-95178428D02*
X115532819Y-95035571D01*
X115532819Y-95035571D02*
X115532819Y-94940333D01*
X115532819Y-94940333D02*
X115580438Y-94797476D01*
X115580438Y-94797476D02*
X115628057Y-94749857D01*
X116532819Y-93797476D02*
X116532819Y-94368904D01*
X116532819Y-94083190D02*
X115532819Y-94083190D01*
X115532819Y-94083190D02*
X115675676Y-94178428D01*
X115675676Y-94178428D02*
X115770914Y-94273666D01*
X115770914Y-94273666D02*
X115818533Y-94368904D01*
X115866152Y-92940333D02*
X116532819Y-92940333D01*
X115485200Y-93178428D02*
X116199485Y-93416523D01*
X116199485Y-93416523D02*
X116199485Y-92797476D01*
X142650333Y-89513580D02*
X142602714Y-89561200D01*
X142602714Y-89561200D02*
X142459857Y-89608819D01*
X142459857Y-89608819D02*
X142364619Y-89608819D01*
X142364619Y-89608819D02*
X142221762Y-89561200D01*
X142221762Y-89561200D02*
X142126524Y-89465961D01*
X142126524Y-89465961D02*
X142078905Y-89370723D01*
X142078905Y-89370723D02*
X142031286Y-89180247D01*
X142031286Y-89180247D02*
X142031286Y-89037390D01*
X142031286Y-89037390D02*
X142078905Y-88846914D01*
X142078905Y-88846914D02*
X142126524Y-88751676D01*
X142126524Y-88751676D02*
X142221762Y-88656438D01*
X142221762Y-88656438D02*
X142364619Y-88608819D01*
X142364619Y-88608819D02*
X142459857Y-88608819D01*
X142459857Y-88608819D02*
X142602714Y-88656438D01*
X142602714Y-88656438D02*
X142650333Y-88704057D01*
X142983667Y-88608819D02*
X143602714Y-88608819D01*
X143602714Y-88608819D02*
X143269381Y-88989771D01*
X143269381Y-88989771D02*
X143412238Y-88989771D01*
X143412238Y-88989771D02*
X143507476Y-89037390D01*
X143507476Y-89037390D02*
X143555095Y-89085009D01*
X143555095Y-89085009D02*
X143602714Y-89180247D01*
X143602714Y-89180247D02*
X143602714Y-89418342D01*
X143602714Y-89418342D02*
X143555095Y-89513580D01*
X143555095Y-89513580D02*
X143507476Y-89561200D01*
X143507476Y-89561200D02*
X143412238Y-89608819D01*
X143412238Y-89608819D02*
X143126524Y-89608819D01*
X143126524Y-89608819D02*
X143031286Y-89561200D01*
X143031286Y-89561200D02*
X142983667Y-89513580D01*
D14*
%TO.C,R8*%
X162869000Y-114072936D02*
X162869000Y-114527064D01*
X161399000Y-114072936D02*
X161399000Y-114527064D01*
D15*
%TO.C,IC5*%
X118817000Y-87879000D02*
G75*
G03*
X118817000Y-87879000I-125000J0D01*
G01*
D14*
%TO.C,R14*%
X117038936Y-112041000D02*
X117493064Y-112041000D01*
X117038936Y-113511000D02*
X117493064Y-113511000D01*
%TO.C,R15*%
X119070936Y-119915000D02*
X119525064Y-119915000D01*
X119070936Y-121385000D02*
X119525064Y-121385000D01*
%TO.C,R10*%
X167494936Y-120423000D02*
X167949064Y-120423000D01*
X167494936Y-121893000D02*
X167949064Y-121893000D01*
%TO.C,C18*%
X120853252Y-90524000D02*
X120330748Y-90524000D01*
X120853252Y-89054000D02*
X120330748Y-89054000D01*
%TO.C,TP12*%
X121646000Y-119950000D02*
X123046000Y-119950000D01*
X121646000Y-121350000D02*
X121646000Y-119950000D01*
X123046000Y-119950000D02*
X123046000Y-121350000D01*
X123046000Y-121350000D02*
X121646000Y-121350000D01*
%TO.C,C19*%
X166400000Y-89517752D02*
X166400000Y-88995248D01*
X167870000Y-89517752D02*
X167870000Y-88995248D01*
%TO.C,C5*%
X145838000Y-96026248D02*
X145838000Y-96548752D01*
X144368000Y-96026248D02*
X144368000Y-96548752D01*
D12*
%TO.C,IC1*%
X132429000Y-89180000D02*
X134134000Y-89180000D01*
X134484000Y-88880000D02*
X139074000Y-88880000D01*
X134484000Y-99080000D02*
X134484000Y-88880000D01*
X139074000Y-88880000D02*
X139074000Y-99080000D01*
X139074000Y-99080000D02*
X134484000Y-99080000D01*
D14*
%TO.C,TP8*%
X113092000Y-100141000D02*
X113092000Y-98741000D01*
X114492000Y-100141000D02*
X113092000Y-100141000D01*
X113092000Y-98741000D02*
X114492000Y-98741000D01*
X114492000Y-98741000D02*
X114492000Y-100141000D01*
%TO.C,C8*%
X158723000Y-107266748D02*
X158723000Y-107789252D01*
X157253000Y-107266748D02*
X157253000Y-107789252D01*
%TO.C,C15*%
X170321248Y-97322000D02*
X170843752Y-97322000D01*
X170321248Y-98792000D02*
X170843752Y-98792000D01*
%TO.C,R9*%
X164954936Y-112549000D02*
X165409064Y-112549000D01*
X164954936Y-114019000D02*
X165409064Y-114019000D01*
%TO.C,R16*%
X125621000Y-117374936D02*
X125621000Y-117829064D01*
X124151000Y-117374936D02*
X124151000Y-117829064D01*
%TO.C,C12*%
X140091000Y-111498252D02*
X140091000Y-110975748D01*
X141561000Y-111498252D02*
X141561000Y-110975748D01*
%TO.C,TP9*%
X154666000Y-115886000D02*
X156066000Y-115886000D01*
X154666000Y-117286000D02*
X154666000Y-115886000D01*
X156066000Y-115886000D02*
X156066000Y-117286000D01*
X156066000Y-117286000D02*
X154666000Y-117286000D01*
%TO.C,C23*%
X168651748Y-84965500D02*
X169174252Y-84965500D01*
X168651748Y-86435500D02*
X169174252Y-86435500D01*
%TO.C,TP6*%
X122493000Y-105608500D02*
X121093000Y-105608500D01*
X122493000Y-104208500D02*
X122493000Y-105608500D01*
X121093000Y-105608500D02*
X121093000Y-104208500D01*
X121093000Y-104208500D02*
X122493000Y-104208500D01*
%TO.C,C6*%
X143552000Y-96026248D02*
X143552000Y-96548752D01*
X142082000Y-96026248D02*
X142082000Y-96548752D01*
%TO.C,C28*%
X124151000Y-113799252D02*
X124151000Y-113276748D01*
X125621000Y-113799252D02*
X125621000Y-113276748D01*
%TO.C,J2*%
X125837000Y-123638000D02*
X110537000Y-123638000D01*
X125837000Y-123638000D02*
X125837000Y-126298000D01*
X110537000Y-123638000D02*
X110537000Y-126298000D01*
X128437000Y-124968000D02*
X128437000Y-126298000D01*
X128437000Y-126298000D02*
X127107000Y-126298000D01*
X125837000Y-126298000D02*
X110537000Y-126298000D01*
D15*
%TO.C,IC4*%
X171480000Y-88858500D02*
G75*
G03*
X171480000Y-88858500I-125000J0D01*
G01*
D14*
%TO.C,C7*%
X146077000Y-109567252D02*
X146077000Y-109044748D01*
X147547000Y-109567252D02*
X147547000Y-109044748D01*
%TO.C,R1*%
X169825936Y-107990000D02*
X170280064Y-107990000D01*
X169825936Y-109460000D02*
X170280064Y-109460000D01*
%TO.C,C20*%
X169194000Y-89517752D02*
X169194000Y-88995248D01*
X170664000Y-89517752D02*
X170664000Y-88995248D01*
%TO.C,C10*%
X128915000Y-109212252D02*
X128915000Y-108689748D01*
X130385000Y-109212252D02*
X130385000Y-108689748D01*
%TO.C,J1*%
X106874000Y-90297000D02*
X106874000Y-105597000D01*
X106874000Y-90297000D02*
X109534000Y-90297000D01*
X106874000Y-105597000D02*
X109534000Y-105597000D01*
X108204000Y-87697000D02*
X109534000Y-87697000D01*
X109534000Y-87697000D02*
X109534000Y-89027000D01*
X109534000Y-90297000D02*
X109534000Y-105597000D01*
%TO.C,TP2*%
X147382000Y-113727000D02*
X148782000Y-113727000D01*
X147382000Y-115127000D02*
X147382000Y-113727000D01*
X148782000Y-113727000D02*
X148782000Y-115127000D01*
X148782000Y-115127000D02*
X147382000Y-115127000D01*
D16*
%TO.C,U1*%
X162879000Y-85344000D02*
X162879000Y-103124000D01*
X126619000Y-85344000D02*
X162879000Y-85344000D01*
X162879000Y-103124000D02*
X126619000Y-103124000D01*
X126619000Y-103124000D02*
X126619000Y-85344000D01*
D14*
%TO.C,C9*%
X157253000Y-111853252D02*
X157253000Y-111330748D01*
X158723000Y-111853252D02*
X158723000Y-111330748D01*
%TO.C,R12*%
X113483000Y-117575064D02*
X113483000Y-117120936D01*
X114953000Y-117575064D02*
X114953000Y-117120936D01*
%TO.C,C2*%
X130106000Y-93085752D02*
X130106000Y-92563248D01*
X131576000Y-93085752D02*
X131576000Y-92563248D01*
%TO.C,TP4*%
X174563000Y-106885000D02*
X173163000Y-106885000D01*
X174563000Y-105485000D02*
X174563000Y-106885000D01*
X173163000Y-106885000D02*
X173163000Y-105485000D01*
X173163000Y-105485000D02*
X174563000Y-105485000D01*
D12*
%TO.C,IC7*%
X131907000Y-117689000D02*
X133432000Y-117689000D01*
D14*
%TO.C,TP5*%
X113219000Y-104208500D02*
X114619000Y-104208500D01*
X113219000Y-105608500D02*
X113219000Y-104208500D01*
X114619000Y-104208500D02*
X114619000Y-105608500D01*
X114619000Y-105608500D02*
X113219000Y-105608500D01*
%TO.C,C13*%
X170321248Y-94528000D02*
X170843752Y-94528000D01*
X170321248Y-95998000D02*
X170843752Y-95998000D01*
%TO.C,TP3*%
X165289000Y-105485000D02*
X166689000Y-105485000D01*
X165289000Y-106885000D02*
X165289000Y-105485000D01*
X166689000Y-105485000D02*
X166689000Y-106885000D01*
X166689000Y-106885000D02*
X165289000Y-106885000D01*
%TO.C,C22*%
X116555000Y-88780252D02*
X116555000Y-88257748D01*
X118025000Y-88780252D02*
X118025000Y-88257748D01*
%TO.C,R3*%
X148481000Y-120946936D02*
X148481000Y-121401064D01*
X147011000Y-120946936D02*
X147011000Y-121401064D01*
%TO.C,C27*%
X115495252Y-121385000D02*
X114972748Y-121385000D01*
X115495252Y-119915000D02*
X114972748Y-119915000D01*
D12*
%TO.C,IC2*%
X148725000Y-106456000D02*
X150200000Y-106456000D01*
X150550000Y-106806000D02*
X154250000Y-106806000D01*
X150550000Y-111806000D02*
X150550000Y-106806000D01*
X154250000Y-106806000D02*
X154250000Y-111806000D01*
X154250000Y-111806000D02*
X150550000Y-111806000D01*
%TO.C,U3*%
X115356000Y-105395001D02*
X115356000Y-101194999D01*
X120356000Y-102995001D02*
X120356000Y-101194999D01*
D14*
%TO.C,J4*%
X165548000Y-80451000D02*
X165548000Y-79121000D01*
X166878000Y-80451000D02*
X165548000Y-80451000D01*
X168148000Y-80451000D02*
X170748000Y-80451000D01*
X168148000Y-80451000D02*
X168148000Y-77791000D01*
X170748000Y-80451000D02*
X170748000Y-77791000D01*
X168148000Y-77791000D02*
X170748000Y-77791000D01*
%TO.C,C24*%
X115758748Y-83974000D02*
X116281252Y-83974000D01*
X115758748Y-85444000D02*
X116281252Y-85444000D01*
%TO.C,C21*%
X113761000Y-88780252D02*
X113761000Y-88257748D01*
X115231000Y-88780252D02*
X115231000Y-88257748D01*
%TO.C,C17*%
X173492252Y-91261500D02*
X172969748Y-91261500D01*
X173492252Y-89791500D02*
X172969748Y-89791500D01*
D12*
%TO.C,U2*%
X167426000Y-106665001D02*
X167426000Y-102464999D01*
X172426000Y-104265001D02*
X172426000Y-102464999D01*
D14*
%TO.C,R5*%
X131119000Y-120660936D02*
X131119000Y-121115064D01*
X129649000Y-120660936D02*
X129649000Y-121115064D01*
D12*
%TO.C,IC3*%
X131453000Y-106202000D02*
X132928000Y-106202000D01*
X133278000Y-106552000D02*
X136978000Y-106552000D01*
X133278000Y-111552000D02*
X133278000Y-106552000D01*
X136978000Y-106552000D02*
X136978000Y-111552000D01*
X136978000Y-111552000D02*
X133278000Y-111552000D01*
%TO.C,IC9*%
X116159000Y-114133000D02*
X117684000Y-114133000D01*
D14*
%TO.C,R4*%
X151852936Y-115851000D02*
X152307064Y-115851000D01*
X151852936Y-117321000D02*
X152307064Y-117321000D01*
%TO.C,C25*%
X163665252Y-121893000D02*
X163142748Y-121893000D01*
X163665252Y-120423000D02*
X163142748Y-120423000D01*
%TO.C,C4*%
X144368000Y-91976752D02*
X144368000Y-91454248D01*
X145838000Y-91976752D02*
X145838000Y-91454248D01*
%TO.C,C26*%
X172321000Y-114285752D02*
X172321000Y-113763248D01*
X173791000Y-114285752D02*
X173791000Y-113763248D01*
D12*
%TO.C,IC6*%
X149179000Y-117943000D02*
X150704000Y-117943000D01*
D14*
%TO.C,C11*%
X141561000Y-106911748D02*
X141561000Y-107434252D01*
X140091000Y-106911748D02*
X140091000Y-107434252D01*
%TO.C,R6*%
X134220936Y-115597000D02*
X134675064Y-115597000D01*
X134220936Y-117067000D02*
X134675064Y-117067000D01*
%TO.C,TP10*%
X137304000Y-115632000D02*
X138704000Y-115632000D01*
X137304000Y-117032000D02*
X137304000Y-115632000D01*
X138704000Y-115632000D02*
X138704000Y-117032000D01*
X138704000Y-117032000D02*
X137304000Y-117032000D01*
D12*
%TO.C,IC8*%
X164165000Y-114641000D02*
X165690000Y-114641000D01*
D14*
%TO.C,C1*%
X127858000Y-93064252D02*
X127858000Y-92541748D01*
X129328000Y-93064252D02*
X129328000Y-92541748D01*
%TO.C,C16*%
X118356748Y-96166000D02*
X118879252Y-96166000D01*
X118356748Y-97636000D02*
X118879252Y-97636000D01*
%TO.C,R13*%
X114953000Y-113310936D02*
X114953000Y-113765064D01*
X113483000Y-113310936D02*
X113483000Y-113765064D01*
%TO.C,TP11*%
X170070000Y-120458000D02*
X171470000Y-120458000D01*
X170070000Y-121858000D02*
X170070000Y-120458000D01*
X171470000Y-120458000D02*
X171470000Y-121858000D01*
X171470000Y-121858000D02*
X170070000Y-121858000D01*
%TO.C,TP1*%
X129094000Y-105091000D02*
X130494000Y-105091000D01*
X129094000Y-106491000D02*
X129094000Y-105091000D01*
X130494000Y-105091000D02*
X130494000Y-106491000D01*
X130494000Y-106491000D02*
X129094000Y-106491000D01*
%TO.C,R2*%
X117644936Y-106834000D02*
X118099064Y-106834000D01*
X117644936Y-108304000D02*
X118099064Y-108304000D01*
%TO.C,J3*%
X154559000Y-78045000D02*
X139259000Y-78045000D01*
X154559000Y-78045000D02*
X154559000Y-80705000D01*
X139259000Y-78045000D02*
X139259000Y-80705000D01*
X157159000Y-79375000D02*
X157159000Y-80705000D01*
X157159000Y-80705000D02*
X155829000Y-80705000D01*
X154559000Y-80705000D02*
X139259000Y-80705000D01*
%TO.C,R11*%
X173791000Y-117866936D02*
X173791000Y-118321064D01*
X172321000Y-117866936D02*
X172321000Y-118321064D01*
%TO.C,TP7*%
X165289000Y-101551000D02*
X165289000Y-100151000D01*
X166689000Y-101551000D02*
X165289000Y-101551000D01*
X165289000Y-100151000D02*
X166689000Y-100151000D01*
X166689000Y-100151000D02*
X166689000Y-101551000D01*
%TO.C,R7*%
X161399000Y-118337064D02*
X161399000Y-117882936D01*
X162869000Y-118337064D02*
X162869000Y-117882936D01*
%TO.C,C14*%
X118356748Y-93372000D02*
X118879252Y-93372000D01*
X118356748Y-94842000D02*
X118879252Y-94842000D01*
%TO.C,C3*%
X142082000Y-91976752D02*
X142082000Y-91454248D01*
X143552000Y-91976752D02*
X143552000Y-91454248D01*
%TD*%
M02*
