%TF.GenerationSoftware,KiCad,Pcbnew,7.0.6-0*%
%TF.CreationDate,2024-01-17T10:18:31-05:00*%
%TF.ProjectId,channels1,6368616e-6e65-46c7-9331-2e6b69636164,rev?*%
%TF.SameCoordinates,Original*%
%TF.FileFunction,Soldermask,Top*%
%TF.FilePolarity,Negative*%
%FSLAX46Y46*%
G04 Gerber Fmt 4.6, Leading zero omitted, Abs format (unit mm)*
G04 Created by KiCad (PCBNEW 7.0.6-0) date 2024-01-17 10:18:31*
%MOMM*%
%LPD*%
G01*
G04 APERTURE LIST*
G04 Aperture macros list*
%AMRoundRect*
0 Rectangle with rounded corners*
0 $1 Rounding radius*
0 $2 $3 $4 $5 $6 $7 $8 $9 X,Y pos of 4 corners*
0 Add a 4 corners polygon primitive as box body*
4,1,4,$2,$3,$4,$5,$6,$7,$8,$9,$2,$3,0*
0 Add four circle primitives for the rounded corners*
1,1,$1+$1,$2,$3*
1,1,$1+$1,$4,$5*
1,1,$1+$1,$6,$7*
1,1,$1+$1,$8,$9*
0 Add four rect primitives between the rounded corners*
20,1,$1+$1,$2,$3,$4,$5,0*
20,1,$1+$1,$4,$5,$6,$7,0*
20,1,$1+$1,$6,$7,$8,$9,0*
20,1,$1+$1,$8,$9,$2,$3,0*%
G04 Aperture macros list end*
%ADD10RoundRect,0.250000X-0.450000X0.350000X-0.450000X-0.350000X0.450000X-0.350000X0.450000X0.350000X0*%
%ADD11R,0.300000X0.800000*%
%ADD12R,2.600000X1.800000*%
%ADD13RoundRect,0.250000X-0.350000X-0.450000X0.350000X-0.450000X0.350000X0.450000X-0.350000X0.450000X0*%
%ADD14RoundRect,0.250000X0.337500X0.475000X-0.337500X0.475000X-0.337500X-0.475000X0.337500X-0.475000X0*%
%ADD15R,1.000000X1.000000*%
%ADD16RoundRect,0.250000X0.475000X-0.337500X0.475000X0.337500X-0.475000X0.337500X-0.475000X-0.337500X0*%
%ADD17RoundRect,0.250000X-0.475000X0.337500X-0.475000X-0.337500X0.475000X-0.337500X0.475000X0.337500X0*%
%ADD18R,1.705000X0.450000*%
%ADD19RoundRect,0.250000X-0.337500X-0.475000X0.337500X-0.475000X0.337500X0.475000X-0.337500X0.475000X0*%
%ADD20R,1.700000X1.700000*%
%ADD21O,1.700000X1.700000*%
%ADD22C,1.530000*%
%ADD23RoundRect,0.250000X0.450000X-0.350000X0.450000X0.350000X-0.450000X0.350000X-0.450000X-0.350000X0*%
%ADD24R,1.525000X0.650000*%
%ADD25R,2.600000X3.100000*%
%ADD26R,1.475000X0.450000*%
%ADD27O,0.599999X2.200001*%
G04 APERTURE END LIST*
D10*
%TO.C,R8*%
X162134000Y-113300000D03*
X162134000Y-115300000D03*
%TD*%
D11*
%TO.C,IC5*%
X119342000Y-87479000D03*
X119842000Y-87479000D03*
X120342000Y-87479000D03*
X120842000Y-87479000D03*
X121342000Y-87479000D03*
X121842000Y-87479000D03*
X121842000Y-84479000D03*
X121342000Y-84479000D03*
X120842000Y-84479000D03*
X120342000Y-84479000D03*
X119842000Y-84479000D03*
X119342000Y-84479000D03*
D12*
X120592000Y-85979000D03*
%TD*%
D13*
%TO.C,R14*%
X116266000Y-112776000D03*
X118266000Y-112776000D03*
%TD*%
%TO.C,R15*%
X118298000Y-120650000D03*
X120298000Y-120650000D03*
%TD*%
%TO.C,R10*%
X166722000Y-121158000D03*
X168722000Y-121158000D03*
%TD*%
D14*
%TO.C,C18*%
X121629500Y-89789000D03*
X119554500Y-89789000D03*
%TD*%
D15*
%TO.C,TP12*%
X122346000Y-120650000D03*
%TD*%
D16*
%TO.C,C19*%
X167135000Y-90294000D03*
X167135000Y-88219000D03*
%TD*%
D17*
%TO.C,C5*%
X145103000Y-95250000D03*
X145103000Y-97325000D03*
%TD*%
D18*
%TO.C,IC1*%
X133281000Y-89755000D03*
X133281000Y-90405000D03*
X133281000Y-91055000D03*
X133281000Y-91705000D03*
X133281000Y-92355000D03*
X133281000Y-93005000D03*
X133281000Y-93655000D03*
X133281000Y-94305000D03*
X133281000Y-94955000D03*
X133281000Y-95605000D03*
X133281000Y-96255000D03*
X133281000Y-96905000D03*
X133281000Y-97555000D03*
X133281000Y-98205000D03*
X140277000Y-98205000D03*
X140277000Y-97555000D03*
X140277000Y-96905000D03*
X140277000Y-96255000D03*
X140277000Y-95605000D03*
X140277000Y-94955000D03*
X140277000Y-94305000D03*
X140277000Y-93655000D03*
X140277000Y-93005000D03*
X140277000Y-92355000D03*
X140277000Y-91705000D03*
X140277000Y-91055000D03*
X140277000Y-90405000D03*
X140277000Y-89755000D03*
%TD*%
D15*
%TO.C,TP8*%
X113792000Y-99441000D03*
%TD*%
D17*
%TO.C,C8*%
X157988000Y-106490500D03*
X157988000Y-108565500D03*
%TD*%
D19*
%TO.C,C15*%
X169545000Y-98057000D03*
X171620000Y-98057000D03*
%TD*%
D13*
%TO.C,R9*%
X164182000Y-113284000D03*
X166182000Y-113284000D03*
%TD*%
D10*
%TO.C,R16*%
X124886000Y-116602000D03*
X124886000Y-118602000D03*
%TD*%
D16*
%TO.C,C12*%
X140826000Y-112274500D03*
X140826000Y-110199500D03*
%TD*%
D15*
%TO.C,TP9*%
X155366000Y-116586000D03*
%TD*%
D19*
%TO.C,C23*%
X167875500Y-85700500D03*
X169950500Y-85700500D03*
%TD*%
D15*
%TO.C,TP6*%
X121793000Y-104908500D03*
%TD*%
D17*
%TO.C,C6*%
X142817000Y-95250000D03*
X142817000Y-97325000D03*
%TD*%
D16*
%TO.C,C28*%
X124886000Y-114575500D03*
X124886000Y-112500500D03*
%TD*%
D20*
%TO.C,J2*%
X127107000Y-124968000D03*
D21*
X124567000Y-124968000D03*
X122027000Y-124968000D03*
X119487000Y-124968000D03*
X116947000Y-124968000D03*
X114407000Y-124968000D03*
X111867000Y-124968000D03*
%TD*%
D11*
%TO.C,IC4*%
X172005000Y-88458500D03*
X172505000Y-88458500D03*
X173005000Y-88458500D03*
X173505000Y-88458500D03*
X174005000Y-88458500D03*
X174505000Y-88458500D03*
X174505000Y-85458500D03*
X174005000Y-85458500D03*
X173505000Y-85458500D03*
X173005000Y-85458500D03*
X172505000Y-85458500D03*
X172005000Y-85458500D03*
D12*
X173255000Y-86958500D03*
%TD*%
D16*
%TO.C,C7*%
X146812000Y-110343500D03*
X146812000Y-108268500D03*
%TD*%
D13*
%TO.C,R1*%
X169053000Y-108725000D03*
X171053000Y-108725000D03*
%TD*%
D16*
%TO.C,C20*%
X169929000Y-90294000D03*
X169929000Y-88219000D03*
%TD*%
%TO.C,C10*%
X129650000Y-109988500D03*
X129650000Y-107913500D03*
%TD*%
D20*
%TO.C,J1*%
X108204000Y-89027000D03*
D21*
X108204000Y-91567000D03*
X108204000Y-94107000D03*
X108204000Y-96647000D03*
X108204000Y-99187000D03*
X108204000Y-101727000D03*
X108204000Y-104267000D03*
%TD*%
D15*
%TO.C,TP2*%
X148082000Y-114427000D03*
%TD*%
D22*
%TO.C,U1*%
X158369000Y-86614000D03*
X155829000Y-86614000D03*
X153289000Y-86614000D03*
X150749000Y-86614000D03*
X155829000Y-101854000D03*
X148209000Y-86614000D03*
X145669000Y-86614000D03*
X143129000Y-86614000D03*
X140589000Y-86614000D03*
X138049000Y-86614000D03*
X135509000Y-86614000D03*
X132969000Y-86614000D03*
X130429000Y-86614000D03*
X127889000Y-86614000D03*
X127889000Y-101854000D03*
X130429000Y-101854000D03*
X132969000Y-101854000D03*
X135509000Y-101854000D03*
X138049000Y-101854000D03*
X140589000Y-101854000D03*
X143129000Y-101854000D03*
X145669000Y-101854000D03*
X148209000Y-101854000D03*
X150749000Y-101854000D03*
X153289000Y-101854000D03*
X160909000Y-86614000D03*
X158369000Y-101854000D03*
X160909000Y-101854000D03*
%TD*%
D16*
%TO.C,C9*%
X157988000Y-112629500D03*
X157988000Y-110554500D03*
%TD*%
D23*
%TO.C,R12*%
X114218000Y-118348000D03*
X114218000Y-116348000D03*
%TD*%
D16*
%TO.C,C2*%
X130841000Y-93862000D03*
X130841000Y-91787000D03*
%TD*%
D15*
%TO.C,TP4*%
X173863000Y-106185000D03*
%TD*%
D24*
%TO.C,IC7*%
X132670000Y-118364000D03*
X132670000Y-119634000D03*
X132670000Y-120904000D03*
X132670000Y-122174000D03*
X138094000Y-122174000D03*
X138094000Y-120904000D03*
X138094000Y-119634000D03*
X138094000Y-118364000D03*
D25*
X135382000Y-120269000D03*
%TD*%
D15*
%TO.C,TP5*%
X113919000Y-104908500D03*
%TD*%
D19*
%TO.C,C13*%
X169545000Y-95263000D03*
X171620000Y-95263000D03*
%TD*%
D15*
%TO.C,TP3*%
X165989000Y-106185000D03*
%TD*%
D16*
%TO.C,C22*%
X117290000Y-89556500D03*
X117290000Y-87481500D03*
%TD*%
D10*
%TO.C,R3*%
X147746000Y-120174000D03*
X147746000Y-122174000D03*
%TD*%
D14*
%TO.C,C27*%
X116271500Y-120650000D03*
X114196500Y-120650000D03*
%TD*%
D26*
%TO.C,IC2*%
X149462000Y-107031000D03*
X149462000Y-107681000D03*
X149462000Y-108331000D03*
X149462000Y-108981000D03*
X149462000Y-109631000D03*
X149462000Y-110281000D03*
X149462000Y-110931000D03*
X149462000Y-111581000D03*
X155338000Y-111581000D03*
X155338000Y-110931000D03*
X155338000Y-110281000D03*
X155338000Y-109631000D03*
X155338000Y-108981000D03*
X155338000Y-108331000D03*
X155338000Y-107681000D03*
X155338000Y-107031000D03*
%TD*%
D27*
%TO.C,U3*%
X115951000Y-104495000D03*
X117221000Y-104495000D03*
X118491000Y-104495000D03*
X119761000Y-104495000D03*
X119761000Y-99695000D03*
X118491000Y-99695000D03*
X117221000Y-99695000D03*
X115951000Y-99695000D03*
%TD*%
D20*
%TO.C,J4*%
X166878000Y-79121000D03*
D21*
X169418000Y-79121000D03*
%TD*%
D19*
%TO.C,C24*%
X114982500Y-84709000D03*
X117057500Y-84709000D03*
%TD*%
D16*
%TO.C,C21*%
X114496000Y-89556500D03*
X114496000Y-87481500D03*
%TD*%
D14*
%TO.C,C17*%
X174268500Y-90526500D03*
X172193500Y-90526500D03*
%TD*%
D27*
%TO.C,U2*%
X168021000Y-105765000D03*
X169291000Y-105765000D03*
X170561000Y-105765000D03*
X171831000Y-105765000D03*
X171831000Y-100965000D03*
X170561000Y-100965000D03*
X169291000Y-100965000D03*
X168021000Y-100965000D03*
%TD*%
D10*
%TO.C,R5*%
X130384000Y-119888000D03*
X130384000Y-121888000D03*
%TD*%
D26*
%TO.C,IC3*%
X132190000Y-106777000D03*
X132190000Y-107427000D03*
X132190000Y-108077000D03*
X132190000Y-108727000D03*
X132190000Y-109377000D03*
X132190000Y-110027000D03*
X132190000Y-110677000D03*
X132190000Y-111327000D03*
X138066000Y-111327000D03*
X138066000Y-110677000D03*
X138066000Y-110027000D03*
X138066000Y-109377000D03*
X138066000Y-108727000D03*
X138066000Y-108077000D03*
X138066000Y-107427000D03*
X138066000Y-106777000D03*
%TD*%
D24*
%TO.C,IC9*%
X116922000Y-114808000D03*
X116922000Y-116078000D03*
X116922000Y-117348000D03*
X116922000Y-118618000D03*
X122346000Y-118618000D03*
X122346000Y-117348000D03*
X122346000Y-116078000D03*
X122346000Y-114808000D03*
D25*
X119634000Y-116713000D03*
%TD*%
D13*
%TO.C,R4*%
X151080000Y-116586000D03*
X153080000Y-116586000D03*
%TD*%
D14*
%TO.C,C25*%
X164441500Y-121158000D03*
X162366500Y-121158000D03*
%TD*%
D16*
%TO.C,C4*%
X145103000Y-92753000D03*
X145103000Y-90678000D03*
%TD*%
%TO.C,C26*%
X173056000Y-115062000D03*
X173056000Y-112987000D03*
%TD*%
D24*
%TO.C,IC6*%
X149942000Y-118618000D03*
X149942000Y-119888000D03*
X149942000Y-121158000D03*
X149942000Y-122428000D03*
X155366000Y-122428000D03*
X155366000Y-121158000D03*
X155366000Y-119888000D03*
X155366000Y-118618000D03*
D25*
X152654000Y-120523000D03*
%TD*%
D17*
%TO.C,C11*%
X140826000Y-106135500D03*
X140826000Y-108210500D03*
%TD*%
D13*
%TO.C,R6*%
X133448000Y-116332000D03*
X135448000Y-116332000D03*
%TD*%
D15*
%TO.C,TP10*%
X138004000Y-116332000D03*
%TD*%
D24*
%TO.C,IC8*%
X164928000Y-115316000D03*
X164928000Y-116586000D03*
X164928000Y-117856000D03*
X164928000Y-119126000D03*
X170352000Y-119126000D03*
X170352000Y-117856000D03*
X170352000Y-116586000D03*
X170352000Y-115316000D03*
D25*
X167640000Y-117221000D03*
%TD*%
D16*
%TO.C,C1*%
X128593000Y-93840500D03*
X128593000Y-91765500D03*
%TD*%
D19*
%TO.C,C16*%
X117580500Y-96901000D03*
X119655500Y-96901000D03*
%TD*%
D10*
%TO.C,R13*%
X114218000Y-112538000D03*
X114218000Y-114538000D03*
%TD*%
D15*
%TO.C,TP11*%
X170770000Y-121158000D03*
%TD*%
%TO.C,TP1*%
X129794000Y-105791000D03*
%TD*%
D13*
%TO.C,R2*%
X116872000Y-107569000D03*
X118872000Y-107569000D03*
%TD*%
D20*
%TO.C,J3*%
X155829000Y-79375000D03*
D21*
X153289000Y-79375000D03*
X150749000Y-79375000D03*
X148209000Y-79375000D03*
X145669000Y-79375000D03*
X143129000Y-79375000D03*
X140589000Y-79375000D03*
%TD*%
D10*
%TO.C,R11*%
X173056000Y-117094000D03*
X173056000Y-119094000D03*
%TD*%
D15*
%TO.C,TP7*%
X165989000Y-100851000D03*
%TD*%
D23*
%TO.C,R7*%
X162134000Y-119110000D03*
X162134000Y-117110000D03*
%TD*%
D19*
%TO.C,C14*%
X117580500Y-94107000D03*
X119655500Y-94107000D03*
%TD*%
D16*
%TO.C,C3*%
X142817000Y-92753000D03*
X142817000Y-90678000D03*
%TD*%
M02*
