%TF.GenerationSoftware,KiCad,Pcbnew,7.0.6-0*%
%TF.CreationDate,2024-01-17T10:18:31-05:00*%
%TF.ProjectId,channels1,6368616e-6e65-46c7-9331-2e6b69636164,rev?*%
%TF.SameCoordinates,Original*%
%TF.FileFunction,Soldermask,Bot*%
%TF.FilePolarity,Negative*%
%FSLAX46Y46*%
G04 Gerber Fmt 4.6, Leading zero omitted, Abs format (unit mm)*
G04 Created by KiCad (PCBNEW 7.0.6-0) date 2024-01-17 10:18:31*
%MOMM*%
%LPD*%
G01*
G04 APERTURE LIST*
%ADD10R,1.700000X1.700000*%
%ADD11O,1.700000X1.700000*%
%ADD12C,1.530000*%
G04 APERTURE END LIST*
D10*
%TO.C,J2*%
X127107000Y-124968000D03*
D11*
X124567000Y-124968000D03*
X122027000Y-124968000D03*
X119487000Y-124968000D03*
X116947000Y-124968000D03*
X114407000Y-124968000D03*
X111867000Y-124968000D03*
%TD*%
D10*
%TO.C,J1*%
X108204000Y-89027000D03*
D11*
X108204000Y-91567000D03*
X108204000Y-94107000D03*
X108204000Y-96647000D03*
X108204000Y-99187000D03*
X108204000Y-101727000D03*
X108204000Y-104267000D03*
%TD*%
D12*
%TO.C,U1*%
X158369000Y-86614000D03*
X155829000Y-86614000D03*
X153289000Y-86614000D03*
X150749000Y-86614000D03*
X155829000Y-101854000D03*
X148209000Y-86614000D03*
X145669000Y-86614000D03*
X143129000Y-86614000D03*
X140589000Y-86614000D03*
X138049000Y-86614000D03*
X135509000Y-86614000D03*
X132969000Y-86614000D03*
X130429000Y-86614000D03*
X127889000Y-86614000D03*
X127889000Y-101854000D03*
X130429000Y-101854000D03*
X132969000Y-101854000D03*
X135509000Y-101854000D03*
X138049000Y-101854000D03*
X140589000Y-101854000D03*
X143129000Y-101854000D03*
X145669000Y-101854000D03*
X148209000Y-101854000D03*
X150749000Y-101854000D03*
X153289000Y-101854000D03*
X160909000Y-86614000D03*
X158369000Y-101854000D03*
X160909000Y-101854000D03*
%TD*%
D10*
%TO.C,J4*%
X166878000Y-79121000D03*
D11*
X169418000Y-79121000D03*
%TD*%
D10*
%TO.C,J3*%
X155829000Y-79375000D03*
D11*
X153289000Y-79375000D03*
X150749000Y-79375000D03*
X148209000Y-79375000D03*
X145669000Y-79375000D03*
X143129000Y-79375000D03*
X140589000Y-79375000D03*
%TD*%
M02*
