M48
; DRILL file {KiCad 7.0.6-0} date 2024 January 17, Wednesday 10:18:28
; FORMAT={-:-/ absolute / inch / decimal}
; #@! TF.CreationDate,2024-01-17T10:18:28-05:00
; #@! TF.GenerationSoftware,Kicad,Pcbnew,7.0.6-0
; #@! TF.FileFunction,MixedPlating,1,2
FMAT,2
INCH
; #@! TA.AperFunction,Plated,PTH,ViaDrill
T1C0.0157
; #@! TA.AperFunction,Plated,PTH,ComponentDrill
T2C0.0394
; #@! TA.AperFunction,Plated,PTH,ComponentDrill
T3C0.0402
%
G90
G05
T1
X4.2Y-3.015
X4.2Y-3.065
X4.24Y-3.015
X4.24Y-3.065
X4.4Y-3.22
X4.43Y-4.445
X4.55Y-3.705
X4.61Y-3.22
X4.65Y-3.595
X4.66Y-3.335
X4.71Y-4.045
X4.71Y-4.595
X4.8Y-3.735
X4.81Y-3.615
X4.81Y-3.815
X4.84Y-3.415
X4.84Y-4.465
X4.85Y-3.245
X4.87Y-4.175
X4.9Y-3.325
X4.9Y-3.735
X4.91Y-3.615
X4.92Y-3.475
X4.92Y-3.815
X4.98Y-4.385
X5.01Y-3.565
X5.03Y-4.595
X5.04Y-4.715
X5.06Y-3.505
X5.06Y-4.425
X5.07Y-3.295
X5.14Y-4.435
X5.17Y-3.545
X5.2043Y-4.1494
X5.2043Y-4.4294
X5.32Y-3.685
X5.32Y-4.3318
X5.33Y-4.735
X5.37Y-4.295
X5.4443Y-4.1594
X5.4443Y-4.4294
X5.45Y-3.685
X5.5Y-4.685
X5.61Y-4.365
X5.61Y-4.465
X5.64Y-4.145
X5.72Y-4.735
X5.7502Y-4.0948
X5.76Y-4.405
X5.76Y-4.795
X5.77Y-3.835
X5.78Y-3.755
X5.84Y-3.875
X5.88Y-4.1634
X5.88Y-4.4334
X5.9702Y-4.1048
X5.98Y-3.855
X5.99Y-3.505
X6.0Y-4.3418
X6.0Y-4.485
X6.01Y-4.745
X6.03Y-3.785
X6.04Y-3.505
X6.04Y-4.3132
X6.09Y-3.815
X6.09Y-4.485
X6.12Y-4.1734
X6.12Y-4.4434
X6.1815Y-4.675
X6.26Y-4.525
X6.31Y-4.355
X6.37Y-3.125
X6.51Y-3.755
X6.57Y-3.855
X6.6002Y-4.6152
X6.63Y-3.615
X6.72Y-4.475
X6.74Y-3.375
X6.7602Y-4.4248
X6.765Y-4.085
X6.8Y-3.285
X6.81Y-4.855
X6.81Y-4.895
X6.85Y-4.855
X6.85Y-4.895
X6.86Y-3.245
X6.86Y-3.695
X6.895Y-3.12
X6.895Y-3.16
X6.935Y-3.12
X6.935Y-3.16
T2
X4.26Y-3.505
X4.26Y-3.605
X4.26Y-3.705
X4.26Y-3.805
X4.26Y-3.905
X4.26Y-4.005
X4.26Y-4.105
X4.4042Y-4.92
X4.5042Y-4.92
X4.6042Y-4.92
X4.7042Y-4.92
X4.8042Y-4.92
X4.9042Y-4.92
X5.0042Y-4.92
X5.535Y-3.125
X5.635Y-3.125
X5.735Y-3.125
X5.835Y-3.125
X5.935Y-3.125
X6.035Y-3.125
X6.135Y-3.125
X6.57Y-3.115
X6.67Y-3.115
T3
X5.035Y-3.41
X5.035Y-4.01
X5.135Y-3.41
X5.135Y-4.01
X5.235Y-3.41
X5.235Y-4.01
X5.335Y-3.41
X5.335Y-4.01
X5.435Y-3.41
X5.435Y-4.01
X5.535Y-3.41
X5.535Y-4.01
X5.635Y-3.41
X5.635Y-4.01
X5.735Y-3.41
X5.735Y-4.01
X5.835Y-3.41
X5.835Y-4.01
X5.935Y-3.41
X5.935Y-4.01
X6.035Y-3.41
X6.035Y-4.01
X6.135Y-3.41
X6.135Y-4.01
X6.235Y-3.41
X6.235Y-4.01
X6.335Y-3.41
X6.335Y-4.01
T0
M30
