%TF.GenerationSoftware,KiCad,Pcbnew,7.0.6-0*%
%TF.CreationDate,2024-01-17T10:16:55-05:00*%
%TF.ProjectId,SwitchingV3,53776974-6368-4696-9e67-56332e6b6963,rev?*%
%TF.SameCoordinates,Original*%
%TF.FileFunction,Copper,L3,Inr*%
%TF.FilePolarity,Positive*%
%FSLAX46Y46*%
G04 Gerber Fmt 4.6, Leading zero omitted, Abs format (unit mm)*
G04 Created by KiCad (PCBNEW 7.0.6-0) date 2024-01-17 10:16:55*
%MOMM*%
%LPD*%
G01*
G04 APERTURE LIST*
%TA.AperFunction,ComponentPad*%
%ADD10R,1.700000X1.700000*%
%TD*%
%TA.AperFunction,ComponentPad*%
%ADD11O,1.700000X1.700000*%
%TD*%
%TA.AperFunction,ViaPad*%
%ADD12C,0.800000*%
%TD*%
%TA.AperFunction,Conductor*%
%ADD13C,0.250000*%
%TD*%
G04 APERTURE END LIST*
D10*
%TO.N,E_control*%
%TO.C,J3*%
X99060000Y-89789000D03*
D11*
%TO.N,D_control*%
X99060000Y-92329000D03*
%TO.N,S0*%
X99060000Y-94869000D03*
%TO.N,S1*%
X99060000Y-97409000D03*
%TO.N,S2*%
X99060000Y-99949000D03*
%TO.N,S3*%
X99060000Y-102489000D03*
%TO.N,S*%
X99060000Y-105029000D03*
%TD*%
D10*
%TO.N,e1*%
%TO.C,J4*%
X190246000Y-123698000D03*
D11*
%TO.N,e2*%
X190246000Y-121158000D03*
%TO.N,e3*%
X190246000Y-118618000D03*
%TO.N,e4*%
X190246000Y-116078000D03*
%TO.N,e5*%
X190246000Y-113538000D03*
%TO.N,e6*%
X190246000Y-110998000D03*
%TO.N,e7*%
X190246000Y-108458000D03*
%TO.N,e8*%
X190246000Y-105918000D03*
%TO.N,e9*%
X190246000Y-103378000D03*
%TO.N,e10*%
X190246000Y-100838000D03*
%TO.N,e11*%
X190246000Y-98298000D03*
%TO.N,e12*%
X190246000Y-95758000D03*
%TO.N,e13*%
X190246000Y-93218000D03*
%TO.N,e14*%
X190246000Y-90678000D03*
%TO.N,e15*%
X190246000Y-88138000D03*
%TO.N,e16*%
X190246000Y-85598000D03*
%TD*%
D10*
%TO.N,CSOutput1*%
%TO.C,J2*%
X98781000Y-76180000D03*
D11*
%TO.N,CSOutput2*%
X98781000Y-78720000D03*
%TD*%
D10*
%TO.N,+34V*%
%TO.C,J1*%
X116307000Y-137394000D03*
D11*
%TO.N,-34V*%
X118847000Y-137394000D03*
%TO.N,GND*%
X121387000Y-137394000D03*
%TO.N,+3.3V*%
X123927000Y-137394000D03*
%TD*%
D12*
%TO.N,+34V*%
X143183548Y-128070549D03*
X143420500Y-73533000D03*
X143315451Y-136838451D03*
X143391451Y-83193451D03*
X143274951Y-119779951D03*
X145415000Y-140880500D03*
X143340148Y-110943254D03*
X143342951Y-102194951D03*
X143420500Y-93043451D03*
%TO.N,GND*%
X165608000Y-94615000D03*
X124968000Y-75946000D03*
X119253000Y-71882000D03*
X154305000Y-127635000D03*
X157734000Y-72771000D03*
X171450000Y-120269000D03*
X167132000Y-100076000D03*
X171577000Y-82423000D03*
X114427000Y-97028000D03*
X167513000Y-109474000D03*
X120269000Y-71882000D03*
X120269000Y-73025000D03*
X119253000Y-73025000D03*
X172339000Y-120269000D03*
X154178000Y-118999000D03*
X153924000Y-136017000D03*
X124587000Y-92202000D03*
X172593000Y-137160000D03*
%TO.N,-34V*%
X146566077Y-110861173D03*
X145542000Y-139700000D03*
X146481549Y-136855451D03*
X146430500Y-127762000D03*
X146520500Y-83032451D03*
X146520500Y-92830964D03*
X146556250Y-119809451D03*
X146520500Y-101854000D03*
X146520500Y-73966951D03*
%TO.N,+3.3V*%
X155194000Y-117094000D03*
X136779000Y-73279000D03*
X155194000Y-125984000D03*
X124370500Y-118237000D03*
X103378000Y-90805000D03*
X155194000Y-135255000D03*
X155321000Y-70485000D03*
X135128000Y-80010000D03*
X155388800Y-84268800D03*
X155321000Y-89535000D03*
X135128000Y-135255000D03*
X137160000Y-136017000D03*
X135255000Y-98933000D03*
X137287000Y-101092000D03*
X137414000Y-92202000D03*
X137414000Y-109982000D03*
X175895000Y-117983000D03*
X137414000Y-82423000D03*
X135128000Y-89662000D03*
X155261800Y-112843800D03*
X177673000Y-79629000D03*
X155194000Y-121793000D03*
X155284498Y-75819000D03*
X155194000Y-139827000D03*
X137033000Y-118745000D03*
X155194000Y-98806000D03*
X124936500Y-82169000D03*
X137287000Y-127254000D03*
X135509000Y-116877500D03*
X155261800Y-103572800D03*
X155194000Y-130556000D03*
X155261800Y-94555800D03*
X135001000Y-126619000D03*
X155194000Y-107950000D03*
X155304498Y-80480500D03*
X135001000Y-70231000D03*
X135001000Y-107696000D03*
%TO.N,Net-(IC1-B1)*%
X166878000Y-81026000D03*
X109728000Y-98298000D03*
%TO.N,S*%
X103505000Y-98298000D03*
X102997000Y-92075000D03*
%TO.N,S0*%
X102780500Y-94869000D03*
X102870000Y-104013000D03*
X170688000Y-92456000D03*
X115570000Y-92456000D03*
X114681000Y-128143000D03*
X170180000Y-129413000D03*
%TO.N,S1*%
X115570000Y-93726000D03*
X101854000Y-104013000D03*
X170307000Y-130720500D03*
X170688000Y-93726000D03*
X101981000Y-97409000D03*
X114681000Y-129413000D03*
%TO.N,S3*%
X179578000Y-95123000D03*
X179578000Y-131953000D03*
X124206000Y-130683000D03*
X125095000Y-94996000D03*
%TO.N,S2*%
X125095000Y-93726000D03*
X100838000Y-99949000D03*
X179578000Y-93726000D03*
X124206000Y-129413000D03*
X100854497Y-104013000D03*
X179578000Y-130683000D03*
%TO.N,D16_2*%
X120650000Y-126873000D03*
X129794000Y-71247000D03*
%TO.N,D15_2*%
X129667000Y-75946000D03*
X120650000Y-125603000D03*
%TO.N,D14_2*%
X129794000Y-80899000D03*
X120650000Y-124333000D03*
%TO.N,D13_2*%
X120650000Y-123063000D03*
X129794000Y-85217000D03*
%TO.N,D12_2*%
X129789701Y-90419701D03*
X120650000Y-121793000D03*
%TO.N,D11_2*%
X120650000Y-120523000D03*
X129667000Y-95123000D03*
%TO.N,D10_2*%
X129794000Y-99949000D03*
X120650000Y-119253000D03*
%TO.N,D9_2*%
X120650000Y-117983000D03*
X129794000Y-104394000D03*
%TO.N,D8_1*%
X159004000Y-106172000D03*
X166624000Y-82296000D03*
%TO.N,D7_1*%
X159643299Y-110104701D03*
X166624000Y-83566000D03*
%TO.N,D6_1*%
X160020000Y-116205000D03*
X166751000Y-84836000D03*
%TO.N,D5_1*%
X160274000Y-120777000D03*
X166751000Y-86106000D03*
%TO.N,D4_1*%
X160147000Y-124968000D03*
X166751000Y-87376000D03*
%TO.N,D3_1*%
X159004000Y-128651000D03*
X166624000Y-88646000D03*
%TO.N,D2_1*%
X160020000Y-134239000D03*
X166624000Y-89916000D03*
%TO.N,D1_1*%
X159131000Y-137795000D03*
X166497000Y-91186000D03*
%TO.N,D16_1*%
X175768000Y-91186000D03*
X160274000Y-69384500D03*
%TO.N,D15_1*%
X160147000Y-74041000D03*
X175768000Y-89916000D03*
%TO.N,D14_1*%
X160147000Y-78740000D03*
X175768000Y-88519000D03*
%TO.N,D13_1*%
X160147000Y-83058000D03*
X175768000Y-87376000D03*
%TO.N,D12_1*%
X175768000Y-86106000D03*
X160147000Y-88519000D03*
%TO.N,D11_1*%
X160147000Y-93091000D03*
X175768000Y-84836000D03*
%TO.N,D10_1*%
X160020000Y-97790000D03*
X175768000Y-83566000D03*
%TO.N,D9_1*%
X160147000Y-102362000D03*
X175768000Y-82296000D03*
%TO.N,Net-(IC4-B1)*%
X166116000Y-117856000D03*
X108839000Y-90043000D03*
%TO.N,E7_2*%
X128016000Y-109855000D03*
X129794000Y-111125000D03*
%TO.N,E6_2*%
X129921000Y-116459000D03*
X126365000Y-110363000D03*
%TO.N,E5_2*%
X129988800Y-120709200D03*
X124968000Y-110617000D03*
%TO.N,E4_2*%
X129794000Y-125603000D03*
X123698000Y-110871000D03*
%TO.N,E3_2*%
X130033550Y-129944050D03*
X122174000Y-110871000D03*
%TO.N,E2_2*%
X121920000Y-112268000D03*
X129921000Y-134239000D03*
%TO.N,E1_2*%
X121666000Y-113411000D03*
X129921000Y-138303000D03*
%TO.N,E8_1*%
X158115000Y-109601000D03*
X166497000Y-119253000D03*
%TO.N,E7_1*%
X166497000Y-120523000D03*
X160184500Y-112839853D03*
%TO.N,E6_1*%
X158115000Y-118872000D03*
X166497000Y-121793000D03*
%TO.N,E5_1*%
X166497000Y-123063000D03*
X160147000Y-122682000D03*
%TO.N,E4_1*%
X158115000Y-127762000D03*
X166497000Y-124333000D03*
%TO.N,E3_1*%
X166497000Y-125603000D03*
X160142701Y-131186701D03*
%TO.N,E2_1*%
X158369000Y-136906000D03*
X166497000Y-126873000D03*
%TO.N,E1_1*%
X166497000Y-128143000D03*
X160655000Y-140589000D03*
%TO.N,E16_1*%
X179578000Y-128143000D03*
X160528000Y-71374000D03*
%TO.N,E15_1*%
X179578000Y-126873000D03*
X160528000Y-75946000D03*
%TO.N,E14_1*%
X160184500Y-80772000D03*
X179578000Y-125603000D03*
%TO.N,E13_1*%
X179578000Y-124333000D03*
X160401000Y-85090000D03*
%TO.N,E12_1*%
X179578000Y-123063000D03*
X160274000Y-90424000D03*
%TO.N,E11_1*%
X160401000Y-94996000D03*
X179578000Y-121793000D03*
%TO.N,E10_1*%
X179578000Y-120523000D03*
X160438500Y-99695000D03*
%TO.N,E9_1*%
X160401000Y-104267000D03*
X179578000Y-119253000D03*
%TO.N,e1*%
X143383000Y-138938000D03*
X146431000Y-138938000D03*
%TO.N,e2*%
X143383000Y-134239000D03*
X146431000Y-134239000D03*
%TO.N,e3*%
X146431000Y-130048000D03*
X143256000Y-130048000D03*
%TO.N,e4*%
X146431000Y-125476000D03*
X143256000Y-125476000D03*
%TO.N,e5*%
X143256000Y-121793000D03*
X146431000Y-121793000D03*
%TO.N,e6*%
X143256000Y-117221000D03*
X146558000Y-117221000D03*
%TO.N,e7*%
X143383000Y-112903000D03*
X146558000Y-112903000D03*
%TO.N,e8*%
X146558000Y-108331000D03*
X143383000Y-108331000D03*
%TO.N,e9*%
X143383000Y-104140000D03*
X146685000Y-104140000D03*
%TO.N,e10*%
X146685000Y-99568000D03*
X143383000Y-99568000D03*
%TO.N,e11*%
X146558000Y-95123000D03*
X143383000Y-95123000D03*
%TO.N,e12*%
X146558000Y-90551000D03*
X143383000Y-90551000D03*
%TO.N,e13*%
X146558000Y-85217000D03*
X143256000Y-85217000D03*
%TO.N,e14*%
X143383000Y-80645000D03*
X146812000Y-80645000D03*
%TO.N,e15*%
X143205000Y-76288000D03*
X146870520Y-76314514D03*
%TO.N,e16*%
X143305000Y-71689000D03*
X146756128Y-71711588D03*
%TD*%
D13*
%TO.N,+34V*%
X143420500Y-74205500D02*
X143420500Y-73533000D01*
X144108000Y-92355951D02*
X144108000Y-83910000D01*
X143391451Y-83193451D02*
X144108000Y-82476902D01*
X144145000Y-111748106D02*
X143340148Y-110943254D01*
X144108000Y-102960000D02*
X143342951Y-102194951D01*
X144108000Y-82476902D02*
X144108000Y-74893000D01*
X143945549Y-128070549D02*
X143183548Y-128070549D01*
X144653000Y-128778000D02*
X144653000Y-121158000D01*
X144108000Y-109755695D02*
X144108000Y-102960000D01*
X144145000Y-93767951D02*
X143420500Y-93043451D01*
X143340148Y-110523547D02*
X144108000Y-109755695D01*
X144653000Y-121158000D02*
X143274951Y-119779951D01*
X143274951Y-119779951D02*
X144145000Y-118909902D01*
X143342951Y-102194951D02*
X144145000Y-101392902D01*
X144108000Y-83910000D02*
X143391451Y-83193451D01*
X144145000Y-118909902D02*
X144145000Y-111748106D01*
X144145000Y-101392902D02*
X144145000Y-93767951D01*
X143420500Y-93043451D02*
X144108000Y-92355951D01*
X144653000Y-135500902D02*
X144653000Y-128778000D01*
X143315451Y-136838451D02*
X144653000Y-135500902D01*
X144526000Y-139991500D02*
X144526000Y-138049000D01*
X144108000Y-74893000D02*
X143420500Y-74205500D01*
X143340148Y-110943254D02*
X143340148Y-110523547D01*
X144526000Y-138049000D02*
X143315451Y-136838451D01*
X145415000Y-140880500D02*
X144526000Y-139991500D01*
X144653000Y-128778000D02*
X143945549Y-128070549D01*
%TO.N,-34V*%
X145542000Y-128650500D02*
X146430500Y-127762000D01*
X145542000Y-120823701D02*
X146556250Y-119809451D01*
X145542000Y-139700000D02*
X145542000Y-137795000D01*
X145542000Y-74945451D02*
X146520500Y-73966951D01*
X145542000Y-137795000D02*
X145542000Y-128650500D01*
X145542000Y-120823701D02*
X145542000Y-111885250D01*
X145542000Y-84010951D02*
X146520500Y-83032451D01*
X145542000Y-102832500D02*
X146520500Y-101854000D01*
X145542000Y-128650500D02*
X145542000Y-120823701D01*
X145542000Y-102832500D02*
X145542000Y-93809464D01*
X145542000Y-111885250D02*
X146566077Y-110861173D01*
X145542000Y-137795000D02*
X146481549Y-136855451D01*
X145542000Y-93809464D02*
X145542000Y-84010951D01*
X145542000Y-93809464D02*
X146520500Y-92830964D01*
X145542000Y-84010951D02*
X145542000Y-74945451D01*
X145542000Y-111885250D02*
X145542000Y-102832500D01*
%TO.N,+3.3V*%
X137414000Y-92202000D02*
X135128000Y-89916000D01*
X135128000Y-80137000D02*
X135128000Y-80010000D01*
X110104701Y-81411299D02*
X103378000Y-88138000D01*
X135509000Y-116877500D02*
X134149500Y-118237000D01*
X137414000Y-109982000D02*
X137287000Y-109982000D01*
X136779000Y-73279000D02*
X135001000Y-71501000D01*
X155194000Y-112911600D02*
X155261800Y-112843800D01*
X155194000Y-98806000D02*
X155194000Y-94623600D01*
X135128000Y-129413000D02*
X137287000Y-127254000D01*
X155261800Y-94555800D02*
X155261800Y-89594200D01*
X155194000Y-107950000D02*
X155194000Y-103640600D01*
X155194000Y-125984000D02*
X155194000Y-121793000D01*
X175895000Y-138049000D02*
X175895000Y-117983000D01*
X137287000Y-101092000D02*
X135255000Y-99060000D01*
X137414000Y-82423000D02*
X135128000Y-80137000D01*
X155194000Y-130556000D02*
X155194000Y-125984000D01*
X125304000Y-136017000D02*
X137160000Y-136017000D01*
X135001000Y-126619000D02*
X136652000Y-126619000D01*
X123927000Y-137394000D02*
X125304000Y-136017000D01*
X135001000Y-120777000D02*
X137033000Y-118745000D01*
X135509000Y-111887000D02*
X137414000Y-109982000D01*
X155321000Y-84336600D02*
X155388800Y-84268800D01*
X155304498Y-75839000D02*
X155284498Y-75819000D01*
X135001000Y-126619000D02*
X135001000Y-120777000D01*
X136398000Y-135255000D02*
X137160000Y-136017000D01*
X135128000Y-135255000D02*
X136398000Y-135255000D01*
X155284498Y-75819000D02*
X155284498Y-70521502D01*
X137033000Y-118401500D02*
X135509000Y-116877500D01*
X124178799Y-81411299D02*
X110104701Y-81411299D01*
X155261800Y-112843800D02*
X155261800Y-108017800D01*
X135128000Y-89916000D02*
X135128000Y-89662000D01*
X135128000Y-74930000D02*
X136779000Y-73279000D01*
X155194000Y-121793000D02*
X155194000Y-117094000D01*
X155194000Y-94623600D02*
X155261800Y-94555800D01*
X135128000Y-135255000D02*
X135128000Y-129413000D01*
X137287000Y-105410000D02*
X137287000Y-101092000D01*
X123927000Y-137394000D02*
X128138000Y-141605000D01*
X103378000Y-88138000D02*
X103378000Y-90805000D01*
X155261800Y-108017800D02*
X155194000Y-107950000D01*
X134149500Y-118237000D02*
X124370500Y-118237000D01*
X135128000Y-84709000D02*
X137414000Y-82423000D01*
X137414000Y-96774000D02*
X137414000Y-92202000D01*
X153416000Y-141605000D02*
X155194000Y-139827000D01*
X155261800Y-89594200D02*
X155321000Y-89535000D01*
X156972000Y-141605000D02*
X172339000Y-141605000D01*
X155321000Y-70485000D02*
X168529000Y-70485000D01*
X168529000Y-70485000D02*
X177673000Y-79629000D01*
X135001000Y-71501000D02*
X135001000Y-70231000D01*
X155261800Y-103572800D02*
X155261800Y-98873800D01*
X135128000Y-89662000D02*
X135128000Y-84709000D01*
X132969000Y-82169000D02*
X135128000Y-80010000D01*
X155194000Y-117094000D02*
X155194000Y-112911600D01*
X135128000Y-80010000D02*
X135128000Y-74930000D01*
X172339000Y-141605000D02*
X175895000Y-138049000D01*
X155194000Y-103640600D02*
X155261800Y-103572800D01*
X135255000Y-98933000D02*
X137414000Y-96774000D01*
X128138000Y-141605000D02*
X153416000Y-141605000D01*
X135509000Y-116877500D02*
X135509000Y-111887000D01*
X155194000Y-135255000D02*
X155194000Y-130556000D01*
X137287000Y-109982000D02*
X135001000Y-107696000D01*
X155388800Y-84268800D02*
X155304498Y-84184498D01*
X155304498Y-84184498D02*
X155304498Y-80480500D01*
X155194000Y-139827000D02*
X156972000Y-141605000D01*
X135001000Y-107696000D02*
X137287000Y-105410000D01*
X155261800Y-98873800D02*
X155194000Y-98806000D01*
X136652000Y-126619000D02*
X137287000Y-127254000D01*
X135255000Y-99060000D02*
X135255000Y-98933000D01*
X155194000Y-139827000D02*
X155194000Y-135255000D01*
X124936500Y-82169000D02*
X124178799Y-81411299D01*
X137033000Y-118745000D02*
X137033000Y-118401500D01*
X124936500Y-82169000D02*
X132969000Y-82169000D01*
X155321000Y-89535000D02*
X155321000Y-84336600D01*
X155284498Y-70521502D02*
X155321000Y-70485000D01*
X155304498Y-80480500D02*
X155304498Y-75839000D01*
%TO.N,E16_1*%
X179578000Y-128143000D02*
X183018000Y-124703000D01*
X183018000Y-117359000D02*
X163772000Y-98113000D01*
X183018000Y-124703000D02*
X183018000Y-117359000D01*
X163772000Y-98113000D02*
X163772000Y-74618000D01*
X163772000Y-74618000D02*
X160528000Y-71374000D01*
%TO.N,E15_1*%
X182568000Y-123883000D02*
X182568000Y-117545396D01*
X179578000Y-126873000D02*
X182568000Y-123883000D01*
X163322000Y-78241305D02*
X161026695Y-75946000D01*
X161026695Y-75946000D02*
X160528000Y-75946000D01*
X182568000Y-117545396D02*
X163322000Y-98299396D01*
X163322000Y-98299396D02*
X163322000Y-78241305D01*
%TO.N,E14_1*%
X182118000Y-117731792D02*
X162095000Y-97708792D01*
X179578000Y-125603000D02*
X182118000Y-123063000D01*
X162095000Y-82682500D02*
X160184500Y-80772000D01*
X182118000Y-123063000D02*
X182118000Y-117731792D01*
X162095000Y-97708792D02*
X162095000Y-82682500D01*
%TO.N,E13_1*%
X181653000Y-117903188D02*
X161645000Y-97895188D01*
X179578000Y-124333000D02*
X181653000Y-122258000D01*
X161645000Y-86334000D02*
X160401000Y-85090000D01*
X161645000Y-97895188D02*
X161645000Y-86334000D01*
X181653000Y-122258000D02*
X181653000Y-117903188D01*
%TO.N,E12_1*%
X181203000Y-118089584D02*
X161195000Y-98081584D01*
X181203000Y-121438000D02*
X181203000Y-118089584D01*
X179578000Y-123063000D02*
X181203000Y-121438000D01*
X161195000Y-98081584D02*
X161195000Y-91345000D01*
X161195000Y-91345000D02*
X160274000Y-90424000D01*
%TO.N,E11_1*%
X160745000Y-98267980D02*
X160745000Y-95340000D01*
X180753000Y-120618000D02*
X180753000Y-118275980D01*
X160745000Y-95340000D02*
X160401000Y-94996000D01*
X180753000Y-118275980D02*
X160745000Y-98267980D01*
X179578000Y-121793000D02*
X180753000Y-120618000D01*
%TO.N,E10_1*%
X161535624Y-99695000D02*
X160438500Y-99695000D01*
X180303000Y-119798000D02*
X180303000Y-118462376D01*
X180303000Y-118462376D02*
X161535624Y-99695000D01*
X179578000Y-120523000D02*
X180303000Y-119798000D01*
%TO.N,E9_1*%
X179578000Y-119253000D02*
X179578000Y-118373772D01*
X179578000Y-118373772D02*
X165471228Y-104267000D01*
X165471228Y-104267000D02*
X160401000Y-104267000D01*
%TD*%
M02*
