M48
; DRILL file {KiCad 7.0.6-0} date 2024 January 17, Wednesday 10:16:51
; FORMAT={-:-/ absolute / inch / decimal}
; #@! TF.CreationDate,2024-01-17T10:16:51-05:00
; #@! TF.GenerationSoftware,Kicad,Pcbnew,7.0.6-0
; #@! TF.FileFunction,MixedPlating,1,4
FMAT,2
INCH
; #@! TA.AperFunction,Plated,PTH,ViaDrill
T1C0.0157
; #@! TA.AperFunction,Plated,PTH,ComponentDrill
T2C0.0394
%
G90
G05
T1
X3.97Y-3.935
X3.9706Y-4.095
X4.01Y-4.095
X4.015Y-3.835
X4.0465Y-3.735
X4.05Y-4.095
X4.055Y-3.625
X4.07Y-3.575
X4.075Y-3.87
X4.285Y-3.545
X4.32Y-3.87
X4.505Y-3.82
X4.515Y-5.045
X4.515Y-5.095
X4.55Y-3.64
X4.55Y-3.69
X4.695Y-2.83
X4.695Y-2.875
X4.735Y-2.83
X4.735Y-2.875
X4.75Y-4.645
X4.75Y-4.695
X4.75Y-4.745
X4.75Y-4.795
X4.75Y-4.845
X4.75Y-4.895
X4.75Y-4.945
X4.75Y-4.995
X4.79Y-4.465
X4.8Y-4.42
X4.81Y-4.365
X4.87Y-4.365
X4.89Y-5.095
X4.89Y-5.145
X4.8965Y-4.655
X4.905Y-3.63
X4.9188Y-3.235
X4.92Y-2.99
X4.92Y-4.355
X4.925Y-3.69
X4.925Y-3.74
X4.975Y-4.345
X5.04Y-4.325
X5.105Y-2.99
X5.105Y-3.745
X5.1098Y-3.5598
X5.11Y-2.805
X5.11Y-3.185
X5.11Y-3.355
X5.11Y-3.935
X5.11Y-4.11
X5.11Y-4.375
X5.11Y-4.945
X5.115Y-4.585
X5.115Y-5.285
X5.115Y-5.445
X5.1177Y-4.7523
X5.1194Y-5.1159
X5.315Y-2.765
X5.315Y-4.24
X5.315Y-4.985
X5.32Y-3.15
X5.32Y-3.53
X5.32Y-5.325
X5.325Y-3.895
X5.335Y-4.6015
X5.385Y-2.885
X5.395Y-4.675
X5.4Y-5.355
X5.405Y-3.98
X5.405Y-5.01
X5.41Y-3.245
X5.41Y-3.63
X5.41Y-4.33
X5.6371Y-5.0421
X5.638Y-3.0035
X5.64Y-3.355
X5.64Y-4.615
X5.64Y-4.795
X5.64Y-4.94
X5.64Y-5.12
X5.6407Y-4.7157
X5.6419Y-2.8224
X5.6423Y-5.3873
X5.6433Y-4.3678
X5.6434Y-4.0234
X5.645Y-3.175
X5.645Y-3.565
X5.645Y-3.745
X5.645Y-3.92
X5.645Y-4.1
X5.645Y-4.265
X5.645Y-4.445
X5.645Y-5.285
X5.645Y-5.47
X5.6453Y-3.2753
X5.6465Y-2.895
X5.6465Y-3.6631
X5.725Y-5.5465
X5.73Y-5.5
X5.765Y-5.03
X5.765Y-4.795
X5.765Y-4.94
X5.765Y-5.12
X5.765Y-5.285
X5.765Y-5.47
X5.767Y-5.388
X5.7685Y-2.9121
X5.7685Y-3.269
X5.7685Y-3.6548
X5.7685Y-4.01
X5.7699Y-4.7169
X5.77Y-3.355
X5.77Y-3.565
X5.77Y-3.745
X5.77Y-4.265
X5.77Y-4.445
X5.77Y-4.615
X5.7703Y-4.3646
X5.775Y-3.92
X5.775Y-4.1
X5.7778Y-2.8233
X5.78Y-3.175
X5.7823Y-3.0045
X6.06Y-5.355
X6.07Y-4.685
X6.075Y-5.025
X6.11Y-3.89
X6.11Y-4.25
X6.11Y-4.61
X6.11Y-4.795
X6.11Y-4.96
X6.11Y-5.14
X6.11Y-5.325
X6.11Y-5.505
X6.1127Y-3.7227
X6.1127Y-4.0777
X6.1127Y-4.4427
X6.1136Y-2.985
X6.1144Y-3.1685
X6.115Y-2.775
X6.115Y-3.525
X6.1177Y-3.3177
X6.21Y-2.865
X6.225Y-4.315
X6.225Y-4.68
X6.225Y-5.03
X6.235Y-5.39
X6.26Y-4.18
X6.26Y-5.065
X6.265Y-5.425
X6.2852Y-4.3348
X6.3Y-3.85
X6.3Y-4.575
X6.3Y-5.285
X6.3048Y-5.1648
X6.305Y-2.915
X6.305Y-3.1
X6.305Y-3.27
X6.305Y-3.485
X6.305Y-3.665
X6.305Y-4.03
X6.305Y-4.83
X6.305Y-4.92
X6.3065Y-3.18
X6.3065Y-4.4425
X6.31Y-2.7317
X6.31Y-3.56
X6.31Y-4.755
X6.315Y-3.35
X6.315Y-3.74
X6.315Y-4.105
X6.3165Y-3.925
X6.32Y-2.81
X6.32Y-2.99
X6.325Y-5.535
X6.52Y-3.725
X6.54Y-4.64
X6.555Y-3.59
X6.555Y-4.695
X6.555Y-4.745
X6.555Y-4.795
X6.555Y-4.845
X6.555Y-4.895
X6.555Y-4.945
X6.555Y-4.995
X6.555Y-5.045
X6.56Y-3.24
X6.56Y-3.29
X6.56Y-3.49
X6.56Y-3.54
X6.565Y-3.34
X6.565Y-3.39
X6.565Y-3.44
X6.57Y-3.19
X6.58Y-3.94
X6.595Y-4.31
X6.7Y-5.095
X6.705Y-5.1465
X6.72Y-3.64
X6.72Y-3.69
X6.75Y-4.735
X6.755Y-3.245
X6.785Y-4.735
X6.795Y-5.4
X6.92Y-3.24
X6.92Y-3.29
X6.92Y-3.34
X6.92Y-3.39
X6.92Y-3.44
X6.92Y-3.485
X6.92Y-3.54
X6.92Y-3.59
X6.925Y-4.645
X6.995Y-3.135
X7.07Y-3.69
X7.07Y-3.745
X7.07Y-4.695
X7.07Y-4.745
X7.07Y-4.795
X7.07Y-4.845
X7.07Y-4.895
X7.07Y-4.945
X7.07Y-4.995
X7.07Y-5.045
X7.07Y-5.145
X7.07Y-5.195
T2
X3.889Y-2.9992
X3.889Y-3.0992
X3.9Y-3.535
X3.9Y-3.635
X3.9Y-3.735
X3.9Y-3.835
X3.9Y-3.935
X3.9Y-4.035
X3.9Y-4.135
X4.579Y-5.4092
X4.679Y-5.4092
X4.779Y-5.4092
X4.879Y-5.4092
X7.49Y-3.37
X7.49Y-3.47
X7.49Y-3.57
X7.49Y-3.67
X7.49Y-3.77
X7.49Y-3.87
X7.49Y-3.97
X7.49Y-4.07
X7.49Y-4.17
X7.49Y-4.27
X7.49Y-4.37
X7.49Y-4.47
X7.49Y-4.57
X7.49Y-4.67
X7.49Y-4.77
X7.49Y-4.87
T0
M30
